<svg width="81" height="70" viewBox="0 0 81 70" fill="none" xmlns="http://www.w3.org/2000/svg">
<path fill-rule="evenodd" clip-rule="evenodd" d="M61.3189 42.2072C65.2495 42.2072 68.436 39.0208 68.436 35.0901C68.436 31.1594 65.2495 27.973 61.3189 27.973C57.3882 27.973 54.2018 31.1594 54.2018 35.0901C54.2018 39.0208 57.3882 42.2072 61.3189 42.2072ZM61.3189 54.5848C72.0855 54.5848 80.8135 45.8567 80.8135 35.0901C80.8135 24.3235 72.0855 15.5955 61.3189 15.5955C50.5523 15.5955 41.8242 24.3235 41.8242 35.0901C41.8242 45.8567 50.5523 54.5848 61.3189 54.5848Z" fill="#71BAB7"/>
<path fill-rule="evenodd" clip-rule="evenodd" d="M61.3189 42.2072C65.2495 42.2072 68.436 39.0208 68.436 35.0901C68.436 31.1594 65.2495 27.973 61.3189 27.973C57.3882 27.973 54.2018 31.1594 54.2018 35.0901C54.2018 39.0208 57.3882 42.2072 61.3189 42.2072ZM61.3189 54.5848C72.0855 54.5848 80.8135 45.8567 80.8135 35.0901C80.8135 24.3235 72.0855 15.5955 61.3189 15.5955C50.5523 15.5955 41.8242 24.3235 41.8242 35.0901C41.8242 45.8567 50.5523 54.5848 61.3189 54.5848Z" fill="url(#paint0_linear_89_376)"/>
<path d="M5.55273 37.0458L5.45173 36.794C5.33482 36.4592 5.01869 36.2337 4.66381 36.2323C4.5725 36.2295 4.4812 36.2433 4.39541 36.2745C3.95892 36.4218 3.72301 36.8936 3.8669 37.3308C3.9091 37.465 3.9506 37.5909 4.0011 37.7168C4.12631 38.0426 4.44038 38.2564 4.78902 38.2536C4.88933 38.2543 4.98894 38.2377 5.08302 38.2031C5.29263 38.1242 5.4628 37.9644 5.55412 37.7597C5.64545 37.5549 5.65097 37.3218 5.56934 37.1129L5.55273 37.0458Z" fill="#242329"/>
<path d="M4.28639 32.7264C4.3611 32.7389 4.43789 32.7389 4.51259 32.7264C4.90274 32.7403 5.25002 32.4829 5.3517 32.1059C5.3517 31.9966 5.4105 31.888 5.44371 31.787V31.7877C5.51219 31.5753 5.49282 31.3443 5.39113 31.1457C5.28875 30.9472 5.11166 30.7978 4.8986 30.7307C4.81767 30.7037 4.73258 30.6899 4.6468 30.6885C4.28224 30.6906 3.95988 30.9278 3.85058 31.2758C3.80838 31.4017 3.76687 31.5359 3.73298 31.6618C3.66242 31.8762 3.68109 32.11 3.78555 32.3107C3.88932 32.5113 4.06987 32.6614 4.28638 32.7264L4.28639 32.7264Z" fill="#242329"/>
<path d="M8.03694 28.0052L8.30534 27.8039C8.60073 27.5901 8.72386 27.211 8.61111 26.8645C8.49835 26.5186 8.17461 26.2848 7.81074 26.2861C7.63296 26.2854 7.46001 26.3408 7.31612 26.4453L6.99722 26.6971C6.63751 26.9848 6.57731 27.5092 6.86301 27.871C7.02143 28.0709 7.26216 28.1885 7.51742 28.1899C7.70627 28.1885 7.8896 28.1235 8.03694 28.0052V28.0052Z" fill="#242329"/>
<path d="M21.3119 32.1225C21.4067 32.1211 21.5001 32.1038 21.5886 32.072C21.7989 31.998 21.9719 31.843 22.0673 31.6417C22.1635 31.4397 22.1752 31.2086 22.1005 30.9984L21.958 30.6207C21.8335 30.2983 21.5236 30.0852 21.1777 30.0845C21.0684 30.0832 20.9605 30.1025 20.8588 30.1427C20.4313 30.317 20.2252 30.8047 20.3981 31.2329V31.3C20.4016 31.3339 20.4016 31.3678 20.3981 31.401C20.459 31.8478 20.863 32.1667 21.3119 32.1225Z" fill="#242329"/>
<path d="M21.7623 35.586C21.6952 35.5735 21.6274 35.5735 21.561 35.586C21.166 35.5742 20.8166 35.8399 20.7219 36.2231V36.3234C20.7219 36.3905 20.7219 36.4493 20.6631 36.5081C20.598 36.7219 20.6209 36.9522 20.7267 37.1494C20.8318 37.3459 21.0117 37.4925 21.2255 37.5569C21.3057 37.5686 21.388 37.5686 21.4683 37.5569C21.8515 37.5728 22.1967 37.3279 22.3074 36.9612C22.3074 36.827 22.3828 36.7011 22.4167 36.5669H22.416C22.5038 36.1159 22.2119 35.6787 21.7623 35.586H21.7623Z" fill="#242329"/>
<path d="M18.6118 40.1475C18.4188 40.1489 18.2321 40.2174 18.0833 40.3405L17.983 40.4242L17.8571 40.5245C17.4891 40.8053 17.4178 41.3304 17.698 41.6991C17.8564 41.9101 18.1048 42.0346 18.369 42.0346C18.551 42.0318 18.728 41.9703 18.8719 41.8582C18.984 41.7814 19.0905 41.6977 19.1908 41.6064C19.5007 41.302 19.5263 40.8102 19.2496 40.4747C19.0968 40.2754 18.8629 40.1558 18.6118 40.1475L18.6118 40.1475Z" fill="#242329"/>
<path d="M12.6755 26.2677H13.011C13.4738 26.2677 13.8494 25.892 13.8494 25.4292C13.8494 24.9658 13.4738 24.5908 13.011 24.5908H12.6084C12.1449 24.5908 11.7693 24.9658 11.7693 25.4292C11.7693 25.892 12.1449 26.2677 12.6084 26.2677H12.6755Z" fill="#242329"/>
<path d="M8.68845 40.9201L8.50374 40.8025L8.42834 40.752V40.7527C8.05064 40.4878 7.52974 40.5777 7.26272 40.954C6.99571 41.3296 7.08218 41.8498 7.45572 42.1196L7.79953 42.3458C7.93442 42.433 8.09144 42.48 8.25194 42.48C8.62343 42.4793 8.94993 42.2345 9.05509 41.8775C9.15954 41.5213 9.01704 41.1387 8.70505 40.9374L8.68845 40.9201Z" fill="#242329"/>
<path d="M18.662 27.4254C18.7845 27.238 18.8267 27.009 18.7796 26.7904C18.7319 26.5711 18.5991 26.3802 18.4102 26.2598L18.0664 26.0419C17.9467 25.9534 17.8042 25.9008 17.6555 25.8911C17.2854 25.8953 16.9624 26.1422 16.86 26.4971C16.7576 26.8527 16.9001 27.2331 17.2114 27.4338L17.4632 27.6012L17.4625 27.6019C17.6009 27.698 17.7641 27.7506 17.9322 27.7527C18.2152 27.7741 18.4898 27.651 18.662 27.4255L18.662 27.4254Z" fill="#242329"/>
<path d="M13.5291 42.1777H13.1431H13.1438C12.6803 42.1777 12.3047 42.5534 12.3047 43.0162C12.3047 43.4796 12.6803 43.8553 13.1438 43.8553H13.5464H13.5457C13.7685 43.8421 13.9767 43.7411 14.1247 43.5744C14.2727 43.4077 14.3481 43.1884 14.3343 42.9657C14.3087 42.5354 13.9608 42.1943 13.5291 42.1778L13.5291 42.1777Z" fill="#242329"/>
<path d="M57.0316 16.935V9.11797C58.0948 8.84334 58.9561 8.06649 59.3379 7.03644C59.7197 6.00709 59.5738 4.85608 58.9463 3.95398C58.3196 3.05262 57.2909 2.51511 56.1924 2.51511C55.0946 2.51511 54.0659 3.05262 53.4384 3.95398C52.8117 4.85605 52.6657 6.00718 53.0476 7.03644C53.4294 8.06647 54.2907 8.84331 55.3539 9.11797V16.2716L49.3742 22.2594V16.9176C50.4374 16.6437 51.2986 15.8661 51.6804 14.8361C52.0623 13.8067 51.9163 12.6557 51.2889 11.7536C50.6622 10.8523 49.6335 10.3148 48.5349 10.3148C47.4371 10.3148 46.4084 10.8523 45.7817 11.7536C45.1543 12.6557 45.0083 13.8068 45.3902 14.8361C45.772 15.8661 46.6333 16.6437 47.6964 16.9176V29.1874L46.187 30.2859L44.4092 28.7765H41.9852V6.60286C43.0484 6.32823 43.9096 5.55069 44.2914 4.52133C44.6732 3.49197 44.5273 2.34027 43.8999 1.43887C43.2732 0.537509 42.2445 0 41.1459 0C40.0481 0 39.0194 0.537509 38.3927 1.43887C37.7653 2.34023 37.6193 3.49207 38.0012 4.52133C38.383 5.55059 39.2443 6.3282 40.3074 6.60286V28.7765H36.4916V15.5672L31.6106 12.372C31.8521 11.9119 31.9787 11.3994 31.9793 10.8792C31.9807 9.87401 31.5304 8.9207 30.7528 8.28299C29.9753 7.64448 28.9529 7.38922 27.9665 7.58638C26.9807 7.78353 26.1353 8.41304 25.6629 9.30126C25.1911 10.1888 25.142 11.2417 25.53 12.17C25.9174 13.0976 26.7012 13.8025 27.6649 14.0904C28.6285 14.3781 29.6703 14.2183 30.5038 13.6552L34.815 16.4735L34.8143 28.7766H31.0401V27.099H23.87C21.8099 23.9585 18.4916 21.8617 14.7698 21.3498C11.0487 20.8379 7.28767 21.9613 4.45633 24.4303C1.62499 26.8986 0 30.4714 0 34.2284C0 37.9847 1.62496 41.5577 4.45633 44.0258C7.28767 46.4946 11.0489 47.6181 14.7698 47.1063C18.4916 46.5944 21.8099 44.4983 23.87 41.357H31.0408V39.6795H35.2343V55.698H35.2336C34.1704 55.9726 33.3092 56.7502 32.9274 57.7795C32.5455 58.8096 32.6915 59.9606 33.3189 60.862C33.9457 61.7633 34.9743 62.3008 36.0729 62.3008C37.1707 62.3008 38.1994 61.7633 38.8268 60.862C39.4536 59.9606 39.6002 58.8095 39.2184 57.7795C38.8365 56.7502 37.9746 55.9726 36.9114 55.698V49.1815L42.8911 55.1612V62.4075C41.8278 62.6821 40.9666 63.4596 40.5848 64.489C40.2029 65.519 40.3489 66.6701 40.9763 67.5714C41.6031 68.4728 42.6317 69.0103 43.7303 69.0103C44.8281 69.0103 45.8568 68.4728 46.4835 67.5714C47.111 66.6701 47.2569 65.519 46.875 64.489C46.4932 63.4596 45.632 62.6821 44.5688 62.4075V54.4652L36.9117 46.8082V39.6795H45.1388V46.8586L49.4997 51.2195H49.5004C49.0605 52.0925 49.0231 53.1135 49.398 54.0156C49.773 54.9184 50.5229 55.6122 51.4512 55.9165C52.3803 56.2209 53.3952 56.1054 54.2314 55.5997C55.0678 55.094 55.6419 54.2494 55.8045 53.2858C55.9663 52.3222 55.7007 51.3357 55.076 50.5844C54.4514 49.8325 53.5299 49.3911 52.5532 49.3745C51.8593 49.3752 51.1842 49.5952 50.6238 50.0034L46.8577 46.2373L46.8584 39.6795H52.8381L58.1052 34.2284L52.8381 28.7773L49.3744 28.7766V24.5831L57.0316 16.935ZM54.5157 5.84815V5.84746C54.5157 5.16885 54.9238 4.55731 55.5506 4.29791C56.178 4.0385 56.8988 4.18169 57.3788 4.66178C57.8582 5.14117 58.0021 5.86267 57.7427 6.48937C57.4826 7.11611 56.8711 7.52494 56.1925 7.52494C55.2662 7.52494 54.5156 6.77369 54.5156 5.84741L54.5157 5.84815ZM39.4698 3.33221V3.33152C39.4698 2.6529 39.8786 2.04137 40.5053 1.78197C41.1321 1.52256 41.8536 1.66575 42.3329 2.14515C42.813 2.62523 42.9562 3.34675 42.6968 3.97344C42.4367 4.60019 41.8252 5.00902 41.1466 5.00902C40.7018 5.00902 40.2756 4.83193 39.9609 4.51788C39.6461 4.20313 39.4697 3.7763 39.4697 3.3315L39.4698 3.33221ZM28.6257 12.5576V12.5569C27.9471 12.5569 27.3356 12.1481 27.0762 11.5214C26.8161 10.8946 26.96 10.1731 27.4394 9.69377C27.9194 9.21369 28.641 9.07049 29.2677 9.3299C29.8944 9.5893 30.3032 10.2015 30.3032 10.8794C30.3032 11.3243 30.1261 11.7511 29.8114 12.0658C29.4973 12.3806 29.0705 12.557 28.6257 12.557L28.6257 12.5576ZM45.4495 65.6444C45.4495 66.323 45.0406 66.9346 44.4139 67.194C43.7871 67.4534 43.0656 67.3102 42.5863 66.8301C42.1062 66.3507 41.963 65.6292 42.2224 65.0025C42.4818 64.3758 43.0933 63.9669 43.772 63.9669C44.2168 63.9669 44.6436 64.144 44.9583 64.4581C45.2724 64.7728 45.4495 65.1996 45.4495 65.6444L45.4495 65.6444ZM37.7924 58.9349C37.7924 59.6135 37.3835 60.2251 36.7568 60.4845C36.13 60.7439 35.4085 60.6007 34.9292 60.1213C34.4491 59.6412 34.3059 58.9197 34.5653 58.293C34.8247 57.6663 35.437 57.2574 36.1149 57.2574C36.5597 57.2574 36.9865 57.4345 37.3012 57.7486C37.616 58.0633 37.7924 58.4901 37.7924 58.9349L37.7924 58.9349ZM52.5533 51.0515C53.2312 51.0515 53.8435 51.4597 54.1029 52.0871C54.3623 52.7138 54.2191 53.4354 53.739 53.9147C53.2596 54.3941 52.5381 54.538 51.9114 54.2786C51.2846 54.0184 50.8758 53.4069 50.8758 52.7283C50.8758 51.802 51.6271 51.0515 52.5534 51.0515L52.5533 51.0515ZM46.8587 13.6799C46.8587 13.0012 47.2669 12.3897 47.8943 12.1296C48.5211 11.8702 49.2426 12.0141 49.7219 12.4935C50.2013 12.9736 50.3452 13.6944 50.0858 14.3218C49.8257 14.9485 49.2142 15.3567 48.5355 15.3567C47.6093 15.3567 46.8587 14.6061 46.8587 13.6798L46.8587 13.6799ZM13.0094 45.5493C10.0065 45.5493 7.12663 44.356 5.00295 42.2329C2.87997 40.1092 1.68726 37.2293 1.68726 34.2271C1.68726 31.2242 2.87986 28.3443 5.00295 26.2206C7.12663 24.0976 10.0065 22.9049 13.0094 22.9049C16.0117 22.9049 18.8915 24.0975 21.0152 26.2206C23.1382 28.3443 24.3316 31.2242 24.3316 34.2271C24.3337 37.23 23.1411 40.1113 21.0173 42.235C18.8936 44.3587 16.0124 45.5514 13.0094 45.5493ZM24.7929 39.6783H24.7922C26.4144 36.225 26.4144 32.2288 24.7922 28.7755H29.3628V39.6783H24.7929ZM55.7734 34.2273L52.1249 38.0015L31.0404 38.0008V37.1623H47.8136V35.4848H31.0404V30.4529H43.7717L46.0863 32.4154L48.7703 30.4529H52.1246L55.7734 34.2273Z" fill="#242329"/>
<defs>
<linearGradient id="paint0_linear_89_376" x1="41.8242" y1="15.5955" x2="41.8242" y2="54.5848" gradientUnits="userSpaceOnUse">
<stop stop-color="#3BA8A3"/>
<stop offset="1" stop-color="#1C7874"/>
</linearGradient>
</defs>
</svg>
