<svg width="81" height="70" viewBox="0 0 81 70" fill="none" xmlns="http://www.w3.org/2000/svg">
<circle cx="45.015" cy="27.2923" r="20.9124" fill="#71BAB7"/>
<circle cx="45.015" cy="27.2923" r="20.9124" fill="url(#paint0_linear_89_353)"/>
<path d="M66.4656 32.0734C65.6765 32.08 64.9115 32.3417 64.2835 32.8185C63.6547 33.2961 63.1987 33.9639 62.9811 34.7222H31.6421V36.7365H46.8484L53.8979 43.786L53.8971 43.7852C54.0873 43.9737 54.3448 44.0784 54.6123 44.0775H57.2411C57.5667 45.213 58.4239 46.1201 59.5387 46.5104C60.6542 46.9007 61.8895 46.7271 62.8529 46.0436C63.8173 45.36 64.3896 44.2519 64.3896 43.07C64.3896 41.8888 63.8173 40.7798 62.8529 40.0964C61.8894 39.4128 60.6542 39.2392 59.5387 39.6296C58.424 40.0208 57.5668 40.9279 57.2411 42.0633H55.0258L49.6881 36.7256H62.9707C63.2216 37.5994 63.7897 38.347 64.563 38.8229C65.3372 39.2997 66.2608 39.47 67.1539 39.3005C68.0459 39.1311 68.8433 38.6344 69.3891 37.9084C69.9349 37.1816 70.1899 36.2779 70.1035 35.3733C70.0171 34.4687 69.5968 33.629 68.9232 33.0185C68.2503 32.408 67.374 32.0708 66.4652 32.0733L66.4656 32.0734ZM60.746 41.4487C61.4113 41.4446 62.0135 41.8433 62.2702 42.4579C62.5269 43.0718 62.3873 43.7803 61.9163 44.2512C61.4454 44.7214 60.7369 44.8618 60.123 44.6051C59.5084 44.3484 59.1105 43.7462 59.1146 43.0801C59.1146 42.183 59.8381 41.4545 60.7352 41.4487H60.746ZM66.4656 37.3603C65.8003 37.3603 65.2014 36.9591 64.9481 36.3444C64.6947 35.7298 64.8367 35.0229 65.3085 34.5544C65.7795 34.0859 66.4872 33.948 67.1002 34.2055C67.714 34.4622 68.1111 35.0644 68.1069 35.7289C68.1011 36.6318 67.3677 37.3603 66.4656 37.3603V37.3603Z" fill="#242329"/>
<path d="M77.1596 21.0675C76.3705 21.0708 75.6038 21.3299 74.9743 21.8059C74.3438 22.281 73.8853 22.948 73.6652 23.7055H52.2459C51.9801 23.7097 51.7268 23.8185 51.5416 24.0079L48.5206 26.9783L29.6687 26.9791V28.9934L48.9833 28.9926C49.2474 28.9917 49.5008 28.8871 49.6885 28.701L52.7095 25.68H73.6654C73.9163 26.553 74.4844 27.3006 75.2586 27.7774C76.0319 28.2533 76.9555 28.4236 77.8485 28.2541C78.7415 28.0847 79.5388 27.5888 80.0838 26.862C80.6295 26.1352 80.8845 25.2315 80.7981 24.3269C80.7118 23.4223 80.2915 22.5826 79.6186 21.9721C78.945 21.3624 78.0687 21.0252 77.1601 21.0269L77.1596 21.0675ZM77.1596 26.3543C76.4942 26.3585 75.8921 25.9598 75.6354 25.346C75.3787 24.7313 75.5183 24.0228 75.9892 23.5518C76.4594 23.0817 77.1679 22.9413 77.7826 23.1979C78.3964 23.4546 78.7951 24.0568 78.7909 24.723C78.786 25.6217 78.0583 26.3485 77.1596 26.3543Z" fill="#242329"/>
<path d="M44.1977 50.9859C44.2193 52.2036 43.7542 53.3798 42.9053 54.2535C42.0564 55.1265 40.8943 55.6257 39.6765 55.639H19.1335C19.2914 54.2593 19.0571 52.863 18.4582 51.6105L27.189 46.4042C28.4117 45.6791 29.2955 44.4979 29.647 43.1215C29.9975 41.7443 29.7882 40.2848 29.0622 39.063C28.337 37.8412 27.1567 36.9574 25.7794 36.6059C24.4131 36.2563 22.9628 36.4664 21.7518 37.1899L15.1051 41.0872V6.70743C15.086 5.48475 15.5528 4.30438 16.4017 3.42468C17.2515 2.54505 18.4143 2.03837 19.637 2.01428H20.3323H20.3314C20.3306 3.12233 20.7277 4.1947 21.4495 5.03527C22.0741 5.70808 22.9388 6.10596 23.8566 6.14332H34.7327H34.7319C35.6489 6.10594 36.5144 5.70806 37.139 5.03527C37.8608 4.19468 38.257 3.12233 38.2561 2.01428H39.6159C40.8394 2.03837 42.0032 2.54505 42.8544 3.42386C43.705 4.30349 44.1734 5.48381 44.1576 6.70724V12.5174H46.1719V6.70724C46.1902 4.94881 45.5107 3.25438 44.2814 1.99682C43.0521 0.740076 41.3742 0.021583 39.6159 0H19.6766C17.9131 0.01329 16.2278 0.728466 14.9919 1.98687C13.7559 3.24528 13.0723 4.943 13.0906 6.70728V31.0461L6.85681 34.2283C0.684491 37.672 0 41.1765 0 47.8024V69.7363H2.01345V47.8024C2.01345 41.5893 2.51681 38.9504 7.84448 36L13.0907 33.3014V42.2738L5.37679 46.8455L6.38351 48.5774L22.7485 38.9205C23.776 38.3075 25.0519 38.2884 26.0968 38.8715C27.1417 39.4538 27.7963 40.5502 27.8137 41.7464C27.8311 42.9425 27.2098 44.0572 26.1823 44.6711L16.6558 50.3201L15.7089 50.8841L16.3535 51.7803C17.2231 53.0811 17.4698 54.7007 17.0288 56.2009C16.1824 58.8298 13.0907 61.1556 8.0564 62.9282L8.7209 64.8312C13.988 62.9781 17.2805 60.5409 18.5896 57.6105L20.1403 57.6114V69.7361H22.1546V57.6513H39.6766C41.4209 57.6356 43.0872 56.9295 44.3124 55.6877C45.5368 54.446 46.2204 52.7697 46.2121 51.0254V40.2505H44.1978L44.1977 50.9859ZM35.7187 3.59465C35.4745 3.86959 35.1372 4.04568 34.7726 4.08804H23.9162C23.53 4.05814 23.1703 3.88204 22.9095 3.59465C22.564 3.13947 22.3696 2.58626 22.3555 2.01396H36.2526C36.2484 2.58461 36.0607 3.13864 35.7185 3.59465H35.7187Z" fill="#242329"/>
<path d="M23.1235 17.7329H25.5806V19.7472H23.1235V17.7329Z" fill="#242329"/>
<path d="M18.2163 17.7329H20.6734V19.7472H18.2163V17.7329Z" fill="#242329"/>
<path d="M47.3908 17.7331H28.0356V19.7474H55.5471C55.8735 20.8828 56.7299 21.7899 57.8455 22.1802C58.9602 22.5714 60.1954 22.397 61.1597 21.7134C62.1233 21.0298 62.6964 19.9217 62.6964 18.7398C62.6964 17.5587 62.1233 16.4505 61.1597 15.7671C60.1954 15.0835 58.9602 14.9091 57.8455 15.3003C56.73 15.6907 55.8736 16.5978 55.5471 17.7331H49.9578L55.9092 10.1901H63.9655C64.292 11.3264 65.1483 12.2335 66.264 12.6238C67.3787 13.0142 68.6147 12.8406 69.5782 12.157C70.5417 11.4734 71.1148 10.3653 71.1148 9.18342C71.1148 8.00152 70.5417 6.89328 69.5782 6.20986C68.6147 5.52626 67.3786 5.35266 66.264 5.74305C65.1484 6.13427 64.2921 7.04049 63.9655 8.17672H54.9026L47.3908 17.7331ZM59.042 17.1085C59.7066 17.1085 60.3054 17.5097 60.5596 18.1243C60.8129 18.739 60.6701 19.4458 60.1991 19.9143C59.7273 20.3828 59.0196 20.5207 58.4066 20.264C57.7936 20.0065 57.3966 19.4051 57.4007 18.7398C57.4057 17.8377 58.1392 17.1085 59.042 17.1085V17.1085ZM67.4705 7.55219C68.1308 7.55219 68.7256 7.95007 68.9781 8.55892C69.2306 9.1686 69.091 9.87048 68.6242 10.3373C68.1574 10.8041 67.4555 10.9437 66.8467 10.6911C66.237 10.4386 65.8391 9.84308 65.8391 9.18357C65.8391 8.75081 66.011 8.33633 66.3167 8.02982C66.6232 7.72415 67.0377 7.55221 67.4705 7.55221L67.4705 7.55219Z" fill="#242329"/>
<path d="M23.1641 26.979H27.1917V28.9933H23.1641V26.979Z" fill="#242329"/>
<defs>
<linearGradient id="paint0_linear_89_353" x1="24.1025" y1="6.37988" x2="24.1025" y2="48.2048" gradientUnits="userSpaceOnUse">
<stop stop-color="#3BA8A3"/>
<stop offset="1" stop-color="#1C7874"/>
</linearGradient>
</defs>
</svg>
