<svg width="81" height="70" viewBox="0 0 81 70" fill="none" xmlns="http://www.w3.org/2000/svg">
<path d="M48.2401 45.1709C44.0356 46.2975 40.1883 42.4502 41.3149 38.2457L48.9193 9.8658C50.0458 5.66136 55.3014 4.25313 58.3792 7.331L79.1548 28.1066C82.2327 31.1844 80.8244 36.44 76.62 37.5665L48.2401 45.1709Z" fill="#71BAB7"/>
<path d="M48.2401 45.1709C44.0356 46.2975 40.1883 42.4502 41.3149 38.2457L48.9193 9.8658C50.0458 5.66136 55.3014 4.25313 58.3792 7.331L79.1548 28.1066C82.2327 31.1844 80.8244 36.44 76.62 37.5665L48.2401 45.1709Z" fill="url(#paint0_linear_89_362)"/>
<path d="M51.0588 30.1319C51.0022 28.5613 50.3394 27.0734 49.2099 25.9806C48.0797 24.8884 46.5704 24.276 44.9984 24.2725H44.1617C43.5548 20.8232 41.4939 17.8015 38.5031 15.978V15.9027V12.5543C38.5031 12.0925 38.1282 11.7176 37.6663 11.7176C37.2037 11.7176 36.8295 12.0925 36.8295 12.5543V15.1489C33.8829 13.9214 30.5682 13.9214 27.6215 15.1489V10.8802C27.6215 10.4183 27.2473 10.0435 26.7848 10.0435C26.3229 10.0435 25.948 10.4183 25.948 10.8802V15.9022V15.9775V15.9781C22.9543 17.7995 20.8894 20.822 20.2813 24.2727H6.05204C4.48137 24.2782 2.97423 24.8913 1.84608 25.9835C0.717964 27.0757 0.0565578 28.5629 0 30.1322V65.2864C0 66.3966 0.441168 67.4612 1.22616 68.2461C2.01114 69.0304 3.07507 69.4716 4.18519 69.4716H46.8739C47.9841 69.4716 49.0481 69.0304 49.833 68.2461C50.618 67.4612 51.0591 66.3965 51.0591 65.2864L51.0588 30.1319ZM44.9984 25.9467C46.1286 25.9432 47.216 26.3768 48.0335 27.157C48.8509 27.9371 49.3349 29.003 49.3846 30.1319C49.3887 30.2016 49.3887 30.2714 49.3846 30.3411V30.7595C49.3804 31.113 49.3321 31.4644 49.2424 31.8061C49.0104 32.7589 48.465 33.6068 47.6945 34.2135C46.9233 34.8211 45.9712 35.1518 44.9901 35.1539H40.5708C41.5961 34.1928 42.4459 33.0591 43.0818 31.8062C43.3587 31.267 43.5941 30.7071 43.7847 30.1319C44.1734 28.9141 44.3688 27.6431 44.3625 26.3652V25.9468L44.9984 25.9467ZM32.2252 15.9027C34.6374 15.902 36.9759 16.7346 38.8441 18.2598C40.7122 19.7856 41.9965 21.9092 42.479 24.2726C42.5956 24.8242 42.6654 25.3841 42.6882 25.9468V26.3652C42.6861 27.6542 42.4444 28.9315 41.9771 30.1319C41.7506 30.7146 41.4703 31.2752 41.1396 31.8062C40.3208 33.1531 39.2078 34.2979 37.8836 35.1539H34.268C34.4316 34.9688 34.5048 34.7203 34.4689 34.4759C34.3985 34.0699 34.0436 33.7751 33.6314 33.7813H33.4809L33.0039 33.8483H32.6524C32.4301 33.8607 32.2223 33.9615 32.0746 34.1286C31.9268 34.295 31.8516 34.5132 31.8654 34.7355C31.8757 34.8736 31.922 35.0061 31.9993 35.12H26.559C25.2348 34.2639 24.1219 33.1193 23.303 31.7723C22.9723 31.2414 22.692 30.6815 22.4656 30.0981C22.0051 28.9072 21.7662 27.6423 21.7627 26.3651V25.9467C21.7772 25.3847 21.8387 24.8248 21.9471 24.2725C22.4304 21.905 23.718 19.7779 25.5917 18.2523C27.4655 16.7265 29.8093 15.8959 32.225 15.9028L32.2252 15.9027ZM6.069 25.9467H20.089V26.3651C20.091 27.6444 20.2947 28.9155 20.6917 30.1318C20.8829 30.7069 21.1177 31.2668 21.3945 31.806C22.0304 33.0591 22.8803 34.1928 23.9062 35.1537H6.06932C5.08825 35.1517 4.13611 34.821 3.36498 34.2134C2.59448 33.6065 2.04907 32.7587 1.81709 31.806C1.72734 31.4642 1.67971 31.1128 1.67487 30.7593V30.3409C1.67073 30.2712 1.67073 30.2015 1.67487 30.1318C1.72458 29.0016 2.20993 27.9341 3.02945 27.154C3.84826 26.3738 4.93775 25.9409 6.06925 25.9465L6.069 25.9467ZM49.3852 48.1279H42.9906C42.7165 47.0668 41.9405 46.2066 40.9125 45.8255C39.8852 45.4444 38.7364 45.5908 37.8368 46.2163C36.9365 46.8425 36.4008 47.8691 36.4008 48.9648C36.4008 50.0605 36.9365 51.0871 37.8368 51.7133C38.7364 52.3388 39.8853 52.4852 40.9125 52.1041C41.9405 51.723 42.7165 50.8627 42.9906 49.8017H49.3852V53.5684H37.0393C35.8739 53.5663 34.7576 53.1024 33.934 52.2787C33.1103 51.4551 32.6471 50.3386 32.645 49.1741V48.7557C32.647 47.591 33.1103 46.4746 33.934 45.651C34.7576 44.8273 35.8741 44.3634 37.0393 44.3613H49.3852V48.1279ZM41.4339 48.9647C41.4339 49.642 41.0259 50.2523 40.4003 50.5112C39.7748 50.7708 39.0547 50.6272 38.5756 50.1487C38.0972 49.6696 37.9536 48.9495 38.2132 48.324C38.4721 47.6985 39.0824 47.2905 39.7597 47.2905C40.2036 47.2905 40.6296 47.4672 40.943 47.7814C41.2572 48.0948 41.4339 48.5208 41.4339 48.9647L41.4339 48.9647ZM49.3852 42.6868H37.0393C35.43 42.6895 33.8884 43.3295 32.7505 44.4666C31.6127 45.6044 30.9726 47.1467 30.9707 48.7554V49.1738C30.9728 50.7825 31.6128 52.3248 32.7505 53.4627C33.8882 54.6005 35.4299 55.2405 37.0393 55.2425H49.3852V65.2864C49.3852 66.6735 48.2612 67.7974 46.8742 67.7974H15.9035V63.403L19.0006 60.306V60.3067C19.4652 60.5511 19.9823 60.6809 20.507 60.6829C21.3956 60.6829 22.2469 60.3301 22.8745 59.7026C23.5028 59.0743 23.8556 58.223 23.8556 57.3351C23.8556 56.4472 23.5028 55.5953 22.8745 54.9676C22.2469 54.3394 21.3957 53.9866 20.507 53.9866C19.6192 53.9866 18.7679 54.3394 18.1396 54.9676C17.512 55.5952 17.1592 56.4472 17.1592 57.3351C17.1564 58.0041 17.358 58.6579 17.7364 59.2095L14.2298 62.7084V67.7974H9.2071V57.2929C10.2931 57.1506 11.2411 56.4865 11.7449 55.5138C12.2489 54.5417 12.2455 53.3845 11.7353 52.4153C11.2258 51.4459 10.2744 50.7873 9.18771 50.6513C8.10102 50.5153 7.01642 50.9192 6.28382 51.7338C5.55062 52.5478 5.26272 53.6683 5.51195 54.7349C5.76119 55.8009 6.51579 56.6784 7.53353 57.0837V67.7973H4.18513C2.79811 67.7973 1.67415 66.6733 1.67415 65.2863V34.9272C2.81331 36.1409 4.40394 36.8286 6.06851 36.8272H44.9891C46.6537 36.8285 48.2444 36.1409 49.3835 34.9272L49.3852 42.6868ZM18.8334 57.3351C18.8334 56.6578 19.2407 56.0475 19.8662 55.7886C20.4918 55.529 21.2118 55.6726 21.6909 56.151C22.1694 56.6302 22.313 57.3503 22.0541 57.9757C21.7945 58.6012 21.1842 59.0086 20.5069 59.0086C19.5824 59.0086 18.8334 58.2595 18.8334 57.335L18.8334 57.3351ZM8.78944 55.6608H8.78875C8.11147 55.6608 7.50114 55.2528 7.24224 54.6273C6.98335 54.0018 7.12625 53.2817 7.6054 52.8033C8.08384 52.3242 8.80393 52.1813 9.42939 52.4402C10.0549 52.6991 10.4629 53.3101 10.4629 53.9867C10.4629 54.4306 10.2862 54.8566 9.97274 55.1707C9.65862 55.4848 9.23263 55.6609 8.78871 55.6609L8.78944 55.6608Z" fill="#242329"/>
<path d="M36.3018 20.0292H36.6194L36.8369 20.2052H36.9205L36.9211 20.2046C37.073 20.3261 37.2622 20.3917 37.4569 20.3889C37.7068 20.3868 37.9436 20.2736 38.101 20.0789C38.3903 19.7227 38.3378 19.2 37.9843 18.9073C37.7165 18.6912 37.4369 18.4903 37.1469 18.3046C36.9605 18.1706 36.7271 18.1188 36.5014 18.1617C36.2763 18.2045 36.0782 18.3377 35.9539 18.531C35.8296 18.7243 35.7902 18.9597 35.8448 19.1834C35.8993 19.4064 36.0436 19.597 36.2431 19.7109L36.3018 20.0292Z" fill="#242329"/>
<path d="M38.0092 32.4668C38.1632 32.5986 38.3593 32.6697 38.5616 32.6677C38.8032 32.6656 39.0324 32.5586 39.1891 32.3749C39.4163 32.1091 39.6255 31.8295 39.8174 31.5382C40.0784 31.1564 39.981 30.6358 39.5992 30.3742C39.4619 30.2782 39.2989 30.2257 39.1312 30.2237C38.8543 30.2216 38.594 30.3562 38.4359 30.5834V30.6338C38.2965 30.8347 38.146 31.0273 37.9837 31.2116H37.9844C37.807 31.3739 37.7082 31.6045 37.7131 31.8447C37.7179 32.085 37.8256 32.3114 38.0092 32.4668Z" fill="#242329"/>
<path d="M40.5644 26.4665H40.6397C40.862 26.4472 41.067 26.3402 41.2106 26.1689C41.3536 25.9977 41.4219 25.7761 41.4012 25.5538C41.4012 25.219 41.3176 24.8758 41.2507 24.541C41.1699 24.1454 40.8178 23.863 40.4132 23.8713H40.2544C40.0356 23.9141 39.8423 24.0418 39.718 24.2275C39.5937 24.4132 39.5488 24.6404 39.593 24.8592C39.6531 25.1354 39.6952 25.415 39.7187 25.696C39.7539 26.1351 40.1239 26.472 40.5644 26.4665V26.4665Z" fill="#242329"/>
<path d="M25.6128 22.0729C25.8704 22.0743 26.1141 21.9569 26.2742 21.7546L26.3999 21.5958H26.442H26.4413C26.5546 21.4557 26.6747 21.3217 26.801 21.194C27.1228 20.8612 27.1131 20.331 26.7803 20.0093C26.4475 19.6882 25.9173 19.6972 25.5963 20.0307C25.3595 20.2751 25.1358 20.5326 24.9266 20.8005C24.6456 21.1657 24.7126 21.6897 25.0771 21.9721C25.238 22.0688 25.4278 22.104 25.6128 22.0729V22.0729Z" fill="#242329"/>
<path d="M31.2984 18.8823H32.227C32.6896 18.8823 33.0644 18.5074 33.0644 18.0449C33.0644 17.583 32.6896 17.2081 32.227 17.2081C31.8859 17.2067 31.5449 17.226 31.2059 17.2668C30.744 17.2923 30.3898 17.6872 30.4154 18.1498C30.4409 18.6117 30.8358 18.9658 31.2984 18.9403V18.8823Z" fill="#242329"/>
<path d="M23.9398 28.3754H24.0572C24.5149 28.3105 24.8332 27.8873 24.7683 27.4296C24.7641 27.3875 24.7641 27.3454 24.7683 27.3039V27.1948C24.7724 27.1534 24.7724 27.1113 24.7683 27.0699C24.7683 26.8476 24.6806 26.6349 24.5232 26.4775C24.3665 26.3208 24.1531 26.2324 23.9315 26.2324C23.4689 26.2324 23.0947 26.6073 23.0947 27.0699C23.0947 27.413 23.0947 27.7561 23.1866 28.091C23.3723 28.3078 23.6567 28.4155 23.9398 28.3754L23.9398 28.3754Z" fill="#242329"/>
<path d="M25.948 31.9737C25.6367 32.314 25.6595 32.8415 25.9978 33.1536C26.2656 33.3835 26.5446 33.5989 26.8352 33.7984C26.9774 33.9054 27.1507 33.9641 27.3289 33.9655C27.5967 33.9662 27.8487 33.8391 28.0068 33.6224C28.1387 33.4429 28.1925 33.2185 28.158 32.9982C28.1235 32.7787 28.0027 32.5812 27.8225 32.4507C27.6133 32.3002 27.4207 32.1408 27.2281 31.9737H27.2287C27.0741 31.8294 26.8711 31.7486 26.6592 31.7479C26.3996 31.7072 26.1365 31.7907 25.948 31.9737L25.948 31.9737Z" fill="#242329"/>
<path d="M26.7855 8.36975C27.0078 8.36975 27.2204 8.28207 27.3772 8.12466C27.5346 7.96794 27.6223 7.7546 27.6223 7.53298V5.85874C27.6223 5.39686 27.2481 5.02197 26.7855 5.02197C26.3236 5.02197 25.9487 5.39686 25.9487 5.85874V7.53298C25.9487 7.7546 26.0364 7.96793 26.1938 8.12466C26.3505 8.28207 26.5639 8.36975 26.7855 8.36975Z" fill="#242329"/>
<path d="M32.6439 11.7174C32.8655 11.7174 33.0788 11.6291 33.2355 11.4724C33.3923 11.3149 33.4806 11.1023 33.4806 10.88V2.51031C33.4806 2.04774 33.1057 1.67285 32.6439 1.67285C32.1813 1.67285 31.8064 2.04774 31.8064 2.51031V10.88C31.8064 11.1023 31.8948 11.3149 32.0515 11.4724C32.2089 11.6291 32.4215 11.7174 32.6439 11.7174Z" fill="#242329"/>
<path d="M37.6673 8.36981C37.889 8.36981 38.1023 8.28213 38.259 8.12472C38.4164 7.968 38.5041 7.75466 38.5041 7.53304V0.836773C38.5041 0.374201 38.1292 0 37.6673 0C37.2048 0 36.8306 0.374201 36.8306 0.836773V7.53304C36.8306 7.75466 36.9182 7.96799 37.0757 8.12472C37.2324 8.28213 37.445 8.36981 37.6673 8.36981Z" fill="#242329"/>
<defs>
<linearGradient id="paint0_linear_89_362" x1="41.1162" y1="5.67139" x2="41.1162" y2="45.3696" gradientUnits="userSpaceOnUse">
<stop stop-color="#3BA8A3"/>
<stop offset="1" stop-color="#1C7874"/>
</linearGradient>
</defs>
</svg>
