<svg width="57" height="19" viewBox="0 0 57 19" fill="none" xmlns="http://www.w3.org/2000/svg">
<path d="M21.641 0.33828L14.1787 18.7132H9.31L5.63825 4.04709C5.415 3.14501 5.22263 2.81409 4.54337 2.43414C3.43662 1.81396 1.60787 1.233 0 0.870211L0.10925 0.33828H7.94675C8.45891 0.33775 8.95439 0.526207 9.34374 0.869634C9.7331 1.21306 9.99068 1.68883 10.07 2.21107L12.0104 12.8448L16.8031 0.33828H21.641ZM40.7194 12.7149C40.7384 7.86376 34.2214 7.59657 34.2665 5.42962C34.2808 4.77022 34.8887 4.06915 36.2188 3.89021C37.7774 3.73742 39.3472 4.02199 40.7621 4.71384L41.5696 0.816282C40.192 0.281765 38.7331 0.00533553 37.2614 0C32.7085 0 29.5046 2.50032 29.4761 6.07676C29.4476 8.72171 31.7633 10.1949 33.5089 11.0774C35.3044 11.977 35.9076 12.5555 35.8981 13.3596C35.8862 14.595 34.4684 15.1368 33.1431 15.1588C30.8275 15.1956 29.4856 14.5141 28.4121 13.9994L27.5785 18.0244C28.6544 18.5343 30.6399 18.9804 32.699 19C37.5369 19 40.7028 16.534 40.7194 12.7149ZM52.7392 18.7132H57L53.2831 0.33828H49.3501C48.9299 0.334261 48.5182 0.460645 48.1684 0.701043C47.8186 0.941442 47.5468 1.28476 47.3884 1.68649L40.4795 18.7132H45.315L46.2769 15.9677H52.1859L52.7392 18.7132ZM47.6021 12.2026L50.0246 5.30215L51.4211 12.2026H47.6021ZM28.2221 0.33828L24.415 18.7132H19.8075L23.6194 0.33828H28.2221Z" fill="#15141A"/>
</svg>
