<svg width="105" height="38" viewBox="0 0 105 38" fill="none" xmlns="http://www.w3.org/2000/svg">
<path fill-rule="evenodd" clip-rule="evenodd" d="M28.6279 1.2855C26.2296 1.91462 22.9078 2.78168 21.2461 3.21207L18.2248 3.9945L17.0677 5.88721L15.9108 7.77992L13.5031 7.87454L11.0953 7.96917L8.86535 10.1819C7.63909 11.3989 5.14258 13.8515 3.3178 15.6317L0 18.8688L5.55664 24.3438L11.1135 29.8185L13.5143 29.8718L15.9152 29.9244L16.8925 31.5981C17.43 32.5184 17.994 33.3955 18.1461 33.5471C18.3999 33.801 20.9152 34.5028 29.5897 36.7411C31.3701 37.2001 32.9611 37.6276 33.1253 37.6906C33.2898 37.7533 33.468 37.7338 33.5221 37.6468C33.5758 37.5595 34.1867 35.4459 34.8797 32.9495C35.5726 30.4528 36.379 27.5585 36.6715 26.5175C36.9638 25.4767 37.3107 24.1977 37.4427 23.6755L37.6822 22.726L36.5103 20.8141L35.3387 18.9021L36.4858 17.0062C37.1172 15.9634 37.6333 15.031 37.6333 14.9341C37.6333 14.8374 37.1625 13.0603 36.5872 10.9852C36.0115 8.91002 35.155 5.80677 34.6839 4.08916C33.6954 0.485468 33.5573 0.109556 33.2295 0.12793C33.0969 0.135298 31.0262 0.656187 28.6279 1.2855ZM27.6523 5.93717C27.7016 6.01667 27.2372 6.92214 26.6207 7.94931C26.0042 8.97647 25.4997 9.84766 25.4997 9.88554C25.4997 9.9234 24.557 11.5305 23.4047 13.4569L21.31 16.9595H14.6836C11.0394 16.9595 8.05751 16.8898 8.05751 16.8049C8.05751 16.7199 9.91321 14.8242 12.1811 12.5921L16.3046 8.53395L21.7079 7.18407C27.6049 5.71081 27.5228 5.72805 27.6523 5.93717ZM84.4201 6.88805L82.7674 6.94275L82.7139 9.1593L82.6605 11.376L81.7128 11.4707L80.7647 11.5653L80.709 12.8327L80.6529 14.1L81.657 14.1575L82.6605 14.2151L82.7553 19.3254C82.8178 22.6887 82.9254 24.5651 83.0697 24.8142C83.7975 26.0685 85.0479 26.6122 87.2047 26.6122H88.8223V25.1927V23.7732H88.244C87.4516 23.7732 86.5743 23.2858 86.4492 22.7761C86.3918 22.5437 86.3693 20.5225 86.3987 18.2844L86.4524 14.2151L87.5901 14.1204L88.7275 14.0258V12.7956V11.5653L87.5901 11.4707L86.4524 11.376L86.3983 9.20228C86.3687 8.00667 86.2833 6.98459 86.2087 6.93103C86.1344 6.87747 85.3294 6.85815 84.4201 6.88805ZM75.867 7.05445C75.7976 7.12369 75.7406 7.722 75.7406 8.38388C75.7406 9.4996 75.7758 9.60069 76.2241 9.77082C76.4896 9.87172 77.3214 9.9281 78.0723 9.89613L79.4377 9.83802L79.4931 8.3831L79.5485 6.92821H77.771C76.7932 6.92821 75.9364 6.98498 75.867 7.05445ZM31.5813 8.45465C31.6528 8.70808 32.3569 11.1495 33.1455 13.8799L34.5799 18.8442L33.0125 24.3467C32.1502 27.3732 31.3657 29.8594 31.2687 29.8721C31.0834 29.8968 26.6975 22.7269 25.4155 20.3041L24.6678 18.891L25.3091 17.6897C25.8733 16.6328 29.0114 11.2861 30.5423 8.7732C31.1322 7.80488 31.3765 7.72993 31.5813 8.45465ZM66.9633 11.3501C66.1234 11.5863 65.3533 12.1342 64.5326 13.0795C64.1534 13.5165 64.039 13.3505 63.9461 12.2278L63.8914 11.5653H62.1852H60.4787V19.0414V26.5175H62.28H64.081L64.1758 21.6912C64.2674 17.0221 64.2856 16.8389 64.7281 16.0673C65.2712 15.1211 66.0765 14.6883 67.2947 14.6883C68.2616 14.6883 68.9973 14.993 69.5795 15.6348C69.9336 16.0249 69.9646 16.3928 70.0529 21.2849L70.1477 26.5175L71.9962 26.5717L73.8448 26.6259V21.1639C73.8448 16.6152 73.793 15.546 73.535 14.7693C73.2297 13.8515 72.5299 12.7437 71.9568 12.2707C70.7494 11.2755 68.6226 10.8832 66.9633 11.3501ZM45.4511 11.6912C45.152 11.9896 45.1256 21.0157 45.4188 22.8269C45.7511 24.8793 46.7096 26.0974 48.4846 26.7226C49.4417 27.0596 51.1043 27.1044 52.1563 26.8216C52.9786 26.6006 54.5069 25.6023 54.5069 25.2862C54.5069 25.1827 54.587 25.0981 54.6851 25.0981C54.7828 25.0981 54.8894 25.4176 54.9219 25.8078L54.9806 26.5175L56.7366 26.572L58.4923 26.6265L58.4431 19.0959L58.3933 11.5653L56.6636 11.5112C55.0005 11.4591 54.9291 11.4739 54.8177 11.8897C54.7538 12.1276 54.7001 14.3665 54.6984 16.8649C54.6962 20.8121 54.6522 21.4923 54.3642 22.0563C53.4705 23.8058 50.986 24.1953 49.6424 22.7962L49.1036 22.2348L49.0088 16.9L48.9139 11.5653L47.2996 11.5114C46.2063 11.4746 45.6097 11.5327 45.4511 11.6912ZM75.8299 11.7006C75.7784 11.835 75.7585 15.2237 75.7859 19.2313L75.8354 26.5175L77.6862 26.5717L79.5368 26.6262L79.4872 19.0956L79.4377 11.5653L77.6807 11.5108C76.3801 11.4705 75.8996 11.5199 75.8299 11.7006ZM90.0694 11.6359C90.0088 11.7341 90.2251 12.5249 90.5503 13.3933C91.213 15.1629 92.3106 18.0361 92.708 19.0414C94.4295 23.3969 94.9586 25.0672 94.971 26.1818C94.9821 27.2102 94.9208 27.4228 94.4856 27.8575C94.0787 28.2642 93.7574 28.374 92.7321 28.4561L91.4765 28.5567V30.0451V31.5332H93.3785C96.8763 31.5332 97.8836 30.6317 99.4122 26.1305C100.452 23.0703 103.76 13.4762 104.071 12.6194C104.241 12.152 104.304 11.7088 104.213 11.6183C104.124 11.5288 103.247 11.4803 102.266 11.5104L100.482 11.5653L99.3161 15.0668C98.675 16.9926 98.0051 19.1857 97.8279 19.9405C97.6503 20.6953 97.4317 21.3127 97.3421 21.3127C97.2522 21.3127 97.0831 20.9506 96.9662 20.5083C96.6156 19.1813 95.7412 16.6756 94.2741 12.7956L93.8089 11.5653L91.9945 11.5114C90.9966 11.4816 90.1303 11.5377 90.0694 11.6359ZM21.3627 21.0038C21.5003 21.1463 22.4663 22.726 23.509 24.5144C24.5517 26.3029 25.9382 28.6606 26.5898 29.7543C27.796 31.7783 27.9746 32.2181 27.519 32.0435C27.3783 31.9899 24.7974 31.3332 21.7839 30.585L16.3046 29.2242L12.1811 25.128C9.91321 22.8753 8.05751 20.9675 8.05751 20.8885C8.05751 20.8094 10.9948 20.7449 14.5849 20.7449C19.859 20.7449 21.1602 20.7947 21.3627 21.0038Z" fill="#5D5A67"/>
</svg>
