<svg width="80" height="64" viewBox="0 0 80 64" fill="none" xmlns="http://www.w3.org/2000/svg">
<g filter="url(#filter0_d_89_150)">
<rect x="26.3088" y="6.46948" width="13.6784" height="13.6784" rx="6.83921" fill="#71BAB7"/>
<rect x="26.3088" y="6.46948" width="13.6784" height="13.6784" rx="6.83921" fill="url(#paint0_linear_89_150)"/>
</g>
<g filter="url(#filter1_d_89_150)">
<rect x="47.3523" y="14.3608" width="22.0959" height="22.622" rx="8" fill="#71BAB7"/>
<rect x="47.3523" y="14.3608" width="22.0959" height="22.622" rx="8" fill="url(#paint1_linear_89_150)"/>
</g>
<g filter="url(#filter2_d_89_150)">
<rect x="10" y="22.7783" width="26.3047" height="26.8308" rx="8" fill="#71BAB7"/>
<rect x="10" y="22.7783" width="26.3047" height="26.8308" rx="8" fill="url(#paint2_linear_89_150)"/>
</g>
<path fill-rule="evenodd" clip-rule="evenodd" d="M48.4043 4.36509H35.7781C34.9064 4.36509 34.1998 5.07171 34.1998 5.94336V29.0915C34.1998 29.9631 34.9064 30.6697 35.7781 30.6697H48.4043C49.276 30.6697 49.9826 29.9631 49.9826 29.0915V5.94337C49.9826 5.07171 49.276 4.36509 48.4043 4.36509ZM35.7781 1.73462C33.4537 1.73462 31.5693 3.61894 31.5693 5.94336V29.0915C31.5693 31.4159 33.4537 33.3002 35.7781 33.3002H48.4043C50.7287 33.3002 52.6131 31.4159 52.6131 29.0915V5.94337C52.6131 3.61894 50.7287 1.73462 48.4043 1.73462H35.7781Z" fill="white"/>
<path d="M32.6208 6.46948H51.0341V9.09995H32.6208V6.46948Z" fill="white"/>
<path d="M32.6208 25.9348H51.0341V28.5653H32.6208V25.9348Z" fill="white"/>
<path d="M37.1007 17.511C37.5412 16.9333 38.3665 16.8221 38.9441 17.2626L43.4637 20.7086L41.8687 22.8004L37.3492 19.3543C36.7715 18.9139 36.6603 18.0886 37.1007 17.511Z" fill="white"/>
<path d="M39.833 21.1465L45.501 13.3216C45.9271 12.7333 46.7494 12.6019 47.3377 13.028C47.926 13.4541 48.0574 14.2764 47.6313 14.8647L41.9633 22.6896L39.833 21.1465Z" fill="white"/>
<path d="M16.312 38.9882V37.6763C16.312 37.545 16.3958 37.414 16.5219 37.37L23.4495 34.6585C23.7855 34.4399 24.2052 34.3523 24.583 34.3523H28.9916C29.2856 34.3523 29.5793 34.3959 29.8733 34.4396L33.9878 35.4893C34.0297 35.4893 34.0716 35.4893 34.1558 35.5329L40.076 36.1894L42.595 36.4516C43.3926 36.5389 44.0644 37.1514 44.2743 37.9821L44.6521 39.8189C44.862 40.7373 44.4422 41.6557 43.6444 42.0492L41.7549 43.0112C41.3771 43.1862 40.9993 43.3175 40.6215 43.3175L36.5069 43.6237H36.3809L31.3847 43.3175C30.797 43.2738 30.335 42.7926 30.335 42.1806C30.335 41.5244 30.8808 41.0436 31.4684 41.0872L36.3387 41.3494H36.4225L39.6553 41.2181C39.9493 41.2181 40.243 41.1309 40.4951 41.0432L41.7966 40.606C42.3005 40.4311 42.5942 39.9062 42.4684 39.3814C42.3846 38.9002 42.0065 38.5506 41.5448 38.5066L39.7814 38.288L34.0714 37.6759C34.0295 37.6759 33.9876 37.6759 33.9034 37.6322L29.6209 36.4953C29.3269 36.408 28.991 36.364 28.6554 36.408L24.6669 36.4953C24.2891 36.4953 23.9531 36.5826 23.6172 36.7576L16.8579 39.2504C16.6058 39.4254 16.3121 39.2504 16.3121 38.9882L16.312 38.9882Z" fill="white"/>
<path d="M44.155 38.1171L49.5467 36.0239H49.5887L52.7481 34.5589C53.6327 34.0983 54.7699 34.4332 55.2754 35.3123L56.0336 36.5263C56.4971 37.3215 56.3285 38.2845 55.6545 38.8705L53.2956 41.0054C53.1692 41.089 53.043 41.2147 52.9166 41.2986L46.8088 45.3174C46.6403 45.4431 46.4297 45.5267 46.2191 45.6106L36.9945 49.2106C36.4889 49.4198 35.8994 49.4616 35.3517 49.378L22.7568 47.4106C22.5463 47.3688 22.3778 47.3688 22.1672 47.4106H21.8722L16.6911 47.2013C16.4805 47.2431 16.312 47.0756 16.312 46.8664V45.4849C16.312 45.3174 16.4385 45.1917 16.607 45.1499L21.9987 45.3174H22.2937H22.8833L35.2674 47.1592C35.6885 47.201 36.1099 47.1592 36.489 47.0335L45.7563 43.4335C45.7984 43.4335 45.8404 43.3917 45.9248 43.3499L52.0326 39.5825C52.0747 39.5825 52.1167 39.5407 52.1591 39.4989L53.8863 38.1592C54.1813 37.9499 54.2653 37.5311 54.0968 37.1965L53.8442 36.7355C53.6337 36.317 53.1282 36.1496 52.7071 36.4006L50.6008 37.4889C50.5588 37.4889 50.5167 37.5307 50.4743 37.5307L44.6191 40.0841L44.155 38.1171Z" fill="white"/>
<defs>
<filter id="filter0_d_89_150" x="16.3088" y="0.469482" width="33.6785" height="33.6785" filterUnits="userSpaceOnUse" color-interpolation-filters="sRGB">
<feFlood flood-opacity="0" result="BackgroundImageFix"/>
<feColorMatrix in="SourceAlpha" type="matrix" values="0 0 0 0 0 0 0 0 0 0 0 0 0 0 0 0 0 0 127 0" result="hardAlpha"/>
<feOffset dy="4"/>
<feGaussianBlur stdDeviation="5"/>
<feComposite in2="hardAlpha" operator="out"/>
<feColorMatrix type="matrix" values="0 0 0 0 0.0942187 0 0 0 0 0.279167 0 0 0 0 0.271566 0 0 0 0.5 0"/>
<feBlend mode="normal" in2="BackgroundImageFix" result="effect1_dropShadow_89_150"/>
<feBlend mode="normal" in="SourceGraphic" in2="effect1_dropShadow_89_150" result="shape"/>
</filter>
<filter id="filter1_d_89_150" x="37.3523" y="8.36084" width="42.0959" height="42.6221" filterUnits="userSpaceOnUse" color-interpolation-filters="sRGB">
<feFlood flood-opacity="0" result="BackgroundImageFix"/>
<feColorMatrix in="SourceAlpha" type="matrix" values="0 0 0 0 0 0 0 0 0 0 0 0 0 0 0 0 0 0 127 0" result="hardAlpha"/>
<feOffset dy="4"/>
<feGaussianBlur stdDeviation="5"/>
<feComposite in2="hardAlpha" operator="out"/>
<feColorMatrix type="matrix" values="0 0 0 0 0.0942187 0 0 0 0 0.279167 0 0 0 0 0.271566 0 0 0 0.5 0"/>
<feBlend mode="normal" in2="BackgroundImageFix" result="effect1_dropShadow_89_150"/>
<feBlend mode="normal" in="SourceGraphic" in2="effect1_dropShadow_89_150" result="shape"/>
</filter>
<filter id="filter2_d_89_150" x="0" y="16.7783" width="46.3047" height="46.8308" filterUnits="userSpaceOnUse" color-interpolation-filters="sRGB">
<feFlood flood-opacity="0" result="BackgroundImageFix"/>
<feColorMatrix in="SourceAlpha" type="matrix" values="0 0 0 0 0 0 0 0 0 0 0 0 0 0 0 0 0 0 127 0" result="hardAlpha"/>
<feOffset dy="4"/>
<feGaussianBlur stdDeviation="5"/>
<feComposite in2="hardAlpha" operator="out"/>
<feColorMatrix type="matrix" values="0 0 0 0 0.0942187 0 0 0 0 0.279167 0 0 0 0 0.271566 0 0 0 0.5 0"/>
<feBlend mode="normal" in2="BackgroundImageFix" result="effect1_dropShadow_89_150"/>
<feBlend mode="normal" in="SourceGraphic" in2="effect1_dropShadow_89_150" result="shape"/>
</filter>
<linearGradient id="paint0_linear_89_150" x1="26.3088" y1="6.46948" x2="26.3088" y2="20.1479" gradientUnits="userSpaceOnUse">
<stop stop-color="#3BA8A3"/>
<stop offset="1" stop-color="#1C7874"/>
</linearGradient>
<linearGradient id="paint1_linear_89_150" x1="47.3523" y1="14.3608" x2="47.3523" y2="36.9829" gradientUnits="userSpaceOnUse">
<stop stop-color="#3BA8A3"/>
<stop offset="1" stop-color="#1C7874"/>
</linearGradient>
<linearGradient id="paint2_linear_89_150" x1="10" y1="22.7783" x2="10" y2="49.6091" gradientUnits="userSpaceOnUse">
<stop stop-color="#3BA8A3"/>
<stop offset="1" stop-color="#1C7874"/>
</linearGradient>
</defs>
</svg>
