<svg width="132" height="24" viewBox="0 0 132 24" fill="none" xmlns="http://www.w3.org/2000/svg">
<path d="M26.6411 6.583C21.8458 6.583 18.099 10.2232 18.099 15.0963C18.099 19.9694 21.7512 23.5784 26.6411 23.5784C31.531 23.5784 35.2466 19.9071 35.2466 15.0652C35.2466 10.2543 31.5945 6.583 26.6411 6.583ZM26.6735 20.0665C23.9427 20.0665 21.9417 17.9457 21.9417 15.0975C21.9417 12.217 23.9104 10.0974 26.6411 10.0974C29.4042 10.0974 31.404 12.2493 31.404 15.0975C31.404 17.9457 29.4042 20.0665 26.6735 20.0665ZM36.2939 10.2867H38.6758V23.2633H42.4861V6.89933H36.2939V10.2867ZM8.50971 10.0961C10.5107 10.0961 12.0984 11.3303 12.7011 13.166H16.7343C16.0034 9.24182 12.7646 6.583 8.54206 6.583C3.74681 6.583 0 10.2232 0 15.0975C0 19.9718 3.65216 23.5797 8.54206 23.5797C12.6699 23.5797 15.9722 20.9208 16.7031 16.9643H12.7011C12.1295 18.8 10.5419 20.0665 8.54088 20.0665C5.77779 20.0665 3.84146 17.9457 3.84146 15.0975C3.84267 12.217 5.74783 10.0961 8.50971 10.0961ZM108.692 13.5146L105.898 13.1037C104.565 12.9144 103.612 12.471 103.612 11.4262C103.612 10.2867 104.851 9.71751 106.533 9.71751C108.375 9.71751 109.55 10.5083 109.804 11.806H113.488C113.074 8.5145 110.534 6.58418 106.629 6.58418C102.596 6.58418 99.9287 8.64154 99.9287 11.5532C99.9287 14.3378 101.675 15.953 105.2 16.4587L107.994 16.8697C109.36 17.059 110.122 17.5982 110.122 18.6106C110.122 19.9083 108.788 20.4463 106.947 20.4463C104.691 20.4463 103.421 19.5285 103.231 18.1362H99.484C99.834 21.333 102.342 23.5797 106.914 23.5797C111.075 23.5797 113.836 21.6805 113.836 18.4201C113.836 15.5085 111.836 13.9891 108.692 13.5146ZM40.5809 0.158164C39.1839 0.158164 38.1357 1.17066 38.1357 2.56298C38.1357 3.9553 39.1827 4.96779 40.5809 4.96779C41.978 4.96779 43.0266 3.9553 43.0266 2.56298C43.0266 1.17066 41.978 0.158164 40.5809 0.158164ZM96.4994 12.5022C96.4994 8.95784 94.3403 6.58418 89.7677 6.58418C85.4493 6.58418 83.0361 8.76854 82.5594 12.1235H86.3384C86.5289 10.8259 87.545 9.74985 89.7044 9.74985C91.642 9.74985 92.5944 10.6042 92.5944 11.649C92.5944 13.0102 90.8472 13.3577 88.6882 13.5794C85.7669 13.8957 82.1471 14.9082 82.1471 18.7065C82.1471 21.6505 84.3385 23.5485 87.8316 23.5485C90.5621 23.5485 92.2768 22.409 93.1348 20.6045C93.2619 22.2185 94.4686 23.2633 96.1519 23.2633H98.3747V19.8772H96.5005V12.5022H96.4994ZM92.7524 16.6168C92.7524 18.8012 90.8472 20.4152 88.5287 20.4152C87.0996 20.4152 85.8929 19.8137 85.8929 18.5483C85.8929 16.9344 87.8302 16.491 89.6086 16.3017C91.3233 16.1436 92.2757 15.7637 92.7524 15.0352V16.6168ZM72.5255 6.583C70.3974 6.583 68.6194 7.46967 67.3494 8.95666V0H63.5391V23.2633H67.2856V21.1113C68.5556 22.6618 70.3665 23.5797 72.5255 23.5797C77.0977 23.5797 80.5595 19.9718 80.5595 15.0975C80.5595 10.2232 77.0344 6.583 72.5255 6.583ZM71.954 20.0665C69.2232 20.0665 67.2223 17.9457 67.2223 15.0975C67.2223 12.2493 69.2545 10.0974 71.985 10.0974C74.7482 10.0974 76.6843 12.2182 76.6843 15.0975C76.6843 17.9457 74.6845 20.0665 71.954 20.0665ZM54.4252 6.583C51.9486 6.583 50.3286 7.59549 49.3762 9.02014V6.89933H45.5968V23.2621H49.4071V14.369C49.4071 11.8683 50.9947 10.0961 53.3445 10.0961C55.536 10.0961 56.9007 11.6467 56.9007 13.8945V23.2633H60.711V13.6105C60.7124 9.49464 58.5855 6.583 54.4252 6.583ZM132 14.5595C132 9.87568 128.571 6.58418 123.966 6.58418C119.076 6.58418 115.488 10.2555 115.488 15.0975C115.488 20.1935 119.33 23.5797 124.03 23.5797C127.999 23.5797 131.111 21.2372 131.904 17.9145H127.934C127.363 19.3703 125.966 20.1935 124.092 20.1935C121.646 20.1935 119.805 18.6742 119.392 16.0153H131.999V14.5595H132ZM119.615 13.293C120.219 11.014 121.934 9.90684 123.903 9.90684C126.062 9.90684 127.713 11.141 128.094 13.293H119.615Z" fill="#8F8D9D"/>
</svg>
