<svg width="121" height="31" viewBox="0 0 121 31" fill="none" xmlns="http://www.w3.org/2000/svg">
<path d="M56.78 27.0344V11.432L50.7065 23.0477H48.2173L42.1433 11.432V27.0344H37.5657V3.4668H42.4779L49.4448 16.8749L56.4807 3.4668H61.3592V27.0344H56.78ZM82.7456 23.0173V27.0366H66.3828V3.4668H82.4495V7.48607H70.9626V13.1619H80.8864V16.8787H70.9626V23.0173H82.7456ZM86.0794 3.53306H90.2947L98.8221 21.7876L105.495 3.4668H110.474L100.882 27.0344H97.033L86.0794 3.53306Z" fill="#8F8D9D"/>
<path fill-rule="evenodd" clip-rule="evenodd" d="M37.0222 2.92188H42.8074L49.4469 15.6997L56.152 2.92188H61.9021V27.5758H56.2365V13.6412L51.0351 23.5891H47.8881L42.6861 13.6411V27.5758H37.0222V2.92188ZM38.1085 4.00817V26.4895H41.5998V11.4302L42.6243 11.1786L48.5459 22.5028H50.3773L56.2983 11.1786L57.3228 11.4302V26.4895H60.8158V4.00817H56.8088L49.4421 18.0465L42.1477 4.00817H38.1085ZM65.8393 2.92188H82.9924V8.02744H71.5054V12.617H81.4292V17.42H71.5054V22.4724H83.2884V27.5779H65.8393V2.92188ZM66.9256 4.00817V26.4916H82.2021V23.5587H70.4191V16.3338H80.3429V13.7033H70.4191V6.94115H81.9061V4.00817H66.9256ZM105.115 2.92188H111.281L101.247 27.5758H96.6866L85.2267 2.98814H90.6402L98.7596 20.3695L105.115 2.92188ZM105.875 4.00817L98.8839 23.2022L89.9487 4.07443H86.9315L97.3788 26.4895H100.517L109.666 4.00817H105.875Z" fill="#8F8D9D"/>
<path d="M95.7546 3.53306H99.9727L108.5 21.7876L115.17 3.4668H120.149L110.558 27.0344H106.708L95.7546 3.53306Z" fill="#8F8D9D"/>
<path fill-rule="evenodd" clip-rule="evenodd" d="M114.79 2.92188H120.957L110.923 27.5758H106.362L94.9026 2.98814H100.319L108.438 20.3692L114.79 2.92188ZM115.551 4.00817L108.563 23.2024L99.6273 4.07443H96.6073L107.054 26.4895H110.192L119.342 4.00817H115.551Z" fill="#8F8D9D"/>
<path d="M0 15.5003C0 24.0608 6.93976 31 15.5003 31C24.0608 31 31 24.0608 31 15.5003C31 6.93976 24.0608 0 15.5003 0C6.93976 0 0 6.93976 0 15.5003ZM15.5003 25.2405C10.2606 25.2405 5.7682 20.9926 5.7682 15.7528C5.7682 14.5226 6.0023 13.1023 6.42812 12.0236L10.6103 13.8046C10.5968 13.8627 10.5794 13.9387 10.5604 14.0256C10.436 14.4335 10.363 14.8554 10.3431 15.2814C10.3343 15.3658 10.3312 15.4507 10.3339 15.5356C10.3339 15.5551 10.3366 15.5741 10.3377 15.5937C10.3471 16.3623 10.5289 17.119 10.8698 17.808C11.2106 18.497 11.7018 19.1007 12.307 19.5746C12.9123 20.0485 13.6162 20.3805 14.3668 20.5461C15.1174 20.7117 15.8957 20.7067 16.6441 20.5314L19.0209 24.567C17.902 25.0134 16.7082 25.242 15.5035 25.2405H15.5003ZM24.4812 19.3544L13.8681 14.8577L20.6743 14.8279C20.4309 12.3587 17.8934 10.3545 15.5003 10.3545C14.9574 10.3539 14.4183 10.4438 13.9051 10.6207L11.5494 6.61876C12.7887 6.05112 14.1361 5.75819 15.4992 5.76005C20.7389 5.76005 25.2166 10.0862 25.2166 15.3259C25.2166 16.7381 25.0341 18.1503 24.4801 19.3544" fill="#8F8D9D"/>
</svg>
