<svg width="131" height="23" viewBox="0 0 131 23" fill="none" xmlns="http://www.w3.org/2000/svg">
<path d="M0 22.1346V0H4.37537L13.9364 16.348L23.465 0H27.8403V22.1346H23.3029V9.26492L15.7838 22.1346H12.0566L4.53742 9.26492V22.1346H0ZM44.5907 22.1346C38.5624 22.1346 34.025 17.9607 34.025 11.8894V0H38.5624V11.8894C38.5624 15.4942 41.1552 17.7077 44.5907 17.7077C48.0262 17.7077 50.5866 15.4942 50.5866 11.8894V0H55.124V11.8894C55.124 17.9607 50.619 22.1346 44.5907 22.1346ZM61.3086 22.1346V0H65.846V17.7077H76.1525V22.1346H61.3086ZM84.806 22.1346V4.42692H76.6062V0H97.5432V4.42692H89.3434V22.1346H84.806ZM103.917 22.1346V0H108.454V22.1346H103.917ZM123.481 22.1346C119.43 22.1346 116.675 20.0476 115.864 16.5377L119.948 14.8934C120.369 16.7274 121.471 17.7077 123.481 17.7077C125.199 17.7077 126.236 17.0437 126.236 15.7788C126.236 14.3875 125.134 13.9448 122.12 12.9646C118.684 11.7946 116.091 10.0871 116.091 6.41904C116.091 2.46643 119.008 0 123.384 0C127.435 0 130.19 2.08698 131 5.59689L126.916 7.24118C126.495 5.37555 125.393 4.42692 123.384 4.42692C121.666 4.42692 120.629 5.09096 120.629 6.3558C120.629 7.74711 121.731 8.18981 124.745 9.17005C128.18 10.34 130.773 12.0476 130.773 15.7156C130.773 19.6682 127.856 22.1346 123.481 22.1346Z" fill="#8F8D9D"/>
</svg>
