<svg width="159" height="37" viewBox="0 0 159 37" fill="none" xmlns="http://www.w3.org/2000/svg">
<path fill-rule="evenodd" clip-rule="evenodd" d="M1.25502 6.28659C0 8.75057 0 11.9745 0 18.4222C0 24.87 0 28.0939 1.25502 30.5579C2.36035 32.7226 4.12198 34.4841 6.28659 35.5895C8.75057 36.8445 11.9745 36.8445 18.4222 36.8445C24.87 36.8445 28.0939 36.8445 30.5579 35.5895C32.7226 34.4841 34.4841 32.7226 35.5895 30.5579C36.8445 28.0939 36.8445 24.87 36.8445 18.4222C36.8445 11.9745 36.8445 8.75057 35.5895 6.28659C34.4841 4.12198 32.7226 2.36035 30.5579 1.25502C28.0939 0 24.87 0 18.4222 0C11.9745 0 8.75057 0 6.28659 1.25502C4.12198 2.36035 2.36035 4.12198 1.25502 6.28659ZM27.6161 9.93647C27.9385 9.93647 28.2436 10.0689 28.4682 10.2935C28.6926 10.5238 28.8194 10.8346 28.8136 11.1512C28.7561 14.5824 28.6236 17.2075 28.3761 19.2858C28.1343 21.3641 27.7715 22.9069 27.2247 24.1562C26.8562 24.9909 26.4014 25.6818 25.866 26.269C25.1464 27.0462 24.3232 27.6104 23.425 28.1458C23.0411 28.3754 22.6419 28.6021 22.2231 28.8399C21.3297 29.3473 20.3473 29.9052 19.234 30.6501C18.831 30.9206 18.3072 30.9206 17.9042 30.6501C16.7738 29.8965 15.7785 29.3317 14.8768 28.8202C14.6763 28.7065 14.4805 28.5954 14.2888 28.4854C13.2353 27.8752 12.2854 27.2937 11.4564 26.4532C10.9037 25.9005 10.4259 25.2269 10.0459 24.4267C9.5278 23.3559 9.17662 22.0606 8.91757 20.3854C8.57214 18.1459 8.39944 15.2156 8.33611 11.1512C8.33036 10.8346 8.45125 10.5238 8.67577 10.2935C8.90029 10.0689 9.21117 9.93647 9.53356 9.93647H10.0287C11.5542 9.94229 14.922 9.79259 17.8351 7.52434C18.2668 7.19044 18.8714 7.19044 19.3031 7.52434C22.2162 9.79259 25.5839 9.94229 27.1153 9.93647H27.6161ZM24.9392 23.3905C25.3133 22.619 25.6243 21.554 25.8603 20.0227C26.1423 18.192 26.3151 15.705 26.3957 12.3199C24.5995 12.2681 21.5138 11.9227 18.572 9.94229C15.6302 11.9169 12.5445 12.2623 10.754 12.3199C10.8173 15.1178 10.944 17.2939 11.1455 19.0037C11.3757 20.9496 11.7039 22.2679 12.1126 23.1948C12.3832 23.8108 12.6826 24.254 13.0396 24.6455C13.5174 25.1694 14.1218 25.6012 14.9451 26.0963C15.2866 26.3011 15.6631 26.5143 16.0729 26.7463C16.8031 27.1595 17.6391 27.6327 18.572 28.2264C19.4876 27.6424 20.3116 27.1741 21.0333 26.7638C21.2508 26.6402 21.459 26.5218 21.6577 26.4071C22.6709 25.8257 23.4193 25.3421 23.9777 24.7779C24.352 24.3922 24.6571 23.972 24.9392 23.3905Z" fill="#8F8D9D"/>
<path d="M51.7113 14.7455H47.5847V12.3138H58.8223V14.7455H54.6957V25.2093H51.7113V14.7455ZM62.2018 16.6062C62.5456 16.1272 63.0062 15.7648 63.5835 15.5192C64.173 15.2736 64.8484 15.1508 65.6099 15.1508V17.8036C65.2905 17.7791 65.0757 17.7668 64.9651 17.7668C64.1422 17.7668 63.4975 18.0001 63.0308 18.4668C62.564 18.9213 62.3308 19.609 62.3308 20.5301V25.2093H59.4569V15.2982H62.2018V16.6062ZM76.8229 15.2982V25.2093H74.0964V24.0303C73.7156 24.4601 73.2613 24.7917 72.7331 25.0251C72.205 25.2462 71.6339 25.3567 71.0198 25.3567C69.718 25.3567 68.6863 24.9822 67.9249 24.233C67.1634 23.4838 66.7827 22.3723 66.7827 20.8985V15.2982H69.6566V20.4748C69.6566 22.0715 70.3259 22.8697 71.6646 22.8697C72.3524 22.8697 72.905 22.6487 73.3226 22.2065C73.7402 21.7521 73.949 21.0828 73.949 20.1985V15.2982H76.8229ZM82.267 25.3567C81.4442 25.3567 80.6398 25.2585 79.8537 25.062C79.0678 24.8532 78.4414 24.5953 77.9746 24.2882L78.9326 22.2249C79.3747 22.5074 79.909 22.7408 80.5353 22.925C81.1617 23.0969 81.7758 23.1829 82.3775 23.1829C83.5934 23.1829 84.2014 22.882 84.2014 22.2802C84.2014 21.9978 84.0356 21.7951 83.704 21.6723C83.3724 21.5494 82.8627 21.4451 82.1749 21.3591C81.3643 21.2362 80.695 21.0951 80.1669 20.9354C79.6388 20.7757 79.1783 20.4933 78.7852 20.088C78.4045 19.6827 78.2141 19.1055 78.2141 18.3563C78.2141 17.7299 78.3922 17.1772 78.7484 16.6983C79.1168 16.207 79.6449 15.8263 80.3327 15.5561C81.0327 15.2859 81.8556 15.1508 82.8013 15.1508C83.5013 15.1508 84.1952 15.2306 84.883 15.3903C85.583 15.5377 86.1603 15.7464 86.6147 16.0166L85.6567 18.0615C84.7848 17.5702 83.8329 17.3246 82.8013 17.3246C82.1872 17.3246 81.7267 17.4106 81.4196 17.5825C81.1126 17.7544 80.959 17.9755 80.959 18.2457C80.959 18.5528 81.1248 18.7677 81.4564 18.8905C81.788 19.0134 82.3162 19.13 83.0407 19.2405C83.8513 19.3756 84.5145 19.523 85.0303 19.6827C85.5462 19.83 85.9945 20.1064 86.3752 20.5117C86.7559 20.917 86.9463 21.4819 86.9463 22.2065C86.9463 22.8206 86.762 23.3671 86.3936 23.8461C86.0252 24.3251 85.4848 24.6996 84.7724 24.9699C84.0724 25.2278 83.2373 25.3567 82.267 25.3567ZM94.5593 24.7304C94.2769 24.9391 93.9268 25.0988 93.5092 25.2093C93.104 25.3076 92.6741 25.3567 92.2197 25.3567C91.0407 25.3567 90.1257 25.0559 89.4748 24.454C88.8361 23.8522 88.5168 22.9679 88.5168 21.8012V17.7299H86.9878V15.5192H88.5168V13.1059H91.3907V15.5192H93.8593V17.7299H91.3907V21.7644C91.3907 22.182 91.4951 22.5074 91.7039 22.7408C91.9249 22.9618 92.232 23.0724 92.625 23.0724C93.0794 23.0724 93.4663 22.9495 93.7856 22.7039L94.5593 24.7304ZM119.977 12.3138L115.759 25.2093H112.553L109.716 16.4772L106.787 25.2093H103.6L99.3629 12.3138H102.458L105.369 21.3775L108.408 12.3138H111.172L114.119 21.4512L117.122 12.3138H119.977ZM124.149 15.1508C125.683 15.1508 126.862 15.5192 127.686 16.2561C128.509 16.9807 128.92 18.0799 128.92 19.5537V25.2093H126.23V23.9751C125.69 24.8962 124.683 25.3567 123.209 25.3567C122.448 25.3567 121.785 25.2278 121.219 24.9699C120.667 24.7119 120.243 24.3558 119.948 23.9014C119.654 23.4469 119.506 22.9311 119.506 22.3539C119.506 21.4328 119.85 20.7082 120.538 20.1801C121.238 19.6519 122.312 19.3879 123.762 19.3879H126.046C126.046 18.7616 125.856 18.2826 125.475 17.951C125.094 17.6071 124.523 17.4352 123.762 17.4352C123.233 17.4352 122.712 17.5212 122.196 17.6931C121.693 17.8528 121.262 18.0738 120.906 18.3563L119.875 16.3482C120.415 15.9675 121.059 15.6727 121.809 15.464C122.57 15.2552 123.351 15.1508 124.149 15.1508ZM123.927 23.4224C124.419 23.4224 124.854 23.3119 125.235 23.0908C125.616 22.8574 125.886 22.5197 126.046 22.0776V21.0643H124.075C122.896 21.0643 122.306 21.4512 122.306 22.2249C122.306 22.5934 122.448 22.8881 122.73 23.1092C123.025 23.318 123.424 23.4224 123.927 23.4224ZM130.969 11.54H133.843V25.2093H130.969V11.54ZM135.956 11.54H138.83V25.2093H135.956V11.54ZM150.653 20.2906C150.653 20.3274 150.635 20.5854 150.598 21.0643H143.1C143.236 21.6784 143.555 22.1636 144.058 22.5197C144.562 22.8758 145.189 23.0539 145.937 23.0539C146.453 23.0539 146.908 22.9803 147.3 22.8329C147.706 22.6732 148.081 22.4276 148.424 22.096L149.953 23.754C149.021 24.8225 147.657 25.3567 145.864 25.3567C144.747 25.3567 143.758 25.1418 142.898 24.7119C142.038 24.2698 141.375 23.6619 140.908 22.8881C140.442 22.1144 140.208 21.2362 140.208 20.2538C140.208 19.2835 140.436 18.4115 140.89 17.6378C141.357 16.8518 141.989 16.2438 142.787 15.814C143.598 15.3719 144.5 15.1508 145.495 15.1508C146.466 15.1508 147.344 15.3596 148.129 15.7772C148.916 16.1948 149.53 16.7965 149.972 17.5825C150.426 18.3563 150.653 19.259 150.653 20.2906ZM145.513 17.3246C144.863 17.3246 144.316 17.5088 143.874 17.8773C143.432 18.2457 143.162 18.7492 143.063 19.3879H147.945C147.847 18.7616 147.577 18.2642 147.135 17.8957C146.693 17.515 146.152 17.3246 145.513 17.3246ZM158.407 24.7304C158.124 24.9391 157.774 25.0988 157.357 25.2093C156.952 25.3076 156.521 25.3567 156.067 25.3567C154.888 25.3567 153.973 25.0559 153.323 24.454C152.684 23.8522 152.365 22.9679 152.365 21.8012V17.7299H150.836V15.5192H152.365V13.1059H155.238V15.5192H157.707V17.7299H155.238V21.7644C155.238 22.182 155.342 22.5074 155.552 22.7408C155.773 22.9618 156.079 23.0724 156.473 23.0724C156.927 23.0724 157.313 22.9495 157.633 22.7039L158.407 24.7304Z" fill="#8F8D9D"/>
</svg>
