<svg width="176" height="96" viewBox="0 0 176 96" fill="none" xmlns="http://www.w3.org/2000/svg">
<path fill-rule="evenodd" clip-rule="evenodd" d="M169.6 3.2H6.4C4.63269 3.2 3.2 4.63269 3.2 6.4V88.96C3.2 90.7273 4.63269 92.16 6.4 92.16H169.6C171.367 92.16 172.8 90.7273 172.8 88.96V6.4C172.8 4.63269 171.367 3.2 169.6 3.2ZM6.4 0C2.86538 0 0 2.86538 0 6.4V88.96C0 92.4946 2.86538 95.36 6.4 95.36H169.6C173.135 95.36 176 92.4946 176 88.96V6.4C176 2.86538 173.135 0 169.6 0H6.4Z" fill="white"/>
<path d="M92.2185 32.8703C90.9897 32.8703 90.0527 32.5247 89.4076 31.8335C88.7625 31.1269 88.4399 30.1209 88.4399 28.8153V20.3365C88.4399 19.0309 88.7625 18.0325 89.4076 17.3413C90.0527 16.6348 90.9897 16.2815 92.2185 16.2815C93.4473 16.2815 94.3843 16.6348 95.0294 17.3413C95.6745 18.0325 95.9971 19.0309 95.9971 20.3365V21.7189H93.6009V20.1753C93.6009 19.1154 93.1631 18.5855 92.2876 18.5855C91.4121 18.5855 90.9743 19.1154 90.9743 20.1753V28.9996C90.9743 30.0441 91.4121 30.5663 92.2876 30.5663C93.1631 30.5663 93.6009 30.0441 93.6009 28.9996V25.8431H92.3337V23.5391H95.9971V28.8153C95.9971 30.1209 95.6745 31.1269 95.0294 31.8335C94.3843 32.5247 93.4473 32.8703 92.2185 32.8703Z" fill="white"/>
<path d="M99.5827 16.5119H103.016L105.642 32.6399H103.108L102.647 29.4373V29.4834H99.767L99.3062 32.6399H96.9561L99.5827 16.5119ZM102.347 27.2946L101.219 19.3228H101.172L100.067 27.2946H102.347Z" fill="white"/>
<path d="M106.872 16.5119H110.489L112.102 28.0549H112.148L113.761 16.5119H117.378V32.6399H114.982V20.4287H114.936L113.093 32.6399H110.973L109.13 20.4287H109.084V32.6399H106.872V16.5119Z" fill="white"/>
<path d="M119.269 16.5119H121.804V32.6399H119.269V16.5119Z" fill="white"/>
<path d="M123.702 16.5119H126.881L129.347 26.1657H129.393V16.5119H131.651V32.6399H129.047L126.006 20.8665H125.96V32.6399H123.702V16.5119Z" fill="white"/>
<path d="M137.129 32.8703C135.9 32.8703 134.963 32.5247 134.318 31.8335C133.673 31.1269 133.35 30.1209 133.35 28.8153V20.3365C133.35 19.0309 133.673 18.0325 134.318 17.3413C134.963 16.6348 135.9 16.2815 137.129 16.2815C138.357 16.2815 139.294 16.6348 139.939 17.3413C140.585 18.0325 140.907 19.0309 140.907 20.3365V21.7189H138.511V20.1753C138.511 19.1154 138.073 18.5855 137.198 18.5855C136.322 18.5855 135.884 19.1154 135.884 20.1753V28.9996C135.884 30.0441 136.322 30.5663 137.198 30.5663C138.073 30.5663 138.511 30.0441 138.511 28.9996V25.8431H137.244V23.5391H140.907V28.8153C140.907 30.1209 140.585 31.1269 139.939 31.8335C139.294 32.5247 138.357 32.8703 137.129 32.8703Z" fill="white"/>
<path d="M88.6243 40.1919H91.1587V56.3199H88.6243V40.1919Z" fill="white"/>
<path d="M93.0568 40.1919H96.2363L98.7016 49.8457H98.7476V40.1919H101.006V56.3199H98.402L95.3608 44.5465H95.3147V56.3199H93.0568V40.1919Z" fill="white"/>
<path d="M102.889 40.1919H106.76C108.02 40.1919 108.964 40.5298 109.594 41.2057C110.224 41.8815 110.539 42.8722 110.539 44.1778V52.334C110.539 53.6396 110.224 54.6303 109.594 55.3061C108.964 55.982 108.02 56.3199 106.76 56.3199H102.889V40.1919ZM106.714 54.0159C107.129 54.0159 107.444 53.893 107.659 53.6473C107.889 53.4015 108.004 53.0021 108.004 52.4492V44.0626C108.004 43.5097 107.889 43.1103 107.659 42.8645C107.444 42.6188 107.129 42.4959 106.714 42.4959H105.424V54.0159H106.714Z" fill="white"/>
<path d="M115.936 56.5503C114.707 56.5503 113.77 56.2047 113.125 55.5135C112.48 54.8069 112.157 53.8009 112.157 52.4953V40.1919H114.692V52.6796C114.692 53.2325 114.799 53.6319 115.014 53.8777C115.244 54.1234 115.567 54.2463 115.982 54.2463C116.396 54.2463 116.711 54.1234 116.926 53.8777C117.157 53.6319 117.272 53.2325 117.272 52.6796V40.1919H119.714V52.4953C119.714 53.8009 119.392 54.8069 118.747 55.5135C118.101 56.2047 117.164 56.5503 115.936 56.5503Z" fill="white"/>
<path d="M124.814 56.5503C123.585 56.5503 122.656 56.2047 122.026 55.5135C121.396 54.8069 121.082 53.8009 121.082 52.4953V51.5737H123.478V52.6796C123.478 53.7241 123.915 54.2463 124.791 54.2463C125.221 54.2463 125.544 54.1234 125.759 53.8777C125.989 53.6165 126.104 53.2018 126.104 52.6335C126.104 51.9577 125.951 51.3663 125.643 50.8594C125.336 50.3372 124.768 49.7151 123.938 48.9932C122.894 48.0716 122.164 47.2421 121.75 46.5049C121.335 45.7522 121.128 44.9074 121.128 43.9705C121.128 42.6956 121.45 41.7125 122.095 41.0213C122.74 40.3148 123.677 39.9615 124.906 39.9615C126.12 39.9615 127.034 40.3148 127.648 41.0213C128.278 41.7125 128.593 42.7109 128.593 44.0165V44.6847H126.196V43.8553C126.196 43.3023 126.089 42.9029 125.874 42.6572C125.659 42.3961 125.344 42.2655 124.929 42.2655C124.084 42.2655 123.662 42.7801 123.662 43.8092C123.662 44.3929 123.816 44.9381 124.123 45.445C124.445 45.9519 125.021 46.5663 125.851 47.2882C126.911 48.2098 127.64 49.0469 128.04 49.7996C128.439 50.5522 128.639 51.4354 128.639 52.4492C128.639 53.7701 128.308 54.7839 127.648 55.4905C127.003 56.197 126.058 56.5503 124.814 56.5503Z" fill="white"/>
<path d="M132.073 42.4959H129.424V40.1919H137.257V42.4959H134.608V56.3199H132.073V42.4959Z" fill="white"/>
<path d="M138.484 40.1919H142.24C143.545 40.1919 144.498 40.4991 145.097 41.1135C145.696 41.7125 145.995 42.6418 145.995 43.9013V44.8921C145.995 46.5663 145.442 47.6261 144.336 48.0716V48.1177C144.951 48.302 145.381 48.6783 145.627 49.2466C145.888 49.8149 146.018 50.5753 146.018 51.5276V54.3615C146.018 54.8223 146.034 55.1986 146.064 55.4905C146.095 55.7669 146.172 56.0434 146.295 56.3199H143.714C143.622 56.0588 143.561 55.813 143.53 55.5826C143.499 55.3522 143.484 54.9375 143.484 54.3385V51.3893C143.484 50.6521 143.361 50.1375 143.115 49.8457C142.885 49.5538 142.478 49.4079 141.894 49.4079H141.019V56.3199H138.484V40.1919ZM141.94 47.1039C142.447 47.1039 142.823 46.9733 143.069 46.7122C143.33 46.4511 143.461 46.0133 143.461 45.3989V44.1548C143.461 43.5711 143.353 43.1487 143.138 42.8876C142.939 42.6265 142.616 42.4959 142.171 42.4959H141.019V47.1039H141.94Z" fill="white"/>
<path d="M149.744 49.454L146.679 40.1919H149.375L151.103 46.1132H151.149L152.877 40.1919H155.343L152.278 49.454V56.3199H149.744V49.454Z" fill="white"/>
<path d="M92.1955 80.2303C90.982 80.2303 90.0527 79.8847 89.4076 79.1935C88.7779 78.5023 88.463 77.5269 88.463 76.2674V67.6044C88.463 66.3449 88.7779 65.3695 89.4076 64.6783C90.0527 63.9871 90.982 63.6415 92.1955 63.6415C93.4089 63.6415 94.3305 63.9871 94.9603 64.6783C95.6054 65.3695 95.9279 66.3449 95.9279 67.6044V69.3093H93.5318V67.4431C93.5318 66.4447 93.1094 65.9455 92.2646 65.9455C91.4198 65.9455 90.9974 66.4447 90.9974 67.4431V76.4517C90.9974 77.4348 91.4198 77.9263 92.2646 77.9263C93.1094 77.9263 93.5318 77.4348 93.5318 76.4517V73.9865H95.9279V76.2674C95.9279 77.5269 95.6054 78.5023 94.9603 79.1935C94.3305 79.8847 93.4089 80.2303 92.1955 80.2303Z" fill="white"/>
<path d="M101.153 80.2303C99.9085 80.2303 98.9561 79.877 98.2957 79.1705C97.6352 78.4639 97.3049 77.4655 97.3049 76.1753V67.6965C97.3049 66.4063 97.6352 65.4079 98.2957 64.7013C98.9561 63.9948 99.9085 63.6415 101.153 63.6415C102.397 63.6415 103.349 63.9948 104.01 64.7013C104.67 65.4079 105 66.4063 105 67.6965V76.1753C105 77.4655 104.67 78.4639 104.01 79.1705C103.349 79.877 102.397 80.2303 101.153 80.2303ZM101.153 77.9263C102.028 77.9263 102.466 77.3964 102.466 76.3365V67.5353C102.466 66.4754 102.028 65.9455 101.153 65.9455C100.277 65.9455 99.8393 66.4754 99.8393 67.5353V76.3365C99.8393 77.3964 100.277 77.9263 101.153 77.9263Z" fill="white"/>
<path d="M106.714 63.8719H110.332L111.944 75.4149H111.99L113.603 63.8719H117.221V79.9999H114.824V67.7887H114.778L112.935 79.9999H110.815L108.972 67.7887H108.926V79.9999H106.714V63.8719Z" fill="white"/>
<path d="M119.112 63.8719H122.844C124.104 63.8719 125.048 64.2098 125.678 64.8857C126.308 65.5615 126.623 66.5522 126.623 67.8578V69.4476C126.623 70.7532 126.308 71.7439 125.678 72.4197C125.048 73.0956 124.104 73.4335 122.844 73.4335H121.646V79.9999H119.112V63.8719ZM122.844 71.1295C123.259 71.1295 123.566 71.0143 123.766 70.7839C123.981 70.5535 124.088 70.1618 124.088 69.6089V67.6965C124.088 67.1436 123.981 66.7519 123.766 66.5215C123.566 66.2911 123.259 66.1759 122.844 66.1759H121.646V71.1295H122.844Z" fill="white"/>
<path d="M129.148 63.8719H132.581L135.207 79.9999H132.673L132.212 76.7973V76.8434H129.332L128.871 79.9999H126.521L129.148 63.8719ZM131.912 74.6546L130.784 66.6828H130.737L129.632 74.6546H131.912Z" fill="white"/>
<path d="M136.437 63.8719H139.616L142.082 73.5257H142.128V63.8719H144.386V79.9999H141.782L138.741 68.2265H138.695V79.9999H136.437V63.8719Z" fill="white"/>
<path d="M148.596 73.134L145.532 63.8719H148.228L149.956 69.7932H150.002L151.73 63.8719H154.195L151.131 73.134V79.9999H148.596V73.134Z" fill="white"/>
<path d="M37.2055 70.0927C35.4305 70.0927 34.0772 69.5935 33.1453 68.5951C32.2135 67.5745 31.7476 66.1213 31.7476 64.2354V51.9884C31.7476 50.1025 32.2135 48.6604 33.1453 47.662C34.0772 46.6414 35.4305 46.1311 37.2055 46.1311C38.9804 46.1311 40.3338 46.6414 41.2656 47.662C42.1975 48.6604 42.6634 50.1025 42.6634 51.9884V53.9852H39.2023V51.7554C39.2023 50.2245 38.57 49.4591 37.3053 49.4591C36.0407 49.4591 35.4084 50.2245 35.4084 51.7554V64.5017C35.4084 66.0104 36.0407 66.7647 37.3053 66.7647C38.57 66.7647 39.2023 66.0104 39.2023 64.5017V59.9423H37.3719V56.6143H42.6634V64.2354C42.6634 66.1213 42.1975 67.5745 41.2656 68.5951C40.3338 69.5935 38.9804 70.0927 37.2055 70.0927Z" fill="white"/>
<path d="M45.0138 46.4639H48.6746V69.7599H45.0138V46.4639Z" fill="white"/>
<path d="M56.5747 70.0927C54.822 70.0927 53.4797 69.5935 52.5478 68.5951C51.6382 67.5967 51.1833 66.1879 51.1833 64.3685V51.8553C51.1833 50.036 51.6382 48.6271 52.5478 47.6287C53.4797 46.6303 54.822 46.1311 56.5747 46.1311C58.3274 46.1311 59.6586 46.6303 60.5683 47.6287C61.5001 48.6271 61.9661 50.036 61.9661 51.8553V54.318H58.5049V51.6223C58.5049 50.1802 57.8948 49.4591 56.6745 49.4591C55.4543 49.4591 54.8441 50.1802 54.8441 51.6223V64.6348C54.8441 66.0547 55.4543 66.7647 56.6745 66.7647C57.8948 66.7647 58.5049 66.0547 58.5049 64.6348V61.0738H61.9661V64.3685C61.9661 66.1879 61.5001 67.5967 60.5683 68.5951C59.6586 69.5935 58.3274 70.0927 56.5747 70.0927Z" fill="white"/>
<path fill-rule="evenodd" clip-rule="evenodd" d="M56 40.3201H37.44C27.3663 40.3201 19.2 48.4864 19.2 58.5601C19.2 68.6338 27.3663 76.8001 37.44 76.8001H56C66.0737 76.8001 74.24 68.6338 74.24 58.5601C74.24 48.4864 66.0737 40.3201 56 40.3201ZM37.44 37.1201C25.599 37.1201 16 46.7191 16 58.5601C16 70.4011 25.599 80.0001 37.44 80.0001H56C67.841 80.0001 77.44 70.4011 77.44 58.5601C77.44 46.7191 67.841 37.1201 56 37.1201H37.44Z" fill="white"/>
<path d="M52.7958 25.5818H60.7833L60.7832 25.5826C62.1643 25.5826 63.2794 24.4431 63.2785 23.0523C63.2785 21.6615 62.1635 20.5386 60.7824 20.5386H43.4431C39.9654 20.5386 37.1201 17.6898 37.1201 14.171V13.836C37.1201 12.9138 37.8695 12.1599 38.7845 12.1599C39.7002 12.1599 40.4488 12.9146 40.4488 13.836V14.171C40.4488 15.8297 41.7969 17.1873 43.4439 17.1873H60.7832C63.9949 17.1873 66.6072 19.818 66.6072 23.0523C66.6072 26.2866 63.9949 28.9173 60.7832 28.9173H52.7958C50.1664 28.9173 48.0367 31.0618 48.0367 33.71V37.0778L44.7089 37.0936V33.7258C44.7089 29.235 48.3365 25.5818 52.7958 25.5818Z" fill="white"/>
</svg>
