<svg width="37" height="22" viewBox="0 0 37 22" fill="none" xmlns="http://www.w3.org/2000/svg">
<path d="M17.4871 19.947C17.5765 20.0197 17.6721 20.0924 17.7662 20.1636C15.9516 21.3251 13.7732 22 11.4345 22C5.11833 22.0015 0 17.0767 0 11.0007C0 4.9263 5.11833 0 11.433 0C13.7732 0 15.9516 0.676421 17.7615 1.83642C17.669 1.91208 17.5765 1.98179 17.5072 2.05893C14.8 4.30922 13.2506 7.57117 13.2506 11.0007C13.2506 14.4288 14.7938 17.6908 17.4871 19.947ZM25.567 0C23.2237 0 21.0484 0.676421 19.2385 1.83642C19.331 1.91208 19.4235 1.98179 19.4928 2.05893C22.2 4.30922 23.7494 7.57117 23.7494 11.0007C23.7494 14.4273 22.2062 17.6863 19.5129 19.947C19.4235 20.0197 19.3279 20.0924 19.2338 20.1636C21.0484 21.3251 23.2237 22 25.5655 22C31.8817 22.0015 37 17.0767 37 11.0007C37 4.92779 31.8817 0 25.567 0ZM18.5 2.35857C18.352 2.46983 18.2086 2.58108 18.0683 2.70123C15.6572 4.71715 14.1355 7.68539 14.1355 11.0007C14.1355 14.3176 15.6572 17.2843 18.0683 19.3002C18.2071 19.4189 18.3535 19.5346 18.5 19.6444C18.648 19.5346 18.7914 19.4189 18.9317 19.3002C21.3413 17.2843 22.8645 14.3176 22.8645 11.0007C22.8645 7.68539 21.3428 4.71715 18.9317 2.70123C18.7929 2.58256 18.648 2.46983 18.5 2.35857Z" fill="#15141A"/>
</svg>
