<svg width="31" height="37" viewBox="0 0 31 37" fill="none" xmlns="http://www.w3.org/2000/svg">
<path d="M7.99621 32.8945H0.976445C0.835435 32.8945 0.696111 32.8635 0.568046 32.8038C0.439981 32.7441 0.32621 32.6571 0.234549 32.5487C0.142889 32.4403 0.0755115 32.3131 0.0370473 32.1759C-0.00141691 32.0387 -0.0100565 31.8946 0.0117219 31.7537L4.74694 1.38904C4.87191 0.588917 5.55469 0 6.35329 0H17.7227C21.6395 0 24.6998 0.837125 26.3945 2.79042C27.9338 4.56333 28.3819 6.52125 27.9369 9.39954C27.9018 9.62 27.8652 9.84354 27.8195 10.0732C26.3214 17.8587 21.1914 20.552 14.6411 20.552H11.3034C10.5048 20.552 9.82812 21.1409 9.70315 21.9395L7.99621 32.8945V32.8945ZM29.5554 10.6637C29.2817 10.3487 28.971 10.0687 28.6303 9.82967C28.6105 9.94683 28.5907 10.0995 28.5678 10.2212C27.1505 17.5873 22.464 21.3228 14.6411 21.3228H11.3034C11.0982 21.323 10.8999 21.3977 10.7444 21.5332C10.589 21.6686 10.4866 21.856 10.456 22.0613L8.64698 33.6654H7.87581L7.51004 36.0025C7.49087 36.1258 7.49836 36.2519 7.532 36.372C7.56563 36.4921 7.62461 36.6034 7.70486 36.6982C7.78512 36.793 7.88475 36.8691 7.99688 36.9212C8.109 36.9733 8.23097 37.0002 8.35437 37H14.2707C14.9718 37 15.5662 36.4851 15.6759 35.7852C15.7673 35.3843 16.8342 28.305 16.9195 27.9381C16.9719 27.599 17.1426 27.2901 17.4006 27.0673C17.6586 26.8445 17.987 26.7224 18.3262 26.7232H19.2102C24.9406 26.7232 29.4289 24.3676 30.7396 17.5565C31.2883 14.709 31.0048 12.3333 29.5554 10.6637Z" fill="#15141A"/>
</svg>
