<svg width="31" height="29" viewBox="0 0 31 29" fill="none" xmlns="http://www.w3.org/2000/svg">
<path d="M30.9068 2.70488C21.6594 -0.611803 11.6073 -0.885462 2.19585 1.92325C1.82208 2.01393 1.47022 2.17951 1.16121 2.41015C0.852193 2.64079 0.592339 2.93177 0.39711 3.26577C0.201881 3.59977 0.075267 3.96996 0.0248026 4.35433C-0.0256617 4.73869 0.00105509 5.12936 0.103363 5.5031C0.620027 7.58744 1.36919 9.98313 2.27335 12.1574C2.28627 12.2095 2.3121 12.1834 2.3121 12.1313C2.18293 11.1152 2.95793 9.8255 4.4808 9.35652C11.8002 7.01 19.6759 7.11511 26.9311 9.65614C28.0419 10.047 29.2819 9.43468 29.6423 8.27657C30.5465 5.34808 30.9081 3.35493 30.9986 2.8612C31.0115 2.77001 30.934 2.73093 30.9081 2.70488H30.9068ZM8.5999 9.14939C7.48907 9.38388 5.952 9.74864 4.80242 10.1395C2.50585 10.9341 2.60918 13.7584 3.83497 14.6573C3.92538 14.1362 4.4808 13.4197 5.10079 13.1852C7.39865 12.2733 9.86443 11.7275 12.356 11.506C11.0902 10.9849 9.85022 10.2424 8.61152 9.14939H8.5999ZM26.9053 14.8006C23.6012 13.2357 20.0196 12.3545 16.3722 12.209C12.7248 12.0636 9.0854 12.6569 5.66912 13.9538C4.57121 14.3707 3.88663 15.7125 4.57121 16.9878C5.7691 19.1709 7.12832 21.2598 8.63735 23.2369C8.41777 22.4813 8.80527 21.0757 10.2778 20.6198C14.3439 19.3574 18.6167 19.8902 21.4571 21.0497C22.2579 21.3753 23.3946 21.1799 24.0275 20.2159C25.1154 18.5327 26.1022 16.7852 26.9828 14.9829C27.0215 14.9048 26.9828 14.8396 26.9053 14.8006V14.8006ZM20.3088 24.9174C19.1183 24.3101 18.0292 23.519 17.0809 22.5725C16.6418 22.1296 15.9959 21.4926 15.3114 20.737C13.7627 20.737 12.2527 20.8933 10.6394 21.4144C9.1411 21.8834 8.99902 23.629 9.65777 24.5396C10.7686 25.9335 11.5436 26.6891 12.7823 27.9775C13.4393 28.6283 14.322 28.9951 15.2428 29C16.1637 29.0048 17.0501 28.6474 17.7138 28.0035C18.6333 27.0754 19.5203 26.1151 20.3734 25.1245C20.438 25.0594 20.4121 24.9422 20.3088 24.9161" fill="#15141A"/>
</svg>
