<svg width="19" height="19" viewBox="0 0 19 19" fill="none" xmlns="http://www.w3.org/2000/svg">
<path d="M13.2981 10.6763C13.0463 10.6763 12.8047 10.7763 12.6266 10.9546C12.4484 11.1327 12.3484 11.3743 12.3484 11.6262V17.0975H1.89973V2.84941H5.69919C6.03859 2.84941 6.35221 2.66834 6.52185 2.37443C6.69146 2.08053 6.69146 1.71837 6.52185 1.4245C6.35224 1.1306 6.0386 0.949707 5.69919 0.949707H1.89973C1.39597 0.949707 0.912726 1.14977 0.556416 1.50612C0.200091 1.86226 0 2.34554 0 2.84944V17.0975C0 17.6013 0.200067 18.0845 0.556416 18.4408C0.912741 18.797 1.39597 18.9973 1.89973 18.9973H12.3484C12.8521 18.9973 13.3354 18.797 13.6917 18.4408C14.048 18.0845 14.2481 17.6013 14.2481 17.0975V11.6263C14.2481 11.3743 14.1481 11.1327 13.9698 10.9546C13.7917 10.7764 13.5501 10.6763 13.2981 10.6763L13.2981 10.6763Z" fill="#FF4848"/>
<path d="M18.8452 12.9751L15.682 8.12142H15.6822C16.7318 7.08026 17.2367 5.61001 17.0483 4.1437C16.8597 2.67759 15.9992 1.3828 14.7206 0.640962C13.4418 -0.100638 11.8907 -0.204614 10.5244 0.359851C9.15814 0.924162 8.13258 2.09259 7.75013 3.52053C7.36767 4.94847 7.67191 6.47307 8.57318 7.64492C9.47445 8.81657 10.8698 9.50195 12.3482 9.49858C12.9472 9.4982 13.5407 9.38218 14.096 9.15673L17.2495 14.02C17.4261 14.2882 17.7262 14.4489 18.0474 14.4474C18.2294 14.4469 18.4075 14.3942 18.5603 14.2955C18.7743 14.159 18.9249 13.9427 18.9783 13.6947C19.0319 13.4467 18.984 13.1876 18.8452 12.9751L18.8452 12.9751ZM9.49838 4.74941C9.49838 3.99352 9.79867 3.26881 10.3331 2.73444C10.8675 2.20003 11.5923 1.89975 12.348 1.89975C13.1037 1.89975 13.8286 2.20004 14.363 2.73444C14.8974 3.26886 15.1977 3.99352 15.1977 4.74941C15.1977 5.50512 14.8974 6.23001 14.363 6.76438C13.8286 7.2988 13.1037 7.59889 12.348 7.59889C11.5923 7.59889 10.8674 7.29878 10.3331 6.76438C9.79866 6.22997 9.49838 5.50512 9.49838 4.74941Z" fill="#FF4848"/>
<path d="M9.50035 13.2979H4.75115C4.41174 13.2979 4.09812 13.4789 3.92848 13.7728C3.75885 14.0667 3.75888 14.4289 3.92848 14.7228C4.09809 15.0166 4.41173 15.1977 4.75115 15.1977H9.50054H9.50036C9.83976 15.1977 10.1534 15.0167 10.323 14.7228C10.4926 14.4289 10.4926 14.0667 10.323 13.7728C10.1534 13.4789 9.83977 13.2979 9.50036 13.2979H9.50035Z" fill="#FF4848"/>
<path d="M9.50034 9.49854H4.75114C4.41173 9.49854 4.09811 9.67961 3.92847 9.97351C3.75887 10.2674 3.75887 10.6296 3.92847 10.9234C4.09808 11.2174 4.41172 11.3982 4.75114 11.3982H9.50053H9.50034C9.83975 11.3982 10.1534 11.2174 10.323 10.9234C10.4926 10.6295 10.4926 10.2674 10.323 9.97351C10.1534 9.67961 9.83976 9.49854 9.50034 9.49854H9.50034Z" fill="#FF4848"/>
</svg>
