<svg width="15" height="15" viewBox="0 0 15 15" fill="none" xmlns="http://www.w3.org/2000/svg">
<path d="M9.40758 5.17866L6.69181 7.89431L5.58652 6.78902C5.22341 6.42591 4.65497 6.42591 4.29186 6.78902C3.92875 7.15212 3.92875 7.72057 4.29186 8.08368L6.04441 9.83623C6.21814 10.01 6.45489 10.1046 6.69181 10.1046C6.9287 10.1046 7.16547 10.01 7.3392 9.83623L10.7022 6.47322C11.0653 6.11012 11.0653 5.54167 10.7022 5.17856C10.3549 4.81546 9.77066 4.81546 9.40755 5.17869L9.40758 5.17866Z" fill="black"/>
<path d="M10.4211 0H4.57892C2.05264 0 0 2.05261 0 4.57892V10.4211C0 12.9474 2.05261 15 4.57892 15H10.4211C12.9474 15 15 12.9474 15 10.4211V4.57892C15 2.05264 12.9474 0 10.4211 0ZM13.1684 10.4208C13.1684 11.9366 11.9369 13.168 10.4211 13.168H4.57892C3.06311 13.168 1.83163 11.9365 1.83163 10.4208V4.57858C1.83163 3.06278 3.06315 1.8313 4.57892 1.8313H10.4211C11.9369 1.8313 13.1684 3.06281 13.1684 4.57858V10.4208Z" fill="black"/>
</svg>
