<svg width="23" height="17" viewBox="0 0 23 17" fill="none" xmlns="http://www.w3.org/2000/svg">
<path d="M19.4704 1.40925C17.9793 0.745505 16.4056 0.272194 14.7889 0.00116813C14.7742 -0.00148877 14.759 0.000413146 14.7455 0.00660307C14.732 0.012793 14.7209 0.0229557 14.7137 0.0356453C14.5115 0.384412 14.2875 0.839306 14.1307 1.19681C12.3629 0.940135 10.604 0.940135 8.87253 1.19681C8.71575 0.831314 8.48364 0.384412 8.28057 0.0356453C8.27305 0.0232449 8.26184 0.0133308 8.24842 0.00719708C8.235 0.00106335 8.21999 -0.00100514 8.20534 0.00126119C6.58842 0.271657 5.01466 0.744928 3.52369 1.40915C3.51094 1.41444 3.50019 1.42343 3.49293 1.4349C0.511178 5.75466 -0.305704 9.96821 0.0950704 14.1295C0.0962036 14.1397 0.0994338 14.1496 0.10457 14.1585C0.109706 14.1675 0.116643 14.1754 0.12497 14.1817C2.09223 15.5827 3.99788 16.4332 5.86816 16.9969C5.8827 17.0011 5.89822 17.0009 5.91264 16.9963C5.92707 16.9917 5.9397 16.983 5.94885 16.9712C6.39122 16.3854 6.78557 15.7676 7.12376 15.118C7.12841 15.1091 7.13107 15.0994 7.13155 15.0894C7.13203 15.0795 7.13034 15.0695 7.12657 15.0602C7.12281 15.051 7.11706 15.0426 7.1097 15.0356C7.10235 15.0286 7.09355 15.0232 7.0839 15.0198C6.4583 14.7897 5.8627 14.5092 5.28971 14.1906C5.27926 14.1846 5.27048 14.1763 5.26415 14.1663C5.25782 14.1562 5.25414 14.1449 5.25342 14.1331C5.2527 14.1214 5.25497 14.1097 5.26003 14.099C5.26509 14.0883 5.27278 14.079 5.28243 14.0719C5.40298 13.9843 5.52364 13.8932 5.63873 13.8011C5.64896 13.7929 5.66135 13.7877 5.67448 13.786C5.68762 13.7842 5.701 13.7861 5.7131 13.7914C9.47724 15.4579 13.5523 15.4579 17.2719 13.7914C17.284 13.7858 17.2975 13.7836 17.3109 13.7852C17.3242 13.7868 17.3368 13.792 17.3472 13.8002C17.4623 13.8922 17.5829 13.9843 17.7044 14.0719C17.7141 14.079 17.7218 14.0882 17.727 14.0988C17.7321 14.1094 17.7344 14.1211 17.7338 14.1328C17.7332 14.1446 17.7296 14.1559 17.7234 14.166C17.7171 14.176 17.7085 14.1845 17.6981 14.1905C17.1249 14.5151 16.5244 14.7923 15.9031 15.0189C15.8935 15.0225 15.8847 15.028 15.8774 15.0351C15.8701 15.0421 15.8645 15.0506 15.8608 15.06C15.8571 15.0694 15.8555 15.0794 15.8561 15.0894C15.8566 15.0994 15.8594 15.1091 15.8641 15.118C16.2095 15.7667 16.6039 16.3845 17.0381 16.9703C17.047 16.9824 17.0595 16.9915 17.074 16.9962C17.0885 17.001 17.1042 17.0012 17.1188 16.9969C18.9981 16.4331 20.9037 15.5826 22.871 14.1817C22.8795 14.1757 22.8865 14.168 22.8917 14.1592C22.8969 14.1503 22.9 14.1405 22.901 14.1304C23.3805 9.31938 22.0977 5.1404 19.5003 1.43573C19.494 1.4237 19.4834 1.41427 19.4704 1.40915V1.40925ZM7.68583 11.5957C6.5526 11.5957 5.6188 10.5868 5.6188 9.34772C5.6188 8.10877 6.53449 7.09983 7.68592 7.09983C8.84627 7.09983 9.77097 8.1176 9.75285 9.34781C9.75285 10.5868 8.83717 11.5957 7.68583 11.5957ZM15.3283 11.5957C14.1951 11.5957 13.2613 10.5868 13.2613 9.34772C13.2613 8.10877 14.1769 7.09983 15.3283 7.09983C16.4887 7.09983 17.4134 8.1176 17.3953 9.34781C17.3953 10.5868 16.4887 11.5957 15.3283 11.5957Z" fill="#777679"/>
</svg>
