<svg width="15" height="19" viewBox="0 0 15 19" fill="none" xmlns="http://www.w3.org/2000/svg">
<path d="M11.6659 8.23441L8.48497 5.05352C8.10112 4.66966 7.48219 4.66966 7.09818 5.05352C6.71432 5.43738 6.71432 6.0563 7.09818 6.44032L8.60632 7.94846H0.979372C0.438815 7.94846 0 8.38723 0 8.92783C0 9.46839 0.438774 9.9072 0.979372 9.9072H8.60632L7.09818 11.4153C6.71432 11.7992 6.71432 12.4181 7.09818 12.8021C7.29011 12.9941 7.54084 13.0881 7.7916 13.0881C8.04235 13.0881 8.29307 12.9941 8.48501 12.8021L11.6659 9.62125C12.0496 9.23335 12.0496 8.61441 11.6656 8.23445L11.6659 8.23441Z" fill="white"/>
<path d="M3.97336 11.5168C4.51392 11.5168 4.95273 11.9556 4.95273 12.4962V16.4527H13.0421V1.95858H4.95273V5.91511C4.95273 6.45567 4.51396 6.89449 3.97336 6.89449C3.4328 6.89449 2.99399 6.45571 2.99399 5.91511L2.99415 0.979373C2.99415 0.438816 3.43292 0 3.97352 0H14.0216C14.5622 0 15.001 0.438774 15.001 0.979373V17.4323C15.001 17.9728 14.5622 18.4116 14.0216 18.4116H3.97352C3.43296 18.4116 2.99415 17.9729 2.99415 17.4323V12.4965C2.99415 11.956 3.43276 11.5171 3.97352 11.5171L3.97336 11.5168Z" fill="white"/>
</svg>
