<svg width="20" height="19" viewBox="0 0 20 19" fill="none" xmlns="http://www.w3.org/2000/svg">
<path d="M3.9549 9.02894C3.95492 8.92272 3.97592 8.81754 4.0167 8.71946C4.05747 8.62137 4.11723 8.5323 4.19252 8.45737C4.26781 8.38245 4.35717 8.32313 4.45545 8.28282C4.55373 8.24252 4.65901 8.22203 4.76523 8.22253L6.10868 8.22691C6.32289 8.22691 6.52832 8.31201 6.67979 8.46348C6.83126 8.61494 6.91635 8.82038 6.91635 9.03458V14.1149C7.06766 14.07 7.26131 14.0222 7.47439 13.972C7.62203 13.9373 7.7536 13.8537 7.84777 13.7348C7.94195 13.6159 7.99321 13.4687 7.99324 13.3171V7.0158C7.99324 6.80158 8.07833 6.59613 8.2298 6.44464C8.38126 6.29315 8.58669 6.20802 8.80091 6.20798H10.1484C10.3627 6.20802 10.5681 6.29315 10.7196 6.44464C10.871 6.59613 10.9561 6.80158 10.9561 7.0158V12.8644C10.9561 12.8644 11.2932 12.728 11.6214 12.5894C11.7434 12.5378 11.8474 12.4514 11.9206 12.3411C11.9938 12.2308 12.0329 12.1013 12.033 11.9689V4.99655C12.033 4.78237 12.1181 4.57696 12.2695 4.4255C12.4209 4.27403 12.6263 4.18892 12.8405 4.18888H14.1866C14.4007 4.18909 14.6059 4.27428 14.7572 4.42572C14.9085 4.57717 14.9935 4.78248 14.9935 4.99655V10.738C16.1606 9.89227 17.3433 8.87496 18.2819 7.65178C18.4181 7.47422 18.5082 7.26573 18.5442 7.04488C18.5802 6.82404 18.561 6.59771 18.4882 6.3861C18.0538 5.13612 17.3631 3.99061 16.4605 3.02286C15.5579 2.05511 14.4633 1.28644 13.2466 0.766029C12.0298 0.245623 10.7179 -0.015057 9.39464 0.000671643C8.07139 0.0164002 6.76601 0.30819 5.56201 0.85737C4.35801 1.40655 3.28191 2.20102 2.40257 3.18995C1.52323 4.17889 0.860022 5.34049 0.455379 6.60045C0.0507366 7.8604 -0.0864273 9.19095 0.052664 10.507C0.191755 11.823 0.604039 13.0954 1.26313 14.243C1.37796 14.4409 1.5469 14.602 1.7501 14.7073C1.95331 14.8125 2.18233 14.8576 2.41027 14.8372C2.66491 14.8148 2.98196 14.7831 3.3589 14.7389C3.52296 14.7203 3.67442 14.6419 3.78444 14.5188C3.89445 14.3957 3.95535 14.2364 3.95552 14.0713V9.02894" fill="white"/>
<path d="M3.92969 17.1767C5.34859 18.209 7.02539 18.8286 8.77457 18.967C10.5238 19.1054 12.2771 18.7572 13.8407 17.9609C15.4043 17.1646 16.7171 15.9514 17.6339 14.4553C18.5507 12.9592 19.0358 11.2387 19.0355 9.48404C19.0355 9.26452 19.0253 9.04845 19.0107 8.83301C15.5356 14.016 9.11909 16.439 3.92969 17.1767Z" fill="white"/>
</svg>
