<svg width="13" height="17" viewBox="0 0 13 17" fill="none" xmlns="http://www.w3.org/2000/svg">
<path d="M11.4175 6.91698H10.9499L10.948 4.59162C10.9462 2.05873 8.88106 -0.00199283 6.34286 1.44626e-06C3.80454 0.00187108 1.73929 2.06268 1.74128 4.59561L1.74503 6.92081H1.5786C0.706007 6.92268 -0.00187479 7.6291 3.73016e-06 8.49988V15.4228C3.73016e-06 16.2936 0.709764 17 1.58236 17L11.4214 16.9945C12.294 16.9945 13.0019 16.2881 13 15.4174V8.49243C13 7.62165 12.2902 6.91711 11.4176 6.91711L11.4175 6.91698ZM3.44098 6.92072L3.43723 4.59552C3.43723 2.99559 4.73949 1.69417 6.34274 1.69229C7.946 1.69229 9.25013 2.99372 9.25013 4.59177L9.25388 6.91697L3.44098 6.92072Z" fill="#777679"/>
</svg>
