<svg width="15" height="15" viewBox="0 0 15 15" fill="none" xmlns="http://www.w3.org/2000/svg">
<path fill-rule="evenodd" clip-rule="evenodd" d="M7.50314 0.000184484C6.38209 0.000184484 5.45427 0.926652 5.45427 2.04771V2.72805H4.77392C2.14236 2.72805 0.00269875 4.86787 0.00269875 7.49926V10.1992C0.00256382 10.2078 0 10.2159 0 10.2246V12.9525C0 14.0735 0.927818 15 2.04888 15H3.41216C4.53322 15 5.45444 14.0735 5.45444 12.9525V10.2246C5.45444 9.10339 4.53322 8.18231 3.41216 8.18231H2.04888C1.80896 8.18231 1.58077 8.23142 1.36594 8.30874V7.49924C1.36594 5.59933 2.87413 4.09114 4.77406 4.09114H5.4544V7.4979C5.45143 8.00635 5.98607 8.33883 6.44094 8.11174L9.02771 6.81769H10.8304C10.8768 7.03939 10.9089 7.265 10.9089 7.49924V8.30874C10.6937 8.23116 10.4649 8.18231 10.2246 8.18231H8.86661C7.74555 8.18231 6.81773 9.10339 6.81773 10.2246V12.9525C6.81773 14.0735 7.74555 15 8.86661 15H10.2246C11.3457 15 12.2735 14.0735 12.2735 12.9525V10.2246C12.2735 10.22 12.2721 10.2158 12.2721 10.2112V7.49924C12.2721 7.26648 12.2504 7.04019 12.2176 6.81769H12.9164C14.0792 6.88003 15 5.89717 15 4.77542V2.04752C15 0.926468 14.0735 0 12.9525 0L7.50314 0.000184484Z" fill="#777679"/>
</svg>
