<svg width="15" height="15" viewBox="0 0 15 15" fill="none" xmlns="http://www.w3.org/2000/svg">
<path d="M7.49989 15C9.48911 15 11.3965 14.2099 12.8033 12.8033C14.2102 11.3968 15 9.48925 15 7.49989C15 5.51082 14.2099 3.60327 12.8033 2.1968C11.3968 0.790321 9.48925 0 7.49989 0C5.51082 0 3.60327 0.790285 2.1968 2.1968C0.79032 3.60331 0 5.51089 0 7.49989C0.00220977 9.48841 0.793184 11.3947 2.19913 12.8009C3.60525 14.207 5.51159 14.9978 7.50011 15H7.49989ZM6.80231 4.0116C6.80231 3.76231 6.93531 3.53196 7.15118 3.40736C7.36705 3.28277 7.63291 3.28279 7.84876 3.40736C8.06463 3.53194 8.19763 3.7623 8.19763 4.0116V7.21107L10.7839 9.79731C10.9185 9.92728 10.9952 10.106 10.9968 10.2931C10.9985 10.4803 10.9249 10.6601 10.7926 10.7925C10.6601 10.9248 10.4803 10.9984 10.2932 10.9968C10.106 10.9951 9.9273 10.9185 9.79737 10.7838L7.00669 7.99315C6.87631 7.86194 6.80298 7.68474 6.80229 7.49982L6.80231 4.0116Z" fill="#777679"/>
</svg>
