<svg width="38" height="35" viewBox="0 0 38 35" fill="none" xmlns="http://www.w3.org/2000/svg">
<g filter="url(#filter0_d_1_3118)">
<path d="M18.3488 15.0701C18.5868 15.308 18.8977 15.4246 19.2087 15.4246C19.5196 15.4246 19.8305 15.3081 20.0685 15.0701C20.5445 14.5941 20.5445 13.8266 20.0685 13.3504L15.0701 8.35699C14.5941 7.881 13.8266 7.881 13.3504 8.35699L8.35699 13.3555C7.881 13.8314 7.881 14.5989 8.35699 15.0751C8.83297 15.5511 9.60044 15.5511 10.0766 15.0751L13.0009 12.1508V24.9115C13.0009 25.5818 13.545 26.1259 14.2153 26.1259C14.8856 26.1259 15.4297 25.5818 15.4297 24.9115V12.1457L18.3488 15.0701Z" fill="#FF4848"/>
<path d="M29.6423 19.0533C29.1664 18.5773 28.3989 18.5773 27.9227 19.0533L24.9985 21.9775L24.9987 9.21686C24.9987 8.54657 24.4546 8.00244 23.7842 8.00244C23.1139 8.00244 22.5698 8.54652 22.5698 9.21686V21.9775L19.6506 19.0533C19.1746 18.5773 18.4071 18.5773 17.931 19.0533C17.455 19.5293 17.455 20.2967 17.931 20.7729L22.9294 25.7714C23.1674 26.0094 23.4783 26.126 23.7893 26.126C24.1002 26.126 24.4111 26.0094 24.6491 25.7714L29.6476 20.7729C30.1186 20.2967 30.1186 19.5292 29.6424 19.0533H29.6423Z" fill="#FF4848"/>
</g>
<defs>
<filter id="filter0_d_1_3118" x="0" y="0" width="38.0001" height="34.126" filterUnits="userSpaceOnUse" color-interpolation-filters="sRGB">
<feFlood flood-opacity="0" result="BackgroundImageFix"/>
<feColorMatrix in="SourceAlpha" type="matrix" values="0 0 0 0 0 0 0 0 0 0 0 0 0 0 0 0 0 0 127 0" result="hardAlpha"/>
<feOffset/>
<feGaussianBlur stdDeviation="4"/>
<feComposite in2="hardAlpha" operator="out"/>
<feColorMatrix type="matrix" values="0 0 0 0 1 0 0 0 0 0.282353 0 0 0 0 0.282353 0 0 0 1 0"/>
<feBlend mode="normal" in2="BackgroundImageFix" result="effect1_dropShadow_1_3118"/>
<feBlend mode="normal" in="SourceGraphic" in2="effect1_dropShadow_1_3118" result="shape"/>
</filter>
</defs>
</svg>
