<svg width="40" height="40" viewBox="0 0 40 40" fill="none" xmlns="http://www.w3.org/2000/svg">
<path fill-rule="evenodd" clip-rule="evenodd" d="M15.5971 23.4614L5.35438 28.5832C2.36873 28.7687 0 31.2532 0 34.2859C0 37.4401 2.56025 40 5.71444 40C8.86863 40 11.4285 37.44 11.4285 34.2859C11.4285 32.4772 10.5873 30.8645 9.27434 29.8173L18.5717 25.1689V28.7517C16.1086 29.3875 14.2859 31.6257 14.2859 34.2859C14.2859 37.4401 16.8459 40 20 40C23.1546 40 25.7144 37.44 25.7144 34.2859C25.7144 31.6257 23.8917 29.3875 21.4287 28.7517V25.1689L30.726 29.8173C29.4131 30.8645 28.5715 32.4772 28.5715 34.2859C28.5715 37.4401 31.1318 40 34.2859 40C37.4401 40 40 37.44 40 34.2859C40 31.2532 37.6317 28.7687 34.646 28.5832L24.4033 23.4614C28.9319 21.6972 32.1434 17.2915 32.1434 12.1434C32.1434 5.44174 26.7019 0 20 0C13.2987 0 7.85758 5.44145 7.85758 12.1434C7.85758 17.2919 11.0691 21.6976 15.5977 23.4614H15.5971ZM34.2861 31.4289C35.8634 31.4289 37.1432 32.7087 37.1432 34.2859C37.1432 35.8632 35.8634 37.143 34.2861 37.143C32.7089 37.143 31.4291 35.8632 31.4291 34.2859C31.4291 32.7087 32.7089 31.4289 34.2861 31.4289ZM5.71444 31.4289C7.29173 31.4289 8.57151 32.7087 8.57151 34.2859C8.57151 35.8632 7.29173 37.143 5.71444 37.143C4.13715 37.143 2.85736 35.8632 2.85736 34.2859C2.85736 32.7087 4.13715 31.4289 5.71444 31.4289ZM19.9998 31.4289C21.5771 31.4289 22.8573 32.7087 22.8573 34.2859C22.8573 35.8632 21.5771 37.143 19.9998 37.143C18.4229 37.143 17.1427 35.8632 17.1427 34.2859C17.1427 32.7087 18.4229 31.4289 19.9998 31.4289ZM24.9485 19.9998C23.9598 18.2913 22.1129 17.1427 19.9998 17.1427C17.8871 17.1427 16.0399 18.2928 15.0511 19.9998C16.4783 20.9014 18.1699 21.4255 19.9828 21.4285H20.0171C21.83 21.4255 23.5201 20.9014 24.9484 19.9998H24.9485ZM27.1257 18.0941C28.4745 16.4814 29.2859 14.4072 29.2859 12.1429C29.2859 7.01855 25.1243 2.85727 19.9999 2.85727C14.8756 2.85727 10.7143 7.01855 10.7143 12.1429C10.7143 14.4072 11.5257 16.4814 12.8745 18.0941C14.413 15.7986 17.0316 14.2858 19.9999 14.2858C22.9686 14.2858 25.5873 15.7986 27.1257 18.0941ZM19.9999 4.28561C17.6342 4.28561 15.7142 6.20568 15.7142 8.57132C15.7142 10.9371 17.6343 12.857 19.9999 12.857C22.3655 12.857 24.2856 10.937 24.2856 8.57132C24.2856 6.20558 22.3655 4.28561 19.9999 4.28561ZM19.9999 7.14307C20.7887 7.14307 21.4286 7.78295 21.4286 8.57141C21.4286 9.36024 20.7888 10.0001 19.9999 10.0001C19.2115 10.0001 18.5716 9.36026 18.5716 8.57141C18.5716 7.78296 19.2114 7.14307 19.9999 7.14307Z" fill="white"/>
</svg>
