<svg width="20" height="24" viewBox="0 0 20 24" fill="none" xmlns="http://www.w3.org/2000/svg">
<path d="M18.5178 3.51162L15.9158 0.909365C15.3348 0.328378 14.5767 0.0252142 13.7684 0.0252142L3.03153 0C2.22302 0 1.46514 0.303196 0.884151 0.884151C0.303164 1.46511 0 2.22323 0 3.03153V20.9685C0 22.636 1.36426 24 3.03153 24H16.3706C18.0381 24 19.4021 22.6357 19.4021 20.9685V5.63373C19.4021 4.8504 19.0737 4.06734 18.518 3.51158L18.5178 3.51162ZM17.4063 4.62313C17.5074 4.72419 17.6084 4.87569 17.6843 5.00218H14.5263C14.4759 5.00218 14.4252 4.95175 14.4252 4.90111V1.76828C14.5515 1.84414 14.7032 1.91978 14.8043 2.04626L17.4063 4.62313ZM16.3704 22.4086H3.03137C2.24825 22.4086 1.59146 21.7518 1.59146 20.9687V3.03172C1.59146 2.65267 1.74295 2.27384 2.02094 2.0213C2.29892 1.74332 2.65255 1.59183 3.03136 1.59183L12.8336 1.61704V4.92655C12.8336 5.86133 13.5915 6.61921 14.5263 6.61921H17.8358V20.9943C17.8104 21.7519 17.1788 22.4088 16.3704 22.4088L16.3704 22.4086Z" fill="#2C848F"/>
<path d="M15.0317 13.4653H9.52432C9.09485 13.4653 8.74121 13.819 8.74121 14.2484C8.74121 14.6779 9.09483 15.0316 9.52432 15.0316H15.0317C15.4612 15.0316 15.8148 14.6779 15.8148 14.2484C15.8148 13.819 15.461 13.4653 15.0315 13.4653H15.0317Z" fill="#2C848F"/>
<path d="M15.0317 8.96826H9.52432C9.09485 8.96826 8.74121 9.32188 8.74121 9.75138C8.74121 10.1809 9.09483 10.5345 9.52432 10.5345H15.0317C15.4612 10.5345 15.8148 10.1809 15.8148 9.75138C15.8148 9.3219 15.461 8.96826 15.0315 8.96826H15.0317Z" fill="#2C848F"/>
<path d="M15.0317 17.937H9.52432C9.09485 17.937 8.74121 18.2906 8.74121 18.7201C8.74121 19.1496 9.09483 19.5032 9.52432 19.5032H15.0317C15.4612 19.5032 15.8148 19.1496 15.8148 18.7201C15.8148 18.2907 15.461 17.937 15.0315 17.937H15.0317Z" fill="#2C848F"/>
<path d="M6.51785 8.15986L5.27986 9.39785L4.95146 9.06945C4.64826 8.76625 4.14295 8.76625 3.83995 9.06945C3.53675 9.37264 3.53675 9.87796 3.83995 10.181L4.74954 11.0906C4.90103 11.242 5.10316 11.3179 5.3053 11.3179C5.50743 11.3179 5.70956 11.242 5.86105 11.0906L7.68003 9.27158C7.98323 8.96838 7.98323 8.46307 7.68003 8.16007C7.3262 7.83145 6.8209 7.83145 6.5179 8.15986L6.51785 8.15986Z" fill="#2C848F"/>
<path d="M6.51785 12.6317L5.27986 13.8697L4.95146 13.5413C4.64826 13.2381 4.14295 13.2381 3.83995 13.5413C3.53675 13.8445 3.53675 14.3498 3.83995 14.6528L4.74954 15.5624C4.90103 15.7139 5.10316 15.7897 5.3053 15.7897C5.50743 15.7897 5.70956 15.7139 5.86105 15.5624L7.68003 13.7434C7.98323 13.4402 7.98323 12.9349 7.68003 12.6319C7.3262 12.3285 6.8209 12.3285 6.5179 12.6317L6.51785 12.6317Z" fill="#2C848F"/>
<path d="M6.51785 17.1034L5.27986 18.3413L4.95146 18.0129C4.64826 17.7097 4.14295 17.7097 3.83995 18.0129C3.53675 18.3161 3.53675 18.8214 3.83995 19.1245L4.74954 20.034C4.90103 20.1855 5.10316 20.2614 5.3053 20.2614C5.50743 20.2614 5.70956 20.1855 5.86105 20.034L7.68003 18.2151C7.98323 17.9119 7.98323 17.4066 7.68003 17.1036C7.3262 16.8002 6.8209 16.8002 6.5179 17.1033L6.51785 17.1034Z" fill="#2C848F"/>
</svg>
