<svg width="81" height="69" viewBox="0 0 81 69" fill="none" xmlns="http://www.w3.org/2000/svg">
<path d="M53.3751 37.7177C53.3802 37.7227 53.3884 37.7227 53.3934 37.7177L79.0066 12.0514C81.4181 9.63496 81.4181 5.71699 79.0066 3.3005L77.5215 1.81229C75.1101 -0.604094 71.2005 -0.6041 68.7891 1.81229L49.5758 21.0654L43.9275 15.4054C41.5161 12.989 37.6065 12.989 35.1951 15.4054L33.71 16.8936C31.2985 19.3101 31.2985 23.2281 33.71 25.6446L47.6532 39.6167C48.7049 40.6706 50.41 40.6706 51.4617 39.6167L53.3568 37.7177C53.3619 37.7126 53.3701 37.7126 53.3751 37.7177Z" fill="#71BAB7"/>
<path d="M53.3751 37.7177C53.3802 37.7227 53.3884 37.7227 53.3934 37.7177L79.0066 12.0514C81.4181 9.63496 81.4181 5.71699 79.0066 3.3005L77.5215 1.81229C75.1101 -0.604094 71.2005 -0.6041 68.7891 1.81229L49.5758 21.0654L43.9275 15.4054C41.5161 12.989 37.6065 12.989 35.1951 15.4054L33.71 16.8936C31.2985 19.3101 31.2985 23.2281 33.71 25.6446L47.6532 39.6167C48.7049 40.6706 50.41 40.6706 51.4617 39.6167L53.3568 37.7177C53.3619 37.7126 53.3701 37.7126 53.3751 37.7177Z" fill="url(#paint0_linear_89_390)"/>
<path d="M0.0653553 38.9312C0.0646667 34.6139 2.21994 30.5816 5.81056 28.184V23.658H1.63504L1.63573 16.5097C0.69829 15.9538 0.0914726 14.9758 0.00949669 13.8896C-0.0724697 12.8034 0.380074 11.7447 1.22246 11.0546C2.06553 10.3637 3.19172 10.1274 4.24071 10.4209C5.28973 10.715 6.13009 11.5016 6.49174 12.5292C6.85267 13.5576 6.69011 14.6969 6.05573 15.5826C5.42134 16.4684 4.39504 16.9891 3.30532 16.9774V21.9876H7.48084V27.2486C8.79436 26.6163 10.2064 26.2148 11.6563 26.0632V14.3723C10.5977 14.0989 9.74015 13.3247 9.35999 12.2997C8.97978 11.2741 9.12511 10.1281 9.74914 9.23054C10.3739 8.33305 11.3981 7.79785 12.4913 7.79785C13.5851 7.79785 14.6093 8.33305 15.2334 9.23054C15.8581 10.128 16.0035 11.2742 15.6232 12.2997C15.243 13.3247 14.3855 14.0988 13.3269 14.3723V26.0632C15.3698 26.108 17.3735 26.637 19.1719 27.6082V22.7646C18.1132 22.4911 17.2557 21.7169 16.8755 20.692C16.4953 19.6664 16.6407 18.5203 17.2654 17.6228C17.8894 16.7253 18.9137 16.1901 20.0075 16.1901C21.1006 16.1901 22.1249 16.7253 22.7496 17.6228C23.3737 18.5202 23.519 19.6664 23.1395 20.692C22.7593 21.7169 21.901 22.4911 20.8424 22.7646V28.6681C24.055 31.1064 25.9422 34.9065 25.9422 38.9401C25.9422 42.9729 24.055 46.773 20.8424 49.2113V54.5557H25.135C25.4078 53.4971 26.182 52.6388 27.2076 52.2587C28.2325 51.8785 29.3786 52.0245 30.2768 52.6485C31.1743 53.2733 31.7095 54.2975 31.7095 55.3906C31.7095 56.4844 31.1743 57.5087 30.2768 58.1327C29.3786 58.7575 28.2324 58.9028 27.2076 58.5226C26.182 58.1424 25.4078 57.2848 25.135 56.2262H19.1722V50.3137C17.3752 51.2883 15.3707 51.818 13.3272 51.8587V62.1884C14.3859 62.4619 15.2434 63.2361 15.6235 64.261C16.0037 65.286 15.8584 66.4327 15.2337 67.3303C14.6096 68.2277 13.5854 68.7629 12.4916 68.7629C11.3985 68.7629 10.3742 68.2277 9.74947 67.3303C9.12542 66.4328 8.98008 65.2859 9.3603 64.261C9.74052 63.2362 10.5981 62.4619 11.6567 62.1884V51.8084C9.60399 51.5894 7.6342 50.882 5.91146 49.7462V53.8383C6.97013 54.1118 7.82763 54.8853 8.2078 55.9102C8.588 56.9358 8.44268 58.0819 7.81796 58.9794C7.1939 59.8769 6.16967 60.4121 5.07655 60.4121C3.98275 60.4121 2.95846 59.8769 2.33443 58.9794C1.70969 58.0819 1.56436 56.9358 1.94458 55.9102C2.32478 54.8853 3.18233 54.1111 4.24093 53.8376V48.4264C1.5794 45.9867 0.0646496 42.5419 0.0653553 38.9312ZM4.97581 13.6366C4.97581 12.9609 4.56873 12.352 3.94468 12.0937C3.32063 11.8347 2.60222 11.978 2.12495 12.4553C1.64693 12.9333 1.50435 13.6517 1.76264 14.2757C2.02093 14.8998 2.63052 15.3069 3.30553 15.3069C4.22783 15.3069 4.97581 14.5589 4.97581 13.6366ZM21.677 19.4816C21.677 18.8066 21.2706 18.1977 20.6465 17.9387C20.0225 17.6804 19.3041 17.823 18.8261 18.301C18.3487 18.7783 18.2055 19.4967 18.4638 20.1207C18.7228 20.7448 19.3317 21.1518 20.0074 21.1518C20.9297 21.1518 21.677 20.4046 21.677 19.4816ZM28.3576 57.0594C29.0333 57.0594 29.6422 56.6523 29.9005 56.0282C30.1595 55.4042 30.0162 54.6858 29.5389 54.2085C29.0608 53.7305 28.3424 53.5879 27.7184 53.8462C27.0944 54.1045 26.688 54.7134 26.688 55.3891C26.688 55.832 26.8636 56.257 27.177 56.5704C27.4904 56.8831 27.9147 57.0594 28.3576 57.0594ZM3.40505 57.0594C3.40505 57.7351 3.81282 58.344 4.43687 58.6023C5.06093 58.8605 5.77933 58.718 6.25661 58.24C6.73462 57.7626 6.8772 57.0442 6.61891 56.4202C6.35992 55.7962 5.75103 55.3891 5.07602 55.3891C4.63244 55.3891 4.20814 55.5654 3.89474 55.8781C3.58135 56.1915 3.40505 56.6165 3.40505 57.0594ZM14.1612 11.1306C14.1612 10.4549 13.7541 9.84595 13.1301 9.58766C12.506 9.32867 11.7876 9.47194 11.3104 9.94928C10.8323 10.4273 10.6898 11.1457 10.948 11.7697C11.2063 12.3938 11.8159 12.8002 12.4909 12.8002C13.4132 12.8002 14.1612 12.0528 14.1612 11.1306ZM24.2822 38.9291C24.2822 35.9397 23.0948 33.0722 20.9801 30.9577C18.8662 28.8438 15.9988 27.6555 13.0087 27.6555C10.0187 27.6555 7.1512 28.8437 5.03735 30.9577C2.92279 33.0722 1.73521 35.9397 1.73521 38.9291C1.73521 41.9191 2.92269 44.7866 5.03735 46.9011C7.1512 49.015 10.0187 50.2026 13.0087 50.2026C15.9988 50.2026 18.8662 49.0151 20.9801 46.9011C23.0946 44.7866 24.2822 41.9191 24.2822 38.9291ZM10.8212 65.4104C10.8212 66.0854 11.2276 66.6943 11.8516 66.9533C12.4763 67.2116 13.1941 67.069 13.672 66.591C14.1494 66.1136 14.2926 65.3952 14.0343 64.7712C13.7754 64.1472 13.1665 63.7401 12.4908 63.7401C12.0479 63.7401 11.6236 63.9158 11.3102 64.2291C10.9968 64.5425 10.8212 64.9675 10.8212 65.4104Z" fill="black"/>
<path d="M4.30534 40.2836H4.50578C4.89631 40.2719 5.24347 40.5315 5.34059 40.9104V41.0103C5.34059 41.0771 5.34059 41.1356 5.39914 41.2024C5.52932 41.6426 5.27929 42.1054 4.83984 42.2377C4.62701 42.3031 4.39764 42.2804 4.20133 42.175C4.00571 42.0703 3.85968 41.8912 3.79631 41.6784C3.79631 41.553 3.72123 41.4194 3.68748 41.2858C3.58279 40.8387 3.85899 40.391 4.30533 40.2836L4.30534 40.2836Z" fill="black"/>
<path d="M50.2624 40.2836H50.4628C50.8533 40.2719 51.2005 40.5315 51.2976 40.9104V41.0103C51.2976 41.0771 51.2976 41.1356 51.3562 41.2024C51.4864 41.6426 51.2363 42.1054 50.7969 42.2377C50.584 42.3031 50.3547 42.2804 50.1584 42.175C49.9627 42.0703 49.8167 41.8912 49.7533 41.6784C49.7533 41.553 49.6783 41.4194 49.6445 41.2858C49.5398 40.8387 49.816 40.391 50.2624 40.2836L50.2624 40.2836Z" fill="black"/>
<path d="M20.4149 41.7705L20.5148 41.495C20.6291 41.1582 20.9439 40.9302 21.3 40.9274C21.3881 40.9109 21.4791 40.9109 21.5672 40.9274C21.7911 40.9936 21.977 41.1499 22.0804 41.3593C22.183 41.5687 22.194 41.8118 22.11 42.0295L21.9764 42.4056C21.851 42.7293 21.5383 42.9422 21.1912 42.9401C21.0892 42.9394 20.9873 42.9229 20.8908 42.8898C20.6828 42.8099 20.5161 42.6501 20.4266 42.4462C20.3371 42.2423 20.3329 42.0116 20.4149 41.8043L20.4149 41.7705Z" fill="black"/>
<path d="M66.3719 41.7705L66.4718 41.495C66.5861 41.1582 66.9009 40.9302 67.257 40.9274C67.3452 40.9109 67.4361 40.9109 67.5243 40.9274C67.7481 40.9936 67.9341 41.1499 68.0374 41.3593C68.14 41.5687 68.1511 41.8118 68.067 42.0295L67.9334 42.4056C67.808 42.7293 67.4953 42.9422 67.1482 42.9401C67.0462 42.9394 66.9443 42.9229 66.8479 42.8898C66.6399 42.8099 66.4732 42.6501 66.3836 42.4462C66.2941 42.2423 66.29 42.0116 66.3719 41.8043L66.3719 41.7705Z" fill="black"/>
<path d="M17.951 32.7348L17.692 32.5344C17.3985 32.3215 17.2759 31.9434 17.3882 31.599C17.5005 31.2539 17.8221 31.0211 18.1851 31.0225C18.3628 31.0245 18.535 31.0831 18.6776 31.1898L18.9951 31.4323V31.4316C19.3533 31.7188 19.4126 32.2409 19.1288 32.6012C18.9903 32.7754 18.7885 32.8877 18.5674 32.9125C18.3463 32.938 18.1245 32.8739 17.9509 32.7348L17.951 32.7348Z" fill="black"/>
<path d="M63.9085 32.7348L63.6495 32.5344C63.356 32.3215 63.2334 31.9434 63.3457 31.599C63.458 31.2539 63.7796 31.0211 64.1426 31.0225C64.3203 31.0245 64.4925 31.0831 64.6351 31.1898L64.9527 31.4323V31.4316C65.3108 31.7188 65.3701 32.2409 65.0863 32.6012C64.9478 32.7754 64.746 32.8877 64.5249 32.9125C64.3038 32.938 64.082 32.8739 63.9085 32.7348L63.9085 32.7348Z" fill="black"/>
<path d="M17.3072 45.5949L17.4993 45.4778L17.5744 45.4275V45.4282C17.7163 45.329 17.885 45.276 18.0586 45.2774C18.3272 45.2787 18.5793 45.4096 18.735 45.6287C18.9988 46.0047 18.9093 46.5234 18.5346 46.7893C18.4257 46.8643 18.3176 46.9477 18.2005 47.0145C18.0662 47.1013 17.9098 47.1481 17.7494 47.1481C17.3795 47.1474 17.0544 46.9029 16.9504 46.5482C16.8464 46.1935 16.9882 45.8126 17.2989 45.6114L17.3072 45.5949Z" fill="black"/>
<path d="M63.2644 45.5949L63.4566 45.4778L63.5317 45.4275V45.4282C63.6736 45.329 63.8423 45.276 64.0159 45.2774C64.2845 45.2787 64.5366 45.4096 64.6923 45.6287C64.9561 46.0047 64.8665 46.5234 64.4918 46.7893C64.383 46.8643 64.2749 46.9477 64.1578 47.0145C64.0235 47.1013 63.8671 47.1481 63.7066 47.1481C63.3367 47.1474 63.0116 46.9029 62.9076 46.5482C62.8036 46.1935 62.9455 45.8126 63.2562 45.6114L63.2644 45.5949Z" fill="black"/>
<path d="M5.6257 36.0332H5.57542C5.5706 36.0635 5.5706 36.0945 5.57542 36.1248C5.45006 36.4733 5.10981 36.6978 4.74061 36.6758C4.64624 36.6744 4.55326 36.6579 4.46509 36.6255C4.03254 36.4719 3.80522 35.9987 3.95539 35.5655C4.00567 35.4318 4.04699 35.3065 4.09728 35.1811C4.22677 34.8663 4.53399 34.6618 4.87423 34.6632C4.98237 34.6618 5.09052 34.6818 5.19108 34.7217C5.61744 34.8953 5.8227 35.3809 5.65051 35.8072L5.6257 36.0332Z" fill="black"/>
<path d="M51.5813 36.0332H51.531C51.5262 36.0635 51.5262 36.0945 51.531 36.1248C51.4056 36.4733 51.0654 36.6978 50.6962 36.6758C50.6018 36.6744 50.5088 36.6579 50.4207 36.6255C49.9881 36.4719 49.7608 35.9987 49.911 35.5655C49.9612 35.4318 50.0026 35.3065 50.0528 35.1811C50.1823 34.8663 50.4896 34.6618 50.8298 34.6632C50.9379 34.6618 51.0461 34.6818 51.1466 34.7217C51.573 34.8953 51.7783 35.3809 51.6061 35.8072L51.5813 36.0332Z" fill="black"/>
<path d="M12.8492 48.5346H12.4483C12.2265 48.5346 12.0144 48.4464 11.8573 48.29C11.701 48.133 11.6128 47.9208 11.6128 47.699C11.6355 47.2541 12.0027 46.9056 12.4483 46.9063H12.8327H12.832C13.2935 46.9063 13.6675 47.2796 13.6675 47.7411C13.6675 47.9622 13.5793 48.175 13.423 48.3314C13.2659 48.4884 13.0538 48.5759 12.832 48.5759L12.8492 48.5346Z" fill="black"/>
<path d="M58.8047 48.5346H58.4039C58.1821 48.5346 57.9699 48.4464 57.8129 48.29C57.6565 48.133 57.5684 47.9208 57.5684 47.699C57.5911 47.2541 57.9582 46.9056 58.4039 46.9063H58.7882H58.7875C59.249 46.9063 59.623 47.2796 59.623 47.7411C59.623 47.9622 59.5349 48.175 59.3785 48.3314C59.2215 48.4884 59.0093 48.5759 58.7875 48.5759L58.8047 48.5346Z" fill="black"/>
<path d="M13.3255 31.0063H12.9914C12.5299 31.0063 12.1559 30.6323 12.1559 30.1714C12.1559 29.71 12.5299 29.3359 12.9914 29.3359H13.4088C13.8703 29.3359 14.2437 29.71 14.2437 30.1714C14.2437 30.3925 14.1562 30.6054 13.9991 30.7617C13.8428 30.9181 13.6299 31.0063 13.4088 31.0063H13.3255Z" fill="black"/>
<path d="M59.281 31.0063H58.947C58.4855 31.0063 58.1115 30.6323 58.1115 30.1714C58.1115 29.71 58.4855 29.3359 58.947 29.3359H59.3644C59.8259 29.3359 60.1992 29.71 60.1992 30.1714C60.1992 30.3925 60.1117 30.6054 59.9547 30.7617C59.7983 30.9181 59.5855 31.0063 59.3644 31.0063H59.281Z" fill="black"/>
<path d="M21.676 37.4354C21.6017 37.4478 21.5252 37.4478 21.4508 37.4354C21.0624 37.4492 20.7166 37.1929 20.616 36.8175C20.616 36.7087 20.5575 36.6006 20.5244 36.5H20.5237C20.3811 36.0619 20.6201 35.5915 21.0582 35.4482C21.1443 35.4365 21.2311 35.4365 21.3172 35.4482C21.696 35.431 22.0391 35.6707 22.152 36.033C22.152 36.1584 22.2354 36.292 22.2691 36.4256V36.4249C22.3807 36.8671 22.1169 37.3169 21.6761 37.4354L21.676 37.4354Z" fill="black"/>
<path d="M67.6316 37.4354C67.5572 37.4478 67.4808 37.4478 67.4064 37.4354C67.0179 37.4492 66.6721 37.1929 66.5716 36.8175C66.5716 36.7087 66.513 36.6006 66.48 36.5H66.4793C66.3367 36.0619 66.5757 35.5915 67.0138 35.4482C67.0999 35.4365 67.1867 35.4365 67.2728 35.4482C67.6516 35.431 67.9946 35.6707 68.1076 36.033C68.1076 36.1584 68.1909 36.292 68.2247 36.4256V36.4249C68.3363 36.8671 68.0725 37.3169 67.6316 37.4354L67.6316 37.4354Z" fill="black"/>
<path d="M7.95697 45.0425L8.05684 45.1259L8.1822 45.2257L8.18289 45.2264C8.54863 45.5054 8.61959 46.0282 8.34131 46.3953C8.18358 46.6054 7.93631 46.7294 7.67318 46.7294C7.49135 46.7266 7.3157 46.6653 7.17243 46.5537C7.06085 46.478 6.95477 46.3939 6.8549 46.3037C6.50224 46.0117 6.44989 45.4902 6.73781 45.1341C6.87832 44.9626 7.08151 44.8531 7.30261 44.8311C7.52303 44.8097 7.74412 44.8765 7.91564 45.0177L7.95697 45.0425Z" fill="black"/>
<path d="M53.9145 45.0425L54.0144 45.1259L54.1397 45.2257L54.1404 45.2264C54.5062 45.5054 54.5771 46.0282 54.2988 46.3953C54.1411 46.6054 53.8938 46.7294 53.6307 46.7294C53.4489 46.7266 53.2732 46.6653 53.13 46.5537C53.0184 46.478 52.9123 46.3939 52.8124 46.3037C52.4598 46.0117 52.4074 45.4902 52.6953 45.1341C52.8358 44.9626 53.039 44.8531 53.2601 44.8311C53.4805 44.8097 53.7016 44.8765 53.8732 45.0177L53.9145 45.0425Z" fill="black"/>
<path d="M8.82407 32.1929L8.57335 32.3596C8.43628 32.4553 8.27304 32.5077 8.10567 32.5097C7.73647 32.5145 7.40793 32.2762 7.29841 31.9236C7.1882 31.5709 7.3232 31.1879 7.62972 30.982L7.97204 30.765V30.7643C8.10498 30.6824 8.25857 30.639 8.41493 30.6397C8.78342 30.6438 9.10511 30.889 9.20705 31.243C9.30899 31.5971 9.16709 31.9759 8.85782 32.1757L8.82407 32.1929Z" fill="black"/>
<path d="M54.7813 32.1929L54.5306 32.3596C54.3936 32.4553 54.2303 32.5077 54.0629 32.5097C53.6937 32.5145 53.3652 32.2762 53.2557 31.9236C53.1455 31.5709 53.2805 31.1879 53.587 30.982L53.9293 30.765V30.7643C54.0623 30.6824 54.2158 30.639 54.3722 30.6397C54.7407 30.6438 55.0624 30.889 55.1643 31.243C55.2663 31.5971 55.1244 31.9759 54.8151 32.1757L54.7813 32.1929Z" fill="black"/>
<path d="M58.735 25.9873C62.168 25.9873 65.4604 27.3511 67.8876 29.7784C70.315 32.2058 71.6787 35.4982 71.6787 38.9303C71.6787 42.3633 70.3149 45.6557 67.8876 48.0829C65.4602 50.5103 62.1678 51.874 58.735 51.874C55.3022 51.874 52.0103 50.5102 49.5831 48.0829C47.155 45.6556 45.792 42.3631 45.792 38.9303C45.7961 35.4995 47.1613 32.2098 49.5878 29.7832C52.0138 27.3565 55.3034 25.9914 58.735 25.9873ZM58.735 50.2045V50.2039C61.725 50.2039 64.5925 49.0164 66.7064 46.9024C68.8209 44.7879 70.0085 41.9204 70.0085 38.9303C70.0085 35.941 68.821 33.0735 66.7064 30.959C64.5925 28.8451 61.725 27.6568 58.735 27.6568C55.745 27.6568 52.8775 28.845 50.7636 30.959C48.6498 33.0735 47.4615 35.941 47.4615 38.9303C47.4594 41.9211 48.6462 44.7898 50.7615 46.9045C52.8761 49.0191 55.7442 50.2067 58.735 50.2039V50.2045Z" fill="black"/>
<path d="M31.5545 24.2012L32.7481 25.3707L30.3518 27.7918H43.3872V29.4621H26.3604L31.5545 24.2012Z" fill="black"/>
<path d="M28.3567 46.1625V44.4922H45.3843L40.1901 49.7532L38.9957 48.5836L41.3921 46.1626L28.3567 46.1625Z" fill="black"/>
<rect x="55.5413" y="34.6943" width="1.79309" height="8.96545" fill="black"/>
<rect x="60.3213" y="40.0742" width="1.79309" height="3.58618" fill="black"/>
<rect x="62.1169" y="38.8789" width="1.79309" height="3.58618" transform="rotate(90 62.1169 38.8789)" fill="black"/>
<rect x="62.1169" y="41.8672" width="1.79309" height="5.37927" transform="rotate(90 62.1169 41.8672)" fill="black"/>
<rect x="62.1169" y="34.6943" width="1.79309" height="5.37927" transform="rotate(90 62.1169 34.6943)" fill="black"/>
<rect x="59.7251" y="35.8906" width="1.79309" height="2.98848" transform="rotate(-180 59.7251 35.8906)" fill="black"/>
<rect x="59.7251" y="45.4531" width="1.79309" height="2.98848" transform="rotate(-180 59.7251 45.4531)" fill="black"/>
<defs>
<linearGradient id="paint0_linear_89_390" x1="31.9014" y1="0" x2="31.9014" y2="40.4071" gradientUnits="userSpaceOnUse">
<stop stop-color="#3BA8A3"/>
<stop offset="1" stop-color="#1C7874"/>
</linearGradient>
</defs>
</svg>
