<svg width="81" height="55" viewBox="0 0 81 55" fill="none" xmlns="http://www.w3.org/2000/svg">
<path fill-rule="evenodd" clip-rule="evenodd" d="M34.5 36.7937C37.4236 36.7937 39.7937 34.4236 39.7937 31.5C39.7937 28.5764 37.4236 26.2063 34.5 26.2063C31.5764 26.2063 29.2063 28.5764 29.2063 31.5C29.2063 34.4236 31.5764 36.7937 34.5 36.7937ZM34.5 46C42.5081 46 49 39.5081 49 31.5C49 23.4919 42.5081 17 34.5 17C26.4919 17 20 23.4919 20 31.5C20 39.5081 26.4919 46 34.5 46Z" fill="#71BAB7"/>
<path fill-rule="evenodd" clip-rule="evenodd" d="M34.5 36.7937C37.4236 36.7937 39.7937 34.4236 39.7937 31.5C39.7937 28.5764 37.4236 26.2063 34.5 26.2063C31.5764 26.2063 29.2063 28.5764 29.2063 31.5C29.2063 34.4236 31.5764 36.7937 34.5 36.7937ZM34.5 46C42.5081 46 49 39.5081 49 31.5C49 23.4919 42.5081 17 34.5 17C26.4919 17 20 23.4919 20 31.5C20 39.5081 26.4919 46 34.5 46Z" fill="url(#paint0_linear_102_5364)"/>
<path d="M77.1758 19.0547C76.3333 19.057 75.5152 19.3392 74.8497 19.8563C74.184 20.3734 73.7086 21.0964 73.498 21.913H61.4739C61.224 21.9138 60.9843 22.0128 60.8067 22.1889L57.2726 25.7237H52.4033V27.6295H57.6633C57.9164 27.6311 58.16 27.5312 58.3392 27.3528L61.874 23.818H73.498C73.7369 24.7438 74.3153 25.5462 75.1177 26.0649C75.9208 26.5843 76.889 26.7831 77.8313 26.622C78.7735 26.4609 79.6207 25.9509 80.2047 25.1941C80.7893 24.4381 81.0676 23.4887 80.985 22.537C80.9025 21.5845 80.4656 20.6973 79.7599 20.0528C79.0541 19.4076 78.1315 19.0515 77.1758 19.0547L77.1758 19.0547ZM77.1758 24.7712C76.4049 24.7712 75.7101 24.3067 75.4154 23.5947C75.1199 22.8827 75.2834 22.063 75.828 21.5177C76.3734 20.9731 77.1931 20.8104 77.9051 21.1051C78.6171 21.3998 79.0815 22.0945 79.0815 22.8655C79.0815 23.3708 78.8803 23.8557 78.5228 24.2132C78.166 24.57 77.6811 24.7712 77.1758 24.7712L77.1758 24.7712Z" fill="black"/>
<path d="M48.5913 35.2523H63.9696C64.2808 36.4602 65.1641 37.4386 66.3343 37.8723C67.5037 38.3061 68.8113 38.1403 69.8354 37.4275C70.8602 36.7155 71.47 35.5469 71.47 34.2989C71.47 33.0517 70.8602 31.883 69.8354 31.171C68.8114 30.4582 67.5036 30.2924 66.3343 30.7262C65.1641 31.16 64.2808 32.1385 63.9696 33.3463H48.5913V35.2523ZM67.6466 32.394C68.4176 32.394 69.1123 32.8577 69.407 33.5697C69.7025 34.2825 69.5391 35.1014 68.9944 35.6468C68.449 36.1914 67.6293 36.3548 66.9174 36.0601C66.2054 35.7646 65.7417 35.0699 65.7417 34.299C65.7417 33.2467 66.5944 32.394 67.6467 32.394L67.6466 32.394Z" fill="black"/>
<path d="M77.1756 0.000542669C76.3331 0.0036862 75.515 0.285827 74.8495 0.802935C74.1838 1.32004 73.7084 2.04307 73.4977 2.85885H63.6845L55.1097 11.4336L5.71654 11.4344C4.20056 11.4344 2.74663 12.0364 1.67471 13.1083C0.602774 14.1803 0 15.635 0 17.151V35.2537C0 36.7697 0.602774 38.2236 1.67471 39.2955C2.74665 40.3682 4.2006 40.9702 5.71654 40.9702H38.2926L40.875 43.5621C41.0573 43.7358 41.2994 43.8348 41.5517 43.8379H50.6026L57.9294 51.1742C58.1094 51.3526 58.353 51.4524 58.6061 51.4508H62.0647C62.3767 52.6587 63.26 53.6371 64.4294 54.0709C65.5988 54.5046 66.9072 54.3389 67.9312 53.6269C68.9552 52.9141 69.5659 51.7454 69.5659 50.4982C69.5659 49.2502 68.9552 48.0816 67.9312 47.3696C66.9072 46.6568 65.5987 46.4909 64.4294 46.9248C63.2601 47.3586 62.3767 48.337 62.0647 49.5448H58.9966L53.2801 43.8283H69.687C69.999 45.0362 70.8823 46.0154 72.0517 46.4492C73.2211 46.8829 74.5295 46.7164 75.5536 46.0044C76.5776 45.2916 77.1882 44.1229 77.1882 42.8757C77.1882 41.6277 76.5776 40.4591 75.5536 39.7471C74.5296 39.0343 73.221 38.8684 72.0517 39.3023C70.8824 39.7361 69.999 40.7145 69.687 41.9223H41.9233L40.4466 40.4456C41.4502 39.9969 42.3029 39.2684 42.9025 38.3473C43.5022 37.4262 43.8244 36.3519 43.8291 35.2532V17.1505C43.8204 15.7399 43.2915 14.3826 42.343 13.339H61.113H61.1123C61.4243 14.5469 62.3076 15.5261 63.4778 15.9599C64.6472 16.3937 65.9548 16.2271 66.9789 15.5151C68.0028 14.8023 68.6135 13.6337 68.6135 12.3864C68.6135 11.1392 68.0028 9.97061 66.9789 9.2578C65.9549 8.54579 64.6471 8.37918 63.4778 8.813C62.3076 9.2468 61.4243 10.226 61.1123 11.4339H57.7967L64.4664 4.76413H73.4987C73.7376 5.68991 74.316 6.49149 75.1184 7.01098C75.9216 7.53044 76.8898 7.72927 77.832 7.56816C78.7743 7.40627 79.6214 6.89703 80.2054 6.1402C80.7901 5.3834 81.0683 4.43483 80.9858 3.48234C80.9032 2.52984 80.4663 1.64337 79.7606 0.998086C79.0549 0.353667 78.1322 -0.00313783 77.1765 2.07934e-05L77.1756 0.000542669ZM65.7426 48.593C66.5127 48.593 67.2075 49.0575 67.503 49.7695C67.7977 50.4815 67.635 51.3012 67.0896 51.8457C66.545 52.3911 65.7253 52.5538 65.0133 52.2591C64.3013 51.9644 63.8369 51.2689 63.8369 50.4987C63.8369 49.4464 64.6896 48.593 65.7426 48.593L65.7426 48.593ZM73.3649 40.9707H73.3641C74.1351 40.9707 74.8298 41.4351 75.1253 42.1472C75.42 42.8592 75.2565 43.6788 74.7119 44.2234C74.1673 44.7688 73.3476 44.9315 72.6357 44.6368C71.9237 44.3421 71.4592 43.6466 71.4592 42.8764C71.4592 41.8241 72.3119 40.9706 73.3642 40.9706L73.3649 40.9707ZM5.7161 13.3398H38.1111C38.9567 13.3382 39.7795 13.6188 40.4491 14.1359C41.1178 14.6538 41.5964 15.3791 41.8079 16.198H2.04946C2.2593 15.3839 2.73317 14.6616 3.39725 14.1445C4.06054 13.6282 4.87629 13.3445 5.71712 13.3398H5.7161ZM41.9215 35.255C41.9215 36.2656 41.52 37.2346 40.8056 37.9499C40.0912 38.6642 39.1214 39.0658 38.1107 39.0658H5.71572C4.70508 39.0658 3.73609 38.6642 3.02083 37.9499C2.30646 37.2347 1.90487 36.2657 1.90487 35.255V22.8688H41.9208L41.9215 35.255ZM41.9215 20.9629H1.90563V18.1047H41.9215V20.9629ZM64.7884 10.4823C65.5593 10.4823 66.254 10.9468 66.5487 11.6588C66.8442 12.3708 66.6808 13.1905 66.1361 13.7359C65.5907 14.2805 64.7711 14.4431 64.0591 14.1485C63.3471 13.8538 62.8826 13.159 62.8826 12.3881C62.8826 11.3358 63.7361 10.4823 64.7884 10.4823L64.7884 10.4823ZM77.1746 5.71825C76.4036 5.71825 75.7089 5.25458 75.4142 4.54256C75.1187 3.82976 75.2822 3.01088 75.8268 2.46552C76.3722 1.92091 77.1919 1.75744 77.9038 2.05214C78.6158 2.34764 79.0803 3.04236 79.0803 3.8133C79.0803 4.31862 78.8791 4.80274 78.5216 5.16031C78.1648 5.51787 77.6799 5.71827 77.1746 5.71827L77.1746 5.71825Z" fill="black"/>
<path d="M34.2986 25.7244C32.7826 25.7244 31.3287 26.3264 30.2567 27.3991C29.1848 28.471 28.582 29.925 28.582 31.4409C28.582 32.9577 29.1848 34.4116 30.2567 35.4835C31.3287 36.5555 32.7826 37.1583 34.2986 37.1583C35.8153 37.1583 37.2693 36.5555 38.3412 35.4835C39.4131 34.4116 40.0159 32.9576 40.0159 31.4409C40.0159 29.9249 39.4131 28.471 38.3412 27.3991C37.2693 26.3264 35.8153 25.7244 34.2986 25.7244ZM34.2986 35.2523C33.2879 35.2523 32.3189 34.8507 31.6037 34.1356C30.8893 33.4212 30.4877 32.4514 30.4877 31.4407C30.4877 30.4301 30.8893 29.4611 31.6037 28.7458C32.3188 28.0314 33.2878 27.6299 34.2986 27.6299C35.31 27.6299 36.279 28.0314 36.9941 28.7458C37.7084 29.461 38.11 30.43 38.11 31.4407C38.11 32.4513 37.7084 33.4211 36.9941 34.1356C36.2789 34.8507 35.3099 35.2523 34.2986 35.2523Z" fill="black"/>
<path d="M45.7344 25.7244H49.545V27.6301H45.7344V25.7244Z" fill="black"/>
<defs>
<linearGradient id="paint0_linear_102_5364" x1="20" y1="17" x2="20" y2="46" gradientUnits="userSpaceOnUse">
<stop stop-color="#3BA8A3"/>
<stop offset="1" stop-color="#1C7874"/>
</linearGradient>
</defs>
</svg>
