<svg width="141" height="42" viewBox="0 0 141 42" fill="none" xmlns="http://www.w3.org/2000/svg">
<path fill-rule="evenodd" clip-rule="evenodd" d="M5.31573 7.2862e-09C5.00205 7.2862e-09 4.69024 0.078733 4.41405 0.228076L0.996661 2.0758C0.695007 2.23885 0.443094 2.48049 0.267629 2.77509C0.0921641 3.0697 -0.000313375 3.40629 7.97838e-07 3.74919V33.3178C7.97838e-07 33.9952 0.363672 34.6263 0.949796 34.965L11.3051 40.9549C11.5927 41.1212 11.919 41.209 12.2512 41.2097C12.5835 41.2104 12.9101 41.1238 13.1984 40.9587L16.9995 38.7791C17.2896 38.6122 17.5306 38.3717 17.6983 38.082C17.866 37.7924 17.9545 37.4636 17.9549 37.1289V8.27572C17.9541 7.94579 17.8679 7.62168 17.7048 7.33492C17.5416 7.04815 17.307 6.80847 17.0238 6.63919L6.28427 0.265568C5.99112 0.091703 5.65656 -2.98501e-05 5.31573 7.2862e-09ZM5.31573 0.551131C5.5538 0.551131 5.79188 0.614243 6.00308 0.739841L16.7433 7.11347C16.9448 7.23318 17.1118 7.40329 17.2277 7.60707C17.3436 7.81084 17.4045 8.04128 17.4044 8.27572V37.1295C17.4044 37.6138 17.1451 38.0606 16.7258 38.3011L12.9247 40.4807C12.7208 40.5975 12.4899 40.6589 12.2549 40.6587C12.0179 40.6588 11.7851 40.5963 11.58 40.4775L1.22474 34.4888C1.01942 34.3701 0.848966 34.1995 0.730504 33.9941C0.612042 33.7886 0.549747 33.5556 0.549882 33.3184V3.74919C0.549882 3.25305 0.821699 2.79627 1.25785 2.5607L4.67462 0.713596C4.87458 0.60487 5.09515 0.551131 5.31511 0.551131" fill="#8F8D9D"/>
<path fill-rule="evenodd" clip-rule="evenodd" d="M2.45262 5.27507L11.5257 10.5002C11.7313 10.6188 11.902 10.7895 12.0207 10.9951C12.1394 11.2006 12.2018 11.4338 12.2018 11.6712V38.5423C12.2018 38.7666 12.0206 38.9478 11.7969 38.9478C11.7262 38.9477 11.6569 38.9292 11.5956 38.8941L2.0777 33.4171C1.99535 33.3697 1.92696 33.3014 1.87946 33.2192C1.83195 33.1369 1.807 33.0435 1.80713 32.9485L1.8465 5.62499C1.8465 5.40129 2.02833 5.2207 2.25203 5.2207C2.32244 5.22076 2.39161 5.23991 2.45262 5.27507ZM2.85003 6.29797C2.80917 6.27438 2.76286 6.26189 2.71568 6.26173C2.64409 6.26173 2.57543 6.29017 2.52481 6.34079C2.47418 6.39142 2.44574 6.46008 2.44574 6.53167L2.43637 32.6073C2.43628 32.6309 2.4423 32.6542 2.45387 32.6748C2.49136 32.7391 2.57259 32.7623 2.63758 32.7248L11.5294 27.6671C11.5501 27.6552 11.5673 27.6379 11.5791 27.6172C11.591 27.5964 11.5971 27.5729 11.5969 27.549V11.9549C11.5969 11.5675 11.3907 11.2107 11.0558 11.0176L2.85003 6.29797Z" fill="#8F8D9D"/>
<path fill-rule="evenodd" clip-rule="evenodd" d="M26.3153 29.2315C26.228 29.2317 26.1417 29.2139 26.0616 29.1793C25.9816 29.1446 25.9094 29.0939 25.8498 29.0303C25.7864 28.9702 25.736 28.8978 25.7016 28.8175C25.6672 28.7372 25.6496 28.6508 25.6499 28.5634V16.0063C25.6499 15.8091 25.7156 15.6503 25.8498 15.5244C25.9744 15.4035 26.1417 15.3366 26.3153 15.3382H29.4053C29.4937 15.3346 29.5818 15.3493 29.6643 15.3813C29.7467 15.4134 29.8217 15.4621 29.8845 15.5244C29.9464 15.588 29.9949 15.6634 30.0269 15.7463C30.0589 15.8291 30.0738 15.9176 30.0706 16.0063V16.914C30.5284 16.3722 31.0898 15.9272 31.7217 15.6052C32.3967 15.2492 33.1606 15.0712 34.0136 15.0712C35.9659 15.0712 37.3076 15.8379 38.0346 17.3685C38.4798 16.6741 39.0941 16.1041 39.8198 15.7119C40.567 15.2888 41.4118 15.068 42.2705 15.0712C43.7258 15.0712 44.9114 15.5641 45.8259 16.5539C46.7405 17.5424 47.1978 19.0155 47.1978 20.976V28.5634C47.1983 28.6512 47.1814 28.7382 47.1481 28.8194C47.1148 28.9006 47.0658 28.9745 47.0038 29.0366C46.9418 29.0987 46.8681 29.1479 46.7869 29.1814C46.7058 29.2149 46.6188 29.2319 46.531 29.2315H43.2548C43.0723 29.2361 42.8953 29.1688 42.762 29.044C42.6963 28.9827 42.6445 28.9082 42.6101 28.8253C42.5756 28.7424 42.5592 28.6532 42.5621 28.5634V21.1622C42.5621 20.3435 42.3896 19.7425 42.0432 19.3592C41.6968 18.9758 41.2313 18.7841 40.6454 18.7841C40.095 18.7841 39.646 18.9758 39.2996 19.3592C38.9532 19.7425 38.7793 20.3435 38.7793 21.1622V28.5634C38.7799 28.651 38.7631 28.7378 38.73 28.8188C38.6968 28.8998 38.648 28.9735 38.5863 29.0356C38.5246 29.0977 38.4512 29.147 38.3704 29.1806C38.2896 29.2142 38.2029 29.2315 38.1153 29.2315H34.8391C34.6566 29.2361 34.4796 29.1688 34.3463 29.044C34.2806 28.9827 34.2288 28.9082 34.1944 28.8253C34.1599 28.7424 34.1435 28.6532 34.1464 28.5634V21.1622C34.1464 20.3435 33.9684 19.7425 33.6124 19.3592C33.2578 18.9758 32.7965 18.7841 32.2297 18.7841C31.6779 18.7841 31.2248 18.9758 30.8702 19.3592C30.5142 19.7425 30.3362 20.3339 30.3362 21.1348V28.5634C30.3368 28.6511 30.32 28.738 30.2868 28.8191C30.2535 28.9002 30.2046 28.974 30.1427 29.0361C30.0809 29.0982 30.0073 29.1475 29.9264 29.181C29.8454 29.2145 29.7585 29.2317 29.6709 29.2315H26.3153ZM55.649 29.4971C53.412 29.4971 51.6938 28.9769 50.4959 27.9337C49.2966 26.8932 48.6449 25.4091 48.5381 23.4855C48.5203 23.2528 48.5107 22.853 48.5107 22.2835C48.5107 21.7126 48.5203 21.3115 48.5381 21.0814C48.6449 19.1921 49.3144 17.719 50.5493 16.6593C51.7814 15.5997 53.4832 15.0698 55.649 15.0698C57.8149 15.0698 59.5153 15.5997 60.7502 16.658C61.9838 17.719 62.6532 19.1921 62.7614 21.0801C62.797 21.5442 62.8148 21.9453 62.8148 22.2835C62.8148 22.6217 62.797 23.0228 62.76 23.4855C62.6546 25.4091 62.0016 26.8918 60.8022 27.935C59.6043 28.9755 57.8861 29.4971 55.649 29.4971ZM55.649 26.1306C56.3774 26.1306 56.9182 25.9033 57.2742 25.4488C57.6301 24.9956 57.8327 24.296 57.8861 23.3514C57.9039 23.1734 57.9135 22.8174 57.9135 22.2835C57.9135 21.7496 57.9039 21.3936 57.8861 21.2156C57.8327 20.2874 57.6287 19.5933 57.2742 19.1305C56.9182 18.6678 56.3774 18.435 55.649 18.435C54.9207 18.435 54.3799 18.6678 54.024 19.1305C53.6694 19.5933 53.4654 20.2874 53.412 21.2142L53.3846 22.2821L53.412 23.3514C53.4654 24.296 53.6694 24.9943 54.024 25.4488C54.3799 25.9033 54.9207 26.1306 55.649 26.1306ZM64.8999 29.2302C64.8127 29.2302 64.7264 29.2124 64.6463 29.1778C64.5662 29.1432 64.4941 29.0925 64.4344 29.0289C64.371 28.9688 64.3206 28.8964 64.2862 28.8161C64.2519 28.7359 64.2343 28.6494 64.2345 28.5621V16.0049C64.2334 15.9171 64.2499 15.83 64.2829 15.7486C64.3159 15.6672 64.3648 15.5933 64.4268 15.531C64.4888 15.4688 64.5625 15.4196 64.6437 15.3862C64.725 15.3529 64.8121 15.3361 64.8999 15.3368H68.1774C68.3719 15.3368 68.532 15.3984 68.6566 15.523C68.7186 15.5866 68.7671 15.6621 68.7991 15.7449C68.8311 15.8277 68.846 15.9162 68.8428 16.0049V17.0194C69.322 16.4307 69.9381 15.9597 70.6938 15.6038C71.4482 15.2478 72.3134 15.0698 73.2909 15.0698C74.3027 15.0698 75.2035 15.3012 75.9935 15.764C76.7834 16.2267 77.405 16.914 77.8582 17.8217C78.31 18.7294 78.5372 19.8246 78.5372 21.1075V28.5621C78.5378 28.6497 78.521 28.7366 78.4877 28.8177C78.4545 28.8989 78.4056 28.9726 78.3437 29.0347C78.2819 29.0968 78.2083 29.1461 78.1273 29.1796C78.0463 29.2132 77.9595 29.2304 77.8719 29.2302H74.3287C74.1461 29.2349 73.969 29.1675 73.8358 29.0426C73.7704 28.9813 73.7189 28.9067 73.6847 28.8238C73.6504 28.7409 73.6343 28.6517 73.6373 28.5621V21.269C73.6373 20.4681 73.4456 19.8534 73.0637 19.4262C72.6817 18.9977 72.1272 18.7841 71.3989 18.7841C70.6897 18.7841 70.1297 19.0032 69.7218 19.4386C69.3124 19.8753 69.1084 20.4859 69.1084 21.269V28.5634C69.109 28.6511 69.0921 28.738 69.0589 28.8191C69.0257 28.9002 68.9768 28.974 68.9149 29.0361C68.8531 29.0982 68.7795 29.1475 68.6985 29.181C68.6175 29.2145 68.5307 29.2317 68.443 29.2315L64.8999 29.2302ZM86.9899 29.4971C84.7528 29.4971 83.0333 28.9769 81.8353 27.9337C80.6374 26.8932 79.9843 25.4091 79.8775 23.4855C79.8597 23.2528 79.8502 22.853 79.8502 22.2835C79.8502 21.7126 79.8597 21.3115 79.8775 21.0814C79.9843 19.1921 80.6552 17.719 81.8901 16.6593C83.1223 15.5997 84.8226 15.0698 86.9899 15.0698C89.1558 15.0698 90.8562 15.5997 92.0897 16.658C93.3246 17.719 93.9941 19.1921 94.1022 21.0801C94.1364 21.5442 94.1543 21.9453 94.1543 22.2835C94.1543 22.6217 94.1365 23.0228 94.1009 23.4855C93.9941 25.4091 93.3424 26.8918 92.1431 27.935C90.9451 28.9755 89.227 29.4971 86.9899 29.4971ZM86.9899 26.1306C87.7182 26.1306 88.259 25.9033 88.615 25.4488C88.9696 24.9956 89.1736 24.296 89.227 23.3514C89.2448 23.1734 89.2543 22.8174 89.2543 22.2835C89.2543 21.7496 89.2448 21.3936 89.227 21.2156C89.1736 20.2874 88.9696 19.5933 88.615 19.1305C88.259 18.6678 87.7182 18.435 86.9899 18.435C86.2615 18.435 85.7194 18.6678 85.3648 19.1305C85.0088 19.5933 84.8062 20.2874 84.7528 21.2142L84.7254 22.2821L84.7528 23.3514C84.8062 24.296 85.0102 24.9943 85.3648 25.4488C85.7208 25.9033 86.2615 26.1306 86.9899 26.1306ZM96.2681 29.2302C96.0856 29.2348 95.9085 29.1674 95.7752 29.0426C95.7096 28.9814 95.6578 28.9068 95.6233 28.824C95.5889 28.7411 95.5725 28.6518 95.5753 28.5621V10.9284C95.5723 10.8385 95.5886 10.7489 95.6231 10.6658C95.6575 10.5826 95.7094 10.5079 95.7752 10.4465C95.9087 10.3221 96.0857 10.2552 96.2681 10.2603H99.5963C99.6847 10.2567 99.7729 10.2714 99.8553 10.3035C99.9378 10.3355 100.013 10.3842 100.075 10.4465C100.138 10.5099 100.187 10.5853 100.219 10.6681C100.251 10.751 100.266 10.8395 100.263 10.9284V28.5621C100.264 28.6498 100.247 28.7369 100.213 28.8181C100.18 28.8993 100.131 28.9731 100.069 29.0352C100.007 29.0973 99.9333 29.1466 99.8522 29.18C99.7711 29.2135 99.6841 29.2305 99.5963 29.2302H96.2681ZM102.745 14.1348C102.656 14.1375 102.566 14.121 102.484 14.0862C102.401 14.0515 102.327 13.9994 102.266 13.9335C102.142 13.7998 102.075 13.6229 102.08 13.4406V10.9544C102.078 10.863 102.094 10.7721 102.129 10.6873C102.163 10.6026 102.215 10.5257 102.28 10.4615C102.339 10.398 102.412 10.3473 102.492 10.3127C102.572 10.2781 102.658 10.2602 102.745 10.2603H106.075C106.166 10.2582 106.257 10.2749 106.342 10.3093C106.427 10.3437 106.503 10.395 106.568 10.4602C106.633 10.5246 106.684 10.6016 106.719 10.6866C106.753 10.7716 106.77 10.8628 106.768 10.9544V13.4393C106.77 13.5309 106.753 13.6221 106.719 13.7071C106.684 13.7921 106.633 13.8691 106.568 13.9335C106.504 13.999 106.427 14.0507 106.342 14.0854C106.257 14.12 106.166 14.1368 106.075 14.1348H102.745ZM102.855 29.2302C102.767 29.2303 102.681 29.2125 102.601 29.1779C102.521 29.1433 102.449 29.0926 102.389 29.0289C102.326 28.9688 102.275 28.8964 102.241 28.8161C102.207 28.7359 102.189 28.6494 102.189 28.5621V16.0049C102.189 15.8078 102.255 15.649 102.389 15.523C102.514 15.4021 102.681 15.3352 102.855 15.3368H106.184C106.38 15.3368 106.544 15.3984 106.677 15.523C106.743 15.5844 106.795 15.6592 106.829 15.7423C106.864 15.8254 106.88 15.915 106.877 16.0049V28.5621C106.88 28.6518 106.864 28.7411 106.829 28.824C106.795 28.9068 106.743 28.9814 106.677 29.0426C106.544 29.1674 106.367 29.2348 106.184 29.2302H102.855ZM110.549 28.291L110.428 18.9703H108.324C108.237 18.9705 108.151 18.9527 108.071 18.9181C107.99 18.8834 107.918 18.8327 107.859 18.7691C107.795 18.7092 107.745 18.637 107.711 18.5569C107.676 18.4769 107.659 18.3907 107.659 18.3036V16.0036C107.659 15.8078 107.725 15.6476 107.859 15.5244C107.983 15.403 108.15 15.3356 108.324 15.3368H110.428V10.9284C110.428 10.8406 110.444 10.7536 110.477 10.6723C110.51 10.591 110.559 10.5171 110.621 10.4549C110.683 10.3927 110.757 10.3435 110.838 10.3101C110.919 10.2767 111.006 10.2597 111.094 10.2603H114.37C114.458 10.2567 114.547 10.2714 114.629 10.3035C114.711 10.3355 114.786 10.3842 114.849 10.4465C114.912 10.5099 114.96 10.5853 114.993 10.6681C115.025 10.751 115.04 10.8395 115.037 10.9284V15.3368H117.255C117.452 15.3368 117.616 15.3984 117.748 15.523C117.814 15.5842 117.866 15.6589 117.901 15.742C117.935 15.8252 117.952 15.9148 117.949 16.0049V18.3022C117.952 18.3919 117.935 18.4812 117.901 18.5641C117.866 18.647 117.815 18.7215 117.749 18.7828C117.616 18.9077 117.439 18.9751 117.256 18.9703H115.037V28.2814C115.037 28.4775 114.959 28.6655 114.82 28.8042C114.682 28.9428 114.494 29.0207 114.297 29.0207H111.288C111.094 29.0207 110.907 28.9441 110.769 28.8076C110.63 28.671 110.551 28.4854 110.549 28.291ZM119.531 29.2302C119.349 29.2349 119.172 29.1675 119.039 29.0426C118.973 28.9814 118.921 28.9068 118.887 28.824C118.852 28.7411 118.836 28.6518 118.839 28.5621V10.9284C118.839 10.7326 118.906 10.5724 119.039 10.4465C119.172 10.3219 119.349 10.255 119.531 10.2603H123.128C123.31 10.2556 123.487 10.3224 123.621 10.4465C123.686 10.508 123.738 10.5828 123.772 10.6659C123.807 10.7491 123.823 10.8386 123.819 10.9284V16.8866C124.85 15.675 126.243 15.0698 128.002 15.0698C128.961 15.0564 129.907 15.2958 130.744 15.764C131.561 16.2267 132.201 16.914 132.662 17.8217C133.124 18.7294 133.355 19.8246 133.355 21.1075V28.5621C133.358 28.6518 133.341 28.7411 133.307 28.824C133.272 28.9068 133.221 28.9814 133.155 29.0426C133.022 29.1674 132.845 29.2348 132.662 29.2302H129.041C128.954 29.2304 128.867 29.2127 128.787 29.1781C128.706 29.1434 128.634 29.0927 128.574 29.0289C128.511 28.9688 128.46 28.8964 128.426 28.8161C128.392 28.7359 128.374 28.6494 128.374 28.5621V21.269C128.374 20.4859 128.178 19.8753 127.788 19.4386C127.398 19.0032 126.838 18.7841 126.11 18.7841C125.401 18.7841 124.841 19.0032 124.433 19.4386C124.025 19.8753 123.819 20.4859 123.819 21.269V28.5634C123.822 28.6532 123.806 28.7424 123.771 28.8253C123.737 28.9082 123.685 28.9827 123.619 29.044C123.486 29.1689 123.309 29.2363 123.127 29.2315L119.531 29.2302ZM136.817 29.2302C136.635 29.2348 136.458 29.1674 136.324 29.0426C136.259 28.9814 136.207 28.9068 136.173 28.824C136.138 28.7411 136.122 28.6518 136.125 28.5621V25.0353C136.125 24.8396 136.192 24.6739 136.324 24.5411C136.388 24.4756 136.465 24.424 136.55 24.3894C136.635 24.3548 136.726 24.3379 136.817 24.3398H140.333C140.529 24.3398 140.689 24.4083 140.812 24.5411C140.937 24.6749 141.005 24.8524 141 25.0353V28.5621C141 28.6498 140.984 28.7369 140.95 28.8181C140.917 28.8993 140.868 28.9731 140.806 29.0352C140.744 29.0973 140.67 29.1466 140.589 29.18C140.508 29.2135 140.421 29.2305 140.333 29.2302H136.817Z" fill="#8F8D9D"/>
</svg>
