<svg width="123" height="37" viewBox="0 0 123 37" fill="none" xmlns="http://www.w3.org/2000/svg">
<path fill-rule="evenodd" clip-rule="evenodd" d="M18.7812 0C8.56398 0 0.28125 8.28273 0.28125 18.5C0.28125 28.7173 8.56398 37 18.7812 37C28.9985 37 37.2812 28.7173 37.2812 18.5C37.2812 8.28273 28.9985 0 18.7812 0ZM7.21875 15.2296C7.21875 11.1426 10.1094 8.09375 17.0469 8.09375H23.7675C30.0546 8.09375 30.3438 8.87414 30.3438 10.175C30.3438 11.6616 29.7656 12.2563 28.3204 12.2563H17.0469C13.5781 12.2563 11.8438 14.0361 11.8438 15.8241V16.4188H28.3204C29.4766 16.4188 30.3438 17.1993 30.3438 18.5C30.3438 19.8008 29.4766 20.5812 28.3204 20.5812H11.8438V21.176C11.8438 22.964 13.5781 24.7439 17.0469 24.7439H28.3204C29.7656 24.7439 30.3438 25.3385 30.3438 26.8251C30.3438 28.1259 30.0546 28.9062 23.7675 28.9062H17.0469C10.1094 28.9062 7.21875 25.8575 7.21875 21.7705V15.2296Z" fill="#8F8D9D"/>
<path d="M100.827 10.4062C100.065 10.4062 99.7188 10.8278 99.7188 11.7552V25.2448C99.7188 26.1722 100.065 26.5938 100.827 26.5938H102.08C102.841 26.5938 103.188 26.1722 103.188 25.2448V11.7552C103.188 10.8278 102.841 10.4062 102.08 10.4062H100.827Z" fill="#8F8D9D"/>
<path d="M75.2726 25.1604C76.2407 26.4383 77.3575 26.5938 78.5679 26.5938H79.5C80.8614 26.5938 81.2188 25.4977 81.2188 24.8232V11.7552C81.2188 10.8278 80.8606 10.4062 80.0727 10.4062H78.7765C77.9885 10.4062 77.6304 10.8278 77.6304 11.7552V22.3782L69.8214 11.8395C68.8528 10.5616 67.7365 10.4062 66.5257 10.4062H65.5937C64.2326 10.4062 63.875 11.5023 63.875 12.1767V25.2448C63.875 26.1722 64.2333 26.5938 65.0212 26.5938H66.3171C67.1051 26.5938 67.4634 26.1722 67.4634 25.2448V14.6218L75.2726 25.1604Z" fill="#8F8D9D"/>
<path d="M117.294 25.1604C118.198 26.4383 119.24 26.5938 120.37 26.5938H121.24C122.51 26.5938 122.844 25.4977 122.844 24.8232V11.7552C122.844 10.8278 122.509 10.4062 121.774 10.4062H120.564C119.829 10.4062 119.495 10.8278 119.495 11.7552V22.3782L112.206 11.8395C111.302 10.5616 110.26 10.4062 109.13 10.4062H108.26C106.99 10.4062 106.656 11.5023 106.656 12.1767V25.2448C106.656 26.1722 106.991 26.5938 107.726 26.5938H108.936C109.671 26.5938 110.005 26.1722 110.005 25.2448V14.6218L117.294 25.1604Z" fill="#8F8D9D"/>
<path d="M51.5898 10.4062C46.3867 10.4062 44.2188 12.7776 44.2188 15.9562V21.0438C44.2188 24.2224 46.3867 26.5938 51.5898 26.5938H56.6304C61.3457 26.5938 61.5625 25.9868 61.5625 24.9751C61.5625 23.8188 61.1289 23.3562 60.045 23.3562H51.5898C48.9883 23.3562 47.6875 21.9719 47.6875 20.5813V20.1187H60.045C60.9121 20.1187 61.5625 19.5117 61.5625 18.5C61.5625 17.4882 60.9121 16.8813 60.045 16.8813H47.6875V16.4187C47.6875 15.0281 48.9883 13.6438 51.5898 13.6438H60.045C61.1289 13.6438 61.5625 13.1812 61.5625 12.025C61.5625 11.0132 61.3457 10.4062 56.6304 10.4062H51.5898Z" fill="#8F8D9D"/>
<path d="M93.9375 20.4475V11.7552C93.9375 10.8278 94.2837 10.4062 95.0454 10.4062H96.2984C97.06 10.4062 97.4062 10.8278 97.4062 11.7552V20.8381C97.4062 24.0169 95.2737 26.5938 92.6281 26.5938H88.4633C83.7481 26.5938 83.5312 25.9868 83.5312 24.9751C83.5312 23.8188 83.9648 23.3562 85.0488 23.3562H91.7696C92.9273 23.3562 93.9375 21.8383 93.9375 20.4475Z" fill="#8F8D9D"/>
</svg>
