<svg width="20" height="13" viewBox="0 0 20 13" fill="none" xmlns="http://www.w3.org/2000/svg">
<path fill-rule="evenodd" clip-rule="evenodd" d="M18.1819 1.21212H12.7274C12.3926 1.21212 12.1213 1.48346 12.1213 1.81818V10.303C12.1213 10.6377 12.3926 10.9091 12.7274 10.9091H18.1819C18.5166 10.9091 18.788 10.6377 18.788 10.303V1.81818C18.788 1.48346 18.5166 1.21212 18.1819 1.21212ZM12.7274 0C11.7232 0 10.9092 0.814028 10.9092 1.81818V10.303C10.9092 11.3072 11.7232 12.1212 12.7274 12.1212H18.1819C19.1861 12.1212 20.0001 11.3072 20.0001 10.303V1.81818C20.0001 0.814028 19.1861 0 18.1819 0H12.7274Z" fill="#71BAB7"/>
<path fill-rule="evenodd" clip-rule="evenodd" d="M4.24242 9.09109C5.91601 9.09109 7.27273 7.73437 7.27273 6.06078C7.27273 4.38719 5.91601 3.03048 4.24242 3.03048C2.56883 3.03048 1.21212 4.38719 1.21212 6.06078C1.21212 7.73437 2.56883 9.09109 4.24242 9.09109ZM4.24242 10.3032C6.58545 10.3032 8.48485 8.40381 8.48485 6.06078C8.48485 3.71776 6.58545 1.81836 4.24242 1.81836C1.8994 1.81836 0 3.71776 0 6.06078C0 8.40381 1.8994 10.3032 4.24242 10.3032Z" fill="#71BAB7"/>
<rect x="3.63623" y="5.45459" width="12.7273" height="1.21212" rx="0.606061" fill="#71BAB7"/>
</svg>
