<svg width="20" height="16" viewBox="0 0 20 16" fill="none" xmlns="http://www.w3.org/2000/svg">
<path d="M14.6291 7.61025C14.6291 7.76137 14.5376 7.96179 14.4451 8.05924L9.22387 13.607C8.98026 13.859 8.58513 13.8883 8.30096 13.6323C8.04687 13.4038 8.04058 12.9578 8.27564 12.7094L12.4669 8.26316L0.923056 8.26305C0.562573 8.26304 0.270412 7.97088 0.270384 7.61038C0.270381 7.24989 0.562536 6.95774 0.923044 6.95772L12.4669 6.95783L8.27554 2.51147C8.04067 2.26328 8.05741 1.82819 8.30085 1.58856C8.55836 1.33562 8.98356 1.35808 9.22376 1.61389L14.4451 7.16179C14.5985 7.31215 14.6266 7.45719 14.6291 7.6104L14.6291 7.61025Z" fill="#71BAB7"/>
<path d="M14.3359 1.06191C14.3359 0.670946 14.6529 0.354004 15.0438 0.354004H19.9992V1.76982H15.0438C14.6529 1.76982 14.3359 1.45288 14.3359 1.06191Z" fill="#71BAB7"/>
<path d="M19.9995 1.77002L19.9995 13.0966L18.5837 13.0966L18.5837 1.77002L19.9995 1.77002Z" fill="#71BAB7"/>
<path d="M14.3359 13.8041C14.3359 13.4131 14.6529 13.0962 15.0438 13.0962H19.9992V14.512H15.0438C14.6529 14.512 14.3359 14.1951 14.3359 13.8041Z" fill="#71BAB7"/>
</svg>
