<svg width="16" height="8" viewBox="0 0 16 8" fill="none" xmlns="http://www.w3.org/2000/svg">
<path d="M10.9743 0.237489C10.8254 0.0869985 10.6231 0.00161274 10.4114 2.7094e-05C10.1998 -0.00171546 9.99623 0.0806598 9.84509 0.228774L3.94331 6.06161L1.3778 3.40567C1.23048 3.25217 1.02802 3.16361 0.815441 3.15966C0.602693 3.15554 0.397089 3.23648 0.244202 3.38429C0.0911765 3.53224 0.00341419 3.73485 8.87832e-05 3.94762C-0.00307948 4.16037 0.078661 4.36569 0.227096 4.51805L3.35513 7.75983C3.50483 7.91254 3.7095 7.99887 3.92336 7.99983H3.93223H3.93208C4.14197 7.99919 4.34301 7.91618 4.4922 7.76854L10.967 1.36674C11.1173 1.21767 11.2024 1.01522 11.2037 0.803566C11.2051 0.592086 11.1226 0.388539 10.9743 0.237557L10.9743 0.237489Z" fill="#71BAB7"/>
<path d="M8.15549 7.75989C8.30488 7.91212 8.50875 7.99862 8.72215 7.99989H8.73102H8.73086C8.94076 7.99925 9.14195 7.91624 9.29099 7.76861L15.7658 1.3668C15.9472 1.1626 16.012 0.879829 15.9374 0.617041C15.8629 0.354233 15.6593 0.147672 15.3978 0.0690785C15.1362 -0.00965244 14.8525 0.0507031 14.6455 0.228917L8.74613 6.06176L8.5356 5.84331L8.53576 5.84315C8.38844 5.68964 8.18598 5.60109 7.9734 5.59713C7.76065 5.59301 7.55505 5.67396 7.40216 5.82176C7.24914 5.96972 7.16137 6.17233 7.15805 6.3851C7.15488 6.59784 7.23662 6.80316 7.38505 6.95552L8.15549 7.75989Z" fill="#71BAB7"/>
</svg>
