<svg width="25" height="25" viewBox="0 0 25 25" fill="none" xmlns="http://www.w3.org/2000/svg">
<rect width="25" height="25" rx="3" fill="#403F48"/>
<path d="M12.7783 19.9519C12.9328 19.9519 13.1376 19.8583 13.2372 19.7638L18.9074 14.4274C19.1649 14.1784 19.1949 13.7746 18.9333 13.4842C18.6996 13.2245 18.2438 13.218 17.99 13.4583L13.4457 17.7419L13.4455 5.94354C13.4455 5.5751 13.1469 5.2765 12.7785 5.27647C12.41 5.27647 12.1114 5.57507 12.1114 5.94353L12.1115 17.7419L7.56711 13.4582C7.31345 13.2181 6.86876 13.2352 6.62385 13.484C6.36532 13.7472 6.38828 14.1818 6.64973 14.4273L12.32 19.7638C12.4737 19.9206 12.6219 19.9493 12.7785 19.9519L12.7783 19.9519Z" fill="#71BAB7"/>
</svg>
