<svg width="14" height="15" viewBox="0 0 14 15" fill="none" xmlns="http://www.w3.org/2000/svg">
<path d="M6.77834 14.9519C6.9328 14.9519 7.13763 14.8583 7.23723 14.7638L12.9074 9.42743C13.1649 9.17844 13.1949 8.7746 12.9333 8.48416C12.6996 8.22447 12.2438 8.21804 11.99 8.45828L7.44565 12.7419L7.44554 0.943538C7.44553 0.575104 7.14693 0.2765 6.77847 0.276471C6.41003 0.276468 6.11144 0.575066 6.11142 0.943525L6.11153 12.7419L1.56711 8.45818C1.31345 8.21813 0.868756 8.23524 0.623846 8.48404C0.365321 8.74724 0.388278 9.18181 0.649731 9.42731L6.31999 14.7638C6.47367 14.9206 6.6219 14.9493 6.77849 14.9519L6.77834 14.9519Z" fill="#242329"/>
</svg>
