<svg width="211" height="37" viewBox="0 0 211 37" fill="none" xmlns="http://www.w3.org/2000/svg">
<path d="M21.641 9.33828L14.1787 27.7132H9.31L5.63825 13.0471C5.415 12.145 5.22262 11.8141 4.54338 11.4341C3.43663 10.814 1.60787 10.233 0 9.87021L0.10925 9.33828H7.94675C8.45891 9.33775 8.95439 9.52621 9.34375 9.86963C9.7331 10.2131 9.99068 10.6888 10.07 11.2111L12.0104 21.8448L16.8031 9.33828H21.641ZM40.7194 21.7149C40.7384 16.8638 34.2214 16.5966 34.2665 14.4296C34.2808 13.7702 34.8887 13.0692 36.2188 12.8902C37.7774 12.7374 39.3472 13.022 40.7621 13.7138L41.5696 9.81628C40.192 9.28177 38.7331 9.00534 37.2614 9C32.7085 9 29.5046 11.5003 29.4761 15.0768C29.4476 17.7217 31.7633 19.1949 33.5089 20.0774C35.3044 20.977 35.9076 21.5555 35.8981 22.3596C35.8862 23.595 34.4684 24.1368 33.1431 24.1588C30.8275 24.1956 29.4856 23.5141 28.4121 22.9994L27.5785 27.0244C28.6544 27.5343 30.6399 27.9804 32.699 28C37.5369 28 40.7028 25.534 40.7194 21.7149ZM52.7393 27.7132H57L53.2831 9.33828H49.3501C48.9299 9.33426 48.5182 9.46065 48.1684 9.70104C47.8186 9.94144 47.5468 10.2848 47.3884 10.6865L40.4795 27.7132H45.315L46.2769 24.9677H52.1859L52.7393 27.7132ZM47.6021 21.2026L50.0246 14.3022L51.4211 21.2026H47.6021ZM28.2221 9.33828L24.415 27.7132H19.8075L23.6194 9.33828H28.2221Z" fill="#15141A"/>
<path d="M92.4871 27.947C92.5765 28.0197 92.6721 28.0924 92.7662 28.1636C90.9516 29.3251 88.7732 30 86.4345 30C80.1183 30.0015 75 25.0767 75 19.0007C75 12.9263 80.1183 8 86.433 8C88.7732 8 90.9516 8.67642 92.7615 9.83642C92.669 9.91208 92.5765 9.98179 92.5072 10.0589C89.8 12.3092 88.2506 15.5712 88.2506 19.0007C88.2506 22.4288 89.7938 25.6908 92.4871 27.947ZM100.567 8C98.2237 8 96.0484 8.67642 94.2385 9.83642C94.331 9.91208 94.4235 9.98179 94.4928 10.0589C97.2 12.3092 98.7494 15.5712 98.7494 19.0007C98.7494 22.4273 97.2062 25.6863 94.5129 27.947C94.4235 28.0197 94.3279 28.0924 94.2338 28.1636C96.0484 29.3251 98.2237 30 100.565 30C106.882 30.0015 112 25.0767 112 19.0007C112 12.9278 106.882 8 100.567 8ZM93.5 10.3586C93.352 10.4698 93.2086 10.5811 93.0683 10.7012C90.6572 12.7171 89.1355 15.6854 89.1355 19.0007C89.1355 22.3176 90.6572 25.2843 93.0683 27.3002C93.2071 27.4189 93.3535 27.5346 93.5 27.6444C93.648 27.5346 93.7914 27.4189 93.9317 27.3002C96.3413 25.2843 97.8645 22.3176 97.8645 19.0007C97.8645 15.6854 96.3428 12.7171 93.9317 10.7012C93.7929 10.5826 93.648 10.4698 93.5 10.3586Z" fill="#15141A"/>
<path d="M138.996 32.8945H131.976C131.835 32.8945 131.696 32.8635 131.568 32.8038C131.44 32.7441 131.326 32.6571 131.235 32.5487C131.143 32.4403 131.076 32.3131 131.037 32.1759C130.999 32.0387 130.99 31.8946 131.012 31.7537L135.747 1.38904C135.872 0.588917 136.555 0 137.353 0H148.723C152.639 0 155.7 0.837125 157.395 2.79042C158.934 4.56333 159.382 6.52125 158.937 9.39954C158.902 9.62 158.865 9.84354 158.82 10.0732C157.321 17.8587 152.191 20.552 145.641 20.552H142.303C141.505 20.552 140.828 21.1409 140.703 21.9395L138.996 32.8945ZM160.555 10.6637C160.282 10.3487 159.971 10.0687 159.63 9.82967C159.61 9.94683 159.591 10.0995 159.568 10.2212C158.15 17.5873 153.464 21.3228 145.641 21.3228H142.303C142.098 21.323 141.9 21.3977 141.744 21.5332C141.589 21.6686 141.487 21.856 141.456 22.0613L139.647 33.6654H138.876L138.51 36.0025C138.491 36.1258 138.498 36.2519 138.532 36.372C138.566 36.4921 138.625 36.6034 138.705 36.6982C138.785 36.793 138.885 36.8691 138.997 36.9212C139.109 36.9733 139.231 37.0002 139.354 37H145.271C145.972 37 146.566 36.4851 146.676 35.7852C146.767 35.3843 147.834 28.305 147.92 27.9381C147.972 27.599 148.143 27.2901 148.401 27.0673C148.659 26.8445 148.987 26.7224 149.326 26.7232H150.21C155.941 26.7232 160.429 24.3676 161.74 17.5565C162.288 14.709 162.005 12.3333 160.555 10.6637Z" fill="#15141A"/>
<path d="M210.907 5.70488C201.659 2.3882 191.607 2.11454 182.196 4.92325C181.822 5.01393 181.47 5.17951 181.161 5.41015C180.852 5.64079 180.592 5.93177 180.397 6.26577C180.202 6.59977 180.075 6.96996 180.025 7.35433C179.974 7.73869 180.001 8.12936 180.103 8.5031C180.62 10.5874 181.369 12.9831 182.273 15.1574C182.286 15.2095 182.312 15.1834 182.312 15.1313C182.183 14.1152 182.958 12.8255 184.481 12.3565C191.8 10.01 199.676 10.1151 206.931 12.6561C208.042 13.047 209.282 12.4347 209.642 11.2766C210.546 8.34808 210.908 6.35493 210.999 5.8612C211.011 5.77001 210.934 5.73093 210.908 5.70488H210.907ZM188.6 12.1494C187.489 12.3839 185.952 12.7486 184.802 13.1395C182.506 13.9341 182.609 16.7584 183.835 17.6573C183.925 17.1362 184.481 16.4197 185.101 16.1852C187.399 15.2733 189.864 14.7275 192.356 14.506C191.09 13.9849 189.85 13.2424 188.612 12.1494H188.6ZM206.905 17.8006C203.601 16.2357 200.02 15.3545 196.372 15.209C192.725 15.0636 189.085 15.6569 185.669 16.9538C184.571 17.3707 183.887 18.7125 184.571 19.9878C185.769 22.1709 187.128 24.2598 188.637 26.2369C188.418 25.4813 188.805 24.0757 190.278 23.6198C194.344 22.3574 198.617 22.8902 201.457 24.0497C202.258 24.3753 203.395 24.1799 204.027 23.2159C205.115 21.5327 206.102 19.7852 206.983 17.9829C207.022 17.9048 206.983 17.8396 206.905 17.8006ZM200.309 27.9174C199.118 27.3101 198.029 26.519 197.081 25.5725C196.642 25.1296 195.996 24.4926 195.311 23.737C193.763 23.737 192.253 23.8933 190.639 24.4144C189.141 24.8834 188.999 26.629 189.658 27.5396C190.769 28.9335 191.544 29.6891 192.782 30.9775C193.439 31.6283 194.322 31.9951 195.243 32C196.164 32.0048 197.05 31.6474 197.714 31.0035C198.633 30.0754 199.52 29.1151 200.373 28.1245C200.438 28.0594 200.412 27.9422 200.309 27.9161" fill="#15141A"/>
</svg>
