<svg width="17" height="17" viewBox="0 0 17 17" fill="none" xmlns="http://www.w3.org/2000/svg">
<path d="M16.8386 14.92L12.5786 10.6446C14.3864 7.92531 14.0284 4.31146 11.7195 2.00374C10.4129 0.71551 8.69453 0 6.85104 0C5.00755 0 3.2891 0.71551 2.00034 2.00374C-0.666755 4.68714 -0.666755 9.03418 2.00019 11.7C4.30928 14.0077 7.92505 14.3656 10.6456 12.5765L14.9237 16.8524C15.1206 17.0492 15.4606 17.0492 15.6576 16.8524L16.839 15.6716C17.0537 15.4569 17.0537 15.117 16.8389 14.9202L16.8386 14.92ZM10.1442 10.1433C8.33634 11.9502 5.38305 11.9502 3.55714 10.1433C1.7493 8.33639 1.7493 5.38467 3.55714 3.55972C5.36499 1.75283 8.31827 1.75283 10.1442 3.55972C11.952 5.38448 11.952 8.33647 10.1442 10.1433Z" fill="#8F8D9D"/>
</svg>
