<svg width="16" height="16" viewBox="0 0 16 16" fill="none" xmlns="http://www.w3.org/2000/svg">
<path fill-rule="evenodd" clip-rule="evenodd" d="M7.28912 8.04136C7.28899 8.0387 7.28899 8.03603 7.28899 8.03323V3.05573C7.28899 2.66302 7.60738 2.34465 8.00007 2.34465C8.39277 2.34465 8.71115 2.66303 8.71115 3.05573V7.3384H12.0739C12.4666 7.3384 12.785 7.65666 12.785 8.04949C12.785 8.44219 12.4666 8.76056 12.0739 8.76056H7.99997C7.60726 8.76056 7.28889 8.44218 7.28889 8.04949C7.28889 8.04682 7.28889 8.04415 7.28902 8.04148L7.28912 8.04136ZM16 8C16 3.58171 12.4183 0 8 0C3.58171 0 0 3.58171 0 8C0 12.4183 3.58171 16 8 16C12.4183 16 16 12.4183 16 8ZM1.42243 8C1.42243 4.36705 4.36743 1.42243 8 1.42243C11.6329 1.42243 14.5776 4.36729 14.5776 8C14.5776 11.6326 11.6327 14.5776 8 14.5776C4.36739 14.5776 1.42243 11.6326 1.42243 8Z" fill="#71BAB7"/>
</svg>
