<svg width="70" height="63" viewBox="0 0 70 63" fill="none" xmlns="http://www.w3.org/2000/svg">
<g filter="url(#filter0_d_89_133)">
<path fill-rule="evenodd" clip-rule="evenodd" d="M26.5719 38.0873C29.9133 38.0873 32.622 35.3786 32.622 32.0373C32.622 28.6959 29.9133 25.9872 26.5719 25.9872C23.2306 25.9872 20.5219 28.6959 20.5219 32.0373C20.5219 35.3786 23.2306 38.0873 26.5719 38.0873ZM26.5719 48.6092C35.7244 48.6092 43.1439 41.1897 43.1439 32.0373C43.1439 22.8848 35.7244 15.4653 26.5719 15.4653C17.4195 15.4653 10 22.8848 10 32.0373C10 41.1897 17.4195 48.6092 26.5719 48.6092Z" fill="#71BAB7"/>
<path fill-rule="evenodd" clip-rule="evenodd" d="M26.5719 38.0873C29.9133 38.0873 32.622 35.3786 32.622 32.0373C32.622 28.6959 29.9133 25.9872 26.5719 25.9872C23.2306 25.9872 20.5219 28.6959 20.5219 32.0373C20.5219 35.3786 23.2306 38.0873 26.5719 38.0873ZM26.5719 48.6092C35.7244 48.6092 43.1439 41.1897 43.1439 32.0373C43.1439 22.8848 35.7244 15.4653 26.5719 15.4653C17.4195 15.4653 10 22.8848 10 32.0373C10 41.1897 17.4195 48.6092 26.5719 48.6092Z" fill="url(#paint0_linear_89_133)"/>
</g>
<path d="M28.1682 43.3481C27.8219 43.3481 27.4743 43.2124 27.2135 42.9445C26.7007 42.4173 26.7127 41.5741 27.2403 41.0616L31.3457 37.0665C31.873 36.5526 32.7148 36.5656 33.2287 37.0932C33.7415 37.6205 33.7296 38.4637 33.202 38.9762L29.0965 42.9713C28.8382 43.2229 28.5025 43.3481 28.1683 43.3481H28.1682ZM62.7917 43.3481C62.4441 43.3481 62.0979 43.2124 61.8371 42.9445L57.9527 38.9495C57.4399 38.4222 57.4519 37.579 57.9795 37.0665C58.5067 36.5512 59.3499 36.567 59.8624 37.0932L63.7468 41.0883C64.2596 41.6155 64.2477 42.4587 63.7201 42.9713C63.4618 43.2229 63.1261 43.3481 62.7918 43.3481H62.7917ZM60.1284 11.3871C59.3921 11.3871 58.7966 10.7906 58.7966 10.0552V6.06017C58.7966 5.3252 59.392 4.72834 60.1284 4.72834C60.8648 4.72834 61.4603 5.32483 61.4603 6.06017V10.0552C61.4603 10.7902 60.8648 11.3871 60.1284 11.3871ZM64.1235 11.3871H60.1284C59.3921 11.3871 58.7966 10.7906 58.7966 10.0552C58.7966 9.32025 59.392 8.7234 60.1284 8.7234H63.5721L65.8705 6.42497L64.8596 5.92022C64.6027 5.79122 64.3922 5.58208 64.2642 5.32478L63.7581 4.31391L61.0695 7.00251C60.5489 7.52308 59.707 7.52308 59.1865 7.00251C58.6659 6.48194 58.6659 5.64008 59.1865 5.11953L63.1815 1.12447C63.4824 0.822186 63.906 0.683704 64.3362 0.751542C64.7583 0.820786 65.1232 1.08722 65.3137 1.4707L66.4469 3.73719L68.7134 4.87043C69.0955 5.06235 69.3633 5.4258 69.4326 5.84791C69.5018 6.27003 69.3619 6.70029 69.0596 7.00257L65.0646 10.9976C64.8157 11.2465 64.4772 11.3864 64.1229 11.3864L64.1235 11.3871ZM45.48 26.0354C45.139 26.0354 44.7981 25.905 44.5383 25.6452C44.0177 25.1246 44.0177 24.2828 44.5383 23.7622L59.1866 9.11393C59.7072 8.59336 60.549 8.59336 61.0696 9.11393C61.5901 9.6345 61.5901 10.4764 61.0696 10.9969L46.4213 25.6452C46.1615 25.905 45.8206 26.0354 45.4796 26.0354H45.48ZM45.48 32.6941C41.0732 32.6941 37.4898 29.1106 37.4898 24.7039C37.4898 20.2972 41.0732 16.7137 45.48 16.7137C47.6146 16.7137 49.6202 17.5446 51.1288 19.0536C51.6494 19.5742 51.6494 20.4174 51.1288 20.9379C50.6082 21.4574 49.7664 21.4574 49.2445 20.9379C48.2403 19.9312 46.9035 19.3773 45.4796 19.3773C42.5418 19.3773 40.1527 21.7664 40.1527 24.7042C40.1527 27.6419 42.5418 30.0311 45.4796 30.0311C48.4174 30.0311 50.8065 27.6419 50.8065 24.7042C50.8065 23.9678 51.4019 23.3723 52.1383 23.3723C52.8747 23.3723 53.4702 23.9678 53.4702 24.7042C53.4702 29.1109 49.8867 32.6944 45.48 32.6944V32.6941ZM45.48 38.0206C38.1369 38.0206 32.1634 32.0466 32.1634 24.7041C32.1634 17.361 38.1375 11.3875 45.48 11.3875C49.0367 11.3875 52.3823 12.7724 54.8967 15.2881C55.4172 15.8087 55.4172 16.6505 54.8967 17.1711C54.3761 17.6916 53.5342 17.6916 53.0137 17.1711C51.0014 15.1588 48.3261 14.0508 45.4804 14.0508C39.6062 14.0508 34.8273 18.8301 34.8273 24.7039C34.8273 30.5777 39.6066 35.357 45.4804 35.357C51.3542 35.357 56.1335 30.5777 56.1335 24.7039C56.1335 23.3696 55.8699 22.0417 55.3503 20.7566C55.0748 20.0747 55.4038 19.2983 56.0853 19.0226C56.7672 18.7485 57.5437 19.0761 57.8193 19.7576C58.4678 21.3611 58.7968 23.0254 58.7968 24.7035C58.7968 32.0466 52.8227 38.0201 45.4802 38.0201L45.48 38.0206ZM45.48 43.3475C35.1994 43.3475 26.8364 34.9844 26.8364 24.704C26.8364 14.4235 35.1995 6.06045 45.48 6.06045C50.4592 6.06045 55.1414 7.9993 58.6624 11.5216C59.183 12.0422 59.183 12.884 58.6624 13.4046C58.1419 13.9251 57.3 13.9251 56.7795 13.4046C53.7619 10.3856 49.7481 8.72367 45.4803 8.72367C36.6687 8.72367 29.5003 15.8921 29.5003 24.7037C29.5003 33.5154 36.6687 40.6838 45.4803 40.6838C54.292 40.6838 61.4604 33.5154 61.4604 24.7037C61.4604 21.995 60.7532 19.3023 59.4151 16.9188C59.0541 16.2783 59.2832 15.466 59.9251 15.1064C60.563 14.7468 61.3778 14.9732 61.7374 15.6164C63.2981 18.3971 64.1238 21.5398 64.1238 24.7038C64.1238 34.9843 55.7607 43.3473 45.4802 43.3473L45.48 43.3475Z" fill="white"/>
<defs>
<filter id="filter0_d_89_133" x="0" y="9.46533" width="53.1438" height="53.1438" filterUnits="userSpaceOnUse" color-interpolation-filters="sRGB">
<feFlood flood-opacity="0" result="BackgroundImageFix"/>
<feColorMatrix in="SourceAlpha" type="matrix" values="0 0 0 0 0 0 0 0 0 0 0 0 0 0 0 0 0 0 127 0" result="hardAlpha"/>
<feOffset dy="4"/>
<feGaussianBlur stdDeviation="5"/>
<feComposite in2="hardAlpha" operator="out"/>
<feColorMatrix type="matrix" values="0 0 0 0 0.0942187 0 0 0 0 0.279167 0 0 0 0 0.271566 0 0 0 0.5 0"/>
<feBlend mode="normal" in2="BackgroundImageFix" result="effect1_dropShadow_89_133"/>
<feBlend mode="normal" in="SourceGraphic" in2="effect1_dropShadow_89_133" result="shape"/>
</filter>
<linearGradient id="paint0_linear_89_133" x1="10" y1="15.4653" x2="10" y2="48.6092" gradientUnits="userSpaceOnUse">
<stop stop-color="#3BA8A3"/>
<stop offset="1" stop-color="#1C7874"/>
</linearGradient>
</defs>
</svg>
