<svg width="70" height="63" viewBox="0 0 70 63" fill="none" xmlns="http://www.w3.org/2000/svg">
<g filter="url(#filter0_d_89_144)">
<path d="M10 46.5173C10 29.9488 23.4315 16.5173 40 16.5173H48.9309V18.609C48.9309 35.1776 35.4994 48.609 18.9309 48.609H10V46.5173Z" fill="#71BAB7"/>
<path d="M10 46.5173C10 29.9488 23.4315 16.5173 40 16.5173H48.9309V18.609C48.9309 35.1776 35.4994 48.609 18.9309 48.609H10V46.5173Z" fill="url(#paint0_linear_89_144)"/>
</g>
<path fill-rule="evenodd" clip-rule="evenodd" d="M37.6195 8.62598C38.3459 8.62598 38.9347 9.21483 38.9347 9.94121C38.9347 10.6676 38.3459 11.2564 37.6195 11.2564H31.0433L31.0433 35.9828H66.8177V11.2564H60.2415C59.5151 11.2564 58.9263 10.6676 58.9263 9.94121C58.9263 9.21483 59.5151 8.62598 60.2415 8.62598H66.8177C68.2704 8.62598 69.4481 9.80368 69.4481 11.2564V35.9828C69.4481 37.4356 68.2704 38.6133 66.8177 38.6133H49.9827V43.3481H57.0849C57.8113 43.3481 58.4002 43.937 58.4002 44.6634C58.4002 45.3898 57.8113 45.9786 57.0849 45.9786H40.776C40.0497 45.9786 39.4608 45.3898 39.4608 44.6634C39.4608 43.937 40.0497 43.3481 40.776 43.3481H47.3522V38.6133H31.0433C29.5905 38.6133 28.4128 37.4356 28.4128 35.9828V11.2564C28.4128 9.80368 29.5905 8.62598 31.0433 8.62598H37.6195Z" fill="white"/>
<path fill-rule="evenodd" clip-rule="evenodd" d="M50.3118 3.19937C50.7146 3.31411 51.0598 3.48589 51.4051 3.71535L52.6135 2.51161C52.9012 2.22509 53.4767 2.22509 53.7644 2.51161L54.3973 3.19939C54.8001 3.54328 54.8001 4.17368 54.3973 4.51759L53.3616 5.60664C53.5344 5.95053 53.7069 6.35178 53.822 6.75304H55.4906C55.9511 6.75304 56.2963 7.09693 56.2963 7.55554V8.47249C56.2963 9.04553 55.8935 9.44678 55.3182 9.44678H53.822C53.7069 9.84803 53.5344 10.2493 53.3616 10.5932L54.5125 11.7396C54.8577 12.0835 54.8577 12.5994 54.5125 12.9433L53.8796 13.5737C53.4768 13.975 52.9015 13.975 52.4987 13.5737L51.4054 12.4847C51.0601 12.7138 50.7149 12.8859 50.3121 12.9433V14.6054C50.3121 15.064 49.9092 15.4652 49.4489 15.4652H48.5283C48.0103 15.4652 47.5502 15.0066 47.5502 14.4909V12.9433C47.1474 12.8859 46.8022 12.7141 46.4569 12.4847L45.2484 13.6884C44.9608 13.9749 44.3852 13.9749 44.0975 13.6884L43.4647 13.0006C43.0618 12.6568 43.0618 12.0264 43.4647 11.6251L44.5003 10.5935C44.3276 10.2496 44.1551 9.84833 44.0399 9.44706H42.3713C41.9109 9.44706 41.5657 9.10318 41.5657 8.64457V7.72762C41.5657 7.15458 41.9685 6.75333 42.5438 6.75333H44.0399C44.1551 6.35207 44.3276 5.95083 44.5003 5.60693L43.3494 4.46053C43.0042 4.11664 43.0042 3.60069 43.3494 3.25678L43.9823 2.62637C44.3852 2.22512 44.9604 2.22512 45.3633 2.62637L46.4566 3.71543C46.8018 3.48628 47.147 3.31418 47.5499 3.19945V1.59446C47.5499 1.13584 47.9527 0.734619 48.4131 0.734619H49.3336C49.8516 0.734619 50.3118 1.19323 50.3118 1.70891V3.19937ZM48.9308 5.49217C50.3693 5.49217 51.5779 6.63857 51.5779 8.07146C51.5779 9.56176 50.3694 10.7082 48.9308 10.7082C47.4923 10.7082 46.2838 9.56176 46.2838 8.07146C46.2838 6.63857 47.4923 5.49217 48.9308 5.49217Z" fill="white"/>
<path fill-rule="evenodd" clip-rule="evenodd" d="M47.6756 19.5398C48.0818 19.4378 48.4667 19.4139 48.8804 19.44L49.3251 17.7933C49.431 17.4014 49.9294 17.1136 50.3218 17.2179L51.2138 17.4971C51.7346 17.5935 52.0498 18.1394 51.8729 18.6387L51.5205 20.0996C51.8421 20.3111 52.1921 20.5723 52.4924 20.8622L53.9375 20.0279C54.3362 19.7977 54.8071 19.9229 55.0364 20.3201L55.4949 21.1142C55.7814 21.6105 55.6332 22.1594 55.135 22.447L53.8393 23.1951C53.9402 23.6002 53.9914 24.0339 54.0138 24.4181L55.5837 24.8355C56.0546 24.9607 56.3126 25.4075 56.1855 25.8779L55.9527 26.7403C55.8044 27.2892 55.3062 27.5769 54.7567 27.4308L53.2654 27.0343C53.081 27.4054 52.868 27.727 52.5478 27.9781L53.3789 29.4176C53.6082 29.8147 53.4599 30.3636 53.0612 30.5938L52.264 31.0541C51.8154 31.3131 51.1877 31.146 50.9298 30.6994L50.156 29.3591C49.7784 29.5108 49.3936 29.5346 48.9798 29.5086L48.5352 31.1553C48.4293 31.5472 47.9309 31.835 47.5385 31.7307L46.6465 31.4515C46.1257 31.3551 45.8105 30.8092 45.9587 30.2603L46.3398 28.849C46.0182 28.6376 45.6683 28.3763 45.3679 28.0864L43.9228 28.9207C43.5241 29.1509 43.0532 29.0257 42.8239 28.6285L42.3654 27.8344C42.0789 27.3382 42.2271 26.7893 42.7253 26.5016L44.021 25.7536C43.9201 25.3485 43.8689 24.9147 43.8465 24.5305L42.2766 24.1132C41.8057 23.988 41.5477 23.5411 41.6748 23.0707L41.9077 22.2083C42.0559 21.6594 42.5541 21.3718 43.1036 21.5178L44.5949 21.9143C44.7793 21.5433 44.9923 21.2216 45.2838 20.9208L44.4813 19.5309C44.252 19.1337 44.4002 18.5848 44.7989 18.3546L45.5962 17.8943C46.0448 17.6353 46.6725 17.8025 46.9304 18.249L47.6756 19.5398ZM47.6261 22.2159C48.8719 21.4967 50.4917 21.8852 51.2081 23.1261C51.9533 24.4168 51.4799 26.0138 50.2341 26.7331C48.9882 27.4524 47.3685 27.0638 46.6233 25.7731C45.9069 24.5322 46.3802 22.9352 47.6261 22.2159Z" fill="white"/>
<defs>
<filter id="filter0_d_89_144" x="0" y="10.5173" width="58.9309" height="52.0918" filterUnits="userSpaceOnUse" color-interpolation-filters="sRGB">
<feFlood flood-opacity="0" result="BackgroundImageFix"/>
<feColorMatrix in="SourceAlpha" type="matrix" values="0 0 0 0 0 0 0 0 0 0 0 0 0 0 0 0 0 0 127 0" result="hardAlpha"/>
<feOffset dy="4"/>
<feGaussianBlur stdDeviation="5"/>
<feComposite in2="hardAlpha" operator="out"/>
<feColorMatrix type="matrix" values="0 0 0 0 0.0942187 0 0 0 0 0.279167 0 0 0 0 0.271566 0 0 0 0.5 0"/>
<feBlend mode="normal" in2="BackgroundImageFix" result="effect1_dropShadow_89_144"/>
<feBlend mode="normal" in="SourceGraphic" in2="effect1_dropShadow_89_144" result="shape"/>
</filter>
<linearGradient id="paint0_linear_89_144" x1="10" y1="16.5173" x2="10" y2="48.609" gradientUnits="userSpaceOnUse">
<stop stop-color="#3BA8A3"/>
<stop offset="1" stop-color="#1C7874"/>
</linearGradient>
</defs>
</svg>
