<svg width="181" height="37" viewBox="0 0 181 37" fill="none" xmlns="http://www.w3.org/2000/svg">
<path fill-rule="evenodd" clip-rule="evenodd" d="M37.5255 16.8014C37.5255 18.7927 35.9108 20.4088 33.9182 20.4088C31.9269 20.4088 30.3123 18.7927 30.3123 16.8007C30.3123 14.8095 31.9269 13.1934 33.9182 13.1934C35.9101 13.1934 37.5255 14.8095 37.5255 16.8007" fill="#8F8D9D"/>
<path fill-rule="evenodd" clip-rule="evenodd" d="M40.8244 15.0107C40.781 15.0788 40.7368 15.1454 40.6948 15.2135L40.6941 15.2128C40.7368 15.1447 40.7803 15.0788 40.8244 15.0107Z" fill="#81BA28"/>
<path fill-rule="evenodd" clip-rule="evenodd" d="M40.8244 15.0107C40.781 15.0788 40.7368 15.1454 40.6948 15.2135L40.6941 15.2128C40.7368 15.1447 40.7803 15.0788 40.8244 15.0107Z" fill="white"/>
<path fill-rule="evenodd" clip-rule="evenodd" d="M49.437 1.46015C48.9338 2.26387 42.1941 12.8644 41.546 13.881C41.3961 14.117 41.2492 14.3444 41.1058 14.5725L40.8256 15.0105C40.1218 12.2887 37.8511 10.1954 35.0315 9.75374C35.1597 9.55172 39.1138 3.29641 40.1131 1.70778C40.226 1.52459 40.3274 1.38919 40.5801 1.39064C43.4887 1.40005 46.3944 1.40005 49.3031 1.40222C49.3291 1.40222 49.3567 1.42394 49.437 1.46015Z" fill="#8F8D9D"/>
<path fill-rule="evenodd" clip-rule="evenodd" d="M51.1179 32.1947C49.6625 33.9224 48.0225 35.1417 45.9386 35.6319C43.077 36.3046 40.3487 35.9997 37.9064 34.2308C36.1288 32.9463 35.0463 31.1484 34.2592 29.1478C34.236 29.0891 34.2085 29.0189 34.1774 28.9349C34.1716 28.919 34.1636 28.9023 34.1586 28.885C33.9551 28.3491 33.6017 27.3789 33.2556 26.3311C32.974 25.4753 32.6995 24.5666 32.5156 23.7969C32.9696 23.8881 33.4388 23.9344 33.9189 23.9344C36.0368 23.9344 37.9411 23.0098 39.2445 21.5442L39.2604 21.5283C39.7405 22.7173 40.2386 24.5839 40.7129 26.0335L40.7173 26.0451C40.8469 26.4412 40.9729 26.8068 41.1003 27.1189C41.626 28.4324 42.185 29.7169 43.2407 30.693C43.3109 30.7574 43.3848 30.8204 43.4593 30.8827C44.8351 32.0224 46.4802 32.3193 48.1977 32.375C49.1303 32.4061 50.0557 32.278 51.1179 32.194" fill="#8F8D9D"/>
<path fill-rule="evenodd" clip-rule="evenodd" d="M27.8836 20.6069C26.1936 22.971 24.3595 25.22 22.2039 27.2148C20.3865 28.8947 18.4503 30.3979 16.1144 31.3044C15.2238 31.652 14.3006 31.8417 13.3412 31.833C10.6288 31.8395 8.68103 30.1401 8.10466 27.3003C7.59274 24.7769 7.85124 22.2911 8.55938 19.8589C9.87069 15.3537 12.1747 11.3706 15.231 7.82981C16.614 6.22815 18.2019 4.85168 20.2764 4.19204C21.742 3.72646 23.2183 3.59468 24.6513 4.32962C25.7562 4.89802 26.5252 5.81398 27.1392 6.86244C28.0139 8.35187 28.5555 9.96801 29.0247 11.6124C30.3013 10.4061 32.0231 9.66752 33.9195 9.66752C34.2967 9.66752 34.6689 9.69793 35.031 9.75441L35.4603 9.0774C35.1345 8.32798 34.8594 7.64734 34.548 6.98481C33.5785 4.91974 32.2527 3.13416 30.3433 1.84531C28.0769 0.316776 25.5615 -0.174149 22.8592 0.0524879C19.4162 0.339223 16.2042 1.34135 13.2688 3.15299C8.60573 6.03627 4.94406 9.89416 2.37503 14.7419C0.727754 17.8445 -0.21934 21.1485 0.0435004 24.7045C0.383817 29.2915 2.69507 32.5723 6.80639 34.578C10.0046 36.1391 13.4085 36.2796 16.858 35.856C19.7239 35.5041 22.4262 34.5628 24.917 33.1211C27.9408 31.3718 30.5605 29.0916 33.0006 26.6059C33.0846 26.519 33.1382 26.3908 33.257 26.3307C32.9746 25.4741 32.7009 24.5662 32.5184 23.7965C30.5706 23.4091 28.9096 22.2288 27.8836 20.6069Z" fill="#8F8D9D"/>
<path fill-rule="evenodd" clip-rule="evenodd" d="M66.1629 18.6477L63.5533 12.5981L60.9633 18.6477H66.1621H66.1629ZM67.0129 20.6636H60.0936L58.7295 23.8669H56.0793L62.3064 10.0283H64.8371L71.0844 23.8669H68.3959L67.0122 20.6636H67.0129Z" fill="#8F8D9D"/>
<path fill-rule="evenodd" clip-rule="evenodd" d="M72.6072 23.8671H75.0785V9.19799H72.6072V23.8671ZM87.0185 18.5886C87.0185 16.572 85.6739 15.2868 83.8948 15.2868C82.1158 15.2868 80.7516 16.572 80.7516 18.5886C80.7516 20.6051 82.1158 21.8904 83.8948 21.8904C85.6739 21.8904 87.0185 20.6051 87.0185 18.5886ZM89.5289 18.5886C89.5289 21.8701 87.2553 24.0047 84.1714 24.0047C82.8275 24.0047 81.6415 23.5507 80.7914 22.5819V27.7018H78.3202V13.31H80.6727V14.693C81.5032 13.6858 82.7291 13.1913 84.1714 13.1913C87.256 13.1913 89.5296 15.3266 89.5296 18.5886H89.5289ZM102.28 17.8174V23.8671H99.8086V18.1338C99.8086 16.2556 98.8796 15.3461 97.2982 15.3461C95.5387 15.3461 94.3527 16.4134 94.3527 18.5292V23.8671H91.8814V9.19727H94.3527V14.5359C95.1637 13.6656 96.4091 13.1913 97.8717 13.1913C100.402 13.1913 102.28 14.6344 102.28 17.8174ZM111.789 20.5653V19.3394H109.239C107.558 19.3394 107.103 19.9723 107.103 20.7434C107.103 21.6326 107.855 22.2061 109.12 22.2061C110.326 22.2061 111.374 21.6529 111.789 20.5653ZM114.26 17.6791V23.8671H111.928V22.5819C111.334 23.4913 110.188 24.0054 108.606 24.0054C106.194 24.0054 104.672 22.6803 104.672 20.8419C104.672 19.0824 105.858 17.6987 109.06 17.6987H111.789V17.5408C111.789 16.097 110.919 15.2469 109.159 15.2469C107.973 15.2469 106.748 15.643 105.957 16.2954L104.988 14.4961C106.115 13.6265 107.756 13.1913 109.456 13.1913C112.501 13.1913 114.26 14.6344 114.26 17.6791ZM137.528 10.0278L132.942 23.8671H130.213L126.794 13.6265L123.314 23.8671H120.566L115.979 10.0278H118.648L122.089 20.5457L125.667 10.0278H128.039L131.538 20.6051L135.077 10.0278H137.528ZM145.673 20.5653V19.3394H143.123C141.442 19.3394 140.987 19.9723 140.987 20.7434C140.987 21.6326 141.739 22.2061 143.004 22.2061C144.21 22.2061 145.258 21.6529 145.673 20.5653ZM148.144 17.6791V23.8671H145.811V22.5819C145.218 23.4913 144.072 24.0054 142.49 24.0054C140.078 24.0054 138.556 22.6803 138.556 20.8419C138.556 19.0824 139.742 17.6987 142.944 17.6987H145.673V17.5408C145.673 16.097 144.803 15.2469 143.043 15.2469C141.857 15.2469 140.632 15.643 139.841 16.2954L138.873 14.4961C139.999 13.6265 141.64 13.1913 143.34 13.1913C146.385 13.1913 148.144 14.6344 148.144 17.6791ZM150.931 23.8671H153.403V9.19799H150.931V23.8671ZM156.644 23.8671H159.116V9.19799H156.644V23.8671ZM163.939 17.7385H169.929C169.731 16.2158 168.565 15.168 166.944 15.168C165.343 15.168 164.176 16.1962 163.939 17.7385ZM172.242 19.3793H163.958C164.255 20.9215 165.54 21.9099 167.379 21.9099C168.565 21.9099 169.494 21.5334 170.245 20.763L171.571 22.285C170.621 23.4124 169.138 24.0054 167.32 24.0054C163.781 24.0054 161.488 21.7318 161.488 18.5886C161.488 15.4453 163.8 13.1913 166.944 13.1913C170.028 13.1913 172.282 15.3461 172.282 18.6479C172.282 18.8456 172.262 19.1418 172.242 19.3793ZM181 23.2936C180.406 23.7679 179.517 24.0054 178.627 24.0054C176.314 24.0054 174.99 22.7795 174.99 20.4465V15.3657H173.25V13.389H174.99V10.9778H177.461V13.389H180.288V15.3657H177.461V20.3872C177.461 21.4154 177.975 21.9686 178.924 21.9686C179.438 21.9686 179.932 21.831 180.308 21.5341L181 23.2936Z" fill="#8F8D9D"/>
</svg>
