<svg width="146" height="39" viewBox="0 0 146 39" fill="none" xmlns="http://www.w3.org/2000/svg">
<path d="M58.1933 23.7243C58.1933 27.1655 55.4154 29.546 51.9501 29.546H43.8058C43.6057 29.546 43.4436 29.3837 43.4436 29.1833V9.8334C43.4436 9.63304 43.6057 9.4707 43.8058 9.4707H51.3484C54.728 9.4707 57.4484 11.7649 57.4484 15.1204C57.4484 16.8413 56.7323 18.1892 55.5581 19.1354C57.1622 20.0534 58.1933 21.6305 58.1933 23.7243ZM47.3962 13.1704V17.5867H51.3484C52.5801 17.5867 53.4963 16.6404 53.4963 15.3783C53.4963 14.1161 52.6083 13.1699 51.3484 13.1699H47.3962V13.1704ZM54.2694 23.4659C54.2694 22.118 53.2957 21.1142 51.9496 21.1142H47.3962V25.8464H51.9496C53.2957 25.8464 54.2694 24.8426 54.2694 23.4659Z" fill="#8F8D9D"/>
<path d="M60.7415 11.2199C60.7415 9.98707 61.7722 8.92578 63.003 8.92578C64.263 8.92578 65.2932 9.98707 65.2932 11.2199C65.2932 12.4533 64.2625 13.4853 63.003 13.4853C61.7717 13.4853 60.7415 12.4533 60.7415 11.2199ZM61.5328 15.2062H64.5024C64.7024 15.2062 64.8645 15.3686 64.8645 15.5689V29.1833C64.8645 29.3837 64.7024 29.546 64.5024 29.546H61.5328C61.3328 29.546 61.1707 29.3837 61.1707 29.1833V15.5684C61.1707 15.3686 61.3328 15.2062 61.5328 15.2062Z" fill="#8F8D9D"/>
<path d="M73.8738 18.7622V24.7272C73.8738 26.1809 74.8576 26.2955 76.7305 26.2092C76.9369 26.1995 77.1098 26.3642 77.1098 26.5714V29.2186C77.1098 29.4058 76.9671 29.5618 76.7811 29.5793C71.8519 30.0527 70.1791 28.5161 70.1791 24.7272V18.7622H68.0497C67.8496 18.7622 67.6875 18.5998 67.6875 18.3995V15.5686C67.6875 15.3682 67.8496 15.2059 68.0497 15.2059H70.1791V12.7742C70.1791 12.1331 70.5993 11.5686 71.2127 11.3848L73.4078 10.7282C73.6401 10.6589 73.8733 10.833 73.8733 11.0753V15.2059H76.7476C76.9476 15.2059 77.1098 15.3682 77.1098 15.5686V18.3995C77.1098 18.5998 76.9476 18.7622 76.7476 18.7622H73.8738Z" fill="#8F8D9D"/>
<path d="M90.0803 28.3039L83.8984 20.4566V29.1833C83.8984 29.3837 83.7363 29.546 83.5362 29.546H80.308C80.1079 29.546 79.9458 29.3837 79.9458 29.1833V9.8334C79.9458 9.63304 80.1079 9.4707 80.308 9.4707H83.5362C83.7363 9.4707 83.8984 9.63304 83.8984 9.8334V18.6499L90.0803 10.7251C90.6976 9.93334 91.645 9.4707 92.6479 9.4707H94.879C95.1789 9.4707 95.3488 9.81537 95.1663 10.0538L87.9085 19.5386L95.1633 28.962C95.3469 29.2004 95.177 29.546 94.8766 29.546H92.6386C91.6406 29.546 90.6981 29.0882 90.0803 28.3039Z" fill="#8F8D9D"/>
<path d="M103.768 26.5909C105.068 26.5909 106.131 26.0946 106.788 25.3809C106.904 25.2547 107.09 25.223 107.239 25.3088L109.604 26.6752C109.793 26.7849 109.845 27.0375 109.71 27.21C108.355 28.9543 106.299 29.9459 103.71 29.9459C98.899 29.9459 95.8635 26.6479 95.8635 22.375C95.8635 18.1021 98.9277 14.8037 103.424 14.8037C107.663 14.8037 110.67 18.1591 110.67 22.375C110.67 22.92 110.612 23.4075 110.527 23.895H99.7295C100.245 25.788 101.82 26.5909 103.768 26.5909ZM106.975 21.0276C106.517 18.9625 104.97 18.1308 103.424 18.1308C101.448 18.1308 100.101 19.1921 99.6721 21.0276H106.975Z" fill="#8F8D9D"/>
<path d="M120.906 26.5909C122.206 26.5909 123.27 26.0946 123.926 25.3809C124.042 25.2547 124.228 25.223 124.377 25.3088L126.742 26.6752C126.932 26.7849 126.983 27.0375 126.848 27.21C125.493 28.9543 123.438 29.9459 120.849 29.9459C116.037 29.9459 113.001 26.6479 113.001 22.375C113.001 18.1021 116.065 14.8037 120.562 14.8037C124.8 14.8037 127.807 18.1591 127.807 22.375C127.807 22.92 127.75 23.4075 127.664 23.895H116.867C117.383 25.788 118.958 26.5909 120.906 26.5909ZM124.113 21.0276C123.655 18.9625 122.108 18.1308 120.562 18.1308C118.586 18.1308 117.24 19.1921 116.81 21.0276H124.113Z" fill="#8F8D9D"/>
<path d="M146 22.3755C146 26.6484 142.85 29.9464 139.012 29.9464C136.921 29.9464 135.404 29.1722 134.373 27.8526V34.9179C134.373 35.1183 134.21 35.2806 134.01 35.2806H131.04C130.84 35.2806 130.677 35.1183 130.677 34.9179V15.5666C130.677 15.3662 130.84 15.2039 131.04 15.2039H134.01C134.21 15.2039 134.373 15.3662 134.373 15.5666V16.8975C135.404 15.5783 136.921 14.8037 139.012 14.8037C142.85 14.8041 146 18.1026 146 22.3755ZM142.306 22.3755C142.306 19.9663 140.616 18.3317 138.325 18.3317C136.062 18.3317 134.373 19.9663 134.373 22.3755C134.373 24.7842 136.062 26.4188 138.325 26.4188C140.616 26.4188 142.306 24.7842 142.306 22.3755Z" fill="#8F8D9D"/>
<path d="M22.6262 35.9509L6.69596 26.7362C6.13658 26.4125 5.7919 25.8144 5.7919 25.167V6.71657C5.7919 6.43723 5.49006 6.26319 5.24859 6.40262L1.98873 8.28973C0.758005 9.00246 0 10.3182 0 11.7417V27.2583C0 28.6818 0.758005 29.9976 1.98873 30.7103L15.3826 38.464C16.6157 39.1777 18.1357 39.1777 19.3683 38.464L22.6262 36.5779C22.8672 36.4389 22.8672 36.0904 22.6262 35.9509Z" fill="#8F8D9D"/>
<path d="M9.58937 25.0545L16.4664 29.0359C17.0268 29.3606 17.7176 29.3606 18.2784 29.0359L25.1565 25.054C25.7158 24.7303 26.0605 24.1321 26.0605 23.4847V15.5175C26.0605 14.8706 25.7158 14.2725 25.1565 13.9483L18.2784 9.96641C17.7181 9.64174 17.0273 9.64174 16.4664 9.96641L14.7601 10.954C14.6393 11.0238 14.4884 10.9365 14.4884 10.7971L14.4996 1.68964C14.5001 1.4103 14.1978 1.23578 13.9563 1.3752L9.60104 3.89655C9.04215 4.22025 8.69747 4.81793 8.69699 5.46435L8.68481 23.4838C8.68481 24.1317 9.02951 24.7303 9.58937 25.0545ZM13.5717 17.9287C13.5717 17.5407 13.7786 17.1814 14.114 16.9873L16.8291 15.4156C17.1655 15.2211 17.5798 15.2211 17.9162 15.4156L20.6313 16.9873C20.9672 17.1819 21.1736 17.5407 21.1736 17.9287V21.0745C21.1736 21.4626 20.9667 21.8219 20.6313 22.0159L17.9162 23.5876C17.5798 23.7821 17.1655 23.7821 16.8291 23.5876L14.114 22.0159C13.7781 21.8214 13.5717 21.4626 13.5717 21.0745V17.9287Z" fill="#8F8D9D"/>
<path d="M32.7605 8.28526L19.3666 0.531578C18.8058 0.206416 18.1851 0.0294535 17.5595 0.000203476C17.4568 -0.00467152 17.3706 0.078691 17.3706 0.181553V5.86873C17.3706 5.9984 17.4397 6.11784 17.5517 6.18268L28.0538 12.2594C28.6131 12.5831 28.9578 13.1812 28.9578 13.8286V25.1625C28.9578 25.8094 28.6131 26.4076 28.0538 26.7318L20.8135 30.9233C20.5725 31.0627 20.5725 31.4118 20.8135 31.5512L25.6984 34.3753C25.9224 34.505 26.1989 34.505 26.4229 34.3753L32.7605 30.7064C33.9912 29.9937 34.7492 28.6779 34.7492 27.2544V11.7373C34.7492 10.3133 33.9912 8.9975 32.7605 8.28526Z" fill="#8F8D9D"/>
</svg>
