<svg width="158" height="31" viewBox="0 0 158 31" fill="none" xmlns="http://www.w3.org/2000/svg">
<path d="M139.565 15.5267C138.738 14.9879 137.837 14.5978 136.983 14.1149C136.426 13.8083 135.831 13.5297 135.348 13.1303C134.531 12.4615 134.698 11.1333 135.553 10.5574C136.788 9.74008 138.822 10.1952 139.045 11.8671C139.045 11.9042 139.082 11.9321 139.119 11.9321H140.977C141.023 11.9321 141.061 11.895 141.042 11.8392C141.026 11.3133 140.896 10.7972 140.662 10.3259C140.428 9.85466 140.095 9.43941 139.686 9.10848C138.93 8.52549 138.003 8.20874 137.048 8.20752C132.144 8.20752 131.689 13.3997 134.336 15.0344C134.642 15.2202 137.234 16.5205 138.144 17.0871C139.073 17.6537 139.351 18.694 138.961 19.502C138.59 20.2544 137.661 20.7745 136.714 20.7095C135.692 20.6538 134.893 20.0965 134.614 19.2327C134.568 19.0748 134.54 18.7683 134.54 18.6475C134.538 18.6285 134.53 18.6108 134.516 18.5972C134.503 18.5837 134.485 18.5752 134.466 18.5732H132.45C132.422 18.5732 132.385 18.6104 132.385 18.6475C132.385 20.0965 132.748 20.9046 133.732 21.6383C134.661 22.335 135.683 22.6322 136.723 22.6322C139.482 22.6322 140.903 21.0718 141.181 19.4649C141.441 17.8859 140.977 16.4648 139.565 15.5267ZM52.0697 8.47688H50.1935C50.1796 8.47858 50.1664 8.48372 50.1551 8.49183C50.1437 8.49994 50.1346 8.51077 50.1285 8.52332L48.4751 13.9662C48.4751 13.9859 48.4673 14.0048 48.4534 14.0188C48.4394 14.0327 48.4205 14.0405 48.4008 14.0405C48.3811 14.0405 48.3622 14.0327 48.3483 14.0188C48.3344 14.0048 48.3265 13.9859 48.3265 13.9662L46.6732 8.52332C46.6639 8.48617 46.6361 8.47688 46.5989 8.47688H43.5245C43.4874 8.47688 43.4502 8.51403 43.4502 8.5419V22.4371C43.4502 22.4743 43.4874 22.5114 43.5245 22.5114H45.5401C45.5772 22.5114 45.6144 22.4743 45.6144 22.4371V11.8671C45.6144 11.7835 45.7351 11.7742 45.7537 11.8485L47.4256 17.3286L47.5463 17.7001C47.5463 17.7466 47.5742 17.7559 47.6113 17.7559H49.1625C49.1996 17.7559 49.2182 17.728 49.2275 17.7094L49.3482 17.3193L51.0201 11.8392C51.0387 11.7649 51.1595 11.7835 51.1595 11.8671V22.4278C51.1595 22.465 51.1966 22.5022 51.2338 22.5022H53.2493C53.2865 22.5022 53.3236 22.465 53.3236 22.4278V8.5419C53.3236 8.51403 53.2865 8.47688 53.2493 8.47688H52.0697ZM108.71 8.47688C108.694 8.47699 108.679 8.48138 108.666 8.48958C108.653 8.49778 108.642 8.50946 108.635 8.52332L106.982 13.9662C106.982 13.9859 106.974 14.0048 106.96 14.0188C106.946 14.0327 106.927 14.0405 106.908 14.0405C106.888 14.0405 106.869 14.0327 106.855 14.0188C106.841 14.0048 106.833 13.9859 106.833 13.9662L105.18 8.52332C105.18 8.48617 105.152 8.47688 105.115 8.47688H102.05C102.013 8.47688 101.976 8.51403 101.976 8.5419V22.4371C101.976 22.4743 102.013 22.5114 102.05 22.5114H104.065C104.093 22.5114 104.13 22.4743 104.13 22.4371V11.8671C104.13 11.7835 104.251 11.7742 104.279 11.8485L105.951 17.3286L106.062 17.7001C106.081 17.7466 106.1 17.7559 106.137 17.7559H107.679C107.694 17.7548 107.709 17.75 107.721 17.7419C107.734 17.7338 107.745 17.7227 107.753 17.7094L107.874 17.3193L109.545 11.8392C109.564 11.7649 109.685 11.7835 109.685 11.8671V22.4278C109.685 22.465 109.722 22.5022 109.759 22.5022H111.775C111.812 22.5022 111.849 22.465 111.849 22.4278V8.5419C111.849 8.51403 111.812 8.47688 111.775 8.47688H108.71ZM82.7117 8.47688H73.1912C73.1633 8.47688 73.1262 8.51403 73.1262 8.5419V10.2881C73.1262 10.3252 73.1633 10.3624 73.1912 10.3624H76.8786V22.4371C76.8786 22.4836 76.9158 22.5207 76.9437 22.5207H78.9592C78.9964 22.5207 79.0335 22.4836 79.0335 22.4464V10.3531H82.7117C82.7488 10.3531 82.786 10.316 82.786 10.2788V8.5419C82.786 8.51403 82.7674 8.47688 82.7117 8.47688ZM94.6006 22.5114H96.4397C96.4862 22.5114 96.5233 22.4557 96.5047 22.4186L92.7151 8.47688C92.7151 8.43973 92.6873 8.42115 92.6501 8.42115H90.003C89.9881 8.42371 89.9742 8.43025 89.9628 8.44006C89.9513 8.44987 89.9427 8.46259 89.9379 8.47688L86.1483 22.4093C86.1298 22.4557 86.1669 22.5022 86.2133 22.5022H88.0524C88.0896 22.5022 88.1082 22.4836 88.1267 22.4557L89.2227 18.406C89.232 18.3689 89.2599 18.3596 89.2971 18.3596H93.3467C93.3839 18.3596 93.4118 18.3782 93.421 18.406L94.5171 22.4557C94.5356 22.4836 94.5728 22.5114 94.5914 22.5114H94.6006ZM89.7893 16.3719L91.2569 10.9383C91.2569 10.9186 91.2647 10.8997 91.2786 10.8857C91.2926 10.8718 91.3115 10.864 91.3312 10.864C91.3509 10.864 91.3698 10.8718 91.3837 10.8857C91.3977 10.8997 91.4055 10.9186 91.4055 10.9383L92.873 16.3719C92.8916 16.4183 92.8545 16.4648 92.808 16.4648H89.8636C89.8079 16.4648 89.7707 16.4183 89.7893 16.3719ZM125.874 22.5114H127.713C127.76 22.5114 127.797 22.4557 127.788 22.4186L123.998 8.46759C123.979 8.43044 123.961 8.41186 123.924 8.41186H121.295C121.279 8.41276 121.263 8.41854 121.249 8.42846C121.236 8.43838 121.226 8.45199 121.221 8.46759L117.431 22.4C117.422 22.4464 117.459 22.4929 117.506 22.4929H119.335C119.372 22.4929 119.4 22.4743 119.41 22.4464L120.506 18.3967C120.524 18.3596 120.543 18.3503 120.58 18.3503H124.639C124.667 18.3503 124.695 18.3689 124.704 18.3967L125.809 22.4464C125.809 22.4743 125.846 22.5022 125.874 22.5022V22.5114ZM121.063 16.3719L122.54 10.9383C122.545 10.924 122.555 10.9118 122.567 10.9031C122.579 10.8945 122.594 10.8898 122.609 10.8898C122.625 10.8898 122.639 10.8945 122.652 10.9031C122.664 10.9118 122.674 10.924 122.679 10.9383L124.156 16.3719C124.156 16.4183 124.128 16.4648 124.082 16.4648H121.137C121.091 16.4648 121.044 16.4183 121.063 16.3719ZM61.5066 20.4494V16.1397C61.5066 16.1025 61.5344 16.0654 61.5716 16.0654H66.9402C66.9774 16.0654 67.0145 16.0282 67.0145 16.0004V14.2635C67.0125 14.2444 67.004 14.2267 66.9905 14.2132C66.977 14.1997 66.9592 14.1912 66.9402 14.1892H61.5809C61.5437 14.1892 61.5159 14.152 61.5159 14.1149V10.4367C61.5159 10.3995 61.5437 10.3624 61.5809 10.3624H67.6926C67.7297 10.3624 67.7669 10.3252 67.7669 10.2881V8.56047C67.7648 8.54146 67.7564 8.52371 67.7428 8.51018C67.7293 8.49666 67.7116 8.48819 67.6926 8.48617H59.426C59.407 8.48819 59.3892 8.49666 59.3757 8.51018C59.3622 8.52371 59.3537 8.54146 59.3517 8.56047V22.4371C59.3517 22.4743 59.3889 22.5114 59.426 22.5114H67.9433C67.9805 22.5114 68.0176 22.4743 68.0176 22.4371V20.5981C68.0156 20.579 68.0071 20.5613 67.9936 20.5478C67.9801 20.5342 67.9624 20.5258 67.9433 20.5238H61.5716C61.5344 20.5145 61.5159 20.4866 61.5159 20.4402L61.5066 20.4494ZM157.974 22.3907L151.008 15.2016C150.998 15.1884 150.992 15.172 150.992 15.1551C150.992 15.1383 150.998 15.1219 151.008 15.1087L157.278 8.60691C157.294 8.59952 157.306 8.58608 157.312 8.56953C157.318 8.55298 157.318 8.53469 157.31 8.51868C157.303 8.50266 157.289 8.49024 157.273 8.48415C157.256 8.47805 157.238 8.47878 157.222 8.48617H154.659C154.631 8.48617 154.621 8.49546 154.612 8.51403L149.29 14.022C149.28 14.0303 149.268 14.0359 149.255 14.038C149.242 14.0401 149.228 14.0387 149.216 14.034C149.204 14.0292 149.193 14.0213 149.185 14.0111C149.176 14.0008 149.171 13.9885 149.169 13.9755V8.56047C149.167 8.54146 149.159 8.52371 149.145 8.51018C149.132 8.49666 149.114 8.48819 149.095 8.48617H147.079C147.06 8.48819 147.043 8.49666 147.029 8.51018C147.016 8.52371 147.007 8.54146 147.005 8.56047V22.4464C147.005 22.4836 147.042 22.5207 147.079 22.5207H149.095C149.132 22.5207 149.169 22.4836 149.169 22.4464V16.3347C149.169 16.2697 149.253 16.2419 149.29 16.2883L155.327 22.4929C155.337 22.5051 155.35 22.5147 155.364 22.5207H157.937C157.984 22.5114 158.03 22.4278 157.974 22.3907Z" fill="#8F8D9D"/>
<path d="M29.6852 1L17.4805 10.0282L19.7561 4.70602L29.6852 1Z" fill="#8F8D9D"/>
<path d="M1.54204 1L13.6354 10.1025L11.4712 4.7153L1.54204 1ZM25.2921 21.9265L22.0412 26.8864L28.9981 28.7998L30.9858 22.0379L25.2921 21.9265ZM0.250977 22.0379L2.22938 28.7998L9.16771 26.8864L5.93539 21.9265L0.250977 22.0379Z" fill="#8F8D9D" stroke="#8F8D9D" stroke-width="0.25" stroke-linecap="round" stroke-linejoin="round"/>
<path d="M8.79622 13.5485L6.86426 16.465L13.7376 16.7808L13.5147 9.37804L8.79622 13.5578V13.5485ZM22.4314 13.5578L17.6386 9.28516L17.4807 16.7808L24.354 16.465L22.4314 13.5578ZM9.16775 26.8864L13.3382 24.8801L9.75291 22.0937L9.16775 26.8864ZM17.8987 24.8709L22.0413 26.8864L21.484 22.0844L17.8987 24.8709Z" fill="#8F8D9D" stroke="#8F8D9D" stroke-width="0.25" stroke-linecap="round" stroke-linejoin="round"/>
<path d="M22.0415 26.8861L17.8989 24.8799L18.2333 27.5735L18.1962 28.7159L22.0415 26.8861ZM9.16797 26.8861L13.0319 28.7159L13.004 27.5735L13.3384 24.8799L9.16797 26.8861Z" fill="#8F8D9D"/>
<path d="M13.0968 20.3013L9.66016 19.2982L12.0937 18.1836L13.1061 20.3013H13.0968ZM18.1218 20.3013L19.1435 18.1743L21.5863 19.2889L18.1218 20.3106V20.3013Z" fill="#F8F8F8"/>
<path d="M9.16786 26.8868L9.7716 21.9268L5.93555 22.0383L9.16786 26.8868ZM21.4562 21.9268L22.0414 26.8868L25.2923 22.0383L21.4562 21.9268ZM24.3635 16.4653L17.4901 16.7811L18.1217 20.3107L19.1435 18.1744L21.5863 19.289L24.3635 16.4653ZM9.66014 19.2983L12.0937 18.1837L13.1061 20.3014L13.747 16.7718L6.87366 16.4653L9.66014 19.2983Z" fill="#8F8D9D"/>
<path d="M6.87305 16.4653L9.75241 22.0847L9.65952 19.2983L6.87305 16.4653ZM21.5857 19.2983L21.4742 22.0847L24.3536 16.4653L21.5857 19.2983ZM13.7464 16.7811L13.0962 20.3107L13.9135 24.4718L14.0993 18.9825L13.7464 16.7811ZM17.4802 16.7811L17.1459 18.9732L17.3131 24.4718L18.1211 20.3014L17.4802 16.7718V16.7811Z" fill="#8F8D9D"/>
<path d="M18.1213 20.301L17.3132 24.4714L17.8984 24.8801L21.4743 22.0936L21.5858 19.2979L18.1213 20.301ZM9.65968 19.2979L9.75256 22.0843L13.3378 24.8708L13.9137 24.4714L13.1056 20.301L9.65039 19.2979H9.65968Z" fill="#8F8D9D"/>
<path d="M18.2054 28.7165L18.2333 27.574L17.9175 27.314H13.3105L13.004 27.574L13.0319 28.7165L9.16797 26.8867L10.5241 28.0013L13.2641 29.8868H17.9547L20.704 27.992L22.0415 26.8867L18.1962 28.7165H18.2054Z" fill="#8F8D9D" stroke="#8F8D9D" stroke-width="0.25" stroke-linecap="round" stroke-linejoin="round"/>
<path d="M17.8988 24.8706L17.3137 24.4712H13.9142L13.3383 24.8799L13.0039 27.5735L13.3104 27.3134H17.9174L18.2332 27.5735L17.8988 24.8799V24.8706Z" fill="#535162"/>
<path d="M30.2054 10.6133L31.2271 5.64413L29.6853 1L17.8892 9.73096L22.4311 13.5484L28.84 15.4154L30.2519 13.7714L29.6388 13.3255L30.6141 12.4338L29.871 11.858L30.8463 11.1149L30.1961 10.6133H30.2054ZM0 5.63484L1.04028 10.6133L0.37153 11.1056L1.36537 11.8487L0.622313 12.4338L1.58829 13.3255L0.975267 13.7714L2.38708 15.4154L8.79598 13.5577L13.3379 9.72168L1.54185 1L0 5.63484Z" fill="#757386"/>
<path d="M28.8402 15.4154L22.4313 13.5578L24.3633 16.465L21.4839 22.0844L25.2921 22.0379H30.9858L28.8402 15.4154ZM8.79618 13.5485L2.38728 15.4154L0.250977 22.0379H5.94468L9.75287 22.0844L6.87351 16.465L8.80546 13.5485H8.79618ZM17.4807 16.7808L17.8987 9.72172L19.7563 4.70605H11.4712L13.3288 9.72172L13.7468 16.7808L13.9047 18.9914V24.4715H17.3135L17.3321 18.9914L17.4807 16.7808Z" fill="#8F8D9D"/>
</svg>
