<svg width="160" height="27" viewBox="0 0 160 27" fill="none" xmlns="http://www.w3.org/2000/svg">
<path fill-rule="evenodd" clip-rule="evenodd" d="M57.9684 14.0841L55.7747 21.5496H53.493L50.4346 10.6239H52.9405L54.7579 18.5361H54.822L56.9837 10.6239H59.0253L61.1869 18.5361H61.251L63.0764 10.6239H65.5824L62.516 21.5496H60.2342L58.0405 14.0841H57.9684ZM68.9129 20.0807C69.9297 20.0807 70.7704 19.4523 70.7704 18.574V17.9834L68.961 18.0894C68.0883 18.15 67.5919 18.521 67.5919 19.0964C67.5919 19.7022 68.1203 20.0807 68.9129 20.0807ZM68.1443 21.6783C66.5111 21.6783 65.2701 20.6789 65.2701 19.2176C65.2701 17.7411 66.471 16.8855 68.6087 16.7644L70.7704 16.6433V16.1057C70.7704 15.3485 70.21 14.9094 69.3293 14.9094C68.4566 14.9094 67.9042 15.3182 67.7921 15.9164H65.6544C65.7425 14.3415 67.1596 13.2588 69.4333 13.2588C71.6351 13.2588 73.0682 14.3339 73.0682 15.9694V21.5496H70.8104V20.3079H70.7624C70.282 21.1711 69.2172 21.6783 68.1443 21.6783ZM74.6294 21.5496V10.6239H76.9672V21.5496H74.6294ZM78.6005 21.5496V10.6239H80.9383V21.5496H78.6005ZM86.3665 14.8942C85.3417 14.8942 84.6051 15.6287 84.5251 16.6433H88.1679C88.1199 15.606 87.4073 14.8942 86.3665 14.8942ZM88.1999 19.0662H90.3456C90.0894 20.6562 88.5522 21.7238 86.4306 21.7238C83.7885 21.7238 82.2033 20.1262 82.2033 17.5291C82.2033 14.9397 83.8045 13.2588 86.3425 13.2588C88.8404 13.2588 90.4177 14.8564 90.4177 17.3247V17.9986H84.5011V18.1349C84.5011 19.2933 85.2777 20.0883 86.4706 20.0883C87.3273 20.0883 87.9838 19.687 88.1999 19.0662ZM92.2431 11.5627H94.5809V13.4329H96.1661V15.0987H94.5809V18.9829C94.5809 19.6037 94.9012 19.899 95.5897 19.899C95.7978 19.899 96.014 19.8839 96.1581 19.8612V21.4891C95.9179 21.5421 95.5176 21.5799 95.0453 21.5799C93.0277 21.5799 92.2431 20.9439 92.2431 19.3614V15.0987H91.0341V13.4329H92.2431V11.5627ZM102.755 21.7389C99.3927 21.7389 97.287 19.6113 97.287 16.083C97.287 12.5622 99.4087 10.4346 102.755 10.4346C105.533 10.4346 107.647 12.1003 107.831 14.5459H105.477C105.253 13.2058 104.164 12.3275 102.755 12.3275C100.93 12.3275 99.7529 13.7736 99.7529 16.0754C99.7529 18.4074 100.914 19.846 102.763 19.846C104.196 19.846 105.229 19.051 105.485 17.7563H107.839C107.567 20.1943 105.589 21.7389 102.755 21.7389ZM113.067 21.7238C110.473 21.7238 108.816 20.1489 108.816 17.4837C108.816 14.8564 110.497 13.2588 113.067 13.2588C115.637 13.2588 117.319 14.8488 117.319 17.4837C117.319 20.1565 115.661 21.7238 113.067 21.7238ZM113.067 20.0353C114.212 20.0353 114.941 19.1192 114.941 17.4913C114.941 15.8785 114.204 14.9472 113.067 14.9472C111.93 14.9472 111.186 15.8785 111.186 17.4913C111.186 19.1192 111.914 20.0353 113.067 20.0353ZM118.52 21.5496V13.4329H120.777V14.8791H120.825C121.282 13.8721 122.186 13.2815 123.507 13.2815C125.413 13.2815 126.486 14.4172 126.486 16.3177V21.5496H124.148V16.7795C124.148 15.7195 123.619 15.1138 122.571 15.1138C121.522 15.1138 120.857 15.8407 120.857 16.8931V21.5496H118.52ZM127.967 21.5496V13.4329H130.225V14.8791H130.273C130.729 13.8721 131.634 13.2815 132.955 13.2815C134.86 13.2815 135.933 14.4172 135.933 16.3177V21.5496H133.595V16.7795C133.595 15.7195 133.067 15.1138 132.018 15.1138C130.969 15.1138 130.305 15.8407 130.305 16.8931V21.5496H127.967ZM141.265 14.8942C140.24 14.8942 139.504 15.6287 139.424 16.6433H143.067C143.019 15.606 142.306 14.8942 141.265 14.8942ZM143.099 19.0662H145.244C144.988 20.6562 143.451 21.7238 141.329 21.7238C138.687 21.7238 137.102 20.1262 137.102 17.5291C137.102 14.9397 138.703 13.2588 141.241 13.2588C143.739 13.2588 145.316 14.8564 145.316 17.3247V17.9986H139.4V18.1349C139.4 19.2933 140.176 20.0883 141.369 20.0883C142.226 20.0883 142.882 19.687 143.099 19.0662ZM154.315 16.454H152.146C152.01 15.5984 151.409 14.9927 150.448 14.9927C149.295 14.9927 148.575 15.9164 148.575 17.4837C148.575 19.0813 149.295 19.9899 150.456 19.9899C151.393 19.9899 152.002 19.4599 152.146 18.574H154.323C154.203 20.4896 152.69 21.7238 150.432 21.7238C147.846 21.7238 146.205 20.1337 146.205 17.4837C146.205 14.8791 147.846 13.2588 150.416 13.2588C152.738 13.2588 154.211 14.6141 154.315 16.454ZM156.077 11.5627H158.415V13.4329H160V15.0987H158.415V18.9829C158.415 19.6037 158.735 19.899 159.423 19.899C159.632 19.899 159.848 19.8839 159.992 19.8612V21.4891C159.752 21.5421 159.351 21.5799 158.879 21.5799C156.861 21.5799 156.077 20.9439 156.077 19.3614V15.0987H154.868V13.4329H156.077V11.5627Z" fill="#8F8D9D"/>
<path d="M8.72288 5.09694C15.6714 -1.69898 26.9373 -1.69898 33.8859 5.09694L34.7221 5.91483C35.0695 6.25463 35.0695 6.80555 34.7221 7.14534L31.8614 9.94321C31.6877 10.1131 31.406 10.1131 31.2323 9.94321L30.0815 8.81769C25.234 4.07669 17.3747 4.07669 12.5272 8.81769L11.2948 10.023C11.1211 10.1929 10.8394 10.1929 10.6657 10.023L7.805 7.22516C7.45757 6.88537 7.45757 6.33445 7.805 5.99465L8.72288 5.09694ZM39.8021 10.8832L42.3481 13.3733C42.6955 13.7131 42.6956 14.2641 42.3481 14.6039L30.8678 25.8321C30.5204 26.1719 29.9571 26.1719 29.6097 25.8321C29.6097 25.8321 29.6097 25.8321 29.6097 25.8321L21.4617 17.8631C21.3748 17.7781 21.234 17.7781 21.1472 17.8631C21.1472 17.8631 21.1472 17.8631 21.1472 17.8631L12.9993 25.8321C12.6519 26.1719 12.0886 26.1719 11.7412 25.8321C11.7412 25.8321 11.7412 25.8321 11.7412 25.8321L0.260571 14.6037C-0.086857 14.2639 -0.086857 13.713 0.260571 13.3732L2.80662 10.8831C3.15405 10.5433 3.71734 10.5433 4.06477 10.8831L12.2129 18.8522C12.2997 18.9372 12.4406 18.9372 12.5274 18.8522C12.5274 18.8522 12.5274 18.8522 12.5274 18.8522L20.6751 10.8831C21.0226 10.5433 21.5859 10.5433 21.9333 10.8831C21.9333 10.8831 21.9333 10.8831 21.9333 10.8831L30.0814 18.8522C30.1683 18.9372 30.3091 18.9372 30.396 18.8522L38.5439 10.8832C38.8914 10.5434 39.4547 10.5434 39.8021 10.8832Z" fill="#8F8D9D"/>
</svg>
