<svg width="36" height="36" viewBox="0 0 36 36" fill="none" xmlns="http://www.w3.org/2000/svg">
<path d="M23.415 18C23.415 20.985 20.985 23.415 18 23.415C15.015 23.415 12.585 20.985 12.585 18C12.585 15.015 15.015 12.585 18 12.585C20.985 12.585 23.415 15.015 23.415 18ZM18 0C8.0745 0 0 8.0745 0 18C0 27.9255 8.0745 36 18 36C21.636 36 25.1415 34.917 28.14 32.8695L28.191 32.8335L25.7655 30.015L25.725 30.0405C23.4219 31.5243 20.7397 32.3123 18 32.31C10.11 32.31 3.69 25.89 3.69 18C3.69 10.11 10.11 3.69 18 3.69C25.89 3.69 32.31 10.11 32.31 18C32.3079 19.0341 32.1947 20.065 31.9725 21.075C31.521 22.9335 30.219 23.502 29.2425 23.427C28.2615 23.3475 27.1125 22.647 27.1035 20.9355V18C27.1011 15.5862 26.1413 13.2719 24.4346 11.565C22.7279 9.85799 20.4138 8.89778 18 8.895C15.5859 8.89738 13.2714 9.85742 11.5644 11.5644C9.85742 13.2714 8.89738 15.5859 8.895 18C8.89738 20.4141 9.85742 22.7286 11.5644 24.4356C13.2714 26.1426 15.5859 27.1026 18 27.105C19.1998 27.1079 20.3881 26.8717 21.4955 26.4102C22.603 25.9487 23.6074 25.2711 24.45 24.417C24.9826 25.2534 25.719 25.9406 26.5902 26.4142C27.4613 26.8878 28.4385 27.1322 29.43 27.1245C30.741 27.1245 32.04 26.6865 33.0855 25.893C34.164 25.0725 34.9695 23.889 35.415 22.4655C35.4855 22.2345 35.6175 21.7095 35.6175 21.705L35.6205 21.6855C35.883 20.5455 36 19.4055 36 18C36 8.0745 27.9255 0 18 0" fill="#8F8D9D"/>
</svg>
