<svg width="36" height="28" viewBox="0 0 36 28" fill="none" xmlns="http://www.w3.org/2000/svg">
<path d="M35.9295 3.3352C34.5817 3.90306 33.1539 4.2779 31.692 4.44765C33.2312 3.56236 34.3836 2.17401 34.9365 0.539007C33.51 1.33566 31.929 1.91557 30.246 2.23854C29.1356 1.10231 27.6643 0.348701 26.0605 0.094747C24.4566 -0.159207 22.81 0.100703 21.3764 0.834116C19.9428 1.56753 18.8023 2.7334 18.1321 4.1507C17.4619 5.56799 17.2994 7.15739 17.67 8.67209C11.535 8.39505 6.1005 5.57445 2.46 1.31413C1.79819 2.39043 1.453 3.61802 1.461 4.86679C1.461 7.32136 2.766 9.47879 4.743 10.7463C3.57129 10.7106 2.42546 10.4074 1.401 9.86205V9.94817C1.40034 11.5794 1.9894 13.1606 3.06826 14.4235C4.14712 15.6864 5.64932 16.5532 7.32 16.8769C6.23745 17.1545 5.10362 17.1962 4.002 16.9989C4.47618 18.4028 5.39649 19.63 6.63452 20.5093C7.87255 21.3885 9.36653 21.8761 10.908 21.9038C8.29729 23.8645 5.07371 24.9286 1.755 24.9253C1.17 24.9253 0.5865 24.8923 0 24.8292C3.38356 26.9024 7.31777 28.0029 11.3355 28C24.915 28 32.3325 17.2401 32.3325 7.92567C32.3325 7.62423 32.3325 7.32279 32.31 7.02136C33.759 6.02354 35.0088 4.78471 36 3.36391L35.9295 3.3352Z" fill="#8F8D9D"/>
</svg>
