<svg width="47" height="47" viewBox="0 0 47 47" fill="none" xmlns="http://www.w3.org/2000/svg">
<path fill-rule="evenodd" clip-rule="evenodd" d="M21.7788 0.0332918C17.0326 0.479549 12.7332 2.24876 9.09705 5.25174C7.83795 6.29173 6.27736 7.93808 5.28673 9.27165C2.76057 12.6724 1.25514 16.4825 0.728698 20.8072C0.58132 22.0183 0.58132 24.9671 0.728698 26.1781C1.06946 28.9775 1.77431 31.4197 2.93476 33.8214C4.16006 36.3571 5.57286 38.3358 7.59434 40.3465C11.2993 44.0322 15.8798 46.2371 21.1982 46.8956C22.036 46.9993 24.4523 47.0358 25.4064 46.9588C30.1921 46.574 34.5898 44.7903 38.2912 41.7336C39.0734 41.0873 40.4826 39.6938 41.1614 38.8942C43.8509 35.7276 45.6778 31.8727 46.4149 27.8094C46.7001 26.2362 46.7636 25.4489 46.7636 23.4927C46.7636 21.5364 46.7001 20.7491 46.4149 19.1759C45.6778 15.1126 43.8509 11.2579 41.1614 8.09124C40.4826 7.29163 39.0734 5.89796 38.2912 5.25174C36.9902 4.17744 35.5917 3.2556 34.1126 2.49759C33.2861 2.074 32.1555 1.56524 31.7911 1.45274C31.6632 1.41338 31.5064 1.35654 31.4426 1.3265C31.1869 1.20604 30.1761 0.893345 29.3532 0.680042C28.5078 0.460899 27.1967 0.215725 26.1901 0.0884765C25.5366 0.00590612 22.4771 -0.0323395 21.7788 0.0332918ZM25.9869 3.01043C34.4008 4.01608 41.2601 10.1333 43.3362 18.4831C43.7363 20.0926 43.9162 21.646 43.9162 23.4927C43.9162 24.9965 43.8601 25.6911 43.6286 27.0562C42.3757 34.4442 37.1668 40.6279 30.1797 43.0223C28.0105 43.7657 26.0631 44.0848 23.694 44.0848C21.3252 44.0848 19.3775 43.7657 17.2086 43.0223C10.2215 40.6279 5.01276 34.4442 3.75971 27.0562C3.52817 25.6911 3.4721 24.9965 3.4721 23.4927C3.4721 21.9889 3.52817 21.2942 3.75971 19.9291C4.82785 13.6314 8.76072 8.17214 14.3786 5.18941C16.8495 3.87738 19.5408 3.12226 22.5332 2.90147C23.1548 2.85561 25.2425 2.92148 25.9869 3.01043ZM17.5127 6.48646C15.1088 7.41374 13.1469 8.67307 11.3392 10.4491C8.08983 13.6413 6.25285 17.6904 5.93022 22.3713C5.86295 23.3482 5.90485 24.9387 5.99801 24.9387C6.02636 24.9387 6.04939 24.9023 6.04939 24.8578C6.04939 24.8134 6.16692 24.4101 6.31072 23.9616C7.16528 21.293 8.58857 19.5503 10.484 18.8516C10.8871 18.7031 11.0223 18.6825 11.597 18.6825C12.246 18.6825 12.2528 18.6839 12.4997 18.8753C12.6429 18.9865 12.8174 19.2027 12.9113 19.3855L13.0743 19.7027L13.0589 26.9686L13.0436 34.2344L12.8806 34.5162C12.7911 34.671 12.6104 34.8701 12.4787 34.9588C12.2708 35.099 12.1716 35.1222 11.713 35.1392C11.418 35.1501 10.9444 35.1186 10.637 35.0678C10.3349 35.0182 10.0768 34.9888 10.0632 35.0026C9.9649 35.1028 11.6675 36.8644 12.5634 37.5894C14.1352 38.861 16.0898 39.964 17.8039 40.5465C18.1544 40.6658 18.4937 40.7862 18.5575 40.8144C18.6213 40.8423 18.7388 40.8779 18.8185 40.8932C18.8985 40.9084 19.1643 40.9751 19.4097 41.0418C19.6548 41.1082 20.2034 41.2181 20.6286 41.2859C21.0535 41.3538 21.5322 41.4342 21.6917 41.4648C21.8514 41.4951 22.2663 41.5256 22.6138 41.5324L23.2455 41.5447L23.5097 41.2536C23.655 41.0938 24.1298 40.5777 24.5654 40.1071C25.0006 39.6362 25.7973 38.7732 26.3356 38.1889C27.0863 37.3743 27.352 37.1223 27.4754 37.1082C27.6095 37.0929 27.7778 37.2154 28.4948 37.8508C30.0722 39.249 30.8964 39.93 31.0115 39.93C31.0744 39.93 31.3579 39.8113 31.6417 39.6665C36.5233 37.1734 40.0346 32.5213 41.1354 27.0889C41.2807 26.371 41.2834 26.1428 41.1434 26.3763C40.7191 27.0839 39.8542 28.3353 39.465 28.8045C38.2582 30.2603 36.7478 31.4565 35.5604 31.8971C34.7493 32.1979 34.2009 32.18 33.9594 31.8442C33.8575 31.7029 33.8528 31.3437 33.8486 23.4021C33.8448 15.8182 33.8525 15.0825 33.9408 14.8146C34.1085 14.3052 34.3911 13.8277 34.7599 13.4306C35.2911 12.8585 35.9455 12.4954 36.9356 12.2234C37.1795 12.1564 37.3847 12.0751 37.3918 12.0426C37.4104 11.956 36.5467 11.7903 35.6682 11.7119C34.4112 11.5996 32.8816 11.8045 31.5923 12.2576C30.5645 12.6189 29.1751 13.3864 28.3338 14.0574C28.1564 14.1991 27.9816 14.3149 27.9455 14.3149C27.9092 14.3149 27.7917 14.262 27.6839 14.1974C27.4087 14.0323 26.8737 13.8498 26.3731 13.7503C25.8641 13.649 24.7969 13.5703 24.7969 13.6339C24.7969 13.6587 24.9788 13.8502 25.2011 14.0594C25.6556 14.4873 26.0401 15.0407 26.3368 15.6934C26.447 15.9359 26.5698 16.1455 26.6103 16.1592C26.6684 16.1789 26.6867 17.7761 26.7003 23.9822L26.7171 31.7808L26.2657 32.12C25.1291 32.9749 23.9775 33.5955 23.1371 33.8065C22.6983 33.9166 22.5864 33.9242 22.2031 33.8681C21.3713 33.7462 20.4455 33.1176 20.0909 32.4344L19.9533 32.1688L19.9734 23.3894C19.9893 16.5222 19.9781 14.61 19.9229 14.61C19.8842 14.61 19.6701 14.6664 19.4472 14.7352C18.8844 14.909 18.2132 14.8751 17.7605 14.6499C17.1708 14.3565 16.7423 13.7758 16.4468 12.8689C16.1016 11.8106 16.09 10.6332 16.4134 9.49801C16.4913 9.22479 16.5551 8.9118 16.5551 8.8025C16.5551 8.65882 16.5847 8.59576 16.662 8.57519C16.7211 8.55951 16.8268 8.42618 16.8968 8.27886C17.185 7.67335 17.9415 6.73565 18.4704 6.32792L18.6735 6.17135L18.4993 6.17218C18.4036 6.17265 17.9595 6.31406 17.5127 6.48646Z" fill="#5D5A67"/>
</svg>
