<svg width="127" height="28" viewBox="0 0 127 28" fill="none" xmlns="http://www.w3.org/2000/svg">
<path fill-rule="evenodd" clip-rule="evenodd" d="M13.0698 0.3102C12.0098 0.399856 10.4477 0.715139 9.47438 1.03578C3.27951 3.07695 -0.640539 9.40026 0.303437 15.8294C1.22653 22.1164 6.06673 26.7719 12.4447 27.5073C13.1794 27.5922 16.4465 27.6165 23.4037 27.5895C33.0603 27.5522 33.3411 27.545 34.2946 27.3255C37.2237 26.6508 39.3951 25.4677 41.3585 23.477C43.8702 20.93 45.1981 17.6803 45.2167 14.0333C45.2258 12.3109 45.0926 11.3731 44.6286 9.89497C43.9895 7.859 43.0015 6.15828 41.5798 4.64694C39.2142 2.13245 36.188 0.68712 32.5777 0.347983C31.5309 0.249715 14.1832 0.216099 13.0698 0.3102ZM97.3756 11.0062V19.9755H98.8526H100.33L100.303 11.0357L100.276 2.09582L98.8257 2.06633L97.3756 2.03684V11.0062ZM120.513 7.92183C118.054 8.52251 116.736 10.9167 117.79 12.8663C118.34 13.8823 119.225 14.3772 121.415 14.8923C122.958 15.2549 123.438 15.4511 123.838 15.8828C124.477 16.5717 123.923 17.4992 122.723 17.7499C121.578 17.9891 119.956 17.6147 118.792 16.8425C118.478 16.6345 118.189 16.5023 118.149 16.5486C117.914 16.8209 116.778 18.3816 116.778 18.4327C116.778 18.5527 118.212 19.4247 118.861 19.6995C120.225 20.2763 121.913 20.4431 123.33 20.141C124.712 19.8462 125.821 19.0494 126.346 17.9745C126.596 17.4616 126.637 17.2464 126.636 16.4738C126.635 15.7046 126.594 15.4928 126.354 15.0347C125.759 13.8942 124.695 13.2572 122.44 12.6914C121.622 12.4862 120.823 12.2507 120.664 12.1683C120.074 11.8608 119.877 11.2275 120.234 10.7819C120.894 9.95812 122.641 9.91629 124.155 10.6881C124.444 10.8356 124.7 10.9561 124.724 10.9561C124.748 10.9561 125.066 10.5429 125.431 10.0379L126.094 9.1197L125.838 8.90793C125.459 8.59276 124.352 8.10932 123.605 7.93203C122.818 7.74518 121.257 7.74006 120.513 7.92183ZM75.967 8.08852C73.4569 8.41452 71.5317 10.1398 70.961 12.5748C70.7606 13.4298 70.7626 14.9625 70.965 15.8262C71.4566 17.9251 73.0893 19.5948 75.1789 20.1354C76.0033 20.3486 77.6372 20.3475 78.4443 20.1333C79.294 19.9077 80.25 19.4208 80.8223 18.9222L81.295 18.5106L80.3986 17.5717C79.9058 17.0554 79.4639 16.6161 79.4169 16.5955C79.3703 16.575 79.2505 16.6325 79.1505 16.7233C79.0509 16.814 78.6857 17.0208 78.3395 17.1829C77.8056 17.4325 77.5736 17.4771 76.8131 17.4758C75.778 17.474 75.2038 17.2661 74.522 16.6462C73.2158 15.4589 73.1609 12.961 74.4133 11.727C75.431 10.7245 77.0641 10.5217 78.5616 11.2116L79.1351 11.4758L79.9252 10.4876C80.3595 9.94399 80.7148 9.45515 80.7148 9.40125C80.7148 9.25004 79.6639 8.64412 78.9857 8.4042C78.6513 8.28589 78.0376 8.14468 77.6218 8.09035C76.7871 7.98116 76.7934 7.98116 75.967 8.08852ZM61.0487 8.29184C59.0836 8.86844 57.6956 10.2132 57.0352 12.1804C56.4546 13.9109 56.7316 16.0787 57.7292 17.6088C58.8354 19.305 60.5472 20.2006 62.6834 20.2006C64.4702 20.2006 65.744 19.6793 66.9637 18.4486C68.4316 16.9678 68.9979 14.9108 68.5387 12.7295C68.0731 10.5198 66.2349 8.65741 64.0754 8.2075C63.2497 8.0355 61.7831 8.07645 61.0487 8.29184ZM83.0384 11.7784C83.0427 15.6492 83.1281 16.4616 83.6506 17.5845C84.4066 19.2111 86.0168 20.1832 87.9593 20.1864C89.2336 20.1885 90.4742 19.8158 91.2982 19.1835L91.6555 18.9091L91.7199 19.1505C91.7551 19.2832 91.7847 19.5232 91.7855 19.6837L91.7871 19.9755H92.9471H94.1067V14.1394V8.30331H92.7886H91.4705L91.4697 11.407C91.469 15.4263 91.3464 16.1659 90.5576 16.9191C89.4403 17.9861 87.2807 17.8762 86.4796 16.7114C85.8682 15.8221 85.8453 15.6566 85.8002 11.8315L85.7591 8.30331H84.3972H83.0348L83.0384 11.7784ZM103.31 12.0968C103.362 16.1935 103.416 16.6549 103.974 17.7631C104.713 19.2303 106.398 20.1897 108.23 20.1861C109.532 20.1835 110.703 19.8271 111.578 19.1676C111.763 19.0283 111.941 18.9144 111.973 18.9144C112.006 18.9144 112.033 19.1531 112.033 19.4449V19.9755H113.246H114.459V14.1394V8.30331H113.095H111.732L111.692 11.8846C111.646 16.0309 111.623 16.1573 110.769 16.93C110.187 17.4564 109.596 17.6711 108.755 17.6608C107.951 17.6509 107.364 17.389 106.864 16.8175C106.148 15.9997 106.102 15.7133 106.048 11.7784L106.001 8.30331H104.631H103.261L103.31 12.0968ZM32.2087 9.47603C35.3288 9.97666 37.0578 13.2137 35.6762 15.9678C35.0858 17.1446 34.0292 17.9735 32.6628 18.3316C31.7593 18.5684 13.6773 18.5684 12.7738 18.3316C10.4372 17.7193 8.97856 15.5848 9.33079 13.2935C9.62425 11.3846 11.1964 9.80584 13.1225 9.48559C13.9556 9.34712 31.351 9.33843 32.2087 9.47603ZM64.1362 11.0613C64.835 11.3649 65.5587 12.1532 65.7942 12.8674C66.0242 13.5643 66.0203 14.6193 65.7847 15.3798C65.6373 15.8551 65.4599 16.1312 65.0085 16.5854C64.2829 17.3155 63.5446 17.5909 62.5332 17.5093C61.3171 17.411 60.4017 16.8221 59.8532 15.7841C59.6034 15.3116 59.5725 15.1374 59.5725 14.1924C59.5725 13.3371 59.6156 13.0377 59.7947 12.6484C60.2132 11.7383 60.974 11.0813 61.8925 10.8371C62.4372 10.6923 63.5406 10.8025 64.1362 11.0613Z" fill="#5D5A67"/>
</svg>
