<svg width="56" height="44" viewBox="0 0 56 44" fill="none" xmlns="http://www.w3.org/2000/svg">
<path fill-rule="evenodd" clip-rule="evenodd" d="M20.8635 0.599911C20.8541 0.625409 20.8437 9.54217 20.8405 20.5371L20.8346 40.4281L20.8798 40.4484C20.9433 40.4767 29.8648 43.2973 29.8709 43.2909C29.8739 43.2879 29.8859 35.8403 29.8977 26.7405C29.9095 17.6406 29.9269 9.94853 29.9363 9.64701C29.9526 9.12937 29.9569 9.08657 30.0134 8.8795C30.1866 8.24398 30.4294 7.87023 30.7961 7.67542C31.1447 7.4903 31.6252 7.52627 32.1205 7.77455C32.5815 8.00546 32.9356 8.40135 33.1484 8.92337C33.3203 9.34531 33.4041 9.75648 33.436 10.3348C33.4724 10.9942 33.4764 11.755 33.4769 18.0855L33.4775 24.3809L33.6924 24.4815C34.1813 24.7104 34.8826 24.9664 35.4322 25.1169C36.1984 25.3266 36.9086 25.4192 37.648 25.4058C39.0618 25.3803 40.2541 24.9271 41.2227 24.0473C42.3433 23.0291 43.0862 21.4813 43.4077 19.4938C43.5362 18.7012 43.5686 18.2136 43.568 17.093C43.5675 15.9269 43.5172 15.0636 43.3973 14.1624C42.9673 10.9282 41.7211 8.67566 39.3924 6.92342C37.7939 5.72075 35.7725 4.76128 32.6936 3.74382C28.9476 2.50596 24.2152 1.20629 21.4955 0.668589C20.8514 0.54126 20.8841 0.544809 20.8635 0.599911ZM19.0051 24.6595C18.9831 24.6695 18.6319 24.7953 18.225 24.9391C17.8178 25.0828 17.1563 25.3171 16.7548 25.4597C16.3532 25.6022 15.8221 25.7906 15.5745 25.8782C15.3268 25.9659 14.8634 26.1302 14.5443 26.2435C14.2252 26.3567 13.8202 26.5003 13.6443 26.5625C13.4682 26.6247 13.0586 26.7698 12.7341 26.8849C12.025 27.1364 10.6684 27.6164 10.2936 27.7486C7.07936 28.8814 5.31377 29.5151 4.79274 29.7228C3.05039 30.4174 1.51133 31.2436 0.862116 31.8327C0.48559 32.1746 0.184556 32.6598 0.103468 33.0555C0.0668997 33.2342 0.0622152 33.596 0.0935634 33.8225C0.151334 34.2399 0.46776 34.782 0.911882 35.2248C1.39362 35.7049 2.19009 36.181 3.14954 36.5629C3.72864 36.7934 5.33656 37.2794 6.36722 37.5355C8.21138 37.9937 9.90311 38.2501 11.9139 38.3759C12.3572 38.4037 14.2084 38.4157 14.6843 38.394C15.6917 38.3481 16.6777 38.2579 17.6449 38.1233C17.9597 38.0795 18.8715 37.9342 19.0169 37.9046L19.0688 37.8941L19.0833 36.3829C19.091 35.5519 19.091 34.493 19.0833 34.03L19.0688 33.1883L19.0174 33.2011C18.989 33.2083 18.4076 33.4161 17.7252 33.6628C14.2485 34.9209 13.9182 35.0285 13.114 35.1633C12.4423 35.276 11.8791 35.3238 11.2217 35.3241C10.1797 35.3244 9.41067 35.1943 8.86308 34.9254C8.63368 34.8127 8.45668 34.6672 8.39511 34.5403C8.20685 34.1528 8.68339 33.6519 9.54915 33.3277C9.89607 33.1976 11.5984 32.5869 16.0146 31.0078C17.3732 30.5221 18.6166 30.0772 18.7773 30.0192L19.0699 29.9138L19.0822 29.753C19.1074 29.4336 19.0833 24.6369 19.0568 24.64C19.0503 24.6407 19.027 24.6495 19.0051 24.6595ZM40.1784 26.9524C37.3196 27.1657 34.703 27.6706 32.0594 28.5192L31.5918 28.6693L31.6011 31.3694C31.607 33.1031 31.6174 34.0765 31.63 34.089C31.6531 34.112 31.5864 34.1352 38.8481 31.586C40.0255 31.1729 41.1595 30.7779 41.3686 30.7082C42.4327 30.3544 43.4481 30.195 44.6493 30.1928C45.5734 30.1912 46.2389 30.2783 46.7837 30.4721C47.136 30.5974 47.4294 30.8025 47.5183 30.9854C47.695 31.3489 47.2669 31.8162 46.4694 32.1308C45.9592 32.3321 44.6605 32.7997 41.2187 34.022C40.74 34.1921 39.8938 34.4925 39.3383 34.6901C38.7828 34.8875 38.0041 35.1639 37.6081 35.3043C35.3982 36.0884 35.2545 36.1394 32.7937 37.014C31.845 37.351 31.6375 37.4314 31.6257 37.4655C31.6081 37.5171 31.5982 42.0328 31.615 42.3947C31.6217 42.5391 31.6324 42.6628 31.6391 42.6692C31.6458 42.6756 32.4422 42.3976 33.4095 42.0512C34.3764 41.7046 38.2461 40.3194 42.0087 38.9727C51.3837 35.617 51.6897 35.506 52.2604 35.2453C53.4174 34.7171 54.4853 34.0073 55.0065 33.4206C55.4132 32.9626 55.5904 32.5701 55.615 32.0731C55.6469 31.4356 55.4423 30.9499 54.9126 30.4032C54.3324 29.8048 53.3074 29.2005 52.1959 28.802C49.9057 27.9806 48.6057 27.6262 46.7974 27.3306C45.7785 27.164 44.4343 27.0116 43.549 26.9625C43.1876 26.9425 40.4228 26.9341 40.1784 26.9524Z" fill="#5D5A67"/>
</svg>
