<svg width="126" height="33" viewBox="0 0 126 33" fill="none" xmlns="http://www.w3.org/2000/svg">
<path d="M21.5587 18.3794C21.6336 17.0422 22.2884 15.8641 23.2764 15.0289C24.2452 14.2086 25.5492 13.7073 26.972 13.7073C28.3934 13.7073 29.6974 14.2086 30.6669 15.0289C31.6541 15.8641 32.3089 17.0422 32.3846 18.378C32.4595 19.752 31.9073 21.0284 30.9385 21.9746C29.9505 22.937 28.5454 23.5409 26.972 23.5409C25.3985 23.5409 23.9906 22.937 23.0034 21.9746C22.0339 21.0284 21.483 19.752 21.5587 18.3794Z" fill="#5D5A67"/>
<path d="M12.9388 21.0879C12.948 21.6112 13.1149 22.6281 13.3652 23.4222C13.8914 25.1031 14.7838 26.6581 16.0256 28.0286C17.2999 29.4372 18.8691 30.5687 20.6815 31.372C22.5866 32.2156 24.6508 32.6456 26.7949 32.6421C28.9355 32.6392 30.9997 32.2008 32.9048 31.3508C34.7173 30.5397 36.285 29.4033 37.5572 27.9939C38.7983 26.6178 39.6893 25.06 40.2169 23.3791C40.4821 22.5298 40.6497 21.6678 40.7168 20.8029C40.7826 19.9508 40.755 19.0972 40.6341 18.2444C40.3979 16.5826 39.823 15.0233 38.9376 13.602C38.1279 12.2959 37.0842 11.1524 35.8431 10.19L35.8459 10.1879L23.3214 0.571266C23.3101 0.56278 23.3009 0.553601 23.2888 0.545823C22.4671 -0.0849572 21.0853 -0.0828323 20.1816 0.549362C19.2679 1.18863 19.1633 2.24581 19.9765 2.91265L19.973 2.91619L25.1968 7.16407L9.27503 7.18103H9.25381C7.93778 7.18244 6.67267 8.04587 6.42234 9.13701C6.16493 10.2486 7.05878 11.1708 8.42714 11.1757L8.42502 11.1807L16.4951 11.1651L2.0945 22.2186C2.07612 22.2321 2.05631 22.2462 2.03934 22.2596C0.680885 23.2999 0.241748 25.0296 1.09741 26.1242C1.96581 27.2373 3.81221 27.2394 5.18481 26.1306L13.0442 19.6983C13.0442 19.6983 12.9296 20.5667 12.9388 21.0879ZM33.1346 23.9957C31.5152 25.6455 29.2481 26.5811 26.7949 26.586C24.3383 26.5902 22.0711 25.6632 20.4517 24.0162C19.6604 23.2136 19.0791 22.2901 18.7206 21.3064C18.3691 20.3397 18.2326 19.3136 18.3232 18.2784C18.4087 17.2664 18.71 16.3012 19.1908 15.4278C19.6632 14.5693 20.3138 13.7936 21.1172 13.1374C22.6913 11.8546 24.6954 11.1602 26.7914 11.1573C28.8896 11.1545 30.8922 11.8426 32.4678 13.1211C33.2697 13.7745 33.9196 14.5474 34.392 15.4045C34.875 16.2771 35.1741 17.2388 35.2632 18.2536C35.3523 19.2875 35.2158 20.3121 34.8644 21.2795C34.5051 22.266 33.926 23.1895 33.1346 23.9957Z" fill="#5D5A67"/>
<path d="M107.365 18.3582C107.486 17.009 108.529 16.1533 110.123 16.1533C111.718 16.1533 112.76 17.009 112.881 18.3582H107.365ZM112.718 21.6896C112.31 22.6895 111.348 23.2814 110.042 23.2814C108.406 23.2814 107.305 22.2603 107.261 20.6473H116.664V20.1728C116.664 16.1321 114.292 13.8615 110.042 13.8615C105.915 13.8615 103.419 16.1533 103.419 19.7478C103.419 23.3642 105.954 25.6525 110.042 25.6525C112.495 25.6525 114.397 24.8117 115.57 23.3338L112.718 21.6896Z" fill="#5D5A67"/>
<path d="M65.6443 18.3654C65.7688 17.0162 66.8119 16.1605 68.4065 16.1605C69.999 16.1605 71.0414 17.0162 71.1637 18.3654H65.6443ZM71.0004 21.6968C70.5916 22.6996 69.6306 23.2914 68.3217 23.2914C66.6888 23.2914 65.5849 22.2675 65.5418 20.6538H74.9428V20.1821C74.9428 16.1393 72.5717 13.8679 68.3217 13.8679C64.1925 13.8679 61.7019 16.1605 61.7019 19.755C61.7019 23.3713 64.235 25.6597 68.3217 25.6597C70.7741 25.6597 72.6778 24.8217 73.8524 23.3416L71.0004 21.6968Z" fill="#5D5A67"/>
<path d="M60.8601 11.4211H57.4692V25.2934H60.8601V11.4211Z" fill="#5D5A67"/>
<path d="M75.7837 15.1053H79.1936V15.9313C80.4007 14.6429 81.8504 13.9916 83.4854 13.9916C85.3686 13.9916 86.7942 14.6429 87.5303 15.7517C88.1449 16.6674 88.1852 17.7727 88.1852 19.2252V25.2919H84.7703V19.9613C84.7703 17.7494 84.3255 16.7283 82.3836 16.7283C80.4213 16.7283 79.1936 17.8972 79.1936 19.8595V25.2919H75.7837V15.1053Z" fill="#5D5A67"/>
<path d="M99.1693 19.9211C99.1693 21.8198 97.9007 23.0651 95.9376 23.0651C93.9731 23.0651 92.7045 21.8623 92.7045 19.943C92.7045 17.9955 93.9561 16.7934 95.9376 16.7934C97.9007 16.7934 99.1693 18.0168 99.1693 19.9211ZM99.1693 15.5672C98.3073 14.6429 97.0599 14.1359 95.3259 14.1359C91.585 14.1359 89.0308 16.4426 89.0308 19.8999C89.0308 23.2893 91.5674 25.6604 95.2644 25.6604C96.9595 25.6604 98.2041 25.2318 99.1693 24.2708V25.2919H102.581V10.54L99.1693 11.4197V15.5672Z" fill="#5D5A67"/>
<path d="M49.7178 16.7955C51.7007 16.7955 52.9474 17.9976 52.9474 19.9451C52.9474 21.8643 51.6809 23.0672 49.7178 23.0672C47.7561 23.0672 46.4889 21.8219 46.4889 19.9232C46.4889 18.0189 47.7561 16.7955 49.7178 16.7955ZM46.4889 11.4218L43.0754 10.5421V25.294H46.4889V24.2729C47.4492 25.2339 48.6959 25.6625 50.3924 25.6625C54.0916 25.6625 56.6247 23.2914 56.6247 19.902C56.6247 16.4447 54.0697 14.138 50.3309 14.138C48.5934 14.138 47.3467 14.645 46.4889 15.5693V11.4218Z" fill="#5D5A67"/>
<path d="M117.506 25.2955V15.109H120.918V15.7384C121.94 14.5079 123.021 13.8955 124.251 13.8955C124.495 13.8955 124.802 13.9351 125.21 13.9754V16.8797C124.881 16.8366 124.515 16.8366 124.126 16.8366C122.142 16.8366 120.918 18.1448 120.918 20.3695V25.2955H117.506Z" fill="#5D5A67"/>
</svg>
