<svg width="19" height="16" viewBox="0 0 19 16" fill="none" xmlns="http://www.w3.org/2000/svg">
<path d="M18.3961 7.74825C18.3961 7.90212 18.3029 8.10617 18.2088 8.20539L12.8928 13.8539C12.6448 14.1104 12.2425 14.1403 11.9531 13.8796C11.6944 13.6469 11.688 13.1929 11.9274 12.94L16.1947 8.41301L4.44134 8.4129C4.07431 8.41289 3.77685 8.11543 3.77682 7.74838C3.77681 7.38135 4.07427 7.08389 4.44132 7.08387L16.1946 7.08399L11.9273 2.55693C11.6881 2.30424 11.7052 1.86125 11.953 1.61727C12.2152 1.35974 12.6481 1.38261 12.8927 1.64306L18.2087 7.29165C18.3649 7.44474 18.3936 7.59241 18.3961 7.7484L18.3961 7.74825Z" fill="#71BAB7"/>
<path d="M5.76611 1.08135C5.76611 0.68329 5.44342 0.360596 5.04535 0.360596H4.673e-05V1.80211H5.04535C5.44342 1.80211 5.76611 1.47942 5.76611 1.08135Z" fill="#71BAB7"/>
<path d="M0 1.802L5.04086e-07 13.3341L1.44152 13.3341L1.44152 1.802L0 1.802Z" fill="#71BAB7"/>
<path d="M5.76611 14.055C5.76611 13.6569 5.44342 13.3342 5.04535 13.3342H4.673e-05V14.7757H5.04535C5.44342 14.7757 5.76611 14.4531 5.76611 14.055Z" fill="#71BAB7"/>
</svg>
