<svg width="45" height="45" viewBox="0 0 45 45" fill="none" xmlns="http://www.w3.org/2000/svg">
<path fill-rule="evenodd" clip-rule="evenodd" d="M42 22.5C42 33.2696 33.2696 42 22.5 42C11.7304 42 3 33.2696 3 22.5C3 11.7304 11.7304 3 22.5 3C27.4758 3 32.0163 4.86366 35.4616 7.93102C36.0011 8.41131 36.796 8.50149 37.4009 8.10676C38.1928 7.58994 38.3275 6.48036 37.6277 5.84435C33.6321 2.21313 28.3245 0 22.5 0C10.0736 0 0 10.0736 0 22.5C0 34.9264 10.0736 45 22.5 45C34.9264 45 45 34.9264 45 22.5C45 20.4637 44.7295 18.4905 44.2224 16.6145C43.9658 15.6649 42.8539 15.2951 42.0301 15.8327C41.452 16.21 41.2047 16.9266 41.3779 17.5949C41.7839 19.1621 42 20.8058 42 22.5Z" fill="#68DCD7"/>
</svg>
