<svg width="19" height="19" viewBox="0 0 19 19" fill="none" xmlns="http://www.w3.org/2000/svg">
<path d="M4.62192 2.27959C4.62192 3.53853 3.60128 4.55918 2.34233 4.55918C1.08339 4.55918 0.0627441 3.53853 0.0627441 2.27959C0.0627441 1.02065 1.08339 0 2.34233 0C3.60128 0 4.62192 1.02065 4.62192 2.27959Z" fill="#494752"/>
<path d="M11.7791 2.27959C11.7791 3.53853 10.7585 4.55918 9.49956 4.55918C8.24062 4.55918 7.21997 3.53853 7.21997 2.27959C7.21997 1.02065 8.24062 0 9.49956 0C10.7585 0 11.7791 1.02065 11.7791 2.27959Z" fill="#494752"/>
<path d="M19.0001 2.27959C19.0001 3.53853 17.9794 4.55918 16.7205 4.55918C15.4616 4.55918 14.4409 3.53853 14.4409 2.27959C14.4409 1.02065 15.4616 0 16.7205 0C17.9794 0 19.0001 1.02065 19.0001 2.27959Z" fill="#494752"/>
<path d="M19.0001 9.46855C19.0001 10.7275 17.9794 11.7481 16.7205 11.7481C15.4616 11.7481 14.4409 10.7275 14.4409 9.46855C14.4409 8.20961 15.4616 7.18896 16.7205 7.18896C17.9794 7.18896 19.0001 8.20961 19.0001 9.46855Z" fill="#494752"/>
<path d="M19.0001 16.7205C19.0001 17.9795 17.9794 19.0001 16.7205 19.0001C15.4616 19.0001 14.4409 17.9795 14.4409 16.7205C14.4409 15.4616 15.4616 14.4409 16.7205 14.4409C17.9794 14.4409 19.0001 15.4616 19.0001 16.7205Z" fill="#494752"/>
<path d="M11.7791 16.7205C11.7791 17.9795 10.7585 19.0001 9.49956 19.0001C8.24062 19.0001 7.21997 17.9795 7.21997 16.7205C7.21997 15.4616 8.24062 14.4409 9.49956 14.4409C10.7585 14.4409 11.7791 15.4616 11.7791 16.7205Z" fill="#494752"/>
<path d="M4.55918 16.7205C4.55918 17.9795 3.53853 19.0001 2.27959 19.0001C1.02065 19.0001 0 17.9795 0 16.7205C0 15.4616 1.02065 14.4409 2.27959 14.4409C3.53853 14.4409 4.55918 15.4616 4.55918 16.7205Z" fill="#494752"/>
<path d="M4.55918 9.46855C4.55918 10.7275 3.53853 11.7481 2.27959 11.7481C1.02065 11.7481 0 10.7275 0 9.46855C0 8.20961 1.02065 7.18896 2.27959 7.18896C3.53853 7.18896 4.55918 8.20961 4.55918 9.46855Z" fill="#494752"/>
<path d="M11.7791 9.46855C11.7791 10.7275 10.7585 11.7481 9.49956 11.7481C8.24062 11.7481 7.21997 10.7275 7.21997 9.46855C7.21997 8.20961 8.24062 7.18896 9.49956 7.18896C10.7585 7.18896 11.7791 8.20961 11.7791 9.46855Z" fill="#494752"/>
</svg>
