<svg width="16" height="13" viewBox="0 0 16 13" fill="none" xmlns="http://www.w3.org/2000/svg">
<path d="M15.6735 6.49998C15.6736 6.34552 15.58 6.14069 15.4854 6.04109L10.1491 0.370933C9.90012 0.113382 9.49627 0.0834293 9.20584 0.345067C8.94615 0.578696 8.93972 1.03448 9.17996 1.28833L13.4636 5.83267L1.66522 5.83278C1.29678 5.83279 0.99818 6.13139 0.998151 6.49985C0.998147 6.86829 1.29675 7.16688 1.6652 7.16691L13.4636 7.16679L9.17986 11.7112C8.93981 11.9649 8.95692 12.4096 9.20572 12.6545C9.46892 12.913 9.90349 12.89 10.149 12.6286L15.4854 6.95833C15.6422 6.80465 15.671 6.65642 15.6736 6.49983L15.6735 6.49998Z" fill="#242329"/>
</svg>
