<svg width="18" height="27" viewBox="0 0 18 27" fill="none" xmlns="http://www.w3.org/2000/svg">
<path d="M16.9509 7.7783C16.9509 7.62384 16.8573 7.41901 16.7628 7.31941L11.4265 1.64925C11.1775 1.3917 10.7736 1.36175 10.4832 1.62339C10.2235 1.85702 10.2171 2.3128 10.4573 2.56665L14.741 7.11099L2.94256 7.11111C2.57413 7.11111 2.27552 7.40971 2.27549 7.77817C2.27549 8.14661 2.57409 8.4452 2.94255 8.44523L14.741 8.44511L10.4572 12.9895C10.2172 13.2432 10.2343 13.6879 10.4831 13.9328C10.7463 14.1913 11.1808 14.1684 11.4263 13.9069L16.7628 8.23665C16.9196 8.08297 16.9484 7.93474 16.9509 7.77815L16.9509 7.7783Z" fill="#71BAB7"/>
<path d="M0.604526 18.7779C0.604525 18.9323 0.698089 19.1371 0.792627 19.2367L6.12897 24.9069C6.37796 25.1644 6.7818 25.1944 7.07223 24.9328C7.33193 24.6991 7.33836 24.2434 7.09812 23.9895L2.81445 19.4452L14.6129 19.445C14.9813 19.445 15.2799 19.1464 15.2799 18.778C15.2799 18.4095 14.9813 18.1109 14.6129 18.1109L2.81446 18.111L7.09822 13.5666C7.33827 13.313 7.32116 12.8683 7.07235 12.6234C6.80916 12.3648 6.37458 12.3878 6.12909 12.6492L0.792636 18.3195C0.635845 18.4732 0.607057 18.6214 0.60452 18.778L0.604526 18.7779Z" fill="#71BAB7"/>
</svg>
