<svg width="71" height="67" viewBox="0 0 71 67" fill="none" xmlns="http://www.w3.org/2000/svg">
<g filter="url(#filter0_d_89_122)">
<ellipse cx="32.4147" cy="30.4147" rx="25.6682" ry="17.3447" transform="rotate(-45 32.4147 30.4147)" fill="#71BAB7"/>
<ellipse cx="32.4147" cy="30.4147" rx="25.6682" ry="17.3447" transform="rotate(-45 32.4147 30.4147)" fill="url(#paint0_linear_89_122)"/>
</g>
<path fill-rule="evenodd" clip-rule="evenodd" d="M40.4037 7.36533V14.2045H53.556V7.36533H40.4037ZM38.8254 4.73486C38.2443 4.73486 37.7732 5.20594 37.7732 5.78705V15.7828C37.7732 16.3639 38.2443 16.835 38.8254 16.835H55.1343C55.7154 16.835 56.1865 16.3639 56.1865 15.7828V5.78705C56.1865 5.20594 55.7154 4.73486 55.1343 4.73486H38.8254Z" fill="white"/>
<path fill-rule="evenodd" clip-rule="evenodd" d="M25.6737 35.2484V39.9832H33.039V35.2484H25.6737ZM24.0954 32.6179C23.5143 32.6179 23.0432 33.089 23.0432 33.6701V41.5615C23.0432 42.1426 23.5143 42.6137 24.0954 42.6137H34.6173C35.1984 42.6137 35.6695 42.1426 35.6695 41.5615V33.6701C35.6695 33.089 35.1984 32.6179 34.6173 32.6179H24.0954Z" fill="white"/>
<path fill-rule="evenodd" clip-rule="evenodd" d="M43.0355 35.2484V39.9832H50.9269V35.2484H43.0355ZM41.4572 32.6179C40.8761 32.6179 40.405 33.089 40.405 33.6701V41.5615C40.405 42.1426 40.8761 42.6137 41.4572 42.6137H52.5052C53.0863 42.6137 53.5574 42.1426 53.5574 41.5615V33.6701C53.5574 33.089 53.0863 32.6179 52.5052 32.6179H41.4572Z" fill="white"/>
<path fill-rule="evenodd" clip-rule="evenodd" d="M60.3956 35.2484V39.9832H67.7609V35.2484H60.3956ZM58.8173 32.6179C58.2362 32.6179 57.7651 33.089 57.7651 33.6701V41.5615C57.7651 42.1426 58.2362 42.6137 58.8173 42.6137H69.3392C69.9203 42.6137 70.3914 42.1426 70.3914 41.5615V33.6701C70.3914 33.089 69.9203 32.6179 69.3392 32.6179H58.8173Z" fill="white"/>
<path d="M45.6655 15.783H48.296V33.6701H45.6655V15.783Z" fill="white"/>
<path d="M28.3037 26.3047H30.4081V33.67H28.3037V26.3047Z" fill="white"/>
<path d="M63.0259 26.3047H65.1303V33.67H63.0259V26.3047Z" fill="white"/>
<path d="M28.3037 25.2526C28.3037 24.6715 28.7748 24.2004 29.3559 24.2004H64.0781C64.6592 24.2004 65.1302 24.6715 65.1302 25.2526V26.8309H28.3037V25.2526Z" fill="white"/>
<defs>
<filter id="filter0_d_89_122" x="0.50708" y="2.50708" width="63.8152" height="63.8152" filterUnits="userSpaceOnUse" color-interpolation-filters="sRGB">
<feFlood flood-opacity="0" result="BackgroundImageFix"/>
<feColorMatrix in="SourceAlpha" type="matrix" values="0 0 0 0 0 0 0 0 0 0 0 0 0 0 0 0 0 0 127 0" result="hardAlpha"/>
<feOffset dy="4"/>
<feGaussianBlur stdDeviation="5"/>
<feComposite in2="hardAlpha" operator="out"/>
<feColorMatrix type="matrix" values="0 0 0 0 0.0942187 0 0 0 0 0.279167 0 0 0 0 0.271566 0 0 0 0.5 0"/>
<feBlend mode="normal" in2="BackgroundImageFix" result="effect1_dropShadow_89_122"/>
<feBlend mode="normal" in="SourceGraphic" in2="effect1_dropShadow_89_122" result="shape"/>
</filter>
<linearGradient id="paint0_linear_89_122" x1="6.7465" y1="13.07" x2="6.7465" y2="47.7593" gradientUnits="userSpaceOnUse">
<stop stop-color="#3BA8A3"/>
<stop offset="1" stop-color="#1C7874"/>
</linearGradient>
</defs>
</svg>
