<svg width="70" height="62" viewBox="0 0 70 62" fill="none" xmlns="http://www.w3.org/2000/svg">
<g filter="url(#filter0_d_89_137)">
<circle cx="27.8872" cy="29.9875" r="17.8872" fill="#71BAB7"/>
<circle cx="27.8872" cy="29.9875" r="17.8872" fill="url(#paint0_linear_89_137)"/>
</g>
<path fill-rule="evenodd" clip-rule="evenodd" d="M54.2081 23.6041V4.11616L54.208 4.11548C54.208 1.8418 52.377 -0.0533307 50.0611 0.00114598H47.7456C45.4839 0.00114598 43.6529 1.84169 43.6529 4.11548V6.17264L43.6533 23.6041C43.6533 23.8747 43.7071 24.0913 43.8687 24.3079L48.0152 29.7757C48.2307 30.0463 48.5536 30.2088 48.9307 30.2088C49.3078 30.2088 49.6307 30.0463 49.8462 29.7757L53.9927 24.3079C54.1006 24.0913 54.2081 23.8747 54.2081 23.6041ZM51.9462 6.98426V22.4679H50.1153V6.98426H51.9462ZM51.892 4.71059H45.9146L45.9145 4.11492C45.9145 3.0865 46.7226 2.27426 47.7455 2.27426H50.061C51.084 2.27426 51.892 3.08655 51.892 4.11492V4.71059ZM45.9146 22.468V6.98437H47.7456V22.468H45.9146ZM47.0993 24.7954H50.7611L48.9303 27.1772L47.0993 24.7954ZM40.7761 42.6135C40.0497 42.6135 39.4608 43.2024 39.4608 43.9288C39.4608 44.6552 40.0497 45.244 40.7761 45.244H57.085C57.8114 45.244 58.4002 44.6552 58.4002 43.9288C58.4002 43.2024 57.8113 42.6135 57.085 42.6135H49.9819V37.8786H66.8174C68.2702 37.8786 69.4479 36.7009 69.4479 35.2482V10.5218C69.4479 9.06903 68.2702 7.89133 66.8174 7.89133H57.6108C56.8844 7.89133 56.2955 8.48018 56.2955 9.20656C56.2955 9.93294 56.8844 10.5218 57.6108 10.5218H66.8174V35.2482H31.0431L31.0431 10.5218H40.2497C40.9761 10.5218 41.5649 9.93294 41.5649 9.20656C41.5649 8.48018 40.9761 7.89133 40.2497 7.89133H31.0431C29.5903 7.89133 28.4126 9.06903 28.4126 10.5218V35.2482C28.4126 36.7009 29.5903 37.8786 31.0431 37.8786H47.3514V42.6135H40.7761Z" fill="white"/>
<defs>
<filter id="filter0_d_89_137" x="0" y="6.10034" width="55.7744" height="55.7744" filterUnits="userSpaceOnUse" color-interpolation-filters="sRGB">
<feFlood flood-opacity="0" result="BackgroundImageFix"/>
<feColorMatrix in="SourceAlpha" type="matrix" values="0 0 0 0 0 0 0 0 0 0 0 0 0 0 0 0 0 0 127 0" result="hardAlpha"/>
<feOffset dy="4"/>
<feGaussianBlur stdDeviation="5"/>
<feComposite in2="hardAlpha" operator="out"/>
<feColorMatrix type="matrix" values="0 0 0 0 0.0942187 0 0 0 0 0.279167 0 0 0 0 0.271566 0 0 0 0.5 0"/>
<feBlend mode="normal" in2="BackgroundImageFix" result="effect1_dropShadow_89_137"/>
<feBlend mode="normal" in="SourceGraphic" in2="effect1_dropShadow_89_137" result="shape"/>
</filter>
<linearGradient id="paint0_linear_89_137" x1="10" y1="12.1003" x2="10" y2="47.8747" gradientUnits="userSpaceOnUse">
<stop stop-color="#3BA8A3"/>
<stop offset="1" stop-color="#1C7874"/>
</linearGradient>
</defs>
</svg>
