<svg width="69" height="62" viewBox="0 0 69 62" fill="none" xmlns="http://www.w3.org/2000/svg">
<g filter="url(#filter0_d_89_164)">
<rect x="30.6526" y="3.38696" width="33.4499" height="33.4499" rx="8" transform="rotate(45 30.6526 3.38696)" fill="#71BAB7"/>
<rect x="30.6526" y="3.38696" width="33.4499" height="33.4499" rx="8" transform="rotate(45 30.6526 3.38696)" fill="url(#paint0_linear_89_164)"/>
</g>
<path d="M26.4231 43.0853C26.4231 42.3589 27.0119 41.77 27.7383 41.77H67.1953C67.9217 41.77 68.5106 42.3589 68.5106 43.0853C68.5106 43.8116 67.9217 44.4005 67.1953 44.4005H27.7383C27.0119 44.4005 26.4231 43.8116 26.4231 43.0853Z" fill="white"/>
<path fill-rule="evenodd" clip-rule="evenodd" d="M33.2625 24.9349V41.7699H36.4191V24.9349H33.2625ZM32.7365 22.3044C31.5742 22.3044 30.6321 23.2466 30.6321 24.4088V42.296C30.6321 43.4582 31.5742 44.4004 32.7365 44.4004H36.9452C38.1074 44.4004 39.0496 43.4582 39.0496 42.296V24.4088C39.0496 23.2466 38.1074 22.3044 36.9452 22.3044H32.7365Z" fill="white"/>
<path fill-rule="evenodd" clip-rule="evenodd" d="M45.888 31.2481V41.77H49.0446V31.2481H45.888ZM45.3619 28.6177C44.1997 28.6177 43.2576 29.5598 43.2576 30.722V42.2961C43.2576 43.4583 44.1997 44.4005 45.3619 44.4005H49.5707C50.7329 44.4005 51.6751 43.4583 51.6751 42.2961V30.722C51.6751 29.5598 50.7329 28.6177 49.5707 28.6177H45.3619Z" fill="white"/>
<path fill-rule="evenodd" clip-rule="evenodd" d="M59.0409 20.7262V41.7699H62.1974V20.7262H59.0409ZM58.5148 18.0957C57.3526 18.0957 56.4104 19.0379 56.4104 20.2001V42.296C56.4104 43.4582 57.3526 44.4004 58.5148 44.4004H62.7235C63.8857 44.4004 64.8279 43.4582 64.8279 42.296V20.2001C64.8279 19.0379 63.8857 18.0957 62.7235 18.0957H58.5148Z" fill="white"/>
<path fill-rule="evenodd" clip-rule="evenodd" d="M34.577 15.4654C35.8845 15.4654 36.9444 14.4055 36.9444 13.098C36.9444 11.7905 35.8845 10.7306 34.577 10.7306C33.2695 10.7306 32.2096 11.7905 32.2096 13.098C32.2096 14.4055 33.2695 15.4654 34.577 15.4654ZM34.577 18.0959C37.3372 18.0959 39.5749 15.8582 39.5749 13.098C39.5749 10.3377 37.3372 8.1001 34.577 8.1001C31.8167 8.1001 29.5791 10.3377 29.5791 13.098C29.5791 15.8582 31.8167 18.0959 34.577 18.0959Z" fill="white"/>
<path fill-rule="evenodd" clip-rule="evenodd" d="M47.4676 20.7261C48.0487 20.7261 48.5198 20.255 48.5198 19.6739C48.5198 19.0928 48.0487 18.6217 47.4676 18.6217C46.8865 18.6217 46.4154 19.0928 46.4154 19.6739C46.4154 20.255 46.8865 20.7261 47.4676 20.7261ZM47.4676 23.3565C49.5014 23.3565 51.1502 21.7077 51.1502 19.6739C51.1502 17.64 49.5014 15.9912 47.4676 15.9912C45.4337 15.9912 43.7849 17.64 43.7849 19.6739C43.7849 21.7077 45.4337 23.3565 47.4676 23.3565Z" fill="white"/>
<path fill-rule="evenodd" clip-rule="evenodd" d="M60.619 10.7304C62.6529 10.7304 64.3017 9.08161 64.3017 7.04774C64.3017 5.01387 62.6529 3.36509 60.619 3.36509C58.5852 3.36509 56.9364 5.01387 56.9364 7.04774C56.9364 9.08161 58.5852 10.7304 60.619 10.7304ZM60.619 13.3609C64.1057 13.3609 66.9321 10.5344 66.9321 7.04774C66.9321 3.5611 64.1057 0.734619 60.619 0.734619C57.1324 0.734619 54.3059 3.5611 54.3059 7.04774C54.3059 10.5344 57.1324 13.3609 60.619 13.3609Z" fill="white"/>
<path d="M62.1971 7.04776C62.1971 7.91942 61.4905 8.62604 60.6188 8.62604C59.7471 8.62604 59.0405 7.91942 59.0405 7.04776C59.0405 6.1761 59.7471 5.46948 60.6188 5.46948C61.4905 5.46948 62.1971 6.1761 62.1971 7.04776Z" fill="white"/>
<path d="M38.26 13.3608L46.3732 18.045L45.058 20.3231L36.9448 15.6389L38.26 13.3608Z" fill="white"/>
<path d="M58.4258 11.1677L50.3786 19.2149L48.5186 17.3549L56.5658 9.3077L58.4258 11.1677Z" fill="white"/>
<defs>
<filter id="filter0_d_89_164" x="0.313721" y="0.700684" width="60.6777" height="60.6777" filterUnits="userSpaceOnUse" color-interpolation-filters="sRGB">
<feFlood flood-opacity="0" result="BackgroundImageFix"/>
<feColorMatrix in="SourceAlpha" type="matrix" values="0 0 0 0 0 0 0 0 0 0 0 0 0 0 0 0 0 0 127 0" result="hardAlpha"/>
<feOffset dy="4"/>
<feGaussianBlur stdDeviation="5"/>
<feComposite in2="hardAlpha" operator="out"/>
<feColorMatrix type="matrix" values="0 0 0 0 0.0942187 0 0 0 0 0.279167 0 0 0 0 0.271566 0 0 0 0.5 0"/>
<feBlend mode="normal" in2="BackgroundImageFix" result="effect1_dropShadow_89_164"/>
<feBlend mode="normal" in="SourceGraphic" in2="effect1_dropShadow_89_164" result="shape"/>
</filter>
<linearGradient id="paint0_linear_89_164" x1="30.6526" y1="3.38696" x2="30.6526" y2="36.8368" gradientUnits="userSpaceOnUse">
<stop stop-color="#3BA8A3"/>
<stop offset="1" stop-color="#1C7874"/>
</linearGradient>
</defs>
</svg>
