<svg width="170" height="96" viewBox="0 0 170 96" fill="none" xmlns="http://www.w3.org/2000/svg">
<path fill-rule="evenodd" clip-rule="evenodd" d="M163.617 3.1917H6.58482C4.8221 3.1917 3.39312 4.62068 3.39312 6.38341V88.7294C3.39312 90.4921 4.82209 91.9211 6.58482 91.9211H163.617C165.379 91.9211 166.808 90.4921 166.808 88.7294V6.38341C166.808 4.62068 165.379 3.1917 163.617 3.1917ZM6.58482 0C3.05937 0 0.201416 2.85795 0.201416 6.38341V88.7294C0.201416 92.2548 3.05936 95.1128 6.58482 95.1128H163.617C167.142 95.1128 170 92.2548 170 88.7294V6.38341C170 2.85795 167.142 0 163.617 0H6.58482Z" fill="white"/>
<path d="M92.2512 32.7851C91.0103 32.7851 90.0604 32.4327 89.4016 31.728C88.7429 31.0232 88.4135 30.0274 88.4135 28.7405V20.2838C88.4135 18.9969 88.7429 18.0011 89.4016 17.2964C90.0604 16.5916 91.0103 16.2393 92.2512 16.2393C93.4921 16.2393 94.442 16.5916 95.1008 17.2964C95.7595 18.0011 96.0889 18.9969 96.0889 20.2838V28.7405C96.0889 30.0274 95.7595 31.0232 95.1008 31.728C94.442 32.4327 93.4921 32.7851 92.2512 32.7851ZM92.2512 30.487C93.1244 30.487 93.5611 29.9585 93.5611 28.9014V20.1229C93.5611 19.0658 93.1244 18.5373 92.2512 18.5373C91.3779 18.5373 90.9413 19.0658 90.9413 20.1229V28.9014C90.9413 29.9585 91.3779 30.487 92.2512 30.487Z" fill="white"/>
<path d="M97.7984 16.4691H100.97L103.429 26.0978H103.475V16.4691H105.727V32.5553H103.13L100.096 20.8123H100.05V32.5553H97.7984V16.4691Z" fill="white"/>
<path d="M107.605 16.4691H110.133V30.2572H114.293V32.5553H107.605V16.4691Z" fill="white"/>
<path d="M115.806 25.7071L112.75 16.4691H115.438L117.162 22.375H117.208L118.931 16.4691H121.39L118.334 25.7071V32.5553H115.806V25.7071Z" fill="white"/>
<path d="M87.9309 40.0877H90.4817L92.1363 52.566H92.1823L93.8368 40.0877H96.1578L93.7219 56.1739H90.3668L87.9309 40.0877Z" fill="white"/>
<path d="M97.372 40.0877H99.8999V56.1739H97.372V40.0877Z" fill="white"/>
<path d="M101.793 40.0877H105.539C106.841 40.0877 107.791 40.3941 108.388 41.0069C108.986 41.6044 109.285 42.5312 109.285 43.7875V44.7756C109.285 46.4455 108.733 47.5026 107.63 47.9469V47.9929C108.243 48.1767 108.672 48.5521 108.917 49.1189C109.177 49.6858 109.308 50.4441 109.308 51.394V54.2205C109.308 54.6801 109.323 55.0555 109.354 55.3466C109.384 55.6223 109.461 55.8981 109.583 56.1739H107.01C106.918 55.9134 106.856 55.6683 106.826 55.4385C106.795 55.2087 106.78 54.795 106.78 54.1976V51.2561C106.78 50.5207 106.657 50.0075 106.412 49.7164C106.182 49.4253 105.776 49.2798 105.194 49.2798H104.321V56.1739H101.793V40.0877ZM105.24 46.9818C105.746 46.9818 106.121 46.8515 106.366 46.5911C106.627 46.3306 106.757 45.894 106.757 45.2812V44.0403C106.757 43.4581 106.65 43.0368 106.435 42.7764C106.236 42.5159 105.914 42.3857 105.47 42.3857H104.321V46.9818H105.24Z" fill="white"/>
<path d="M112.993 42.3857H110.35V40.0877H118.163V42.3857H115.521V56.1739H112.993V42.3857Z" fill="white"/>
<path d="M123.064 56.4037C121.839 56.4037 120.904 56.059 120.261 55.3695C119.617 54.6648 119.295 53.6614 119.295 52.3591V40.0877H121.823V52.543C121.823 53.0945 121.93 53.4928 122.145 53.7379C122.375 53.9831 122.696 54.1056 123.11 54.1056C123.524 54.1056 123.838 53.9831 124.052 53.7379C124.282 53.4928 124.397 53.0945 124.397 52.543V40.0877H126.833V52.3591C126.833 53.6614 126.511 54.6648 125.868 55.3695C125.224 56.059 124.29 56.4037 123.064 56.4037Z" fill="white"/>
<path d="M130.542 40.0877H133.966L136.586 56.1739H134.058L133.598 52.9796V53.0256H130.726L130.266 56.1739H127.922L130.542 40.0877ZM133.299 50.8424L132.173 42.8913H132.127L131.024 50.8424H133.299Z" fill="white"/>
<path d="M137.812 40.0877H140.34V53.8758H144.499V56.1739H137.812V40.0877Z" fill="white"/>
<path d="M88.5973 63.7063H92.3201C93.5764 63.7063 94.5186 64.0433 95.1467 64.7174C95.7748 65.3915 96.0889 66.3796 96.0889 67.6819V69.2675C96.0889 70.5697 95.7748 71.5579 95.1467 72.232C94.5186 72.9061 93.5764 73.2431 92.3201 73.2431H91.1252V79.7925H88.5973V63.7063ZM92.3201 70.9451C92.7338 70.9451 93.0402 70.8302 93.2394 70.6004C93.4538 70.3706 93.5611 69.9799 93.5611 69.4284V67.521C93.5611 66.9695 93.4538 66.5788 93.2394 66.349C93.0402 66.1192 92.7338 66.0043 92.3201 66.0043H91.1252V70.9451H92.3201Z" fill="white"/>
<path d="M97.4618 63.7063H101.208C102.51 63.7063 103.46 64.0127 104.057 64.6255C104.655 65.223 104.953 66.1499 104.953 67.4061V68.3943C104.953 70.0642 104.402 71.1212 103.299 71.5655V71.6115C103.912 71.7953 104.341 72.1707 104.586 72.7375C104.846 73.3044 104.976 74.0627 104.976 75.0126V77.8391C104.976 78.2988 104.992 78.6741 105.022 78.9652C105.053 79.241 105.13 79.5167 105.252 79.7925H102.678C102.586 79.532 102.525 79.2869 102.494 79.0571C102.464 78.8273 102.449 78.4137 102.449 77.8162V74.8747C102.449 74.1393 102.326 73.6261 102.081 73.335C101.851 73.0439 101.445 72.8984 100.863 72.8984H99.9896V79.7925H97.4618V63.7063ZM100.909 70.6004C101.414 70.6004 101.79 70.4701 102.035 70.2097C102.295 69.9493 102.426 69.5126 102.426 68.8998V67.6589C102.426 67.0767 102.318 66.6554 102.104 66.395C101.905 66.1345 101.583 66.0043 101.139 66.0043H99.9896V70.6004H100.909Z" fill="white"/>
<path d="M110.384 80.0223C109.143 80.0223 108.193 79.6699 107.535 78.9652C106.876 78.2605 106.546 77.2646 106.546 75.9777V67.521C106.546 66.2341 106.876 65.2383 107.535 64.5336C108.193 63.8288 109.143 63.4765 110.384 63.4765C111.625 63.4765 112.575 63.8288 113.234 64.5336C113.892 65.2383 114.222 66.2341 114.222 67.521V75.9777C114.222 77.2646 113.892 78.2605 113.234 78.9652C112.575 79.6699 111.625 80.0223 110.384 80.0223ZM110.384 77.7243C111.257 77.7243 111.694 77.1957 111.694 76.1386V67.3601C111.694 66.3031 111.257 65.7745 110.384 65.7745C109.511 65.7745 109.074 66.3031 109.074 67.3601V76.1386C109.074 77.1957 109.511 77.7243 110.384 77.7243Z" fill="white"/>
<path d="M116.439 79.8844C115.979 79.8844 115.589 79.8537 115.267 79.7925V77.4944C115.512 77.5557 115.788 77.5864 116.094 77.5864C116.6 77.5864 116.975 77.4638 117.22 77.2187C117.465 76.9582 117.588 76.5676 117.588 76.0467V63.7063H120.116V75.9777C120.116 77.2953 119.809 78.2758 119.197 78.9192C118.599 79.5627 117.68 79.8844 116.439 79.8844Z" fill="white"/>
<path d="M121.923 63.7063H128.817V66.0043H124.451V70.2557H127.921V72.5537H124.451V77.4944H128.817V79.7925H121.923V63.7063Z" fill="white"/>
<path d="M133.833 80.0223C132.623 80.0223 131.696 79.6776 131.053 78.9882C130.425 78.2988 130.111 77.3259 130.111 76.0697V67.4291C130.111 66.1728 130.425 65.2 131.053 64.5106C131.696 63.8212 132.623 63.4765 133.833 63.4765C135.044 63.4765 135.963 63.8212 136.591 64.5106C137.235 65.2 137.556 66.1728 137.556 67.4291V69.1296H135.166V67.2682C135.166 66.2724 134.745 65.7745 133.902 65.7745C133.06 65.7745 132.638 66.2724 132.638 67.2682V76.2535C132.638 77.234 133.06 77.7243 133.902 77.7243C134.745 77.7243 135.166 77.234 135.166 76.2535V73.7946H137.556V76.0697C137.556 77.3259 137.235 78.2988 136.591 78.9882C135.963 79.6776 135.044 80.0223 133.833 80.0223Z" fill="white"/>
<path d="M141.045 66.0043H138.402V63.7063H146.216V66.0043H143.573V79.7925H141.045V66.0043Z" fill="white"/>
<path d="M150.726 80.0223C149.5 80.0223 148.573 79.6776 147.945 78.9882C147.317 78.2834 147.003 77.28 147.003 75.9777V75.0585H149.393V76.1616C149.393 77.2034 149.829 77.7243 150.703 77.7243C151.132 77.7243 151.453 77.6017 151.668 77.3566C151.898 77.0961 152.012 76.6825 152.012 76.1156C152.012 75.4415 151.859 74.8517 151.553 74.3461C151.246 73.8253 150.68 73.2048 149.852 72.4847C148.811 71.5655 148.083 70.7382 147.669 70.0029C147.256 69.2522 147.049 68.4096 147.049 67.4751C147.049 66.2035 147.37 65.223 148.014 64.5336C148.657 63.8288 149.592 63.4765 150.817 63.4765C152.028 63.4765 152.939 63.8288 153.552 64.5336C154.18 65.223 154.494 66.2188 154.494 67.521V68.1874H152.104V67.3601C152.104 66.8086 151.997 66.4103 151.783 66.1652C151.568 65.9047 151.254 65.7745 150.84 65.7745C149.998 65.7745 149.577 66.2877 149.577 67.3142C149.577 67.8963 149.73 68.4402 150.036 68.9458C150.358 69.4513 150.932 70.0642 151.76 70.7842C152.817 71.7034 153.544 72.5384 153.943 73.2891C154.341 74.0397 154.54 74.9206 154.54 75.9318C154.54 77.2493 154.211 78.2605 153.552 78.9652C152.909 79.6699 151.967 80.0223 150.726 80.0223Z" fill="white"/>
<path d="M34.0861 69.9112C32.2936 69.9112 30.9216 69.4022 29.9701 68.3843C29.0185 67.3663 28.5427 65.928 28.5427 64.0691V51.8538C28.5427 49.995 29.0185 48.5566 29.9701 47.5386C30.9216 46.5207 32.2936 46.0117 34.0861 46.0117C35.8785 46.0117 37.2505 46.5207 38.2021 47.5386C39.1537 48.5566 39.6294 49.995 39.6294 51.8538V64.0691C39.6294 65.928 39.1537 67.3663 38.2021 68.3843C37.2505 69.4022 35.8785 69.9112 34.0861 69.9112ZM34.0861 66.5918C35.3474 66.5918 35.9781 65.8284 35.9781 64.3015V51.6215C35.9781 50.0945 35.3474 49.3311 34.0861 49.3311C32.8247 49.3311 32.194 50.0945 32.194 51.6215V64.3015C32.194 65.8284 32.8247 66.5918 34.0861 66.5918Z" fill="white"/>
<path d="M41.0713 46.3437H44.7558L47.1457 64.3678H47.2121L49.6021 46.3437H52.9546L49.4361 69.5793H44.5898L41.0713 46.3437Z" fill="white"/>
<path d="M54.7085 46.3437H60.0858C61.9004 46.3437 63.2614 46.8305 64.1687 47.8042C65.076 48.7779 65.5296 50.2052 65.5296 52.0862V54.3765C65.5296 56.2575 65.076 57.6848 64.1687 58.6585C63.2614 59.6322 61.9004 60.1191 60.0858 60.1191H58.3598V69.5793H54.7085V46.3437ZM60.0858 56.7997C60.6833 56.7997 61.1259 56.6337 61.4136 56.3018C61.7234 55.9698 61.8783 55.4055 61.8783 54.6089V51.8538C61.8783 51.0572 61.7234 50.4929 61.4136 50.1609C61.1259 49.829 60.6833 49.663 60.0858 49.663H58.3598V56.7997H60.0858Z" fill="white"/>
<path fill-rule="evenodd" clip-rule="evenodd" d="M56.0562 40.2156H37.5443C27.4968 40.2156 19.3516 48.3608 19.3516 58.4083C19.3516 68.4559 27.4968 76.6011 37.5443 76.6011H56.0562C66.1038 76.6011 74.2489 68.4559 74.2489 58.4083C74.2489 48.3608 66.1038 40.2156 56.0562 40.2156ZM37.5443 37.0239C25.734 37.0239 16.1599 46.5981 16.1599 58.4083C16.1599 70.2186 25.734 79.7928 37.5443 79.7928H56.0562C67.8665 79.7928 77.4406 70.2186 77.4406 58.4083C77.4406 46.5981 67.8665 37.0239 56.0562 37.0239H37.5443Z" fill="white"/>
<path d="M52.8604 25.5155H60.8271L60.8271 25.5163C62.2046 25.5163 63.3168 24.3798 63.3159 22.9926C63.3159 21.6054 62.2038 20.4854 60.8263 20.4854H43.5319C40.0632 20.4854 37.2253 17.644 37.2253 14.1343V13.8001C37.2253 12.8803 37.9728 12.1284 38.8854 12.1284C39.7987 12.1284 40.5454 12.8812 40.5454 13.8001V14.1343C40.5454 15.7887 41.89 17.1428 43.5328 17.1428H60.8271C64.0305 17.1428 66.636 19.7667 66.636 22.9926C66.636 26.2185 64.0305 28.8424 60.8271 28.8424H52.8604C50.2378 28.8424 48.1136 30.9813 48.1136 33.6226V36.9817L44.7945 36.9975V33.6384C44.7945 29.1593 48.4127 25.5155 52.8604 25.5155Z" fill="white"/>
</svg>
