<?xml version="1.0" encoding="iso-8859-1"?>
<!-- Generator: Adobe Illustrator 16.0.0, SVG Export Plug-In . SVG Version: 6.00 Build 0)  -->
<!DOCTYPE svg PUBLIC "-//W3C//DTD SVG 1.1//EN" "http://www.w3.org/Graphics/SVG/1.1/DTD/svg11.dtd">
<svg version="1.1" id="Capa_1" xmlns="http://www.w3.org/2000/svg" xmlns:xlink="http://www.w3.org/1999/xlink" x="0px" y="0px"
	 width="258.008px" height="258.008px" viewBox="0 0 258.008 258.008" style="enable-background:new 0 0 258.008 258.008;"
	 xml:space="preserve">
<g>
	<g>
		<path fill="#fff" d="M68.98,122.659l11.761,6.048c0.381,0.2,0.806,0.296,1.231,0.296c0.425,0,0.845-0.102,1.231-0.296l11.762-6.048
			c0.897-0.461,1.457-1.38,1.457-2.391V2.688C96.421,1.204,95.217,0,93.734,0H70.216c-1.483,0-2.688,1.204-2.688,2.688v117.586
			C67.523,121.279,68.083,122.198,68.98,122.659z"/>
		<path fill="#fff" d="M116.014,122.659l11.762,6.048c0.38,0.2,0.806,0.296,1.231,0.296c0.425,0,0.845-0.102,1.231-0.296L142,122.659
			c0.896-0.461,1.454-1.38,1.454-2.391V2.688c0-1.484-1.202-2.688-2.688-2.688H117.25c-1.483,0-2.688,1.204-2.688,2.688v117.586
			C114.558,121.279,115.117,122.198,116.014,122.659z"/>
		<path fill="#fff" d="M187.794,0h-23.518c-1.48,0-2.686,1.204-2.686,2.688v117.586c0,1.011,0.561,1.929,1.457,2.392l11.759,6.047
			c0.385,0.2,0.81,0.296,1.233,0.296c0.426,0,0.847-0.102,1.229-0.296l11.765-6.047c0.897-0.462,1.454-1.38,1.454-2.392V2.688
			C190.482,1.199,189.28,0,187.794,0z"/>
		<path  fill="#fff" d="M188.981,133.313c-1.332-0.649-2.944-0.104-3.602,1.229l-39.17,79.687h-34.42l-39.168-79.687
			c-0.657-1.333-2.266-1.878-3.599-1.229c-1.331,0.657-1.879,2.268-1.226,3.602l39.904,81.167c0.005,0.01,0.005,0.01,0.005,0.01
			l18.89,38.414c0.225,0.463,0.574,0.842,1.002,1.099c0.419,0.268,0.911,0.404,1.409,0.404c0.398,0,0.801-0.095,1.189-0.274
			c0.052-0.031,0.084-0.072,0.129-0.104c0.097-0.053,0.16-0.125,0.247-0.189c0.302-0.221,0.539-0.473,0.714-0.782
			c0.034-0.058,0.103-0.089,0.131-0.141l58.793-119.604C190.861,135.581,190.31,133.97,188.981,133.313z"/>
	</g>
</g>
<g>
</g>
<g>
</g>
<g>
</g>
<g>
</g>
<g>
</g>
<g>
</g>
<g>
</g>
<g>
</g>
<g>
</g>
<g>
</g>
<g>
</g>
<g>
</g>
<g>
</g>
<g>
</g>
<g>
</g>
</svg>
