<svg width="129" height="41" viewBox="0 0 129 41" fill="none" xmlns="http://www.w3.org/2000/svg">
<path d="M7.40592 36.7394C4.99749 36.7394 3.16107 36.062 1.89664 34.7073C0.632213 33.3224 0 31.3505 0 28.7916V12.1734C0 9.61445 0.632213 7.6576 1.89664 6.30286C3.16107 4.91801 4.99749 4.22559 7.40592 4.22559C9.81435 4.22559 11.6508 4.91801 12.9152 6.30286C14.1796 7.6576 14.8118 9.61445 14.8118 12.1734V12.5347C14.8118 13.8316 13.7605 14.8829 12.4636 14.8829C11.1667 14.8829 10.1154 13.8316 10.1154 12.5347V11.8573C10.1154 9.78003 9.2574 8.7414 7.5414 8.7414C5.82539 8.7414 4.96739 9.78003 4.96739 11.8573V29.1528C4.96739 31.2 5.82539 32.2236 7.5414 32.2236C9.2574 32.2236 10.1154 31.2 10.1154 29.1528V24.208C10.1154 23.5222 9.55941 22.9662 8.87356 22.9662C8.18771 22.9662 7.63171 22.4102 7.63171 21.7243V20.7083C7.63171 19.4613 8.64261 18.4504 9.88962 18.4504H11.2218C13.2045 18.4504 14.8118 20.0577 14.8118 22.0404V28.7916C14.8118 31.3505 14.1796 33.3224 12.9152 34.7073C11.6508 36.062 9.81435 36.7394 7.40592 36.7394Z" fill="#71BAB7"/>
<path d="M5.36401 2.41918C5.36401 1.0831 6.44712 0 7.7832 0L-nan -nanL-nan -nanL7.7832 0C9.11927 0 10.2024 1.08311 10.2024 2.41918V6.04796C10.2024 7.38403 9.11927 8.46714 7.7832 8.46714L-nan -nanL-nan -nanL7.7832 8.46714C6.44712 8.46714 5.36401 7.38403 5.36401 6.04796V2.41918Z" fill="#71BAB7"/>
<path d="M5.36401 34.675C5.36401 33.339 6.44712 32.2559 7.7832 32.2559L-nan -nanL-nan -nanL7.7832 32.2559C9.11927 32.2559 10.2024 33.339 10.2024 34.675V38.3038C10.2024 39.6399 9.11927 40.723 7.7832 40.723L-nan -nanL-nan -nanL7.7832 40.723C6.44712 40.723 5.36401 39.6399 5.36401 38.3038V34.675Z" fill="#71BAB7"/>
<path d="M30.6481 22.7761V19.4801H36.5681V27.0961C36.5681 29.9121 35.2454 31.3201 32.6001 31.3201H28.5681C25.9228 31.3201 24.6001 29.9121 24.6001 27.0961V14.2001C24.6001 11.3841 25.9228 9.97607 28.5681 9.97607H32.6001C35.2454 9.97607 36.5681 11.3841 36.5681 14.2001V16.1521H32.3121V13.6561C32.3121 13.4854 32.2481 13.3361 32.1201 13.2081C32.0134 13.0801 31.8748 13.0161 31.7041 13.0161H29.6881C29.5174 13.0161 29.3681 13.0801 29.2401 13.2081C29.1334 13.3361 29.0801 13.4854 29.0801 13.6561V27.6081C29.0801 27.7787 29.1334 27.9281 29.2401 28.0561C29.3681 28.1841 29.5174 28.2481 29.6881 28.2481H31.7041C31.8748 28.2481 32.0134 28.1841 32.1201 28.0561C32.2481 27.9281 32.3121 27.7787 32.3121 27.6081V22.7761H30.6481Z" fill="white"/>
<path d="M43.5176 10.2961V31.0001H39.0376V10.2961H43.5176Z" fill="white"/>
<path d="M54.5621 27.6081V24.4081H58.8181V27.0961C58.8181 29.9121 57.4954 31.3201 54.8501 31.3201H50.8181C48.1728 31.3201 46.8501 29.9121 46.8501 27.0961V14.2001C46.8501 11.3841 48.1728 9.97607 50.8181 9.97607H54.8501C57.4954 9.97607 58.8181 11.3841 58.8181 14.2001V16.1521H54.5621V13.6561C54.5621 13.4854 54.4981 13.3361 54.3701 13.2081C54.2634 13.0801 54.1248 13.0161 53.9541 13.0161H51.9381C51.7674 13.0161 51.6181 13.0801 51.4901 13.2081C51.3834 13.3361 51.3301 13.4854 51.3301 13.6561V27.6081C51.3301 27.7787 51.3834 27.9281 51.4901 28.0561C51.6181 28.1841 51.7674 28.2481 51.9381 28.2481H53.9541C54.1248 28.2481 54.2634 28.1841 54.3701 28.0561C54.4981 27.9281 54.5621 27.7787 54.5621 27.6081Z" fill="white"/>
<path d="M60.3223 14.1041V10.2961H71.5223V14.1041H68.1623V31.0001H63.6823V14.1041H60.3223Z" fill="white"/>
<path d="M85.7608 14.2001V27.0961C85.7608 29.9121 84.4382 31.3201 81.7928 31.3201H77.5368C74.8915 31.3201 73.5688 29.9121 73.5688 27.0961V14.2001C73.5688 11.3841 74.8915 9.97607 77.5368 9.97607H81.7928C84.4382 9.97607 85.7608 11.3841 85.7608 14.2001ZM81.2808 27.6081V13.6561C81.2808 13.4854 81.2168 13.3361 81.0888 13.2081C80.9822 13.0801 80.8435 13.0161 80.6728 13.0161H78.6568C78.4862 13.0161 78.3368 13.0801 78.2088 13.2081C78.1022 13.3361 78.0488 13.4854 78.0488 13.6561V27.6081C78.0488 27.7787 78.1022 27.9281 78.2088 28.0561C78.3368 28.1841 78.4862 28.2481 78.6568 28.2481H80.6728C80.8435 28.2481 80.9822 28.1841 81.0888 28.0561C81.2168 27.9281 81.2808 27.7787 81.2808 27.6081Z" fill="white"/>
<path d="M101.965 10.2961L98.4448 19.8001L102.637 31.0001H98.0609L94.9888 22.8081H93.5489V31.0001H89.0688V10.2961H93.5489V18.9681H94.6368L97.8689 10.2961H101.965Z" fill="white"/>
<path d="M108.643 27.2881H113.603V31.0001H104.163V10.2961H113.603V13.9441H108.643V18.8081H113.283V22.3281H108.643V27.2881Z" fill="white"/>
<path d="M128.066 31.0001H123.586V13.8161C123.586 13.6454 123.522 13.4961 123.394 13.3681C123.287 13.2401 123.149 13.1761 122.978 13.1761H121.25C121.079 13.1761 120.93 13.2401 120.802 13.3681C120.695 13.4961 120.642 13.6454 120.642 13.8161V31.0001H116.162V14.2001C116.162 11.3841 117.485 9.97607 120.13 9.97607H124.098C126.743 9.97607 128.066 11.3841 128.066 14.2001V31.0001Z" fill="white"/>
</svg>
