<svg width="78" height="70" viewBox="0 0 78 70" fill="none" xmlns="http://www.w3.org/2000/svg">
<g filter="url(#filter0_d_1_76)">
<path d="M58 33.9288C57.8243 31.6566 57.1348 29.455 55.9844 27.4927L55.745 27.0681C53.1345 22.7868 48.5526 20.127 43.5686 20H42.6681C37.7011 20.134 33.134 22.7781 30.5163 27.0351C29.8853 28.0583 29.3777 29.154 29.0044 30.2985C28.5051 30.0976 27.9726 29.9935 27.4349 29.9904C26.325 29.9965 25.2641 30.4523 24.4913 31.2557C23.7185 32.0591 23.299 33.1417 23.3278 34.2602C23.3562 35.3787 23.8302 36.4383 24.6426 37.2005C23.2711 37.7608 22.0962 38.7208 21.2694 39.958C20.4422 41.1947 20.0004 42.6525 20 44.1442V49.1396C20 49.3603 20.0872 49.5721 20.242 49.7281C20.3968 49.8846 20.607 49.9721 20.8264 49.9721H34.0432C34.2621 49.9721 34.4723 49.8846 34.6271 49.7281C34.7819 49.5721 34.8692 49.3603 34.8692 49.1396V47.4743C37.8712 49.4961 41.5007 50.3478 45.0801 49.8705C48.6595 49.3932 51.9445 47.6198 54.3216 44.8808C56.6992 42.1417 58.0061 38.6248 57.9995 34.9858V33.9287L58 33.9288ZM55.786 31.0399C55.786 31.1647 55.8601 31.2895 55.8933 31.4143C55.9264 31.5392 55.984 31.7558 56.0254 31.9224C56.0668 32.089 56.0834 32.1637 56.1078 32.2889C56.1327 32.4138 56.1741 32.6471 56.1985 32.83C56.2234 33.0132 56.1985 33.0629 56.2565 33.1798C56.3145 33.2963 56.3062 33.5793 56.3228 33.7793V34.0791L56.3232 34.0786C56.3272 34.1045 56.3355 34.13 56.3477 34.1533H51.3915C51.3479 32.1843 51.0705 30.2276 50.5651 28.3255H54.6046C54.6543 28.4002 54.6953 28.4753 54.7368 28.5501C54.7782 28.6248 54.8689 28.783 54.9269 28.9083L55.1497 29.3579L55.3067 29.7161C55.373 29.8743 55.4389 30.0325 55.4969 30.1907C55.5548 30.349 55.5958 30.432 55.6373 30.5573C55.6787 30.6817 55.7036 30.8812 55.7533 31.0394L55.786 31.0399ZM56.3062 36.3517C56.3062 36.5847 56.2565 36.8097 56.2238 37.0427C56.1907 37.2756 56.1741 37.2923 56.1497 37.4255C56.1248 37.5586 56.0756 37.8417 56.0341 38.0416C55.9927 38.2416 55.96 38.308 55.9268 38.4328C55.8937 38.5576 55.8196 38.8323 55.7616 39.0239C55.7036 39.2156 55.6709 39.2903 55.6212 39.4151C55.5714 39.5399 55.489 39.7979 55.4144 39.9812C55.3403 40.1645 55.3072 40.2392 55.2492 40.3724L55.0015 40.905C54.9352 41.0382 54.8693 41.163 54.7947 41.2878L54.5139 41.8038L54.2745 42.1783L54.0761 42.478L50.3009 42.4789C50.9642 40.3192 51.331 38.0786 51.3916 35.8187H56.3481H56.3477C56.352 35.885 56.352 35.9518 56.3477 36.0182C56.2984 36.1351 56.2818 36.2432 56.2735 36.3513L56.3062 36.3517ZM35.9602 42.4789H34.6878C34.6843 42.4512 34.6843 42.4235 34.6878 42.3958C34.6149 42.1137 34.5269 41.8355 34.4235 41.5634V41.4887C34.3079 41.2057 34.1758 40.9226 34.0354 40.6563V40.6558C34.0044 40.6075 33.9769 40.5574 33.9525 40.506C33.803 40.2379 33.6377 39.9794 33.4571 39.7316L33.3581 39.6067H33.3577C33.1671 39.3518 32.9604 39.1101 32.7385 38.8824C32.5379 38.6833 32.3255 38.497 32.1022 38.3247L31.8955 38.1665L31.4162 37.8333L31.1603 37.6835C30.995 37.5921 30.8297 37.5002 30.6561 37.4171L30.4084 37.3007L30.2929 37.2506H30.2933C30.4913 37.0633 30.6714 36.8568 30.8301 36.6344L30.8964 36.5095H30.896C31.0268 36.325 31.1376 36.1267 31.2265 35.9184H34.8696C34.8735 35.9597 34.8735 36.0019 34.8696 36.0432C34.8696 36.5592 34.9028 37.0673 34.9686 37.567V37.8584V38.1498C35.01 38.4996 35.051 38.8407 35.109 39.1738C35.109 39.2736 35.109 39.3738 35.1505 39.4736L35.2246 39.8981C35.2246 39.9896 35.2246 40.0814 35.2826 40.1728C35.324 40.4141 35.3733 40.6642 35.4313 40.9055L35.5054 41.2052C35.5634 41.4298 35.6127 41.6465 35.6707 41.8632C35.6707 41.93 35.7121 41.988 35.7287 42.0464C35.7453 42.1049 35.8028 42.2961 35.8443 42.4209C35.8818 42.4424 35.9206 42.4618 35.9603 42.4789L35.9602 42.4789ZM48.8142 28.3258C49.365 30.2215 49.6759 32.1794 49.7396 34.1537H43.9571V28.3258H48.8142ZM43.9571 26.6605V21.7816C45.6094 22.2229 47.1623 23.9795 48.2446 26.6605H43.9571ZM42.3047 21.7731V26.6605H38.0172C39.0995 23.9712 40.6524 22.2061 42.3047 21.7731ZM42.3047 28.3257V34.1536H36.5222C36.5741 32.1802 36.8767 30.2218 37.4227 28.3257H42.3047ZM37.7198 42.4788L37.472 41.7211C37.3979 41.4714 37.3233 41.2297 37.2571 40.9801C37.1581 40.6056 37.0835 40.214 37.0011 39.8229C36.9514 39.5732 36.8938 39.3315 36.8524 39.0735C36.7782 38.6406 36.7368 38.1826 36.6871 37.733C36.6871 37.5084 36.6208 37.2918 36.6047 37.0672C36.6047 36.6593 36.6047 36.2347 36.555 35.8185H42.3375V42.4792L37.7198 42.4788ZM42.3047 44.1441V48.1902C40.826 47.7907 39.4383 46.3584 38.3809 44.1441H42.3047ZM43.9571 48.1902V44.1441H47.8809C46.8234 46.3588 45.4354 47.7907 43.9571 48.1902ZM43.9571 42.4788V35.8185H49.7396C49.6899 38.0855 49.297 40.3314 48.5748 42.4788H43.9571ZM53.4485 26.6605H50.0205C49.4989 25.1517 48.7252 23.7435 47.7323 22.498C49.9765 23.3379 51.9524 24.7768 53.4485 26.6605ZM38.5214 22.498C37.5354 23.7466 36.7645 25.1538 36.2416 26.6605H32.813C34.304 24.7746 36.2777 23.3352 38.5214 22.498ZM30.9213 29.8913V29.8909C30.9453 29.8228 30.9728 29.7564 31.0042 29.6909C31.186 29.2664 31.4006 28.8585 31.6239 28.4339L31.698 28.3174H35.7375C35.2325 30.2196 34.9552 32.1763 34.9116 34.1453H31.5659C31.5646 33.9023 31.5428 33.6601 31.4996 33.421V33.3045C31.4569 33.0799 31.3932 32.8598 31.3099 32.6466L31.2602 32.5218C31.1704 32.309 31.0657 32.1034 30.9462 31.9056C30.8224 31.7131 30.6815 31.5316 30.525 31.3645L30.4835 31.3144C30.6056 30.8354 30.7517 30.3634 30.9214 29.8992L30.9213 29.8913ZM24.957 34.1537C24.957 33.2615 25.4292 32.437 26.1964 31.9904C26.963 31.5443 27.9076 31.5443 28.6746 31.9904C29.4413 32.4369 29.9136 33.2615 29.9136 34.1537C29.9153 34.3532 29.8905 34.5519 29.8394 34.7448V34.7866C29.6872 35.394 29.3087 35.9187 28.7819 36.2518C28.2804 36.5788 27.6786 36.7124 27.0873 36.6276C26.4964 36.5432 25.9551 36.2466 25.5636 35.7921C25.172 35.3372 24.957 34.7558 24.957 34.1537L24.957 34.1537ZM33.2177 48.3079H21.6531V44.1449C21.6531 42.5992 22.2624 41.1167 23.3469 40.0236C24.4315 38.931 25.902 38.317 27.4357 38.317C27.9965 38.3179 28.5534 38.4049 29.088 38.575C30.0173 38.8286 30.8694 39.3125 31.5663 39.9819C32.4659 40.9053 33.0455 42.0968 33.2182 43.3788C33.2321 43.6341 33.2321 43.8895 33.2182 44.1448L33.2177 48.3079ZM34.8701 44.1449H36.5717C37.0474 45.3426 37.6928 46.4646 38.4883 47.4751C37.18 46.9758 35.959 46.2704 34.8701 45.3852V44.1449ZM47.7732 47.4751C48.5691 46.4646 49.2144 45.3426 49.6898 44.1449H52.7214C51.3438 45.6181 49.6518 46.7569 47.7732 47.4751Z" fill="white"/>
</g>
<defs>
<filter id="filter0_d_1_76" x="0" y="0" width="78" height="70" filterUnits="userSpaceOnUse" color-interpolation-filters="sRGB">
<feFlood flood-opacity="0" result="BackgroundImageFix"/>
<feColorMatrix in="SourceAlpha" type="matrix" values="0 0 0 0 0 0 0 0 0 0 0 0 0 0 0 0 0 0 127 0" result="hardAlpha"/>
<feOffset/>
<feGaussianBlur stdDeviation="10"/>
<feComposite in2="hardAlpha" operator="out"/>
<feColorMatrix type="matrix" values="0 0 0 0 1 0 0 0 0 1 0 0 0 0 1 0 0 0 0.6 0"/>
<feBlend mode="normal" in2="BackgroundImageFix" result="effect1_dropShadow_1_76"/>
<feBlend mode="normal" in="SourceGraphic" in2="effect1_dropShadow_1_76" result="shape"/>
</filter>
</defs>
</svg>
