<svg width="79" height="80" viewBox="0 0 79 80" fill="none" xmlns="http://www.w3.org/2000/svg">
<g filter="url(#filter0_d_1_71)">
<path d="M58.0196 46.3509C57.4925 45.4753 56.5489 44.9362 55.527 44.9267C55.0605 44.9346 54.6033 45.0568 54.195 45.2828L46.3612 49.4349V48.7224C46.3627 47.9254 46.0536 47.1589 45.4991 46.5859C46.9055 45.2809 47.7259 43.4639 47.7744 41.5458C47.8229 39.6281 47.0954 37.7716 45.757 36.3971C44.4186 35.0227 42.5821 34.2462 40.6636 34.244C40.409 34.244 40.1545 34.2583 39.9015 34.2865C39.741 33.085 39.1481 31.983 38.2338 31.1871C37.3191 30.3912 36.1461 29.9555 34.934 29.9622C33.7215 29.9686 32.5535 30.4164 31.6474 31.2221C30.7414 32.0274 30.1602 33.1357 30.0124 34.3388C29.8643 35.5422 30.1598 36.7581 30.8437 37.7588C31.5272 38.76 32.5524 39.4777 33.7269 39.7778C33.6036 40.2981 33.5415 40.8312 33.5419 41.3658C33.5359 43.1633 34.216 44.8953 35.4435 46.2085L33.5919 46.3438L27.2891 44.9193H27.2462L22.9731 44.2072C22.7829 44.1745 22.5874 44.2208 22.4317 44.3347C22.2757 44.449 22.1731 44.6215 22.1471 44.8129L20.0106 58.344C19.9775 58.5331 20.0226 58.7275 20.1354 58.8831C20.2478 59.0387 20.4185 59.1421 20.6088 59.17L24.8818 59.882H24.9957C25.3394 59.8892 25.639 59.6493 25.7078 59.3124L26.2774 56.4638L40.1299 59.3553C41.9446 59.7316 43.8342 59.3538 45.3648 58.3082L57.1731 50.2605H57.1727C57.784 49.8379 58.2115 49.1992 58.369 48.4729C58.5262 47.7469 58.4017 46.9882 58.0205 46.3506L58.0196 46.3509ZM31.405 34.9564C31.3373 33.6842 31.9539 32.4729 33.022 31.7782C34.0901 31.0838 35.4473 31.012 36.5827 31.5894C37.7185 32.1673 38.4595 33.3068 38.5267 34.579L38.3628 34.6429L38.0707 34.7497L37.5865 34.9632L37.3086 35.1057L37.309 35.1061C37.1473 35.1926 36.9902 35.2877 36.8387 35.3911L36.5966 35.5407V35.5403C36.3977 35.6805 36.2075 35.8328 36.027 35.9964L35.8845 36.1174C35.7097 36.2768 35.5431 36.4456 35.386 36.6231C35.3149 36.7013 35.2506 36.787 35.1867 36.8652C35.1228 36.9434 34.9732 37.1287 34.8803 37.2641C34.7878 37.3994 34.745 37.4562 34.6811 37.5562C34.6172 37.6558 34.5172 37.834 34.439 37.9765C34.3608 38.119 34.3322 38.1758 34.2822 38.2758V38.2754C34.2517 38.3254 34.2258 38.3777 34.2036 38.4318C33.4111 38.2581 32.7013 37.819 32.1926 37.187C31.6835 36.555 31.4057 35.7681 31.4049 34.9564L31.405 34.9564ZM34.966 41.3662H34.9657C34.9642 40.7128 35.0773 40.0643 35.3007 39.4503C35.3837 39.2247 35.4789 39.0037 35.5852 38.7883C36.3492 37.2811 37.7421 36.1904 39.3885 35.811C39.8069 35.7178 40.2344 35.67 40.6633 35.6685C42.2413 35.6749 43.7458 36.3351 44.8188 37.4919C45.8917 38.649 46.4369 40.1992 46.3242 41.7729C46.2114 43.3469 45.4512 44.8034 44.2245 45.796C44.1985 45.7919 44.1718 45.7919 44.1459 45.796L43.8324 45.7178H43.697L43.6974 45.7174C43.5455 45.7065 43.3932 45.7065 43.2414 45.7174L41.3755 45.7746V45.5539C41.9514 45.4531 42.4763 45.1603 42.8643 44.723C43.2523 44.2861 43.4805 43.7301 43.512 43.1466C43.4609 42.4398 43.1331 41.7815 42.6 41.315C42.0665 40.8484 41.3706 40.6108 40.6634 40.654C39.8942 40.654 39.2389 40.1627 39.2389 39.5859C39.2389 39.0092 39.8942 38.5178 40.6634 38.5178C41.4326 38.5178 42.0879 39.0092 42.0879 39.5859H43.5125L43.5121 39.5855C43.4805 39.0021 43.2523 38.446 42.8643 38.0092C42.4763 37.5719 41.9515 37.279 41.3755 37.1783V36.3809H39.9514V37.1787V37.1783C39.3754 37.279 38.8505 37.5719 38.4626 38.0092C38.0746 38.446 37.8464 39.002 37.8148 39.5855C37.8659 40.2923 38.1937 40.9507 38.7269 41.4172C39.2603 41.8837 39.9562 42.1213 40.6634 42.0781C41.4326 42.0781 42.0879 42.5695 42.0879 43.1462C42.0879 43.7233 41.4326 44.2148 40.6634 44.2148C39.8942 44.2148 39.2389 43.7234 39.2389 43.1466H37.8147C37.8463 43.7301 38.0745 44.2862 38.4625 44.723C38.8505 45.1603 39.3753 45.4531 39.9513 45.5539V45.8813L37.4444 46.0667C35.8933 45.0046 34.9661 43.2458 34.9657 41.3661L34.966 41.3662ZM24.432 58.3515L21.5334 57.8744L23.4493 45.7668L26.2979 46.251L24.9949 55.4879L24.432 58.3515ZM56.3305 49.0646L44.5511 57.1123C43.3356 57.9375 41.8389 58.2379 40.399 57.9454L26.5041 55.0468L27.729 46.5006L33.3838 47.7754C33.4526 47.7822 33.5218 47.7822 33.5902 47.7754L37.2723 47.5047H37.308L43.2974 47.0634C43.5462 47.066 43.791 47.1295 44.0094 47.2483C44.2756 47.3803 44.5 47.5833 44.6583 47.8345C44.8166 48.086 44.9027 48.3758 44.9068 48.6728V49.9334L36.3324 50.6241L36.4463 52.0486L45.7046 51.3365C45.8019 51.3313 45.8967 51.3046 45.9824 51.258L54.8347 46.5363C55.0531 46.4182 55.2986 46.3592 55.5468 46.3652C56.0652 46.3634 56.5468 46.6337 56.8145 47.0773C57.0028 47.4078 57.0577 47.7976 56.9679 48.1672C56.8777 48.5367 56.6495 48.8578 56.3303 49.0646L56.3305 49.0646Z" fill="white"/>
<path d="M37.8125 20H39.237V28.5463H37.8125V20Z" fill="white"/>
<path d="M43.5117 25.6978H44.9362V33.5319H43.5117V25.6978Z" fill="white"/>
<path d="M32.1133 22.8489H33.5378V28.5465H32.1133V22.8489Z" fill="white"/>
</g>
<defs>
<filter id="filter0_d_1_71" x="0" y="0" width="78.4355" height="79.8821" filterUnits="userSpaceOnUse" color-interpolation-filters="sRGB">
<feFlood flood-opacity="0" result="BackgroundImageFix"/>
<feColorMatrix in="SourceAlpha" type="matrix" values="0 0 0 0 0 0 0 0 0 0 0 0 0 0 0 0 0 0 127 0" result="hardAlpha"/>
<feOffset/>
<feGaussianBlur stdDeviation="10"/>
<feComposite in2="hardAlpha" operator="out"/>
<feColorMatrix type="matrix" values="0 0 0 0 1 0 0 0 0 1 0 0 0 0 1 0 0 0 0.6 0"/>
<feBlend mode="normal" in2="BackgroundImageFix" result="effect1_dropShadow_1_71"/>
<feBlend mode="normal" in="SourceGraphic" in2="effect1_dropShadow_1_71" result="shape"/>
</filter>
</defs>
</svg>
