<svg width="19" height="19" viewBox="0 0 19 19" fill="none" xmlns="http://www.w3.org/2000/svg">
<path d="M13.2981 10.6763C13.0463 10.6763 12.8047 10.7763 12.6266 10.9546C12.4484 11.1327 12.3484 11.3743 12.3484 11.6262V17.0975H1.89973V2.84941H5.69919C6.03859 2.84941 6.35221 2.66834 6.52185 2.37443C6.69146 2.08053 6.69146 1.71837 6.52185 1.4245C6.35224 1.1306 6.0386 0.949707 5.69919 0.949707H1.89973C1.39597 0.949707 0.912726 1.14977 0.556416 1.50612C0.200091 1.86226 0 2.34554 0 2.84944V17.0975C0 17.6013 0.200067 18.0845 0.556416 18.4408C0.912741 18.797 1.39597 18.9973 1.89973 18.9973H12.3484C12.8521 18.9973 13.3354 18.797 13.6917 18.4408C14.048 18.0845 14.2481 17.6013 14.2481 17.0975V11.6263C14.2481 11.3743 14.1481 11.1327 13.9698 10.9546C13.7917 10.7764 13.5501 10.6763 13.2981 10.6763L13.2981 10.6763Z" fill="white"/>
<path d="M18.8456 12.9751L15.6825 8.12142H15.6827C16.7323 7.08026 17.2372 5.61001 17.0488 4.1437C16.8602 2.67759 15.9997 1.3828 14.7211 0.640962C13.4423 -0.100638 11.8912 -0.204614 10.5249 0.359851C9.15863 0.924162 8.13307 2.09259 7.75062 3.52053C7.36816 4.94847 7.6724 6.47307 8.57367 7.64492C9.47494 8.81657 10.8703 9.50195 12.3487 9.49858C12.9477 9.4982 13.5412 9.38218 14.0965 9.15673L17.25 14.02C17.4266 14.2882 17.7267 14.4489 18.0479 14.4474C18.2299 14.4469 18.408 14.3942 18.5608 14.2955C18.7748 14.159 18.9254 13.9427 18.9788 13.6947C19.0324 13.4467 18.9845 13.1876 18.8457 12.9751L18.8456 12.9751ZM9.49887 4.74941C9.49887 3.99352 9.79916 3.26881 10.3336 2.73444C10.868 2.20003 11.5928 1.89975 12.3485 1.89975C13.1042 1.89975 13.8291 2.20004 14.3635 2.73444C14.8979 3.26886 15.1982 3.99352 15.1982 4.74941C15.1982 5.50512 14.8979 6.23001 14.3635 6.76438C13.8291 7.2988 13.1042 7.59889 12.3485 7.59889C11.5928 7.59889 10.8679 7.29878 10.3336 6.76438C9.79914 6.22997 9.49887 5.50512 9.49887 4.74941Z" fill="white"/>
<path d="M9.50084 13.2979H4.75164C4.41223 13.2979 4.09861 13.4789 3.92897 13.7728C3.75934 14.0667 3.75937 14.4289 3.92897 14.7228C4.09858 15.0166 4.41222 15.1977 4.75164 15.1977H9.50103H9.50084C9.84025 15.1977 10.1539 15.0167 10.3235 14.7228C10.4931 14.4289 10.4931 14.0667 10.3235 13.7728C10.1539 13.4789 9.84026 13.2979 9.50084 13.2979H9.50084Z" fill="white"/>
<path d="M9.50083 9.49854H4.75162C4.41222 9.49854 4.0986 9.67961 3.92896 9.97351C3.75936 10.2674 3.75936 10.6296 3.92896 10.9234C4.09857 11.2174 4.41221 11.3982 4.75162 11.3982H9.50102H9.50083C9.84024 11.3982 10.1539 11.2174 10.3235 10.9234C10.4931 10.6295 10.4931 10.2674 10.3235 9.97351C10.1539 9.67961 9.84025 9.49854 9.50083 9.49854H9.50083Z" fill="white"/>
</svg>
