<svg width="37" height="39" viewBox="0 0 37 39" fill="none" xmlns="http://www.w3.org/2000/svg">
<path d="M16.9341 38.7623V0C23.2899 0 36.0016 4.89233 36.0016 19.193C36.0016 33.9954 23.2899 38.6369 16.9341 38.7623Z" fill="#FF4848"/>
<path d="M26.0915 20.0714C26.0915 12.6451 19.9866 7.86147 16.9341 6.39795V35.6265C18.6903 35.6265 26.0915 30.7342 26.0915 20.0714Z" fill="#C83D3D"/>
<path d="M6.52832 35.7517V3.01074C11.9642 3.01074 22.8361 6.77407 22.8361 19.1931C22.8361 32.1389 11.9642 35.6263 6.52832 35.7517Z" fill="#FF6E40"/>
<path d="M13.0514 20.4476C13.0514 14.7273 8.66088 12.0846 6.52832 11.541V29.9813C7.28099 29.9813 13.0514 26.9707 13.0514 20.4476Z" fill="#C6532F"/>
<path d="M10.0356 18.9419C10.0356 12.2934 3.76333 9.28271 0 9.28271V28.9775C4.13967 28.9775 10.0356 25.9668 10.0356 18.9419Z" fill="#FF9675"/>
</svg>
