<svg width="23" height="23" viewBox="0 0 23 23" fill="none" xmlns="http://www.w3.org/2000/svg">
<path d="M11.4463 3.13056e-05C8.40565 0.0142213 5.49435 1.23208 3.34928 3.38721C1.2042 5.54234 -3.31095e-05 8.45931 6.8275e-10 11.5C6.82756e-10 14.55 1.2116 17.4751 3.36827 19.6317C5.52494 21.7884 8.45001 23 11.5 23C14.55 23 17.4751 21.7884 19.6317 19.6317C21.7884 17.4751 23 14.55 23 11.5C23 8.45003 21.7884 5.52496 19.6317 3.3683C17.4751 1.21163 14.55 3.13056e-05 11.5 3.13056e-05C11.4821 -1.04352e-05 11.4642 -1.04352e-05 11.4463 3.13056e-05ZM16.2016 6.92302C16.2974 6.92111 16.5092 6.94506 16.6472 7.05719C16.7389 7.13682 16.7974 7.24797 16.8111 7.36865C16.8264 7.45777 16.8456 7.6619 16.8302 7.82098C16.6577 9.63989 15.9083 14.0521 15.5269 16.0885C15.3659 16.951 15.0487 17.2395 14.7411 17.2673C14.0741 17.3295 13.5671 16.8264 12.9202 16.4028C11.9082 15.7387 11.3361 15.3257 10.3538 14.6778C9.21821 13.9303 9.95421 13.5183 10.6011 12.8474C10.7707 12.6711 13.7128 9.99448 13.7703 9.75202C13.777 9.72135 13.7837 9.60827 13.7166 9.54885C13.6495 9.48944 13.5499 9.50956 13.478 9.52585C13.3764 9.54885 11.7597 10.6184 8.62788 12.7315C8.16788 13.0477 7.75292 13.2011 7.38013 13.1915C6.96996 13.1838 6.18029 12.9605 5.59283 12.7698C4.87217 12.535 4.30004 12.4114 4.34987 12.0137C4.37575 11.8067 4.66133 11.5949 5.20567 11.3783C8.55792 9.91781 10.7928 8.95469 11.9121 8.48989C15.1053 7.16165 15.7694 6.93069 16.2016 6.92302Z" fill="#777679"/>
</svg>
