<svg width="66" height="66" viewBox="0 0 66 66" fill="none" xmlns="http://www.w3.org/2000/svg">
<circle cx="33" cy="33" r="33" fill="#020202"/>
<path d="M31.8154 54.0662V11C38.877 11 53.0001 16.4355 53.0001 32.324C53.0001 48.77 38.877 53.9268 31.8154 54.0662Z" fill="#FF4848"/>
<path d="M41.9896 33.2995C41.9896 25.0487 35.2068 19.7339 31.8154 18.1079V50.5818C33.7666 50.5818 41.9896 45.1462 41.9896 33.2995Z" fill="#C83D3D"/>
<path d="M20.2476 50.721V14.3447C26.287 14.3447 38.366 18.5259 38.366 32.3238C38.366 46.7071 26.287 50.5817 20.2476 50.721Z" fill="#FF6E40"/>
<path d="M27.4949 33.7177C27.4949 27.3623 22.6169 24.4262 20.2476 23.8223V44.3101C21.0838 44.3101 27.4949 40.9651 27.4949 33.7177Z" fill="#C6532F"/>
<path d="M24.1498 32.0452C24.1498 24.6584 17.1812 21.3135 13 21.3135V43.195C17.5993 43.195 24.1498 39.8501 24.1498 32.0452Z" fill="#FF9675"/>
</svg>
