<svg width="14" height="15" viewBox="0 0 14 15" fill="none" xmlns="http://www.w3.org/2000/svg">
<path fill-rule="evenodd" clip-rule="evenodd" d="M6.48828 13.0056V14.8609C8.92501 14.8128 13.7985 13.0333 13.7985 7.35829C13.7985 1.87564 8.92501 0 6.48828 0V1.7998C7.65855 2.36089 9.9991 4.19486 9.9991 7.04198C9.9991 11.1299 7.16159 13.0056 6.48828 13.0056Z" fill="#777679"/>
<path fill-rule="evenodd" clip-rule="evenodd" d="M2.50488 11.0292V13.7521C4.58893 13.704 8.75702 12.367 8.75702 7.40375C8.75702 2.64251 4.58893 1.19971 2.50488 1.19971V3.95947C3.32247 4.16788 5.00574 5.18104 5.00574 7.3741C5.00574 9.87496 2.79344 11.0292 2.50488 11.0292Z" fill="#777679"/>
<path d="M3.84747 7.28669C3.84747 4.73774 1.4428 3.5835 0 3.5835V11.1342C1.58708 11.1342 3.84747 9.97992 3.84747 7.28669Z" fill="#777679"/>
</svg>
