<svg width="16" height="15" viewBox="0 0 16 15" fill="none" xmlns="http://www.w3.org/2000/svg">
<path d="M6.93213 4.83789V10.213H14.9949V4.83789H6.93213ZM10.211 8.60071C9.61971 8.60071 9.13603 8.11692 9.13603 7.52569C9.13603 6.93435 9.61982 6.45067 10.211 6.45067C10.8024 6.45067 11.2861 6.93446 11.2861 7.52569C11.2861 8.11692 10.8023 8.60071 10.211 8.60071Z" fill="black"/>
<path d="M15.0507 3.49426H6.34289C5.91285 3.49426 5.59036 3.81675 5.59036 4.24679V10.7507C5.59036 11.1808 5.91285 11.5032 6.34289 11.5032L15.0507 11.5031V13.4382C15.0507 14.2982 14.352 14.997 13.4919 14.997L1.55881 14.9971C0.698881 15.0507 0 14.352 0 13.4919V1.55881C0 0.698881 0.698881 0 1.55881 0H13.4919C14.352 0 15.0507 0.698881 15.0507 1.55881V3.49426Z" fill="black"/>
<path d="M6.93213 4.83789V10.213H14.9949V4.83789H6.93213ZM10.211 8.60071C9.61971 8.60071 9.13603 8.11692 9.13603 7.52569C9.13603 6.93435 9.61982 6.45067 10.211 6.45067C10.8024 6.45067 11.2861 6.93446 11.2861 7.52569C11.2861 8.11692 10.8023 8.60071 10.211 8.60071Z" fill="black"/>
</svg>
