<svg width="15" height="14" viewBox="0 0 15 14" fill="none" xmlns="http://www.w3.org/2000/svg">
<path d="M1.73088 13.2857H7.50003C7.69708 13.2869 7.89274 13.2517 8.07702 13.1818C8.41371 13.0629 8.70531 12.8426 8.91181 12.5512C9.11845 12.2601 9.22992 11.912 9.23083 11.5549V9.24724C9.22916 8.36143 8.97257 7.49483 8.49183 6.75094C8.01093 6.00706 7.3263 5.41713 6.51934 5.05182C7.11018 4.53256 7.46348 3.7946 7.49744 3.0087C7.53124 2.22295 7.24267 1.45728 6.69859 0.889288C6.1545 0.321145 5.40208 0 4.6154 0C3.82887 0 3.07633 0.321157 2.5322 0.889288C1.98811 1.45728 1.69956 2.22295 1.73336 3.0087C1.76731 3.7946 2.1206 4.53256 2.71161 5.05182C1.905 5.41759 1.22065 6.00753 0.739904 6.75141C0.259161 7.49529 0.00226104 8.36162 0 9.24724V11.555V11.5549C0.0013705 12.0135 0.184107 12.453 0.50846 12.7772C0.832661 13.1015 1.27214 13.2843 1.73078 13.2857L1.73088 13.2857Z" fill="#777679"/>
<path d="M12.7535 6.21138C13.2883 5.70307 13.582 4.99163 13.5616 4.25414C13.541 3.51665 13.2083 2.82255 12.6461 2.34485C12.0839 1.86715 11.3452 1.6506 10.6141 1.74957C9.88286 1.84841 9.22822 2.25316 8.81297 2.86302C8.39787 3.47291 8.26127 4.23032 8.43729 4.9468C8.61332 5.66327 9.08555 6.27118 9.73606 6.61911C10.1586 7.43074 10.3801 8.33207 10.3817 9.24713V11.5549V11.5548C10.3841 12.1794 10.1815 12.7874 9.80471 13.2855H13.2663C13.725 13.2842 14.1643 13.1014 14.4886 12.7771C14.8128 12.4529 14.9957 12.0134 14.9971 11.5548V9.82397C14.9962 9.07276 14.7856 8.33668 14.3894 7.69832C13.993 7.06013 13.4263 6.54512 12.7534 6.2113L12.7535 6.21138Z" fill="#777679"/>
</svg>
