<svg width="46" height="21" viewBox="0 0 46 21" fill="none" xmlns="http://www.w3.org/2000/svg">
<path d="M10.5 4.5897e-07C4.70101 7.12451e-07 -7.12451e-07 4.70101 -4.5897e-07 10.5C-2.05488e-07 16.299 4.70101 21 10.5 21C16.299 21 21 16.299 21 10.5C21 4.70101 16.299 2.05488e-07 10.5 4.5897e-07Z" fill="#2B2728"/>
<path fill-rule="evenodd" clip-rule="evenodd" d="M5 10.5C5 7.46243 7.46243 5 10.5 5C13.5376 5 16 7.46243 16 10.5C16 13.5376 13.5376 16 10.5 16C7.46243 16 5 13.5376 5 10.5ZM-4.5897e-07 10.5C-7.12451e-07 4.70101 4.70101 7.12451e-07 10.5 4.5897e-07C16.299 2.05488e-07 21 4.70101 21 10.5C21 16.299 16.299 21 10.5 21C4.70101 21 -2.05488e-07 16.299 -4.5897e-07 10.5Z" fill="#FF4848"/>
<path fill-rule="evenodd" clip-rule="evenodd" d="M40 11C40 9.89543 40.8954 9 42 9C43.1046 9 44 9.89543 44 11C44 12.1046 43.1046 13 42 13C40.8954 13 40 12.1046 40 11ZM38 11C38 8.79086 39.7909 7 42 7C44.2091 7 46 8.79086 46 11C46 13.2091 44.2091 15 42 15C39.7909 15 38 13.2091 38 11Z" fill="#FF4848"/>
<path d="M40 12L40 10L21 10L21 12L40 12Z" fill="#FF4848"/>
</svg>
