<svg width="40" height="35" viewBox="0 0 40 35" fill="none" xmlns="http://www.w3.org/2000/svg">
<path d="M38.1647 0H1.83502C0.73422 0 0 0.73371 0 1.83502V29.3572C0 30.458 0.733712 31.1922 1.83502 31.1922H4.40375V33.0273C4.40375 34.1281 5.13746 34.8623 6.23877 34.8623C7.33958 34.8623 8.07379 34.1286 8.07379 33.0273V31.1922H31.9262V33.0273C31.9262 34.1281 32.6599 34.8623 33.7612 34.8623C34.862 34.8623 35.5962 34.1286 35.5962 33.0273V31.1922H38.165C39.2658 31.1922 40 30.4585 40 29.3572V1.83502C39.9995 0.734218 39.0818 0 38.1645 0H38.1647ZM36.3297 27.5222H3.66979V3.66979H36.3297V27.5222Z" fill="white"/>
<path d="M11.0084 17.4303H12.6598C13.577 20.7333 16.5128 23.1184 19.9992 23.1184C24.2194 23.1184 27.5218 19.6325 27.5218 15.5958C27.5218 11.5592 24.0359 8.07324 19.9992 8.07324C16.5133 8.07324 13.394 10.4584 12.6598 13.7613H11.0084C9.90756 13.7613 9.17334 14.495 9.17334 15.5963C9.17334 16.6966 9.90754 17.4303 11.0084 17.4303ZM19.9989 11.7428C22.2005 11.7428 23.8519 13.5778 23.8519 15.5958C23.8519 17.7974 22.0169 19.4489 19.9989 19.4489C18.5309 19.4489 17.2466 18.5316 16.5129 17.4303H19.9989C21.0997 17.4303 21.8339 16.6966 21.8339 15.5953C21.8339 14.4945 21.1002 13.7603 19.9989 13.7603H16.5129C17.2466 12.4765 18.5309 11.7428 19.9989 11.7428Z" fill="white"/>
</svg>
