<svg width="40" height="41" viewBox="0 0 40 41" fill="none" xmlns="http://www.w3.org/2000/svg">
<path d="M19.9809 0C19.2443 0.010206 18.6558 0.616233 18.6671 1.35287V4.02086C18.6671 6.21377 20.4753 8.0209 22.6686 8.0209H25.3352C26.0968 8.0209 26.6697 8.59385 26.6697 9.35539C26.6697 10.1173 26.0968 10.6889 25.3352 10.6889C19.9858 10.6875 14.6733 10.6889 9.3307 10.6889C7.13779 10.6889 5.33454 12.4922 5.33454 14.6851C5.33454 16.878 7.13788 18.6865 9.3307 18.6865H17.3333C18.0949 18.6865 18.6668 19.2581 18.6668 20.02V21.3535L9.33296 21.3532C4.19402 21.3532 0 25.5479 0 30.6871C0 35.826 4.19474 40.0209 9.33386 40.0209C14.0164 40.0209 17.8763 36.5269 18.5317 32.0207H21.4692C22.1245 36.5266 25.9845 40.0205 30.667 40.0205C35.806 40.0205 40 35.8262 40 30.6876C40 25.5487 35.8056 21.3537 30.667 21.3537H21.335V20.0202C21.335 17.8273 19.5264 16.0191 17.3335 16.0191H9.33089C8.5693 16.0191 8.0027 15.4476 8.0027 14.6856C8.0027 13.9237 8.56897 13.3521 9.33089 13.3521C14.6701 13.3528 19.9918 13.3521 25.3354 13.3521C27.5283 13.3521 29.3316 11.5488 29.3316 9.35594C29.3316 7.16302 27.5282 5.35445 25.3354 5.35445H22.6688C21.9072 5.35445 21.3353 4.78291 21.3353 4.02096V1.35333C21.3465 0.601241 20.7331 -0.0108027 19.981 0.000459164L19.9809 0ZM9.33341 24.0203H30.667C34.3648 24.0203 37.3337 26.9892 37.3337 30.687C37.3337 34.3847 34.3648 37.3536 30.667 37.3536C26.9693 37.3536 24.0004 34.3847 24.0004 30.687C24.0004 29.9507 23.4035 29.3538 22.6669 29.3535H17.3333C16.5971 29.3535 16.0002 29.9503 15.9998 30.687C15.9998 34.3847 13.0309 37.3536 9.33314 37.3536C5.63536 37.3536 2.66646 34.3847 2.66646 30.687C2.66646 26.9892 5.63536 24.0203 9.33314 24.0203H9.33341Z" fill="white"/>
<path d="M29.3307 30.6862C29.3307 31.0399 29.1903 31.3791 28.94 31.629C28.6902 31.8792 28.3509 32.0196 27.9972 32.0196C27.6435 32.0196 27.3046 31.8792 27.0544 31.629C26.8045 31.3791 26.6641 31.0399 26.6641 30.6862C26.6641 30.3328 26.8045 29.9935 27.0544 29.7437C27.3046 29.4934 27.6435 29.353 27.9972 29.353C28.3509 29.353 28.6902 29.4934 28.94 29.7437C29.1903 29.9935 29.3307 30.3328 29.3307 30.6862Z" fill="white"/>
<path d="M31.9982 33.3542C31.9982 33.7079 31.8577 34.0469 31.6075 34.2971C31.3576 34.547 31.0184 34.6877 30.665 34.6877C30.3113 34.6877 29.9721 34.547 29.7222 34.2971C29.472 34.0469 29.3315 33.7079 29.3315 33.3542C29.3315 33.0005 29.472 32.6613 29.7222 32.4114C29.9721 32.1612 30.3113 32.0208 30.665 32.0208C31.0184 32.0208 31.3576 32.1612 31.6075 32.4114C31.8577 32.6613 31.9982 33.0005 31.9982 33.3542Z" fill="white"/>
<path d="M31.9982 28.0205C31.9982 28.3742 31.8577 28.7135 31.6075 28.9633C31.3576 29.2136 31.0184 29.354 30.665 29.354C30.3113 29.354 29.9721 29.2136 29.7222 28.9633C29.472 28.7135 29.3315 28.3742 29.3315 28.0205C29.3315 27.6668 29.472 27.3279 29.7222 27.0777C29.9721 26.8278 30.3113 26.687 30.665 26.687C31.0184 26.687 31.3576 26.8278 31.6075 27.0777C31.8577 27.3279 31.9982 27.6668 31.9982 28.0205Z" fill="white"/>
<path d="M34.6652 30.6862C34.6652 31.0399 34.5247 31.3791 34.2749 31.629C34.0246 31.8792 33.6857 32.0196 33.332 32.0196C32.9783 32.0196 32.6391 31.8792 32.3892 31.629C32.139 31.3791 31.9985 31.0399 31.9985 30.6862C31.9985 30.3328 32.139 29.9935 32.3892 29.7437C32.639 29.4934 32.9783 29.353 33.332 29.353C33.6857 29.353 34.0246 29.4934 34.2749 29.7437C34.5247 29.9935 34.6652 30.3328 34.6652 30.6862Z" fill="white"/>
<path d="M5.33447 29.354H8.00111V32.0206H5.33447V29.354Z" fill="white"/>
<path d="M8.00146 32.0208H10.6681V34.6874H8.00146V32.0208Z" fill="white"/>
<path d="M8.00146 26.687H10.6681V29.3536H8.00146V26.687Z" fill="white"/>
<path d="M10.6685 29.354H13.3351V32.0206H10.6685V29.354Z" fill="white"/>
<path d="M17.3293 25.3547C16.8528 25.3547 16.4125 25.6088 16.1743 26.0213C15.936 26.4341 15.936 26.9427 16.1743 27.3552C16.4126 27.768 16.8528 28.0221 17.3293 28.0221H22.6639C23.1405 28.0221 23.5808 27.768 23.819 27.3552C24.0572 26.9427 24.0572 26.4341 23.819 26.0213C23.5807 25.6088 23.1404 25.3547 22.6639 25.3547H17.3293Z" fill="white"/>
</svg>
