<svg width="31" height="38" viewBox="0 0 31 38" fill="none" xmlns="http://www.w3.org/2000/svg">
<path d="M30.1649 7.74522L16.0491 0.191164C15.5803 -0.0637214 15.014 -0.0637214 14.5451 0.191164L0.814988 7.75303C0.568547 7.88908 0.362688 8.08844 0.219493 8.33066C0.0759745 8.57321 0.000324242 8.84953 6.56828e-08 9.13104V17.4449C-0.000324609 21.564 1.20303 25.5931 3.46187 29.0371C5.72071 32.4811 8.93687 35.1907 12.715 36.8317L14.6006 37.6506C14.9954 37.8191 15.4418 37.8191 15.8367 37.6506L18.0096 36.7412C21.8611 35.1392 25.1509 32.4305 27.463 28.9589C29.7755 25.4869 31.0065 21.4071 31 17.2353V9.13416C31 8.84843 30.9224 8.56854 30.7753 8.32372C30.6285 8.0789 30.4175 7.87856 30.1655 7.74446L30.1649 7.74522ZM27.8462 17.2477C27.8527 20.7976 26.8065 24.2702 24.8399 27.2257C22.8729 30.1811 20.074 32.4871 16.7965 33.8518L15.222 34.5012L13.9505 33.9502C10.738 32.5501 8.00438 30.2422 6.08543 27.3098C4.16647 24.3778 3.14598 20.9487 3.14856 17.4449V10.0639L15.316 3.37188L27.8458 10.0639L27.8462 17.2477Z" fill="white"/>
<path d="M9.24336 16.5324C8.84528 16.1343 8.26502 15.9791 7.72148 16.1246C7.17794 16.2704 6.75327 16.6951 6.60748 17.2386C6.46169 17.7824 6.61722 18.3624 7.01529 18.7605L12.3491 24.114C12.6403 24.4046 13.0335 24.5699 13.4446 24.5741C13.856 24.5787 14.2525 24.4218 14.5499 24.1377L23.9743 15.1472C24.2821 14.8599 24.4623 14.4615 24.4743 14.0404C24.4863 13.6196 24.3292 13.2111 24.0382 12.9069C23.747 12.6026 23.346 12.4276 22.9252 12.4211C22.504 12.4143 22.0978 12.5766 21.7972 12.8718L13.495 20.7999L9.24336 16.5324Z" fill="white"/>
</svg>
