<svg width="40" height="37" viewBox="0 0 40 37" fill="none" xmlns="http://www.w3.org/2000/svg">
<path fill-rule="evenodd" clip-rule="evenodd" d="M8.57155 25.6155V27.0384C8.57155 29.3965 10.4901 31.3076 12.8573 31.3076H21.4288V35.5769C21.4288 36.1234 21.7432 36.623 22.2387 36.8593C22.733 37.0967 23.3217 37.0298 23.7504 36.6884L30.5017 31.3076H35.7143C38.0815 31.3076 40 29.3965 40 27.0384V9.96155C40 8.82909 39.5486 7.74317 38.7443 6.94342C37.9416 6.14223 36.8515 5.69259 35.7142 5.69259H31.4288V4.26935C31.4288 3.1365 30.9771 2.05058 30.1727 1.25083C29.37 0.449639 28.2799 0 27.143 0H4.2858C3.14859 0 2.05887 0.44962 1.25604 1.25083C0.451757 2.05053 0 3.13641 0 4.26935V21.3462C0 23.704 1.91852 25.6154 4.28571 25.6154L8.57155 25.6155ZM37.1433 9.96091V27.0377C37.1433 27.8235 36.5034 28.461 35.7145 28.461H30.0005C29.6762 28.461 29.3617 28.5706 29.1076 28.7727L24.286 32.6149V29.8842C24.286 29.0984 23.6462 28.461 22.8577 28.461H12.8573C12.0688 28.461 11.4285 27.8236 11.4285 27.0377V9.96093C11.4285 9.5838 11.5786 9.22096 11.8474 8.95501C12.1144 8.68758 12.4787 8.53808 12.8572 8.53808H35.7144C36.093 8.53808 36.4576 8.68758 36.7246 8.95501C36.9931 9.22095 37.1431 9.5838 37.1431 9.96093L37.1433 9.96091ZM17.1434 22.7692H27.1438C27.9322 22.7692 28.5721 22.1318 28.5721 21.3464C28.5721 20.5606 27.9322 19.9231 27.1438 19.9231H17.1434C16.3549 19.9231 15.7146 20.5606 15.7146 21.3464C15.7146 22.1318 16.3549 22.7692 17.1434 22.7692ZM28.5715 5.69243V4.26918C28.5715 3.89206 28.4214 3.52922 28.1529 3.26288C27.886 2.99545 27.5217 2.84595 27.1431 2.84595H4.28595C3.90737 2.84595 3.54313 2.99545 3.27616 3.26288C3.0073 3.5292 2.85761 3.89205 2.85761 4.26918V21.346C2.85761 22.1314 3.4975 22.7689 4.28596 22.7689H8.57167V9.96053C8.57167 8.82807 9.02302 7.74215 9.82732 6.94239C10.6305 6.1412 11.7202 5.69156 12.8575 5.69156L28.5715 5.69243ZM17.1434 17.0766H31.4297C32.2181 17.0766 32.858 16.4388 32.858 15.6534C32.858 14.868 32.2182 14.2302 31.4297 14.2302H17.1434C16.3549 14.2302 15.7146 14.868 15.7146 15.6534C15.7146 16.4388 16.3549 17.0766 17.1434 17.0766Z" fill="white"/>
</svg>
