<svg width="40" height="40" viewBox="0 0 40 40" fill="none" xmlns="http://www.w3.org/2000/svg">
<path d="M37.8392 23.8134C36.4937 22.8277 34.7528 22.5587 33.1727 23.0933H33.0393L25.3329 26.6667C25.3329 25.6057 24.9113 24.5883 24.1613 23.8383C23.411 23.088 22.3936 22.6667 21.3329 22.6667H14.6664C14.5777 22.6604 14.4884 22.6604 14.3997 22.6667H14.173L9.33302 24.6931V23.9998C9.33302 23.2928 9.05218 22.6143 8.55209 22.1142C8.05201 21.6141 7.37387 21.3333 6.66646 21.3333H2.66655C1.95918 21.3333 1.28102 21.6141 0.780919 22.1142C0.280835 22.6143 0 23.2928 0 23.9998V37.3334C0 38.0405 0.280835 38.719 0.780919 39.2191C1.281 39.7192 1.95915 40 2.66655 40H6.66646C7.61351 39.9944 8.48624 39.4869 8.95958 38.6665H23.3329C23.5215 38.6658 23.7077 38.625 23.8794 38.5465L36.6662 32.8665V32.8668C37.6474 32.4854 38.4906 31.8171 39.0854 30.9485C39.6801 30.0803 39.9986 29.0527 39.9996 28.0001C40.0024 26.3365 39.1973 24.7754 37.8395 23.8136L37.8392 23.8134ZM2.66628 37.3335V23.9998H6.66619V37.3335H2.66628ZM35.6526 30.4003L23.0523 36H9.3322V27.5736L14.919 25.3337H21.3321C21.8086 25.3337 22.2485 25.5877 22.4867 26.0002C22.725 26.4126 22.725 26.9212 22.4867 27.3337C22.2485 27.7461 21.8086 28.0002 21.3321 28.0002H17.3322C16.8561 28.0002 16.4158 28.2543 16.1776 28.6671C15.9393 29.0795 15.9393 29.5877 16.1776 30.0002C16.4158 30.4126 16.8561 30.6671 17.3322 30.6671H22.6656C22.8532 30.6702 23.0393 30.634 23.2121 30.5601L34.0655 25.6135V25.6138C34.8264 25.3833 35.6513 25.5237 36.2935 25.9928C36.9354 26.462 37.3201 27.2052 37.332 28.0002C37.3292 28.5239 37.167 29.0338 36.8668 29.4627C36.5666 29.8914 36.1428 30.2187 35.652 30.4002L35.6526 30.4003Z" fill="white"/>
<path d="M19.999 18.6664C22.4745 18.6664 24.8485 17.6831 26.5986 15.9326C28.3491 14.1821 29.3324 11.8085 29.3324 9.33301C29.3324 6.85755 28.3491 4.48389 26.5986 2.7334C24.8485 0.983268 22.4745 0 19.999 0C17.5239 0 15.1499 0.983268 13.3998 2.7334C11.6493 4.48389 10.666 6.85755 10.666 9.33301C10.666 11.8085 11.6493 14.1821 13.3998 15.9326C15.1499 17.6831 17.5239 18.6664 19.999 18.6664ZM19.999 2.66691C21.7671 2.66691 23.463 3.36935 24.713 4.61939C25.9634 5.86978 26.6659 7.56531 26.6659 9.33337C26.6659 11.1014 25.9634 12.7973 24.713 14.0474C23.463 15.2977 21.7671 15.9998 19.999 15.9998C18.231 15.9998 16.5354 15.2977 15.285 14.0474C14.035 12.7973 13.3326 11.1014 13.3326 9.33337C13.3326 7.56531 14.035 5.86978 15.285 4.61939C16.5354 3.36936 18.231 2.66691 19.999 2.66691Z" fill="white"/>
<path d="M21.999 9.3339L19.999 5.33398L19.8125 5.70737L17.999 9.33394L19.999 13.3339L21.999 9.3339Z" fill="white"/>
</svg>
