<svg width="36" height="27" viewBox="0 0 36 27" fill="none" xmlns="http://www.w3.org/2000/svg">
<path d="M30.4755 2.23822C28.1415 1.18404 25.6784 0.432308 23.1478 0.00185527C23.1248 -0.00236452 23.1011 0.000656172 23.0799 0.0104872C23.0588 0.0203183 23.0414 0.036459 23.0301 0.0566131C22.7136 0.610537 22.363 1.33302 22.1176 1.90081C19.3506 1.49316 16.5976 1.49316 13.8874 1.90081C13.642 1.32032 13.2787 0.610537 12.9609 0.0566131C12.9491 0.0369183 12.9316 0.0211725 12.9106 0.0114307C12.8896 0.00168886 12.8661 -0.0015964 12.8431 0.00200306C10.3123 0.431455 7.84904 1.18312 5.51535 2.23807C5.49538 2.24646 5.47856 2.26075 5.4672 2.27895C0.800105 9.13976 -0.478493 15.8319 0.148806 22.441C0.150579 22.4572 0.155636 22.4729 0.163674 22.4871C0.171713 22.5013 0.182571 22.5138 0.195606 22.5238C3.2748 24.749 6.25755 26.0998 9.18494 26.9951C9.20771 27.0018 9.232 27.0014 9.25457 26.9942C9.27715 26.9869 9.29692 26.973 9.31124 26.9543C10.0036 26.0239 10.6209 25.0427 11.1502 24.011C11.1575 23.9969 11.1617 23.9814 11.1624 23.9656C11.1632 23.9497 11.1605 23.9339 11.1546 23.9192C11.1487 23.9045 11.1397 23.8911 11.1282 23.8801C11.1167 23.869 11.103 23.8604 11.0878 23.855C10.1086 23.4895 9.17639 23.044 8.27954 22.538C8.26319 22.5285 8.24945 22.5153 8.23954 22.4994C8.22964 22.4834 8.22387 22.4654 8.22274 22.4468C8.22161 22.4281 8.22516 22.4095 8.23308 22.3925C8.241 22.3756 8.25305 22.3608 8.26814 22.3495C8.45684 22.2103 8.64569 22.0657 8.82584 21.9194C8.84186 21.9064 8.86124 21.8981 8.8818 21.8954C8.90237 21.8926 8.9233 21.8956 8.94224 21.9039C14.8339 24.5508 21.2122 24.5508 27.0343 21.9039C27.0533 21.8951 27.0744 21.8917 27.0953 21.8941C27.1161 21.8966 27.1358 21.9049 27.1521 21.9179C27.3324 22.0641 27.5211 22.2103 27.7113 22.3495C27.7264 22.3607 27.7385 22.3754 27.7465 22.3922C27.7546 22.4091 27.7583 22.4277 27.7573 22.4463C27.7563 22.4649 27.7507 22.483 27.7409 22.4989C27.7312 22.5149 27.7176 22.5283 27.7014 22.5378C26.8042 23.0535 25.8644 23.4936 24.8919 23.8535C24.8768 23.8592 24.8631 23.868 24.8516 23.8792C24.8402 23.8905 24.8313 23.904 24.8256 23.9188C24.8198 23.9337 24.8173 23.9496 24.8182 23.9655C24.8191 23.9813 24.8234 23.9969 24.8308 24.011C25.3714 25.0412 25.9887 26.0224 26.6683 26.9529C26.6822 26.9721 26.7019 26.9865 26.7245 26.994C26.7472 27.0016 26.7717 27.002 26.7946 26.9951C29.7361 26.0996 32.7189 24.7488 35.7981 22.5238C35.8113 22.5143 35.8224 22.5021 35.8305 22.4881C35.8386 22.474 35.8435 22.4584 35.845 22.4424C36.5956 14.8014 34.5877 8.16416 30.5223 2.28028C30.5123 2.26116 30.4957 2.24619 30.4755 2.23807V2.23822ZM12.03 18.4167C10.2562 18.4167 8.79464 16.8143 8.79464 14.8464C8.79464 12.8786 10.2279 11.2762 12.0301 11.2762C13.8463 11.2762 15.2937 12.8927 15.2653 14.8465C15.2653 16.8143 13.8321 18.4167 12.03 18.4167ZM23.9922 18.4167C22.2184 18.4167 20.7568 16.8143 20.7568 14.8464C20.7568 12.8786 22.1899 11.2762 23.9922 11.2762C25.8084 11.2762 27.2557 12.8927 27.2274 14.8465C27.2274 16.8143 25.8084 18.4167 23.9922 18.4167Z" fill="#8F8D9D"/>
</svg>
