<svg width="37" height="36" viewBox="0 0 37 36" fill="none" xmlns="http://www.w3.org/2000/svg">
<path d="M7.49498 17.1109C7.49502 16.9096 7.53482 16.7103 7.6121 16.5244C7.68938 16.3385 7.80261 16.1697 7.9453 16.0277C8.088 15.8857 8.25733 15.7733 8.44359 15.6969C8.62984 15.6205 8.82935 15.5817 9.03066 15.5826L11.5766 15.5909C11.9826 15.5909 12.3719 15.7522 12.659 16.0393C12.946 16.3263 13.1073 16.7156 13.1073 17.1216V26.7493C13.394 26.6643 13.761 26.5737 14.1648 26.4786C14.4446 26.4127 14.694 26.2543 14.8724 26.0291C15.0509 25.8038 15.1481 25.5248 15.1481 25.2374V13.2957C15.1481 12.8898 15.3094 12.5004 15.5964 12.2133C15.8834 11.9262 16.2728 11.7649 16.6787 11.7648H19.2325C19.6384 11.7649 20.0278 11.9262 20.3148 12.2133C20.6018 12.5004 20.7631 12.8898 20.7631 13.2957V24.3795C20.7631 24.3795 21.402 24.121 22.0239 23.8583C22.255 23.7605 22.4522 23.5969 22.5909 23.3878C22.7296 23.1787 22.8037 22.9334 22.8039 22.6825V9.46904C22.8039 9.06314 22.9651 8.67386 23.2521 8.38682C23.5391 8.09978 23.9284 7.93849 24.3342 7.93841H26.8853C27.291 7.9388 27.6799 8.10024 27.9666 8.38725C28.2534 8.67425 28.4144 9.06335 28.4144 9.46904V20.3498C30.6261 18.747 32.8675 16.8191 34.6463 14.501C34.9044 14.1645 35.0751 13.7694 35.1434 13.3509C35.2116 12.9323 35.1752 12.5034 35.0373 12.1024C34.214 9.73354 32.9051 7.56266 31.1946 5.72866C29.4841 3.89466 27.4095 2.43794 25.1037 1.45171C22.7979 0.465484 20.3116 -0.0285346 17.8039 0.00127284C15.2962 0.0310803 12.8224 0.584056 10.5406 1.62481C8.25892 2.66557 6.21959 4.17119 4.55314 6.04533C2.8867 7.91947 1.62984 10.1208 0.862996 12.5086C0.0961517 14.8964 -0.16379 17.4179 0.0998043 19.9119C0.363398 22.4059 1.14472 24.8174 2.39378 26.992C2.61139 27.3672 2.93156 27.6725 3.31665 27.872C3.70174 28.0714 4.13577 28.1569 4.56774 28.1183C5.05031 28.0758 5.65115 28.0157 6.36551 27.9319C6.67641 27.8966 6.96344 27.7481 7.17194 27.5148C7.38044 27.2814 7.49584 26.9796 7.49617 26.6667V17.1109" fill="#8F8D9D"/>
<path d="M7.44141 32.5516C10.1304 34.5078 13.3081 35.682 16.623 35.9443C19.9379 36.2065 23.2608 35.5467 26.2239 34.0377C29.1871 32.5287 31.675 30.2294 33.4125 27.3941C35.15 24.5589 36.0693 21.2983 36.0687 17.973C36.0687 17.557 36.0493 17.1475 36.0217 16.7393C29.4359 26.5616 17.2759 31.1535 7.44141 32.5516Z" fill="#8F8D9D"/>
</svg>
